<svg xmlns="http://www.w3.org/2000/svg" xmlns:xlink="http://www.w3.org/1999/xlink" width="400" zoomAndPan="magnify"
    viewBox="0 0 300 299.999988" height="400" preserveAspectRatio="xMidYMid meet" version="1.0">
    <defs>
        <clipPath id="d6ef99eb23">
            <path
                d="M 3.203125 3.203125 L 296.453125 3.203125 L 296.453125 296.453125 L 3.203125 296.453125 Z M 3.203125 3.203125 "
                clip-rule="nonzero" />
        </clipPath>
    </defs>
    <g clip-path="url(#d6ef99eb23)">
        <path fill="#39b54a"
            d="M 296.453125 149.859375 C 296.453125 142.132812 293.59375 134.34375 287.8125 128.382812 C 282.214844 122.539062 279.171875 114.8125 279.171875 106.90625 C 279.171875 104.410156 279.476562 101.976562 280.023438 99.480469 C 280.632812 96.988281 280.9375 94.492188 280.9375 92.058594 C 280.9375 78.554688 272.054688 66.203125 258.546875 62.246094 C 253.4375 60.789062 248.875 58.050781 245.226562 54.398438 C 241.574219 50.75 238.835938 46.246094 237.375 41.136719 C 233.421875 27.628906 221.070312 18.746094 207.566406 18.746094 C 205.132812 18.746094 202.636719 19.050781 200.140625 19.660156 C 189.800781 22.214844 178.910156 19.292969 171.242188 11.933594 C 165.339844 6.09375 157.613281 3.234375 149.828125 3.234375 C 142.101562 3.234375 134.3125 6.09375 128.351562 11.871094 C 122.511719 17.46875 114.785156 20.511719 106.875 20.511719 C 104.441406 20.511719 101.945312 20.207031 99.511719 19.660156 C 97.019531 19.050781 94.523438 18.746094 92.089844 18.746094 C 78.582031 18.746094 66.234375 27.628906 62.277344 41.136719 C 60.816406 46.246094 58.082031 50.808594 54.429688 54.398438 C 50.78125 58.050781 46.277344 60.789062 41.105469 62.246094 C 27.597656 66.203125 18.714844 78.554688 18.714844 92.058594 C 18.714844 94.492188 19.019531 96.988281 19.628906 99.480469 C 20.238281 101.914062 20.480469 104.410156 20.480469 106.90625 C 20.480469 114.8125 17.5 122.539062 11.839844 128.382812 C 6.0625 134.34375 3.203125 142.132812 3.203125 149.859375 C 3.203125 157.585938 6.0625 165.371094 11.839844 171.335938 C 19.203125 179 22.125 189.890625 19.566406 200.234375 C 18.960938 202.726562 18.65625 205.222656 18.65625 207.65625 C 18.65625 221.164062 27.539062 233.511719 41.042969 237.40625 C 46.15625 238.867188 50.71875 241.605469 54.367188 245.253906 C 58.019531 248.90625 60.757812 253.46875 62.21875 258.578125 C 66.171875 272.085938 78.523438 280.96875 92.027344 280.96875 C 94.460938 280.96875 96.957031 280.664062 99.453125 280.054688 C 101.886719 279.449219 104.378906 279.144531 106.875 279.144531 C 114.785156 279.144531 122.511719 282.183594 128.351562 287.78125 C 134.375 293.5625 142.101562 296.421875 149.828125 296.421875 C 157.554688 296.421875 165.339844 293.5625 171.304688 287.78125 C 177.144531 282.183594 184.871094 279.144531 192.78125 279.144531 C 195.214844 279.144531 197.707031 279.449219 200.203125 280.054688 C 202.699219 280.664062 205.132812 280.96875 207.625 280.96875 C 221.132812 280.96875 233.484375 272.085938 237.4375 258.578125 C 238.898438 253.46875 241.636719 248.90625 245.285156 245.253906 C 248.9375 241.605469 253.4375 238.867188 258.609375 237.40625 C 274.550781 232.78125 284.039062 216.355469 280.085938 200.234375 C 279.476562 197.800781 279.234375 195.304688 279.234375 192.871094 C 279.234375 184.960938 282.214844 177.234375 287.875 171.394531 C 293.59375 165.3125 296.453125 157.585938 296.453125 149.859375 Z M 296.453125 149.859375 "
            fill-opacity="1" fill-rule="nonzero" />
    </g>
    <path fill="#ffffff"
        d="M 113.503906 197.128906 C 112.410156 197.128906 111.375 197.007812 110.34375 196.644531 C 107.117188 195.671875 104.441406 193.359375 103.101562 190.253906 L 82.050781 141.582031 C 79.558594 135.863281 82.234375 129.171875 87.953125 126.675781 C 93.671875 124.183594 100.363281 126.859375 102.859375 132.578125 L 118.496094 168.777344 L 206.710938 109.339844 C 211.882812 105.871094 218.941406 107.207031 222.46875 112.378906 C 225.9375 117.550781 224.601562 124.609375 219.429688 128.136719 L 119.832031 195.183594 C 117.945312 196.460938 115.757812 197.128906 113.503906 197.128906 Z M 169.355469 269.410156 C 175.5 263.566406 184.082031 261.074219 192.71875 263.140625 C 194.972656 263.691406 197.222656 263.933594 199.410156 263.933594 C 211.882812 263.933594 223.019531 255.597656 226.484375 243.613281 C 227.640625 239.535156 229.832031 235.824219 232.875 232.84375 C 235.855469 229.863281 239.566406 227.671875 243.644531 226.457031 C 258.121094 222.257812 266.703125 207.535156 263.171875 192.871094 L 263.113281 192.6875 C 262.625 190.742188 262.382812 188.734375 262.382812 186.726562 C 262.382812 180.21875 264.875 174.011719 269.378906 169.328125 C 274.429688 164.035156 277.226562 157.097656 277.226562 149.796875 C 277.226562 142.496094 274.429688 135.558594 269.378906 130.328125 C 264.875 125.644531 262.382812 119.4375 262.382812 112.925781 C 262.382812 110.917969 262.625 108.851562 263.113281 106.90625 C 263.660156 104.714844 263.964844 102.464844 263.964844 100.152344 C 263.964844 87.738281 255.628906 76.605469 243.644531 73.136719 C 239.628906 71.980469 235.855469 69.792969 232.875 66.75 C 229.894531 63.769531 227.703125 60.058594 226.484375 55.980469 C 223.019531 43.996094 211.882812 35.660156 199.472656 35.660156 C 197.160156 35.660156 194.910156 35.964844 192.71875 36.453125 C 190.773438 36.9375 188.765625 37.179688 186.757812 37.179688 C 180.246094 37.179688 174.042969 34.6875 169.355469 30.183594 C 164.125 25.136719 157.1875 22.335938 149.828125 22.335938 C 142.527344 22.335938 135.589844 25.136719 130.296875 30.183594 C 125.613281 34.6875 119.40625 37.179688 112.898438 37.179688 C 110.890625 37.179688 108.882812 36.9375 106.933594 36.453125 C 104.746094 35.902344 102.492188 35.601562 100.179688 35.601562 C 87.769531 35.601562 76.636719 43.933594 73.167969 55.921875 C 72.011719 59.996094 69.824219 63.707031 66.78125 66.6875 C 63.800781 69.671875 60.085938 71.859375 56.011719 73.078125 C 44.027344 76.546875 35.691406 87.679688 35.691406 100.089844 C 35.691406 102.402344 35.996094 104.652344 36.480469 106.84375 C 36.96875 108.789062 37.210938 110.796875 37.210938 112.867188 C 37.210938 119.375 34.71875 125.582031 30.214844 130.265625 C 25.164062 135.5 22.367188 142.433594 22.367188 149.734375 C 22.367188 157.035156 25.164062 163.972656 30.214844 169.265625 C 36.175781 175.472656 38.550781 184.230469 36.480469 192.628906 L 36.421875 192.8125 C 35.875 194.941406 35.628906 197.128906 35.628906 199.382812 C 35.628906 211.855469 43.964844 222.925781 55.949219 226.394531 C 59.964844 227.550781 63.738281 229.742188 66.71875 232.78125 C 69.699219 235.765625 71.890625 239.476562 73.109375 243.550781 C 76.574219 255.539062 87.710938 263.871094 100.179688 263.871094 C 102.371094 263.871094 104.621094 263.566406 106.875 263.082031 C 115.511719 261.011719 124.152344 263.445312 130.238281 269.347656 C 135.53125 274.398438 142.464844 277.195312 149.765625 277.195312 C 157.128906 277.257812 164.0625 274.457031 169.355469 269.410156 Z M 106.265625 260.222656 C 104.257812 260.707031 102.1875 260.953125 100.242188 260.953125 C 89.109375 260.953125 79.191406 253.46875 76.089844 242.820312 C 74.75 238.257812 72.316406 234.121094 68.96875 230.773438 C 65.625 227.429688 61.425781 224.933594 56.925781 223.65625 C 46.277344 220.554688 38.792969 210.636719 38.792969 199.5625 C 38.792969 197.496094 39.039062 195.488281 39.523438 193.539062 L 39.585938 193.359375 C 41.835938 183.988281 39.160156 174.253906 32.527344 167.320312 C 28.023438 162.632812 25.53125 156.429688 25.53125 149.917969 C 25.53125 143.410156 28.023438 137.203125 32.527344 132.519531 C 37.578125 127.285156 40.375 120.351562 40.375 112.988281 C 40.375 110.738281 40.132812 108.425781 39.585938 106.234375 C 39.097656 104.289062 38.855469 102.28125 38.855469 100.210938 C 38.855469 89.140625 46.277344 79.222656 56.984375 76.121094 C 61.546875 74.839844 65.683594 72.347656 69.03125 69 C 72.378906 65.65625 74.871094 61.519531 76.148438 56.953125 C 79.253906 46.308594 89.167969 38.824219 100.242188 38.824219 C 102.3125 38.824219 104.320312 39.066406 106.265625 39.554688 C 108.457031 40.101562 110.707031 40.34375 112.957031 40.34375 C 120.257812 40.34375 127.195312 37.546875 132.488281 32.496094 C 137.171875 27.996094 143.378906 25.5 149.886719 25.5 C 156.398438 25.5 162.605469 27.996094 167.289062 32.496094 C 172.519531 37.546875 179.457031 40.34375 186.757812 40.34375 C 189.007812 40.34375 191.257812 40.101562 193.511719 39.554688 C 195.457031 39.066406 197.464844 38.824219 199.535156 38.824219 C 210.605469 38.824219 220.523438 46.308594 223.625 56.953125 C 224.964844 61.519531 227.398438 65.65625 230.746094 69 C 234.089844 72.347656 238.289062 74.839844 242.792969 76.121094 C 253.4375 79.222656 260.921875 89.140625 260.921875 100.210938 C 260.921875 102.28125 260.679688 104.289062 260.191406 106.234375 C 259.644531 108.425781 259.402344 110.675781 259.402344 112.925781 C 259.402344 120.226562 262.199219 127.164062 267.25 132.457031 C 271.75 137.140625 274.246094 143.285156 274.246094 149.859375 C 274.246094 156.367188 271.75 162.574219 267.25 167.257812 C 262.199219 172.492188 259.402344 179.425781 259.402344 186.789062 C 259.402344 188.976562 259.644531 191.167969 260.128906 193.296875 L 260.191406 193.480469 C 263.414062 206.621094 255.8125 219.824219 242.792969 223.597656 C 238.226562 224.875 234.089844 227.367188 230.746094 230.714844 C 227.398438 234.0625 224.902344 238.257812 223.625 242.761719 C 220.523438 253.40625 210.605469 260.890625 199.472656 260.890625 C 197.527344 260.890625 195.519531 260.648438 193.449219 260.160156 C 191.199219 259.613281 188.949219 259.371094 186.757812 259.371094 C 179.457031 259.371094 172.519531 262.167969 167.289062 267.21875 C 162.605469 271.71875 156.398438 274.214844 149.886719 274.214844 C 143.378906 274.214844 137.171875 271.71875 132.488281 267.21875 C 127.195312 262.167969 120.320312 259.371094 113.019531 259.371094 C 110.769531 259.371094 108.457031 259.675781 106.265625 260.222656 Z M 106.265625 260.222656 "
        fill-opacity="1" fill-rule="nonzero" />
</svg>