<svg width="400" height="400" viewBox="0 0 400 400" fill="none" xmlns="http://www.w3.org/2000/svg">
    <mask id="mask0_421_78" style="mask-type:luminance" maskUnits="userSpaceOnUse" x="5" y="6" width="389" height="388">
        <path d="M5.33337 6.6665H393.333V393.333H5.33337V6.6665Z" fill="white" />
    </mask>
    <g mask="url(#mask0_421_78)">
        <mask id="mask1_421_78" style="mask-type:luminance" maskUnits="userSpaceOnUse" x="-47" y="-47" width="494"
            height="494">
            <path d="M-46.8958 70.3122L329.307 -46.7764L446.396 329.422L70.198 446.51L-46.8958 70.3122Z" fill="white" />
        </mask>
        <g mask="url(#mask1_421_78)">
            <mask id="mask2_421_78" style="mask-type:luminance" maskUnits="userSpaceOnUse" x="-47" y="-47" width="494"
                height="494">
                <path d="M-46.8958 70.3122L329.307 -46.7764L446.396 329.422L70.198 446.51L-46.8958 70.3122Z"
                    fill="white" />
            </mask>
            <g mask="url(#mask2_421_78)">
                <path
                    d="M387.865 141.359C384.776 131.448 378 122.599 368.203 117.26C358.693 112 351.703 103.302 348.547 93.1559C347.552 89.958 346.969 86.7132 346.677 83.2966C346.458 79.8487 345.854 76.5309 344.88 73.4059C339.49 56.083 323.162 43.7809 304.255 44.1039C297.115 44.2705 290.172 42.5778 284.031 39.3539C277.891 36.1299 272.578 31.4476 268.667 25.4736C258.198 9.72365 238.807 3.26011 221.479 8.65594C218.359 9.62469 215.281 11.0153 212.323 12.7914C200.073 20.1976 184.938 20.8018 172.167 14.4164C162.261 9.28094 151.208 8.69761 141.219 11.807C131.307 14.8903 122.458 21.6716 117.115 31.4632C111.859 40.9789 103.162 47.9632 93.0157 51.1247C89.8907 52.0934 86.5678 52.7028 83.2293 52.9684C79.7866 53.1872 76.4636 53.7914 73.3438 54.7601C56.0157 60.1559 43.7188 76.4841 44.0366 95.3903C44.2084 102.526 42.5157 109.474 39.2657 115.536C36.0418 121.677 31.3595 126.989 25.3074 130.927C9.55739 141.39 3.09385 160.781 8.48968 178.109C9.45843 181.229 10.8438 184.312 12.6199 187.265C14.3751 190.146 15.6824 193.25 16.6772 196.448C19.8386 206.593 19.0991 217.698 14.172 227.448C9.13551 237.406 8.57822 248.536 11.6616 258.453C14.7501 268.364 21.5261 277.213 31.323 282.552C43.8282 289.448 51.922 302.255 52.7709 316.541C52.9897 319.984 53.5938 323.307 54.5678 326.427C59.9584 343.755 76.2866 356.052 95.1668 355.656C102.307 355.489 109.255 357.177 115.396 360.401C121.537 363.63 126.87 368.39 130.781 374.359C141.25 390.109 160.641 396.573 177.969 391.182C181.089 390.208 184.167 388.823 187.125 387.047C190.005 385.291 193.083 383.906 196.281 382.911C206.427 379.755 217.557 380.573 227.281 385.422C237.318 390.427 248.37 391.01 258.287 387.927C268.198 384.843 277.047 378.062 282.386 368.271C287.646 358.755 296.344 351.771 306.49 348.609C309.609 347.64 312.932 347.031 316.375 346.817C319.818 346.604 323.063 346.021 326.261 345.026C343.589 339.63 355.886 323.307 355.568 304.401C355.396 297.26 357.089 290.312 360.313 284.172C363.542 278.031 368.224 272.724 374.271 268.781C392.875 256.489 398.495 231.625 386.979 212.521C385.229 209.64 383.922 206.536 382.948 203.416C379.792 193.271 380.531 182.166 385.458 172.416C390.365 162.328 390.948 151.271 387.865 141.359Z"
                    fill="url(#paint0_linear_421_78)" />
            </g>
        </g>
    </g>
    <mask id="mask3_421_78" style="mask-type:luminance" maskUnits="userSpaceOnUse" x="30" y="30" width="338"
        height="338">
        <path d="M30.6666 30.6665H368V368H30.6666V30.6665Z" fill="white" />
    </mask>
    <g mask="url(#mask3_421_78)">
        <mask id="mask4_421_78" style="mask-type:luminance" maskUnits="userSpaceOnUse" x="-47" y="-47" width="494"
            height="494">
            <path d="M-46.8959 70.3122L329.307 -46.7764L446.396 329.422L70.1979 446.51L-46.8959 70.3122Z"
                fill="white" />
        </mask>
        <g mask="url(#mask4_421_78)">
            <mask id="mask5_421_78" style="mask-type:luminance" maskUnits="userSpaceOnUse" x="-47" y="-47" width="494"
                height="494">
                <path d="M-46.8959 70.3122L329.307 -46.7764L446.396 329.422L70.1979 446.51L-46.8959 70.3122Z"
                    fill="white" />
            </mask>
            <g mask="url(#mask5_421_78)">
                <path
                    d="M172.042 275.052C170.635 275.489 169.26 275.744 167.792 275.692C163.266 275.729 158.906 273.833 155.953 270.385L109.51 216.354C104.026 210.01 104.792 200.359 111.13 194.875C117.474 189.39 127.125 190.151 132.609 196.494L167.125 236.687L256.562 125.213C261.807 118.698 271.396 117.599 277.989 122.823C284.505 128.073 285.604 137.661 280.38 144.25L179.38 270.031C177.474 272.422 174.932 274.156 172.042 275.052ZM272.552 345.474C278.104 335.531 288.109 328.906 300.021 328.109C303.125 327.911 306.114 327.323 308.922 326.448C324.922 321.468 335.875 306.333 335.542 289.573C335.396 283.88 336.724 278.244 339.437 273.208C342.068 268.192 345.958 263.901 350.698 260.708C367.599 249.541 372.724 227.229 362.344 209.828L362.193 209.619C360.792 207.317 359.677 204.838 358.875 202.26C356.276 193.911 357 184.953 360.906 177.145C365.271 168.338 366.088 158.323 363.172 148.958C360.26 139.593 353.901 131.812 345.333 127.114C337.687 122.906 332.01 115.937 329.411 107.588C328.609 105.01 328.094 102.26 327.943 99.5673C327.771 96.5413 327.26 93.5309 326.338 90.5673C321.38 74.6455 306.245 63.6871 289.484 64.0257C283.87 64.1455 278.156 62.8434 273.114 60.1298C268.104 57.4944 263.812 53.609 260.62 48.8642C251.385 34.8746 233.776 28.6298 217.854 33.583C214.891 34.5048 212.12 35.7965 209.505 37.2965C207.203 38.6976 204.724 39.8121 202.151 40.6142C193.797 43.2132 184.838 42.4892 177.031 38.583C168.302 34.1976 158.292 33.3746 148.844 36.3121C139.479 39.2288 131.698 45.5882 126.927 54.1819C122.713 61.8278 115.75 67.5048 107.396 70.1038C104.823 70.9059 102.146 71.3955 99.4582 71.5465C96.427 71.7184 93.4166 72.2288 90.453 73.1507C74.5312 78.109 63.578 93.2444 63.9114 110.005C64.0572 115.698 62.7291 121.333 60.0155 126.369C57.3853 131.385 53.4947 135.677 48.7551 138.864C34.7603 148.099 28.5155 165.713 33.4686 181.635C34.3957 184.599 35.6822 187.364 37.1822 189.984C38.5832 192.286 39.6978 194.765 40.5207 197.416C43.1249 205.77 42.4009 214.724 38.4947 222.531C34.1041 231.26 33.2864 241.276 36.1978 250.64C39.1145 260.01 45.4739 267.791 54.0676 272.562C64.1926 278.145 70.7343 288.437 71.4322 300.031L71.427 300.291C71.578 303.239 72.1405 306.145 73.0364 309.036C78.0155 325.036 93.1301 335.911 109.891 335.578C115.505 335.453 121.219 336.76 126.26 339.468C131.271 342.104 135.562 345.989 138.755 350.734C147.989 364.724 165.599 370.974 181.599 365.994C184.406 365.119 187.177 363.828 189.87 362.307C200.125 356.203 212.182 355.875 222.344 361.015C231.146 365.38 241.161 366.203 250.531 363.286C260 360.427 267.776 354.067 272.552 345.474ZM187.948 358.88C185.562 360.307 183.01 361.448 180.51 362.224C166.229 366.666 150.516 361.026 142.286 348.609C138.745 343.291 133.974 338.953 128.344 335.994C122.713 333.041 116.333 331.515 110.047 331.677C95.1509 331.948 81.5884 322.213 77.1718 308.005C76.3437 305.354 75.8541 302.682 75.703 299.989L75.7082 299.729C74.8541 286.812 67.5312 275.39 56.2551 269.14C48.6093 264.932 42.9322 257.963 40.3332 249.614C37.7343 241.26 38.453 232.307 42.3593 224.5C46.7499 215.77 47.5676 205.755 44.6301 196.312C43.7291 193.422 42.4947 190.552 40.9166 187.963C39.5155 185.661 38.4009 183.182 37.578 180.526C33.1561 166.323 38.7186 150.635 51.2186 142.38C56.5624 138.922 60.8697 134.067 63.828 128.437C66.7864 122.807 68.3332 116.505 68.1509 110.14C67.8801 95.2444 77.6145 81.6871 91.8176 77.2653C94.4739 76.4371 97.1457 75.9476 99.8384 75.7965C102.864 75.6246 105.849 75.0361 108.739 74.1351C118.104 71.2236 125.885 64.8642 130.656 56.2705C134.87 48.6246 141.833 42.9476 150.187 40.3486C158.536 37.7496 167.495 38.4684 175.302 42.3746C184.031 46.7653 194.047 47.5882 203.411 44.6715C206.302 43.7705 209.088 42.5621 211.76 40.958C214.062 39.5569 216.542 38.4423 219.193 37.6194C233.401 33.1976 249.109 38.8382 257.344 51.2548C260.88 56.5778 265.656 60.9111 271.286 63.8694C276.911 66.8226 283.292 68.3486 289.578 68.1923C304.479 67.9215 318.036 77.6559 322.458 91.859C323.286 94.5101 323.776 97.1871 323.927 99.8746C324.099 102.906 324.687 105.89 325.583 108.776C328.5 118.145 334.859 125.927 343.453 130.698C351.099 134.911 356.75 141.797 359.375 150.229C361.974 158.578 361.25 167.536 357.344 175.343C352.958 184.073 352.135 194.088 355.078 203.531C355.948 206.338 357.135 209.052 358.609 211.588L358.76 211.802C368.146 227.369 363.661 247.343 348.463 257.38C343.12 260.843 338.812 265.698 335.854 271.323C332.896 276.953 331.375 283.333 331.531 289.619C331.802 304.515 322.068 318.078 307.786 322.526C305.286 323.302 302.614 323.791 299.766 323.989C296.661 324.187 293.677 324.776 290.865 325.651C281.5 328.562 273.719 334.922 269.026 343.489C264.812 351.135 257.849 356.817 249.495 359.416C241.146 362.015 232.187 361.291 224.38 357.385C215.573 353.02 205.635 352.177 196.271 355.093C193.38 355.989 190.536 357.302 187.948 358.88Z"
                    fill="white" />
            </g>
        </g>
    </g>
    <defs>
        <linearGradient id="paint0_linear_421_78" x1="206.5" y1="-11" x2="204" y2="412.5"
            gradientUnits="userSpaceOnUse">
            <stop offset="0.0604165" stop-color="#ae8841" />
            <stop offset="0.3" stop-color="#d9bb7f" />
            <stop offset="0.492708" stop-color="#f1ce89" />
            <stop offset="0.711458" stop-color="#d9bb7f" />
            <stop offset="0.919792" stop-color="#ae8841" />
        </linearGradient>
    </defs>
</svg>