<svg xmlns="http://www.w3.org/2000/svg" xmlns:xlink="http://www.w3.org/1999/xlink" width="1000" zoomAndPan="magnify"
    viewBox="0 0 750 449.999984" height="600" preserveAspectRatio="xMidYMid meet" version="1.0">
    <defs>
        <g />
        <clipPath id="aa9e34e317">
            <path d="M 349 138 L 400 138 L 400 198.847656 L 349 198.847656 Z M 349 138 " clip-rule="nonzero" />
        </clipPath>
        <clipPath id="5939f20c5d">
            <path d="M 372 3.847656 L 378 3.847656 L 378 124 L 372 124 Z M 372 3.847656 " clip-rule="nonzero" />
        </clipPath>
        <clipPath id="0e885d358a">
            <path d="M 358 29 L 462.015625 29 L 462.015625 173 L 358 173 Z M 358 29 " clip-rule="nonzero" />
        </clipPath>
        <clipPath id="d720b2c3c8">
            <path d="M 357 121 L 416 121 L 416 198.847656 L 357 198.847656 Z M 357 121 " clip-rule="nonzero" />
        </clipPath>
        <clipPath id="74d10aefb0">
            <path d="M 356 3.847656 L 418 3.847656 L 418 113 L 356 113 Z M 356 3.847656 " clip-rule="nonzero" />
        </clipPath>
        <clipPath id="772c3dfa0a">
            <path d="M 454 96 L 462.015625 96 L 462.015625 101 L 454 101 Z M 454 96 " clip-rule="nonzero" />
        </clipPath>
        <clipPath id="b1bd8a3eba">
            <path d="M 350 138 L 401 138 L 401 198.847656 L 350 198.847656 Z M 350 138 " clip-rule="nonzero" />
        </clipPath>
        <clipPath id="e53048e9de">
            <path d="M 372 3.847656 L 378 3.847656 L 378 124 L 372 124 Z M 372 3.847656 " clip-rule="nonzero" />
        </clipPath>
        <clipPath id="c8aa7dc6b2">
            <path d="M 288.015625 29 L 392 29 L 392 173 L 288.015625 173 Z M 288.015625 29 " clip-rule="nonzero" />
        </clipPath>
        <clipPath id="773dd04d56">
            <path d="M 334 121 L 393 121 L 393 198.847656 L 334 198.847656 Z M 334 121 " clip-rule="nonzero" />
        </clipPath>
        <clipPath id="6ef570c4de">
            <path d="M 332 3.847656 L 394 3.847656 L 394 113 L 332 113 Z M 332 3.847656 " clip-rule="nonzero" />
        </clipPath>
        <clipPath id="baa1d972d1">
            <path d="M 288.015625 96 L 296 96 L 296 101 L 288.015625 101 Z M 288.015625 96 " clip-rule="nonzero" />
        </clipPath>
    </defs>
    <g clip-path="url(#aa9e34e317)">
        <path stroke-linecap="butt" transform="matrix(0.149482, 0, 0, 0.149425, 288.017276, 3.846992)" fill="none"
            stroke-linejoin="miter"
            d="M 657.988598 1155.577823 C 657.988598 1199.339243 645.314658 1235.153548 629.112919 1259.857576 C 621.01205 1272.248802 612.127225 1281.686002 603.66051 1287.960041 C 595.063136 1294.338647 587.511035 1297.005114 581.997218 1297.005114 C 576.457269 1297.005114 568.852904 1294.312505 560.151003 1287.933899 C 551.605892 1281.65986 542.564277 1272.196519 534.35888 1259.831434 C 517.921955 1235.101264 505.012828 1199.286959 505.012828 1155.577823 C 505.012828 1112.600657 525.238869 1071.061292 546.144338 1039.769523 C 556.544809 1024.188994 566.94528 1011.40564 574.732567 1002.491276 C 577.528674 999.301973 579.985067 996.635507 581.971086 994.518019 C 583.930974 996.635507 586.335103 999.301973 589.078946 1002.465134 C 596.787837 1011.353356 607.057649 1024.162852 617.327461 1039.71724 C 637.997744 1071.03515 657.988598 1112.600657 657.988598 1155.577823 Z M 657.988598 1155.577823 "
            stroke="#ffdead" stroke-width="16" stroke-opacity="1" stroke-miterlimit="4" />
    </g>
    <path fill="#ffdead"
        d="M 380.097656 181.175781 C 380.097656 187.328125 377.035156 191.675781 375.039062 191.675781 C 373.046875 191.675781 370.082031 187.464844 370.082031 181.175781 C 370.082031 174.890625 375.039062 169.261719 375.039062 169.261719 C 375.039062 169.261719 380.097656 175.027344 380.097656 181.175781 Z M 380.097656 181.175781 "
        fill-opacity="1" fill-rule="nonzero" />
    <path fill="#ffdead"
        d="M 372.921875 137.433594 L 377.109375 137.433594 L 377.109375 154.019531 L 372.921875 154.019531 Z M 372.921875 137.433594 "
        fill-opacity="1" fill-rule="nonzero" />
    <path fill="#ffdead"
        d="M 371.128906 121.742188 L 378.902344 121.742188 L 378.902344 141.914062 L 371.128906 141.914062 Z M 371.128906 121.742188 "
        fill-opacity="1" fill-rule="nonzero" />
    <g clip-path="url(#5939f20c5d)">
        <path fill="#ffdead"
            d="M 372.921875 9.972656 C 372.921875 9.972656 373.097656 8.375 373.519531 7.433594 C 373.722656 6.988281 374.136719 6.339844 374.417969 5.714844 C 374.710938 5.0625 375.015625 3.847656 375.015625 3.847656 C 375.015625 3.847656 375.320312 5.0625 375.613281 5.714844 C 375.894531 6.339844 376.3125 6.988281 376.511719 7.433594 C 376.9375 8.375 377.109375 9.972656 377.109375 9.972656 L 377.109375 123.386719 L 372.921875 123.386719 Z M 372.921875 9.972656 "
            fill-opacity="1" fill-rule="nonzero" />
    </g>
    <path fill="#ffdead"
        d="M 375.164062 151.03125 L 377.109375 150.210938 C 377.109375 150.210938 377.253906 151.726562 377.484375 152.675781 C 377.625 153.265625 378.230469 154.46875 378.230469 154.46875 L 375.164062 153.273438 Z M 375.164062 151.03125 "
        fill-opacity="1" fill-rule="nonzero" />
    <path fill="#ffdead"
        d="M 374.894531 151.015625 L 372.953125 150.195312 C 372.953125 150.195312 372.808594 151.714844 372.578125 152.660156 C 372.433594 153.253906 371.832031 154.453125 371.832031 154.453125 L 374.894531 153.257812 Z M 374.894531 151.015625 "
        fill-opacity="1" fill-rule="nonzero" />
    <g clip-path="url(#0e885d358a)">
        <path stroke-linecap="round" transform="matrix(0.149482, 0, 0, 0.149425, 288.017276, 3.846992)" fill="none"
            stroke-linejoin="miter"
            d="M 594.488236 817.511699 C 594.488236 817.511699 643.041188 746.013799 678.005585 722.512295 C 692.743941 712.604542 717.49079 700.004181 717.49079 700.004181 M 832.993507 613.004177 C 803.307741 638.178757 789.640791 656.295044 757.002127 677.496067 C 742.10698 687.168543 717.49079 700.004181 717.49079 700.004181 M 832.993507 613.004177 C 853.297944 597.580498 864.691425 588.927553 884.995862 573.503874 M 832.993507 613.004177 C 829.282787 591.515594 821.573895 579.699487 823.507651 558.00177 C 825.310747 537.637286 831.817575 526.997561 840.493344 508.489147 C 845.510657 497.823281 854.996514 482.007475 854.996514 482.007475 M 884.995862 573.503874 C 908.227065 567.386686 923.279003 567.386686 946.510205 573.503874 C 964.828623 578.31397 989.993581 594.992457 989.993581 594.992457 C 989.993581 594.992457 1012.728279 616.794742 1030.497928 625.49997 C 1049.182191 634.64961 1061.228967 637.865055 1082.003777 638.989154 C 1101.262941 640.060969 1131.000971 632.50598 1131.000971 632.50598 M 884.995862 573.503874 C 915.962088 581.215713 933.496551 590.914332 956.492567 613.004177 C 972.642042 628.506281 978.364914 640.374671 989.993581 659.510489 C 999.636229 675.326295 1011.996587 701.494265 1011.996587 701.494265 C 1011.996587 701.494265 1027.466635 723.976238 1041.002926 734.511394 C 1055.140249 745.490962 1064.443183 751.477441 1082.003777 755.006588 C 1095.200355 757.646912 1116.497802 755.006588 1116.497802 755.006588 M 932.503541 400.497254 C 932.503541 400.497254 887.765837 428.416727 869.499683 455.499661 C 862.91446 465.276705 854.996514 482.007475 854.996514 482.007475 M 854.996514 482.007475 C 854.996514 482.007475 848.803269 454.950683 840.493344 439.500862 C 829.021468 418.16913 809.500986 415.032111 799.492493 392.99455 C 789.954373 371.97652 785.22451 356.840401 790.999646 334.489138 C 796.435068 313.523392 814.988672 295.511672 814.988672 295.511672 M 717.49079 700.004181 C 717.49079 700.004181 761.470671 705.154121 781.487658 722.512295 C 796.199882 735.217224 809.004482 763.999377 809.004482 763.999377 C 809.004482 763.999377 818.438074 795.840124 823.507651 816.492168 C 827.610349 833.196796 822.958882 845.535739 832.993507 859.495475 C 842.766814 873.089226 869.499683 882.00359 869.499683 882.00359 M 717.49079 700.004181 C 717.49079 700.004181 774.223007 693.311873 809.004482 701.494265 C 836.678096 708.029722 852.357198 714.199194 876.00651 729.988858 C 902.269006 747.582309 914.158992 762.247874 932.503541 787.997575 C 946.065964 807.08111 961.509879 840.490366 961.509879 840.490366 M 961.509879 840.490366 C 961.509879 840.490366 961.509879 893.532136 961.509879 927.490371 C 961.509879 946.626189 967.023697 958.180877 961.509879 976.506299 C 957.851422 988.53154 946.510205 1005.000892 946.510205 1005.000892 M 961.509879 840.490366 C 961.509879 840.490366 987.876902 850.058275 1003.007236 859.495475 C 1019.444161 869.795356 1023.625255 882.86627 1041.002926 891.493073 C 1060.941517 901.400826 1097.003452 902.002088 1097.003452 902.002088 "
            stroke="#ffdead" stroke-width="22" stroke-opacity="1" stroke-miterlimit="4" />
    </g>
    <g clip-path="url(#d720b2c3c8)">
        <path stroke-linecap="square" transform="matrix(0.149482, 0, 0, 0.149425, 288.017276, 3.846992)" fill="none"
            stroke-linejoin="miter"
            d="M 589.497055 913.504493 L 667.997092 1010.98737 C 667.997092 1010.98737 706.698342 1056.631003 718.509932 1092.000896 C 726.401746 1115.659251 729.563699 1130.063398 730.504445 1155.002702 C 731.445191 1180.28185 731.549718 1195.679387 723.004608 1219.494593 C 717.333999 1235.310399 701.994611 1257.008116 701.994611 1257.008116 "
            stroke="#ffdead" stroke-width="22" stroke-opacity="1" stroke-miterlimit="4" />
    </g>
    <g clip-path="url(#74d10aefb0)">
        <path stroke-linecap="round" transform="matrix(0.149482, 0, 0, 0.149425, 288.017276, 3.846992)" fill="none"
            stroke-linejoin="miter"
            d="M 585.002379 600.011688 L 627.492745 538.996661 C 627.492745 538.996661 638.781699 524.670939 645.994085 515.495157 M 715.008266 473.511381 C 715.008266 473.511381 680.461978 478.347619 664.495426 491.993653 C 655.636733 499.600925 653.232604 506.319375 645.994085 515.495157 M 645.994085 515.495157 C 651.455639 490.320576 651.560167 475.367451 660.00075 451.003267 C 666.873423 431.109335 675.340138 421.802844 682.500261 401.987339 C 689.608121 382.407109 693.946005 371.192265 696.506925 350.487937 C 700.322174 319.771289 690.627262 302.439256 689.503593 271.487332 C 688.719638 250.024891 687.282387 237.868941 689.503593 216.511067 C 692.169041 190.787508 689.425198 173.011065 704.503267 151.993035 C 715.609298 136.517072 742.995463 122.008358 742.995463 122.008358 "
            stroke="#ffdead" stroke-width="22" stroke-opacity="1" stroke-miterlimit="4" />
    </g>
    <path fill="#ffdead"
        d="M 391.0625 191.519531 L 393.476562 193.765625 C 393.476562 193.765625 393.476562 193.839844 393.101562 194.214844 C 392.730469 194.589844 391.609375 195.484375 390.261719 196.082031 C 388.902344 196.6875 386.601562 196.53125 386.601562 196.53125 Z M 391.0625 191.519531 "
        fill-opacity="1" fill-rule="nonzero" />
    <path fill="#ffdead"
        d="M 391.011719 109.191406 L 403.117188 109.191406 L 403.117188 112.480469 C 403.117188 112.480469 400.800781 111.433594 397.066406 111.433594 C 393.328125 111.433594 390.785156 112.777344 390.785156 112.777344 Z M 391.011719 109.191406 "
        fill-opacity="1" fill-rule="nonzero" />
    <path fill="#ffdead"
        d="M 449.777344 93.304688 C 451.398438 93.070312 453.699219 92.058594 453.699219 92.058594 C 453.699219 92.058594 452.414062 90.238281 450.976562 89.773438 C 449.976562 89.445312 449.261719 89.1875 448.179688 89.253906 C 447.023438 89.320312 446.222656 89.566406 445.335938 90.164062 C 444.488281 90.734375 444.117188 92.195312 444.117188 92.195312 C 444.117188 92.195312 445.410156 93.101562 446.433594 93.351562 C 447.679688 93.660156 448.492188 93.488281 449.777344 93.304688 Z M 449.777344 93.304688 "
        fill-opacity="1" fill-rule="nonzero" />
    <path fill="#ffdead"
        d="M 428.058594 104.703125 C 428.136719 103.066406 428.925781 100.6875 428.925781 100.6875 C 428.925781 100.6875 430.859375 101.792969 431.460938 103.179688 C 431.878906 104.144531 432.203125 104.828125 432.242188 105.910156 C 432.285156 107.070312 432.117188 107.890625 431.605469 108.828125 C 431.117188 109.726562 429.695312 110.230469 429.695312 110.230469 C 429.695312 110.230469 428.671875 109.03125 428.324219 108.039062 C 427.902344 106.828125 427.996094 106.003906 428.058594 104.703125 Z M 428.058594 104.703125 "
        fill-opacity="1" fill-rule="nonzero" />
    <path fill="#ffdead"
        d="M 401.027344 121.84375 C 401.066406 123.484375 401.796875 125.882812 401.796875 125.882812 C 401.796875 125.882812 403.757812 124.824219 404.394531 123.453125 C 404.835938 122.5 405.175781 121.820312 405.242188 120.742188 C 405.3125 119.582031 405.164062 118.761719 404.675781 117.808594 C 404.210938 116.898438 402.800781 116.359375 402.800781 116.359375 C 402.800781 116.359375 401.75 117.53125 401.378906 118.519531 C 400.925781 119.71875 400.996094 120.546875 401.027344 121.84375 Z M 401.027344 121.84375 "
        fill-opacity="1" fill-rule="nonzero" />
    <path fill="#ffdead"
        d="M 407.828125 77.304688 C 407.246094 75.773438 405.75 73.757812 405.75 73.757812 C 405.75 73.757812 404.257812 75.410156 404.117188 76.917969 C 404.023438 77.960938 403.925781 78.714844 404.226562 79.753906 C 404.550781 80.871094 404.964844 81.59375 405.742188 82.328125 C 406.484375 83.03125 407.996094 83.066406 407.996094 83.066406 C 407.996094 83.066406 408.59375 81.609375 408.613281 80.558594 C 408.636719 79.277344 408.292969 78.519531 407.828125 77.304688 Z M 407.828125 77.304688 "
        fill-opacity="1" fill-rule="nonzero" />
    <path fill="#ffdead"
        d="M 414.492188 56.980469 C 415.570312 55.746094 417.671875 54.371094 417.671875 54.371094 C 417.671875 54.371094 418.5 56.441406 418.105469 57.902344 C 417.832031 58.917969 417.660156 59.65625 417.019531 60.527344 C 416.328125 61.460938 415.6875 61.996094 414.703125 62.414062 C 413.761719 62.8125 412.335938 62.324219 412.335938 62.324219 C 412.335938 62.324219 412.28125 60.75 412.625 59.757812 C 413.050781 58.546875 413.636719 57.957031 414.492188 56.980469 Z M 414.492188 56.980469 "
        fill-opacity="1" fill-rule="nonzero" />
    <path fill="#ffdead"
        d="M 401.222656 30.800781 C 402.011719 29.363281 402.585938 26.921875 402.585938 26.921875 C 402.585938 26.921875 400.359375 26.851562 399.121094 27.71875 C 398.257812 28.324219 397.625 28.738281 397.023438 29.636719 C 396.382812 30.605469 396.097656 31.390625 396.039062 32.457031 C 395.984375 33.476562 396.933594 34.652344 396.933594 34.652344 C 396.933594 34.652344 398.433594 34.167969 399.25 33.5 C 400.242188 32.691406 400.597656 31.9375 401.222656 30.800781 Z M 401.222656 30.800781 "
        fill-opacity="1" fill-rule="nonzero" />
    <path fill="#ffdead"
        d="M 383.851562 53.1875 C 384.007812 51.558594 384.914062 49.214844 384.914062 49.214844 C 384.914062 49.214844 386.792969 50.414062 387.324219 51.828125 C 387.695312 52.8125 387.988281 53.511719 387.972656 54.59375 C 387.957031 55.753906 387.75 56.5625 387.195312 57.476562 C 386.664062 58.351562 385.21875 58.789062 385.21875 58.789062 C 385.21875 58.789062 384.257812 57.539062 383.957031 56.53125 C 383.59375 55.300781 383.726562 54.480469 383.851562 53.1875 Z M 383.851562 53.1875 "
        fill-opacity="1" fill-rule="nonzero" />
    <path fill="#ffdead"
        d="M 452.714844 109.171875 C 454.308594 109.546875 456.816406 109.445312 456.816406 109.445312 C 456.816406 109.445312 456.289062 107.28125 455.121094 106.320312 C 454.308594 105.652344 453.738281 105.152344 452.710938 104.816406 C 451.605469 104.457031 450.773438 104.390625 449.730469 104.621094 C 448.730469 104.84375 447.851562 106.070312 447.851562 106.070312 C 447.851562 106.070312 448.722656 107.382812 449.582031 107.992188 C 450.628906 108.730469 451.449219 108.871094 452.714844 109.171875 Z M 452.714844 109.171875 "
        fill-opacity="1" fill-rule="nonzero" />
    <path fill="#ffdead"
        d="M 445.984375 130.386719 C 447.621094 130.246094 449.96875 129.363281 449.96875 129.363281 C 449.96875 129.363281 448.789062 127.472656 447.378906 126.925781 C 446.398438 126.546875 445.703125 126.25 444.617188 126.253906 C 443.457031 126.257812 442.644531 126.457031 441.726562 127.003906 C 440.847656 127.523438 440.398438 128.964844 440.398438 128.964844 C 440.398438 128.964844 441.636719 129.941406 442.640625 130.25 C 443.867188 130.625 444.691406 130.5 445.984375 130.386719 Z M 445.984375 130.386719 "
        fill-opacity="1" fill-rule="nonzero" />
    <path fill="#ffdead"
        d="M 446.082031 147.40625 C 447.410156 148.363281 449.769531 149.226562 449.769531 149.226562 C 449.769531 149.226562 450.105469 147.027344 449.394531 145.691406 C 448.902344 144.765625 448.566406 144.085938 447.746094 143.378906 C 446.863281 142.625 446.117188 142.246094 445.066406 142.0625 C 444.058594 141.882812 442.777344 142.679688 442.777344 142.679688 C 442.777344 142.679688 443.078125 144.226562 443.640625 145.117188 C 444.324219 146.203125 445.027344 146.644531 446.082031 147.40625 Z M 446.082031 147.40625 "
        fill-opacity="1" fill-rule="nonzero" />
    <path fill="#ffdead"
        d="M 422.292969 144.917969 C 421.726562 146.453125 421.53125 148.957031 421.53125 148.957031 C 421.53125 148.957031 423.742188 148.6875 424.835938 147.644531 C 425.597656 146.917969 426.164062 146.414062 426.617188 145.429688 C 427.109375 144.378906 427.269531 143.558594 427.164062 142.496094 C 427.066406 141.476562 425.953125 140.460938 425.953125 140.460938 C 425.953125 140.460938 424.542969 141.167969 423.835938 141.949219 C 422.976562 142.898438 422.742188 143.695312 422.292969 144.917969 Z M 422.292969 144.917969 "
        fill-opacity="1" fill-rule="nonzero" />
    <path fill="#ffdead"
        d="M 376.210938 119.054688 C 376.210938 119.054688 379.546875 116.066406 381.890625 114.421875 C 384.65625 112.484375 389.367188 110.089844 389.367188 110.089844 L 379.949219 123.386719 L 373.820312 123.386719 Z M 376.210938 119.054688 "
        fill-opacity="1" fill-rule="nonzero" />
    <path fill="#ffdead"
        d="M 418.8125 90.8125 L 422.851562 90.8125 L 427.933594 94.472656 C 427.933594 94.472656 424.398438 92.609375 421.878906 92.53125 C 419.777344 92.464844 415.601562 94.847656 416.125 94.546875 C 416.648438 94.25 418.8125 90.8125 418.8125 90.8125 Z M 418.8125 90.8125 "
        fill-opacity="1" fill-rule="nonzero" />
    <path fill="#ffdead"
        d="M 412.835938 91.410156 L 411.863281 87.152344 L 413.730469 82.894531 C 413.730469 82.894531 413.285156 85.300781 413.359375 86.851562 C 413.40625 87.882812 413.269531 88.546875 413.730469 89.46875 C 413.949219 89.898438 414.441406 90.476562 414.441406 90.476562 C 414.441406 90.476562 415.40625 89.878906 416.050781 89.542969 C 417.390625 88.835938 419.5625 88.046875 419.5625 88.046875 L 416.722656 92.90625 L 412.835938 92.90625 Z M 412.835938 91.410156 "
        fill-opacity="1" fill-rule="nonzero" />
    <g clip-path="url(#772c3dfa0a)">
        <path fill="#ffdead"
            d="M 462.015625 96.9375 C 462.015625 96.9375 460.121094 99.246094 458.085938 99.789062 C 456.050781 100.335938 454.972656 100.140625 454.667969 99.003906 C 454.363281 97.871094 455.199219 97.164062 457.234375 96.617188 C 459.269531 96.070312 462.015625 96.9375 462.015625 96.9375 Z M 462.015625 96.9375 "
            fill-opacity="1" fill-rule="nonzero" />
    </g>
    <path fill="#ffdead"
        d="M 399.539062 73.894531 C 399.539062 73.894531 397.359375 75.933594 395.269531 76.203125 C 393.179688 76.476562 392.132812 76.140625 391.980469 74.976562 C 391.832031 73.8125 392.753906 73.21875 394.84375 72.949219 C 396.933594 72.675781 399.539062 73.894531 399.539062 73.894531 Z M 399.539062 73.894531 "
        fill-opacity="1" fill-rule="nonzero" />
    <path fill="#ffdead"
        d="M 431.371094 61.03125 C 431.371094 61.03125 430.28125 63.808594 428.511719 64.953125 C 426.746094 66.097656 425.65625 66.246094 425.019531 65.261719 C 424.378906 64.277344 424.957031 63.34375 426.726562 62.195312 C 428.492188 61.050781 431.371094 61.03125 431.371094 61.03125 Z M 431.371094 61.03125 "
        fill-opacity="1" fill-rule="nonzero" />
    <path fill="#ffdead"
        d="M 413.042969 44.875 C 413.042969 44.875 412.457031 47.800781 410.914062 49.238281 C 409.375 50.671875 408.328125 51.007812 407.527344 50.152344 C 406.726562 49.292969 407.132812 48.273438 408.671875 46.835938 C 410.214844 45.398438 413.042969 44.875 413.042969 44.875 Z M 413.042969 44.875 "
        fill-opacity="1" fill-rule="nonzero" />
    <path fill="#ffdead"
        d="M 402.691406 19.820312 C 402.691406 19.820312 401.5 22.554688 399.691406 23.632812 C 397.882812 24.710938 396.789062 24.820312 396.1875 23.8125 C 395.585938 22.804688 396.199219 21.894531 398.007812 20.8125 C 399.816406 19.734375 402.691406 19.820312 402.691406 19.820312 Z M 402.691406 19.820312 "
        fill-opacity="1" fill-rule="nonzero" />
    <path fill="#ffdead"
        d="M 459.609375 115.929688 C 459.609375 115.929688 457.4375 117.972656 455.347656 118.25 C 453.257812 118.527344 452.214844 118.195312 452.058594 117.03125 C 451.902344 115.867188 452.824219 115.273438 454.914062 114.996094 C 457.003906 114.714844 459.609375 115.929688 459.609375 115.929688 Z M 459.609375 115.929688 "
        fill-opacity="1" fill-rule="nonzero" />
    <path fill="#ffdead"
        d="M 456.644531 138.824219 C 456.644531 138.824219 454.113281 140.398438 452.011719 140.261719 C 449.90625 140.125 448.945312 139.59375 449.023438 138.421875 C 449.097656 137.25 450.121094 136.847656 452.222656 136.984375 C 454.324219 137.121094 456.644531 138.824219 456.644531 138.824219 Z M 456.644531 138.824219 "
        fill-opacity="1" fill-rule="nonzero" />
    <path fill="#ffdead"
        d="M 422.71875 137.125 C 422.71875 137.125 419.867188 138.007812 417.871094 137.34375 C 415.871094 136.679688 415.074219 135.921875 415.445312 134.808594 C 415.816406 133.695312 416.90625 133.5625 418.90625 134.226562 C 420.90625 134.890625 422.71875 137.125 422.71875 137.125 Z M 422.71875 137.125 "
        fill-opacity="1" fill-rule="nonzero" />
    <path fill="#ffdead"
        d="M 427.335938 157.980469 C 427.335938 157.980469 427.046875 155.011719 428.101562 153.1875 C 429.152344 151.363281 430.058594 150.738281 431.074219 151.324219 C 432.089844 151.910156 432 153.003906 430.945312 154.828125 C 429.890625 156.652344 427.335938 157.980469 427.335938 157.980469 Z M 427.335938 157.980469 "
        fill-opacity="1" fill-rule="nonzero" />
    <path fill="#ffdead"
        d="M 375.164062 92.605469 L 379.574219 90.4375 C 379.574219 90.4375 378.316406 92.949219 377.855469 94.699219 C 377.371094 96.539062 377.035156 100.003906 377.035156 100.003906 L 375.164062 99.777344 Z M 375.164062 92.605469 "
        fill-opacity="1" fill-rule="nonzero" />
    <path fill="#ffdead"
        d="M 409.546875 89.691406 L 410.742188 94.101562 L 411.191406 94.996094 L 405.882812 99.480469 C 405.882812 99.480469 408.425781 96.191406 409.097656 94.621094 C 409.6875 93.25 409.546875 89.691406 409.546875 89.691406 Z M 409.546875 89.691406 "
        fill-opacity="1" fill-rule="nonzero" />
    <path fill="#ffdead"
        d="M 376.285156 116.511719 C 376.285156 116.511719 382.515625 111.988281 385.40625 110.460938 C 389.191406 108.464844 396.691406 105.90625 396.691406 105.90625 L 388.46875 112.628906 L 375.761719 120.101562 Z M 376.285156 116.511719 "
        fill-opacity="1" fill-rule="nonzero" />
    <g clip-path="url(#b1bd8a3eba)">
        <path stroke-linecap="butt" transform="matrix(0.149482, 0, 0, 0.149425, 288.017276, 3.846992)" fill="none"
            stroke-linejoin="miter"
            d="M 506.005837 1155.577823 C 506.005837 1199.339243 518.679778 1235.153548 534.881517 1259.857576 C 543.008518 1272.248802 551.893342 1281.686002 560.360057 1287.960041 C 568.957432 1294.338647 576.4834 1297.005114 581.997218 1297.005114 C 587.537167 1297.005114 595.141532 1294.312505 603.843433 1287.933899 C 612.414676 1281.65986 621.430159 1272.196519 629.661688 1259.831434 C 646.098613 1235.101264 659.00774 1199.286959 659.00774 1155.577823 C 659.00774 1112.600657 638.781699 1071.061292 617.850098 1039.769523 C 607.475758 1024.188994 597.075288 1011.40564 589.261868 1002.491276 C 586.491894 999.301973 584.035501 996.635507 582.049482 994.518019 C 580.089594 996.635507 577.685465 999.301973 574.941622 1002.465134 C 567.23273 1011.353356 556.962919 1024.162852 546.693107 1039.71724 C 526.022824 1071.03515 506.005837 1112.600657 506.005837 1155.577823 Z M 506.005837 1155.577823 "
            stroke="#ffdead" stroke-width="16" stroke-opacity="1" stroke-miterlimit="4" />
    </g>
    <path fill="#ffdead"
        d="M 369.933594 181.175781 C 369.933594 187.328125 373 191.675781 374.992188 191.675781 C 376.988281 191.675781 379.949219 187.464844 379.949219 181.175781 C 379.949219 174.890625 374.992188 169.261719 374.992188 169.261719 C 374.992188 169.261719 369.933594 175.027344 369.933594 181.175781 Z M 369.933594 181.175781 "
        fill-opacity="1" fill-rule="nonzero" />
    <path fill="#ffdead"
        d="M 377.109375 137.433594 L 372.925781 137.433594 L 372.925781 154.019531 L 377.109375 154.019531 Z M 377.109375 137.433594 "
        fill-opacity="1" fill-rule="nonzero" />
    <path fill="#ffdead"
        d="M 378.902344 121.742188 L 371.132812 121.742188 L 371.132812 141.914062 L 378.902344 141.914062 Z M 378.902344 121.742188 "
        fill-opacity="1" fill-rule="nonzero" />
    <g clip-path="url(#e53048e9de)">
        <path fill="#ffdead"
            d="M 377.109375 9.972656 C 377.109375 9.972656 376.9375 8.375 376.511719 7.433594 C 376.3125 6.988281 375.898438 6.339844 375.617188 5.714844 C 375.320312 5.0625 375.015625 3.847656 375.015625 3.847656 C 375.015625 3.847656 374.714844 5.0625 374.417969 5.714844 C 374.136719 6.339844 373.722656 6.988281 373.523438 7.433594 C 373.097656 8.375 372.925781 9.972656 372.925781 9.972656 L 372.925781 123.386719 L 377.109375 123.386719 Z M 377.109375 9.972656 "
            fill-opacity="1" fill-rule="nonzero" />
    </g>
    <path fill="#ffdead"
        d="M 374.867188 151.03125 L 372.925781 150.210938 C 372.925781 150.210938 372.78125 151.726562 372.550781 152.675781 C 372.40625 153.265625 371.804688 154.46875 371.804688 154.46875 L 374.867188 153.273438 Z M 374.867188 151.03125 "
        fill-opacity="1" fill-rule="nonzero" />
    <path fill="#ffdead"
        d="M 375.136719 151.015625 L 377.082031 150.195312 C 377.082031 150.195312 377.226562 151.714844 377.453125 152.660156 C 377.597656 153.253906 378.203125 154.453125 378.203125 154.453125 L 375.136719 153.257812 Z M 375.136719 151.015625 "
        fill-opacity="1" fill-rule="nonzero" />
    <g clip-path="url(#c8aa7dc6b2)">
        <path stroke-linecap="round" transform="matrix(0.149482, 0, 0, 0.149425, 288.017276, 3.846992)" fill="none"
            stroke-linejoin="miter"
            d="M 569.5062 817.511699 C 569.5062 817.511699 520.953248 746.013799 486.014982 722.512295 C 471.276627 712.604542 446.503646 700.004181 446.503646 700.004181 M 331.000928 613.004177 C 360.686695 638.178757 374.353645 656.295044 407.018441 677.496067 C 421.887456 687.168543 446.503646 700.004181 446.503646 700.004181 M 331.000928 613.004177 C 310.696491 597.580498 299.329143 588.927553 278.998574 573.503874 M 331.000928 613.004177 C 334.711649 591.515594 342.420541 579.699487 340.512917 558.00177 C 338.70982 537.637286 332.176861 526.997561 323.501091 508.489147 C 318.509911 497.823281 308.997922 482.007475 308.997922 482.007475 M 278.998574 573.503874 C 255.793503 567.386686 240.741565 567.386686 217.510363 573.503874 C 199.191945 578.31397 174.000855 594.992457 174.000855 594.992457 C 174.000855 594.992457 151.292289 616.794742 133.52264 625.49997 C 114.838377 634.64961 102.765468 637.865055 82.01679 638.989154 C 62.731495 640.060969 33.019597 632.50598 33.019597 632.50598 M 278.998574 573.503874 C 248.058479 581.215713 230.524017 590.914332 207.501869 613.004177 C 191.352394 628.506281 185.655654 640.374671 174.000855 659.510489 C 164.384339 675.326295 151.997848 701.494265 151.997848 701.494265 C 151.997848 701.494265 136.553933 723.976238 123.017642 734.511394 C 108.880318 745.490962 99.551253 751.477441 82.01679 755.006588 C 68.794081 757.646912 47.522766 755.006588 47.522766 755.006588 M 231.517027 400.497254 C 231.517027 400.497254 276.254731 428.416727 294.520885 455.499661 C 301.106107 465.276705 308.997922 482.007475 308.997922 482.007475 M 308.997922 482.007475 C 308.997922 482.007475 315.191167 454.950683 323.501091 439.500862 C 334.972968 418.16913 354.493449 415.032111 364.501943 392.99455 C 374.066195 371.97652 378.796057 356.840401 373.020921 334.489138 C 367.585499 313.523392 349.005764 295.511672 349.005764 295.511672 M 446.503646 700.004181 C 446.503646 700.004181 402.549897 705.154121 382.506778 722.512295 C 367.794554 735.217224 355.016086 763.999377 355.016086 763.999377 C 355.016086 763.999377 345.582493 795.840124 340.512917 816.492168 C 336.410219 833.196796 341.061685 845.535739 331.000928 859.495475 C 321.227622 873.089226 294.520885 882.00359 294.520885 882.00359 M 446.503646 700.004181 C 446.503646 700.004181 389.797561 693.311873 355.016086 701.494265 C 327.342471 708.029722 311.637238 714.199194 288.014057 729.988858 C 261.72543 747.582309 249.835444 762.247874 231.517027 787.997575 C 217.928472 807.08111 202.510688 840.490366 202.510688 840.490366 M 202.510688 840.490366 C 202.510688 840.490366 202.510688 893.532136 202.510688 927.490371 C 202.510688 946.626189 196.970739 958.180877 202.510688 976.506299 C 206.143014 988.53154 217.510363 1005.000892 217.510363 1005.000892 M 202.510688 840.490366 C 202.510688 840.490366 176.117534 850.058275 161.013332 859.495475 C 144.550275 869.795356 140.395313 882.86627 123.017642 891.493073 C 103.079051 901.400826 67.017116 902.002088 67.017116 902.002088 "
            stroke="#ffdead" stroke-width="22" stroke-opacity="1" stroke-miterlimit="4" />
    </g>
    <g clip-path="url(#773dd04d56)">
        <path stroke-linecap="square" transform="matrix(0.149482, 0, 0, 0.149425, 288.017276, 3.846992)" fill="none"
            stroke-linejoin="miter"
            d="M 574.497381 913.504493 L 495.997344 1010.98737 C 495.997344 1010.98737 457.296094 1056.631003 445.510636 1092.000896 C 437.618821 1115.659251 434.430737 1130.063398 433.516123 1155.002702 C 432.575377 1180.28185 432.47085 1195.679387 441.01596 1219.494593 C 446.686569 1235.310399 461.999825 1257.008116 461.999825 1257.008116 "
            stroke="#ffdead" stroke-width="22" stroke-opacity="1" stroke-miterlimit="4" />
    </g>
    <g clip-path="url(#6ef570c4de)">
        <path stroke-linecap="round" transform="matrix(0.149482, 0, 0, 0.149425, 288.017276, 3.846992)" fill="none"
            stroke-linejoin="miter"
            d="M 579.018189 600.011688 L 536.501691 538.996661 C 536.501691 538.996661 525.238869 524.670939 518.00035 515.495157 M 449.012302 473.511381 C 449.012302 473.511381 483.55859 478.347619 499.49901 491.993653 C 508.383835 499.600925 510.787963 506.319375 518.00035 515.495157 M 518.00035 515.495157 C 512.538797 490.320576 512.434269 475.367451 504.019818 451.003267 C 497.121013 431.109335 488.68043 421.802844 481.520307 401.987339 C 474.412447 382.407109 470.074562 371.192265 467.513642 350.487937 C 463.698394 319.771289 473.393305 302.439256 474.516974 271.487332 C 475.274798 250.024891 476.738181 237.868941 474.516974 216.511067 C 471.825395 190.787508 474.569238 173.011065 459.5173 151.993035 C 448.41127 136.517072 420.998973 122.008358 420.998973 122.008358 "
            stroke="#ffdead" stroke-width="22" stroke-opacity="1" stroke-miterlimit="4" />
    </g>
    <path fill="#ffdead"
        d="M 358.96875 191.519531 L 356.554688 193.765625 C 356.554688 193.765625 356.554688 193.839844 356.929688 194.214844 C 357.304688 194.589844 358.425781 195.484375 359.769531 196.082031 C 361.132812 196.6875 363.433594 196.53125 363.433594 196.53125 Z M 358.96875 191.519531 "
        fill-opacity="1" fill-rule="nonzero" />
    <path fill="#ffdead"
        d="M 359.023438 109.191406 L 346.914062 109.191406 L 346.914062 112.480469 C 346.914062 112.480469 349.230469 111.433594 352.96875 111.433594 C 356.707031 111.433594 359.246094 112.777344 359.246094 112.777344 Z M 359.023438 109.191406 "
        fill-opacity="1" fill-rule="nonzero" />
    <path fill="#ffdead"
        d="M 300.253906 93.304688 C 298.632812 93.070312 296.335938 92.058594 296.335938 92.058594 C 296.335938 92.058594 297.621094 90.238281 299.058594 89.773438 C 300.058594 89.445312 300.769531 89.1875 301.851562 89.253906 C 303.011719 89.320312 303.808594 89.566406 304.699219 90.164062 C 305.546875 90.734375 305.914062 92.195312 305.914062 92.195312 C 305.914062 92.195312 304.625 93.101562 303.601562 93.351562 C 302.355469 93.660156 301.542969 93.488281 300.253906 93.304688 Z M 300.253906 93.304688 "
        fill-opacity="1" fill-rule="nonzero" />
    <path fill="#ffdead"
        d="M 321.976562 104.703125 C 321.898438 103.066406 321.105469 100.6875 321.105469 100.6875 C 321.105469 100.6875 319.171875 101.792969 318.570312 103.179688 C 318.152344 104.144531 317.828125 104.828125 317.792969 105.910156 C 317.75 107.070312 317.917969 107.890625 318.429688 108.828125 C 318.917969 109.726562 320.339844 110.230469 320.339844 110.230469 C 320.339844 110.230469 321.363281 109.03125 321.707031 108.039062 C 322.128906 106.828125 322.039062 106.003906 321.976562 104.703125 Z M 321.976562 104.703125 "
        fill-opacity="1" fill-rule="nonzero" />
    <path fill="#ffdead"
        d="M 349.007812 121.84375 C 348.96875 123.484375 348.234375 125.882812 348.234375 125.882812 C 348.234375 125.882812 346.273438 124.824219 345.640625 123.453125 C 345.199219 122.5 344.855469 121.820312 344.792969 120.742188 C 344.722656 119.582031 344.871094 118.761719 345.359375 117.808594 C 345.824219 116.898438 347.234375 116.359375 347.234375 116.359375 C 347.234375 116.359375 348.285156 117.53125 348.65625 118.519531 C 349.109375 119.71875 349.035156 120.546875 349.007812 121.84375 Z M 349.007812 121.84375 "
        fill-opacity="1" fill-rule="nonzero" />
    <path fill="#ffdead"
        d="M 342.203125 77.304688 C 342.789062 75.773438 344.28125 73.757812 344.28125 73.757812 C 344.28125 73.757812 345.777344 75.410156 345.914062 76.917969 C 346.011719 77.960938 346.105469 78.714844 345.804688 79.753906 C 345.484375 80.871094 345.070312 81.59375 344.292969 82.328125 C 343.546875 83.03125 342.039062 83.066406 342.039062 83.066406 C 342.039062 83.066406 341.441406 81.609375 341.421875 80.558594 C 341.394531 79.277344 341.742188 78.519531 342.203125 77.304688 Z M 342.203125 77.304688 "
        fill-opacity="1" fill-rule="nonzero" />
    <path fill="#ffdead"
        d="M 335.542969 56.980469 C 334.464844 55.746094 332.359375 54.371094 332.359375 54.371094 C 332.359375 54.371094 331.535156 56.441406 331.925781 57.902344 C 332.199219 58.917969 332.371094 59.65625 333.015625 60.527344 C 333.707031 61.460938 334.34375 61.996094 335.328125 62.414062 C 336.269531 62.8125 337.699219 62.324219 337.699219 62.324219 C 337.699219 62.324219 337.753906 60.75 337.40625 59.757812 C 336.984375 58.546875 336.398438 57.957031 335.542969 56.980469 Z M 335.542969 56.980469 "
        fill-opacity="1" fill-rule="nonzero" />
    <path fill="#ffdead"
        d="M 348.8125 30.800781 C 348.019531 29.363281 347.449219 26.921875 347.449219 26.921875 C 347.449219 26.921875 349.675781 26.851562 350.914062 27.71875 C 351.773438 28.324219 352.410156 28.738281 353.007812 29.636719 C 353.652344 30.605469 353.9375 31.390625 353.992188 32.457031 C 354.046875 33.476562 353.101562 34.652344 353.101562 34.652344 C 353.101562 34.652344 351.601562 34.167969 350.785156 33.5 C 349.792969 32.691406 349.4375 31.9375 348.8125 30.800781 Z M 348.8125 30.800781 "
        fill-opacity="1" fill-rule="nonzero" />
    <path fill="#ffdead"
        d="M 366.183594 53.1875 C 366.027344 51.558594 365.121094 49.214844 365.121094 49.214844 C 365.121094 49.214844 363.242188 50.414062 362.707031 51.828125 C 362.335938 52.8125 362.046875 53.511719 362.058594 54.59375 C 362.074219 55.753906 362.28125 56.5625 362.835938 57.476562 C 363.367188 58.351562 364.8125 58.789062 364.8125 58.789062 C 364.8125 58.789062 365.777344 57.539062 366.074219 56.53125 C 366.4375 55.300781 366.308594 54.480469 366.183594 53.1875 Z M 366.183594 53.1875 "
        fill-opacity="1" fill-rule="nonzero" />
    <path fill="#ffdead"
        d="M 297.320312 109.171875 C 295.726562 109.546875 293.214844 109.445312 293.214844 109.445312 C 293.214844 109.445312 293.746094 107.28125 294.914062 106.320312 C 295.726562 105.652344 296.292969 105.152344 297.324219 104.816406 C 298.429688 104.457031 299.261719 104.390625 300.304688 104.621094 C 301.304688 104.84375 302.183594 106.070312 302.183594 106.070312 C 302.183594 106.070312 301.3125 107.382812 300.453125 107.992188 C 299.40625 108.730469 298.585938 108.871094 297.320312 109.171875 Z M 297.320312 109.171875 "
        fill-opacity="1" fill-rule="nonzero" />
    <path fill="#ffdead"
        d="M 304.046875 130.386719 C 302.414062 130.246094 300.0625 129.363281 300.0625 129.363281 C 300.0625 129.363281 301.246094 127.472656 302.65625 126.925781 C 303.636719 126.546875 304.332031 126.25 305.414062 126.253906 C 306.578125 126.257812 307.386719 126.457031 308.308594 127.003906 C 309.1875 127.523438 309.636719 128.964844 309.636719 128.964844 C 309.636719 128.964844 308.398438 129.941406 307.390625 130.25 C 306.164062 130.625 305.34375 130.5 304.046875 130.386719 Z M 304.046875 130.386719 "
        fill-opacity="1" fill-rule="nonzero" />
    <path fill="#ffdead"
        d="M 303.953125 147.40625 C 302.621094 148.363281 300.265625 149.226562 300.265625 149.226562 C 300.265625 149.226562 299.925781 147.027344 300.636719 145.691406 C 301.132812 144.765625 301.464844 144.085938 302.289062 143.378906 C 303.171875 142.625 303.914062 142.246094 304.96875 142.0625 C 305.976562 141.882812 307.257812 142.679688 307.257812 142.679688 C 307.257812 142.679688 306.957031 144.226562 306.394531 145.117188 C 305.710938 146.203125 305.007812 146.644531 303.953125 147.40625 Z M 303.953125 147.40625 "
        fill-opacity="1" fill-rule="nonzero" />
    <path fill="#ffdead"
        d="M 327.742188 144.917969 C 328.304688 146.453125 328.503906 148.957031 328.503906 148.957031 C 328.503906 148.957031 326.289062 148.6875 325.195312 147.644531 C 324.4375 146.917969 323.871094 146.414062 323.414062 145.429688 C 322.925781 144.378906 322.761719 143.558594 322.867188 142.496094 C 322.96875 141.476562 324.082031 140.460938 324.082031 140.460938 C 324.082031 140.460938 325.492188 141.167969 326.195312 141.949219 C 327.058594 142.898438 327.292969 143.695312 327.742188 144.917969 Z M 327.742188 144.917969 "
        fill-opacity="1" fill-rule="nonzero" />
    <path fill="#ffdead"
        d="M 373.820312 119.054688 C 373.820312 119.054688 370.484375 116.066406 368.140625 114.421875 C 365.378906 112.484375 360.667969 110.089844 360.667969 110.089844 L 370.085938 123.386719 L 376.214844 123.386719 Z M 373.820312 119.054688 "
        fill-opacity="1" fill-rule="nonzero" />
    <path fill="#ffdead"
        d="M 331.21875 90.8125 L 327.183594 90.8125 L 322.101562 94.472656 C 322.101562 94.472656 325.632812 92.609375 328.15625 92.53125 C 330.257812 92.464844 334.433594 94.847656 333.910156 94.546875 C 333.386719 94.25 331.21875 90.8125 331.21875 90.8125 Z M 331.21875 90.8125 "
        fill-opacity="1" fill-rule="nonzero" />
    <path fill="#ffdead"
        d="M 337.199219 91.410156 L 338.171875 87.152344 L 336.300781 82.894531 C 336.300781 82.894531 336.75 85.300781 336.675781 86.851562 C 336.625 87.882812 336.765625 88.546875 336.300781 89.46875 C 336.085938 89.898438 335.589844 90.476562 335.589844 90.476562 C 335.589844 90.476562 334.628906 89.878906 333.984375 89.542969 C 332.640625 88.835938 330.472656 88.046875 330.472656 88.046875 L 333.3125 92.90625 L 337.199219 92.90625 Z M 337.199219 91.410156 "
        fill-opacity="1" fill-rule="nonzero" />
    <g clip-path="url(#baa1d972d1)">
        <path fill="#ffdead"
            d="M 288.019531 96.9375 C 288.019531 96.9375 289.910156 99.246094 291.945312 99.789062 C 293.980469 100.335938 295.0625 100.140625 295.367188 99.003906 C 295.671875 97.871094 294.832031 97.164062 292.796875 96.617188 C 290.761719 96.070312 288.019531 96.9375 288.019531 96.9375 Z M 288.019531 96.9375 "
            fill-opacity="1" fill-rule="nonzero" />
    </g>
    <path fill="#ffdead"
        d="M 350.496094 73.894531 C 350.496094 73.894531 352.675781 75.933594 354.765625 76.203125 C 356.855469 76.476562 357.898438 76.140625 358.050781 74.976562 C 358.203125 73.8125 357.28125 73.21875 355.191406 72.949219 C 353.101562 72.675781 350.496094 73.894531 350.496094 73.894531 Z M 350.496094 73.894531 "
        fill-opacity="1" fill-rule="nonzero" />
    <path fill="#ffdead"
        d="M 318.664062 61.03125 C 318.664062 61.03125 319.753906 63.808594 321.519531 64.953125 C 323.289062 66.097656 324.378906 66.246094 325.015625 65.261719 C 325.652344 64.277344 325.078125 63.34375 323.308594 62.195312 C 321.539062 61.050781 318.664062 61.03125 318.664062 61.03125 Z M 318.664062 61.03125 "
        fill-opacity="1" fill-rule="nonzero" />
    <path fill="#ffdead"
        d="M 336.992188 44.875 C 336.992188 44.875 337.578125 47.800781 339.117188 49.238281 C 340.660156 50.671875 341.703125 51.007812 342.503906 50.152344 C 343.304688 49.292969 342.902344 48.273438 341.359375 46.835938 C 339.820312 45.398438 336.992188 44.875 336.992188 44.875 Z M 336.992188 44.875 "
        fill-opacity="1" fill-rule="nonzero" />
    <path fill="#ffdead"
        d="M 347.339844 19.820312 C 347.339844 19.820312 348.53125 22.554688 350.34375 23.632812 C 352.152344 24.710938 353.246094 24.820312 353.847656 23.8125 C 354.445312 22.804688 353.835938 21.894531 352.027344 20.8125 C 350.21875 19.734375 347.339844 19.820312 347.339844 19.820312 Z M 347.339844 19.820312 "
        fill-opacity="1" fill-rule="nonzero" />
    <path fill="#ffdead"
        d="M 290.421875 115.929688 C 290.421875 115.929688 292.597656 117.972656 294.683594 118.25 C 296.773438 118.527344 297.820312 118.195312 297.976562 117.03125 C 298.128906 115.867188 297.207031 115.273438 295.121094 114.996094 C 293.03125 114.714844 290.421875 115.929688 290.421875 115.929688 Z M 290.421875 115.929688 "
        fill-opacity="1" fill-rule="nonzero" />
    <path fill="#ffdead"
        d="M 293.386719 138.824219 C 293.386719 138.824219 295.921875 140.398438 298.023438 140.261719 C 300.125 140.125 301.085938 139.59375 301.011719 138.421875 C 300.933594 137.25 299.914062 136.847656 297.808594 136.984375 C 295.707031 137.121094 293.386719 138.824219 293.386719 138.824219 Z M 293.386719 138.824219 "
        fill-opacity="1" fill-rule="nonzero" />
    <path fill="#ffdead"
        d="M 327.316406 137.125 C 327.316406 137.125 330.164062 138.007812 332.164062 137.34375 C 334.164062 136.679688 334.957031 135.921875 334.585938 134.808594 C 334.21875 133.695312 333.128906 133.5625 331.128906 134.226562 C 329.128906 134.890625 327.316406 137.125 327.316406 137.125 Z M 327.316406 137.125 "
        fill-opacity="1" fill-rule="nonzero" />
    <path fill="#ffdead"
        d="M 322.695312 157.980469 C 322.695312 157.980469 322.988281 155.011719 321.933594 153.1875 C 320.878906 151.363281 319.976562 150.738281 318.960938 151.324219 C 317.945312 151.910156 318.035156 153.003906 319.089844 154.828125 C 320.140625 156.652344 322.695312 157.980469 322.695312 157.980469 Z M 322.695312 157.980469 "
        fill-opacity="1" fill-rule="nonzero" />
    <path fill="#ffdead"
        d="M 374.867188 92.605469 L 370.457031 90.4375 C 370.457031 90.4375 371.714844 92.949219 372.175781 94.699219 C 372.664062 96.539062 373 100.003906 373 100.003906 L 374.867188 99.777344 Z M 374.867188 92.605469 "
        fill-opacity="1" fill-rule="nonzero" />
    <path fill="#ffdead"
        d="M 340.488281 89.691406 L 339.292969 94.101562 L 338.84375 94.996094 L 344.148438 99.480469 C 344.148438 99.480469 341.609375 96.191406 340.933594 94.621094 C 340.347656 93.25 340.488281 89.691406 340.488281 89.691406 Z M 340.488281 89.691406 "
        fill-opacity="1" fill-rule="nonzero" />
    <path fill="#ffdead"
        d="M 373.746094 116.511719 C 373.746094 116.511719 367.519531 111.988281 364.628906 110.460938 C 360.839844 108.464844 353.34375 105.90625 353.34375 105.90625 L 361.5625 112.628906 L 374.269531 120.101562 Z M 373.746094 116.511719 "
        fill-opacity="1" fill-rule="nonzero" />
    <g fill="#000000" fill-opacity="1">
        <g transform="translate(3.803538, 358.836149)">
            <g>
                <path
                    d="M 22.640625 -105.28125 C 22.640625 -110 22.078125 -113.566406 20.953125 -115.984375 C 19.835938 -118.398438 18.570312 -120.019531 17.15625 -120.84375 C 15.75 -121.675781 15.046875 -121.972656 15.046875 -121.734375 L 43.171875 -121.734375 C 43.171875 -121.972656 42.460938 -121.675781 41.046875 -120.84375 C 39.628906 -120.019531 38.332031 -118.398438 37.15625 -115.984375 C 35.976562 -113.566406 35.390625 -110 35.390625 -105.28125 L 35.390625 -7.078125 L 64.40625 -7.078125 C 69.71875 -7.078125 74.289062 -8.164062 78.125 -10.34375 C 81.957031 -12.53125 84.695312 -15.332031 86.34375 -18.75 L 83.15625 0 L 15.046875 0 C 15.046875 0.351562 15.75 0.0859375 17.15625 -0.796875 C 18.570312 -1.679688 19.835938 -3.445312 20.953125 -6.09375 C 22.078125 -8.75 22.640625 -12.613281 22.640625 -17.6875 Z M 22.640625 -105.28125 " />
            </g>
        </g>
    </g>
    <g fill="#000000" fill-opacity="1">
        <g transform="translate(93.324636, 358.836149)">
            <g>
                <path
                    d="M 37.328125 -47.25 L 26.015625 -19.109375 C 24.242188 -14.742188 23.359375 -11.144531 23.359375 -8.3125 C 23.359375 -4.425781 25.125 -1.65625 28.65625 0 L 3.359375 0 C 4.535156 0 6.242188 -1.175781 8.484375 -3.53125 C 10.734375 -5.894531 13.332031 -10.554688 16.28125 -17.515625 L 62.453125 -127.390625 L 108.28125 -16.984375 C 110.875 -10.617188 113.378906 -6.253906 115.796875 -3.890625 C 118.222656 -1.535156 120.144531 -0.238281 121.5625 0 L 92.1875 0 C 95.132812 -1.414062 96.609375 -3.597656 96.609375 -6.546875 C 96.609375 -9.023438 95.664062 -12.5625 93.78125 -17.15625 L 81.390625 -47.25 Z M 78.5625 -54.5 L 59.28125 -101.734375 L 40.34375 -54.5 Z M 78.5625 -54.5 " />
            </g>
        </g>
    </g>
    <g fill="#ffffff" fill-opacity="1">
        <g transform="translate(11.186473, 355.853244)">
            <g>
                <path
                    d="M 22.640625 -105.28125 C 22.640625 -110 22.078125 -113.566406 20.953125 -115.984375 C 19.835938 -118.398438 18.570312 -120.019531 17.15625 -120.84375 C 15.75 -121.675781 15.046875 -121.972656 15.046875 -121.734375 L 43.171875 -121.734375 C 43.171875 -121.972656 42.460938 -121.675781 41.046875 -120.84375 C 39.628906 -120.019531 38.332031 -118.398438 37.15625 -115.984375 C 35.976562 -113.566406 35.390625 -110 35.390625 -105.28125 L 35.390625 -7.078125 L 64.40625 -7.078125 C 69.71875 -7.078125 74.289062 -8.164062 78.125 -10.34375 C 81.957031 -12.53125 84.695312 -15.332031 86.34375 -18.75 L 83.15625 0 L 15.046875 0 C 15.046875 0.351562 15.75 0.0859375 17.15625 -0.796875 C 18.570312 -1.679688 19.835938 -3.445312 20.953125 -6.09375 C 22.078125 -8.75 22.640625 -12.613281 22.640625 -17.6875 Z M 22.640625 -105.28125 " />
            </g>
        </g>
    </g>
    <g fill="#ffffff" fill-opacity="1">
        <g transform="translate(100.707571, 355.853244)">
            <g>
                <path
                    d="M 37.328125 -47.25 L 26.015625 -19.109375 C 24.242188 -14.742188 23.359375 -11.144531 23.359375 -8.3125 C 23.359375 -4.425781 25.125 -1.65625 28.65625 0 L 3.359375 0 C 4.535156 0 6.242188 -1.175781 8.484375 -3.53125 C 10.734375 -5.894531 13.332031 -10.554688 16.28125 -17.515625 L 62.453125 -127.390625 L 108.28125 -16.984375 C 110.875 -10.617188 113.378906 -6.253906 115.796875 -3.890625 C 118.222656 -1.535156 120.144531 -0.238281 121.5625 0 L 92.1875 0 C 95.132812 -1.414062 96.609375 -3.597656 96.609375 -6.546875 C 96.609375 -9.023438 95.664062 -12.5625 93.78125 -17.15625 L 81.390625 -47.25 Z M 78.5625 -54.5 L 59.28125 -101.734375 L 40.34375 -54.5 Z M 78.5625 -54.5 " />
            </g>
        </g>
    </g>
    <g fill="#000000" fill-opacity="1">
        <g transform="translate(215.03904, 358.836149)">
            <g />
        </g>
    </g>
    <g fill="#ffffff" fill-opacity="1">
        <g transform="translate(222.421975, 355.853244)">
            <g />
        </g>
    </g>
    <g fill="#000000" fill-opacity="1">
        <g transform="translate(191.82603, 357.526895)">
            <g>
                <path
                    d="M 110.742188 0 L 148.886719 -90.703125 C 154.511719 -103.535156 151.523438 -117.421875 137.988281 -122.695312 C 123.75 -128.320312 109.160156 -120.058594 102.304688 -102.832031 L 91.582031 -78.046875 L 72.421875 -124.277344 L 57.65625 -124.277344 L 84.199219 -60.46875 L 66.269531 -17.578125 L 21.445312 -124.277344 L 6.152344 -124.277344 L 58.710938 0 L 60.292969 0 L 84.726562 -58.886719 L 109.511719 0 Z M 92.636719 -76.113281 L 103.535156 -102.832031 C 109.511719 -116.71875 122.34375 -127.265625 137.636719 -121.640625 C 150.644531 -116.542969 152.929688 -102.832031 148.007812 -90.703125 L 117.070312 -17.578125 Z M 92.636719 -76.113281 " />
            </g>
        </g>
    </g>
    <g fill="#ffffff" fill-opacity="1">
        <g transform="translate(199.160868, 354.563428)">
            <g>
                <path
                    d="M 110.742188 0 L 148.886719 -90.703125 C 154.511719 -103.535156 151.523438 -117.421875 137.988281 -122.695312 C 123.75 -128.320312 109.160156 -120.058594 102.304688 -102.832031 L 91.582031 -78.046875 L 72.421875 -124.277344 L 57.65625 -124.277344 L 84.199219 -60.46875 L 66.269531 -17.578125 L 21.445312 -124.277344 L 6.152344 -124.277344 L 58.710938 0 L 60.292969 0 L 84.726562 -58.886719 L 109.511719 0 Z M 92.636719 -76.113281 L 103.535156 -102.832031 C 109.511719 -116.71875 122.34375 -127.265625 137.636719 -121.640625 C 150.644531 -116.542969 152.929688 -102.832031 148.007812 -90.703125 L 117.070312 -17.578125 Z M 92.636719 -76.113281 " />
            </g>
        </g>
    </g>
    <g fill="#000000" fill-opacity="1">
        <g transform="translate(337.829832, 358.836149)">
            <g>
                <path
                    d="M 47.25 2.125 C 41.113281 2.125 35.210938 1.269531 29.546875 -0.4375 C 23.890625 -2.15625 18.816406 -4.546875 14.328125 -7.609375 L 14.328125 -29.015625 C 17.398438 -21.109375 22.085938 -15.117188 28.390625 -11.046875 C 34.703125 -6.984375 41.28125 -4.953125 48.125 -4.953125 C 54.96875 -4.953125 60.6875 -7.222656 65.28125 -11.765625 C 69.882812 -16.304688 72.1875 -21.9375 72.1875 -28.65625 C 72.1875 -33.144531 71.269531 -36.976562 69.4375 -40.15625 C 67.613281 -43.34375 64.695312 -46.320312 60.6875 -49.09375 C 56.675781 -51.875 51.015625 -54.972656 43.703125 -58.390625 C 33.441406 -63.109375 25.976562 -68.03125 21.3125 -73.15625 C 16.65625 -78.289062 14.328125 -84.515625 14.328125 -91.828125 C 14.328125 -98.078125 15.832031 -103.648438 18.84375 -108.546875 C 21.851562 -113.441406 25.921875 -117.21875 31.046875 -119.875 C 36.179688 -122.53125 41.816406 -123.859375 47.953125 -123.859375 C 53.253906 -123.859375 58.441406 -123.117188 63.515625 -121.640625 C 68.585938 -120.171875 73.304688 -118.078125 77.671875 -115.359375 L 77.671875 -96.25 C 74.835938 -102.738281 70.5625 -107.78125 64.84375 -111.375 C 59.125 -114.976562 53.316406 -116.78125 47.421875 -116.78125 C 40.691406 -116.78125 35.265625 -114.597656 31.140625 -110.234375 C 27.015625 -105.867188 24.953125 -100.675781 24.953125 -94.65625 C 24.953125 -90.289062 26.1875 -86.546875 28.65625 -83.421875 C 31.132812 -80.296875 34.171875 -77.671875 37.765625 -75.546875 C 41.367188 -73.429688 46.414062 -70.835938 52.90625 -67.765625 C 59.507812 -64.578125 64.929688 -61.625 69.171875 -58.90625 C 73.421875 -56.195312 76.960938 -52.660156 79.796875 -48.296875 C 82.628906 -43.929688 84.046875 -38.625 84.046875 -32.375 C 84.046875 -25.300781 82.363281 -19.164062 79 -13.96875 C 75.632812 -8.78125 71.148438 -4.800781 65.546875 -2.03125 C 59.953125 0.738281 53.851562 2.125 47.25 2.125 Z M 47.25 2.125 " />
            </g>
        </g>
    </g>
    <g fill="#000000" fill-opacity="1">
        <g transform="translate(431.243146, 358.836149)">
            <g>
                <path
                    d="M 11.328125 -59.453125 C 11.328125 -71.953125 14.007812 -83.097656 19.375 -92.890625 C 24.738281 -102.679688 32.285156 -110.289062 42.015625 -115.71875 C 51.753906 -121.144531 62.992188 -123.859375 75.734375 -123.859375 C 86.347656 -123.859375 96.285156 -121.523438 105.546875 -116.859375 C 114.804688 -112.203125 122.234375 -105.210938 127.828125 -95.890625 C 133.429688 -86.578125 136.234375 -75.375 136.234375 -62.28125 C 136.234375 -49.78125 133.550781 -38.632812 128.1875 -28.84375 C 122.820312 -19.050781 115.273438 -11.441406 105.546875 -6.015625 C 95.816406 -0.585938 84.582031 2.125 71.84375 2.125 C 61.21875 2.125 51.273438 -0.203125 42.015625 -4.859375 C 32.765625 -9.523438 25.335938 -16.515625 19.734375 -25.828125 C 14.128906 -35.148438 11.328125 -46.359375 11.328125 -59.453125 Z M 122.09375 -59.625 C 122.09375 -70.363281 119.878906 -80.066406 115.453125 -88.734375 C 111.023438 -97.398438 104.945312 -104.179688 97.21875 -109.078125 C 89.5 -113.972656 80.800781 -116.421875 71.125 -116.421875 C 62.28125 -116.421875 54.40625 -114.179688 47.5 -109.703125 C 40.601562 -105.222656 35.207031 -98.882812 31.3125 -90.6875 C 27.425781 -82.488281 25.484375 -72.960938 25.484375 -62.109375 C 25.484375 -51.367188 27.691406 -41.664062 32.109375 -33 C 36.535156 -24.332031 42.609375 -17.550781 50.328125 -12.65625 C 58.054688 -7.757812 66.757812 -5.3125 76.4375 -5.3125 C 85.28125 -5.3125 93.148438 -7.550781 100.046875 -12.03125 C 106.953125 -16.507812 112.351562 -22.847656 116.25 -31.046875 C 120.144531 -39.242188 122.09375 -48.769531 122.09375 -59.625 Z M 122.09375 -59.625 " />
            </g>
        </g>
    </g>
    <g fill="#000000" fill-opacity="1">
        <g transform="translate(575.963013, 358.836149)">
            <g>
                <path
                    d="M 128.984375 -121.734375 C 127.335938 -121.378906 125.71875 -120.050781 124.125 -117.75 C 122.53125 -115.445312 121.734375 -111.40625 121.734375 -105.625 L 121.734375 4.953125 L 31.140625 -100.671875 L 31.140625 -15.921875 C 31.140625 -10.265625 32.140625 -6.285156 34.140625 -3.984375 C 36.148438 -1.679688 38.097656 -0.351562 39.984375 0 L 15.046875 0 C 16.691406 -0.351562 18.367188 -1.679688 20.078125 -3.984375 C 21.785156 -6.285156 22.640625 -10.320312 22.640625 -16.09375 L 22.640625 -104.5625 C 22.640625 -108.582031 21.285156 -112.242188 18.578125 -115.546875 C 15.867188 -118.847656 12.445312 -120.910156 8.3125 -121.734375 L 30.25 -121.734375 L 113.234375 -24.953125 L 113.234375 -105.625 C 113.234375 -114.707031 110.171875 -120.078125 104.046875 -121.734375 Z M 128.984375 -121.734375 " />
            </g>
        </g>
    </g>
    <g fill="#ffffff" fill-opacity="1">
        <g transform="translate(345.212762, 355.853244)">
            <g>
                <path
                    d="M 47.25 2.125 C 41.113281 2.125 35.210938 1.269531 29.546875 -0.4375 C 23.890625 -2.15625 18.816406 -4.546875 14.328125 -7.609375 L 14.328125 -29.015625 C 17.398438 -21.109375 22.085938 -15.117188 28.390625 -11.046875 C 34.703125 -6.984375 41.28125 -4.953125 48.125 -4.953125 C 54.96875 -4.953125 60.6875 -7.222656 65.28125 -11.765625 C 69.882812 -16.304688 72.1875 -21.9375 72.1875 -28.65625 C 72.1875 -33.144531 71.269531 -36.976562 69.4375 -40.15625 C 67.613281 -43.34375 64.695312 -46.320312 60.6875 -49.09375 C 56.675781 -51.875 51.015625 -54.972656 43.703125 -58.390625 C 33.441406 -63.109375 25.976562 -68.03125 21.3125 -73.15625 C 16.65625 -78.289062 14.328125 -84.515625 14.328125 -91.828125 C 14.328125 -98.078125 15.832031 -103.648438 18.84375 -108.546875 C 21.851562 -113.441406 25.921875 -117.21875 31.046875 -119.875 C 36.179688 -122.53125 41.816406 -123.859375 47.953125 -123.859375 C 53.253906 -123.859375 58.441406 -123.117188 63.515625 -121.640625 C 68.585938 -120.171875 73.304688 -118.078125 77.671875 -115.359375 L 77.671875 -96.25 C 74.835938 -102.738281 70.5625 -107.78125 64.84375 -111.375 C 59.125 -114.976562 53.316406 -116.78125 47.421875 -116.78125 C 40.691406 -116.78125 35.265625 -114.597656 31.140625 -110.234375 C 27.015625 -105.867188 24.953125 -100.675781 24.953125 -94.65625 C 24.953125 -90.289062 26.1875 -86.546875 28.65625 -83.421875 C 31.132812 -80.296875 34.171875 -77.671875 37.765625 -75.546875 C 41.367188 -73.429688 46.414062 -70.835938 52.90625 -67.765625 C 59.507812 -64.578125 64.929688 -61.625 69.171875 -58.90625 C 73.421875 -56.195312 76.960938 -52.660156 79.796875 -48.296875 C 82.628906 -43.929688 84.046875 -38.625 84.046875 -32.375 C 84.046875 -25.300781 82.363281 -19.164062 79 -13.96875 C 75.632812 -8.78125 71.148438 -4.800781 65.546875 -2.03125 C 59.953125 0.738281 53.851562 2.125 47.25 2.125 Z M 47.25 2.125 " />
            </g>
        </g>
    </g>
    <g fill="#ffffff" fill-opacity="1">
        <g transform="translate(438.626076, 355.853244)">
            <g>
                <path
                    d="M 11.328125 -59.453125 C 11.328125 -71.953125 14.007812 -83.097656 19.375 -92.890625 C 24.738281 -102.679688 32.285156 -110.289062 42.015625 -115.71875 C 51.753906 -121.144531 62.992188 -123.859375 75.734375 -123.859375 C 86.347656 -123.859375 96.285156 -121.523438 105.546875 -116.859375 C 114.804688 -112.203125 122.234375 -105.210938 127.828125 -95.890625 C 133.429688 -86.578125 136.234375 -75.375 136.234375 -62.28125 C 136.234375 -49.78125 133.550781 -38.632812 128.1875 -28.84375 C 122.820312 -19.050781 115.273438 -11.441406 105.546875 -6.015625 C 95.816406 -0.585938 84.582031 2.125 71.84375 2.125 C 61.21875 2.125 51.273438 -0.203125 42.015625 -4.859375 C 32.765625 -9.523438 25.335938 -16.515625 19.734375 -25.828125 C 14.128906 -35.148438 11.328125 -46.359375 11.328125 -59.453125 Z M 122.09375 -59.625 C 122.09375 -70.363281 119.878906 -80.066406 115.453125 -88.734375 C 111.023438 -97.398438 104.945312 -104.179688 97.21875 -109.078125 C 89.5 -113.972656 80.800781 -116.421875 71.125 -116.421875 C 62.28125 -116.421875 54.40625 -114.179688 47.5 -109.703125 C 40.601562 -105.222656 35.207031 -98.882812 31.3125 -90.6875 C 27.425781 -82.488281 25.484375 -72.960938 25.484375 -62.109375 C 25.484375 -51.367188 27.691406 -41.664062 32.109375 -33 C 36.535156 -24.332031 42.609375 -17.550781 50.328125 -12.65625 C 58.054688 -7.757812 66.757812 -5.3125 76.4375 -5.3125 C 85.28125 -5.3125 93.148438 -7.550781 100.046875 -12.03125 C 106.953125 -16.507812 112.351562 -22.847656 116.25 -31.046875 C 120.144531 -39.242188 122.09375 -48.769531 122.09375 -59.625 Z M 122.09375 -59.625 " />
            </g>
        </g>
    </g>
    <g fill="#ffffff" fill-opacity="1">
        <g transform="translate(583.345942, 355.853244)">
            <g>
                <path
                    d="M 128.984375 -121.734375 C 127.335938 -121.378906 125.71875 -120.050781 124.125 -117.75 C 122.53125 -115.445312 121.734375 -111.40625 121.734375 -105.625 L 121.734375 4.953125 L 31.140625 -100.671875 L 31.140625 -15.921875 C 31.140625 -10.265625 32.140625 -6.285156 34.140625 -3.984375 C 36.148438 -1.679688 38.097656 -0.351562 39.984375 0 L 15.046875 0 C 16.691406 -0.351562 18.367188 -1.679688 20.078125 -3.984375 C 21.785156 -6.285156 22.640625 -10.320312 22.640625 -16.09375 L 22.640625 -104.5625 C 22.640625 -108.582031 21.285156 -112.242188 18.578125 -115.546875 C 15.867188 -118.847656 12.445312 -120.910156 8.3125 -121.734375 L 30.25 -121.734375 L 113.234375 -24.953125 L 113.234375 -105.625 C 113.234375 -114.707031 110.171875 -120.078125 104.046875 -121.734375 Z M 128.984375 -121.734375 " />
            </g>
        </g>
    </g>
    <g fill="#000000" fill-opacity="1">
        <g transform="translate(23.742628, 430.15089)">
            <g>
                <path
                    d="M 51.171875 -35.90625 C 51.660156 -37.375 51.90625 -38.515625 51.90625 -39.328125 C 51.90625 -40.992188 51.171875 -41.890625 49.703125 -42.015625 L 59.171875 -42.015625 C 58.554688 -41.890625 57.769531 -41.421875 56.8125 -40.609375 C 55.863281 -39.796875 54.976562 -38.207031 54.15625 -35.84375 L 40.96875 1.46875 L 29.1875 -32.359375 L 17.03125 1.46875 L 5 -36.03125 C 3.945312 -39.445312 2.398438 -41.441406 0.359375 -42.015625 L 10.5 -42.015625 C 9.363281 -41.804688 8.796875 -41.132812 8.796875 -40 C 8.796875 -39.425781 9.039062 -38.40625 9.53125 -36.9375 L 10.203125 -34.8125 L 17.890625 -9.34375 L 30.28125 -43.171875 L 42.078125 -9.59375 Z M 51.171875 -35.90625 " />
            </g>
        </g>
    </g>
    <g fill="#000000" fill-opacity="1">
        <g transform="translate(90.095948, 430.15089)">
            <g>
                <path
                    d="M 5.1875 0 C 5.1875 0.125 5.429688 0.0351562 5.921875 -0.265625 C 6.410156 -0.578125 6.847656 -1.191406 7.234375 -2.109375 C 7.617188 -3.023438 7.8125 -4.359375 7.8125 -6.109375 L 7.8125 -36.09375 C 7.8125 -37.757812 7.617188 -39.03125 7.234375 -39.90625 C 6.847656 -40.78125 6.410156 -41.378906 5.921875 -41.703125 C 5.429688 -42.023438 5.1875 -42.128906 5.1875 -42.015625 L 27.296875 -42.015625 L 27.296875 -35.90625 C 26.566406 -38.34375 24.367188 -39.5625 20.703125 -39.5625 L 12.21875 -39.5625 L 12.21875 -22.234375 L 22.71875 -22.234375 C 23.53125 -22.234375 24.21875 -22.363281 24.78125 -22.625 C 25.351562 -22.882812 25.78125 -23.15625 26.0625 -23.4375 C 26.351562 -23.726562 26.519531 -23.914062 26.5625 -24 L 26.5625 -18.078125 C 26.519531 -18.160156 26.351562 -18.34375 26.0625 -18.625 C 25.78125 -18.90625 25.363281 -19.164062 24.8125 -19.40625 C 24.269531 -19.65625 23.59375 -19.78125 22.78125 -19.78125 L 12.21875 -19.78125 L 12.21875 -2.4375 L 21.734375 -2.4375 C 23.566406 -2.4375 25.144531 -2.8125 26.46875 -3.5625 C 27.789062 -4.320312 28.738281 -5.289062 29.3125 -6.46875 L 28.203125 0 Z M 5.1875 0 " />
            </g>
        </g>
    </g>
    <g fill="#000000" fill-opacity="1">
        <g transform="translate(130.080305, 430.15089)">
            <g>
                <path
                    d="M 24.546875 -1.03125 C 23.484375 -0.664062 22.269531 -0.398438 20.90625 -0.234375 C 19.550781 -0.078125 17.671875 0 15.265625 0 L 5.1875 0 C 5.71875 -0.125 6.285156 -0.582031 6.890625 -1.375 C 7.503906 -2.164062 7.8125 -3.703125 7.8125 -5.984375 L 7.8125 -36.203125 C 7.8125 -38.328125 7.523438 -39.785156 6.953125 -40.578125 C 6.390625 -41.367188 5.820312 -41.847656 5.25 -42.015625 L 15.265625 -42.015625 C 17.867188 -42.015625 19.851562 -41.898438 21.21875 -41.671875 C 22.582031 -41.453125 23.773438 -41.117188 24.796875 -40.671875 C 26.585938 -39.816406 27.96875 -38.613281 28.9375 -37.0625 C 29.914062 -35.519531 30.40625 -33.851562 30.40625 -32.0625 C 30.40625 -29.332031 29.582031 -26.976562 27.9375 -25 C 26.289062 -23.03125 24.125 -21.757812 21.4375 -21.1875 C 23.269531 -20.988281 25.007812 -20.457031 26.65625 -19.59375 C 28.300781 -18.738281 29.640625 -17.578125 30.671875 -16.109375 C 31.710938 -14.648438 32.234375 -12.984375 32.234375 -11.109375 C 32.234375 -8.503906 31.539062 -6.378906 30.15625 -4.734375 C 28.78125 -3.085938 26.910156 -1.851562 24.546875 -1.03125 Z M 22.84375 -37.734375 C 22.019531 -38.347656 21.140625 -38.804688 20.203125 -39.109375 C 19.273438 -39.410156 18.015625 -39.5625 16.421875 -39.5625 L 12.21875 -39.5625 L 12.21875 -22.234375 L 17.15625 -22.234375 C 18.625 -22.234375 19.84375 -22.453125 20.8125 -22.890625 C 21.789062 -23.335938 22.648438 -23.929688 23.390625 -24.671875 C 24.160156 -25.441406 24.769531 -26.375 25.21875 -27.46875 C 25.664062 -28.570312 25.890625 -29.695312 25.890625 -30.84375 C 25.890625 -32.21875 25.632812 -33.515625 25.125 -34.734375 C 24.613281 -35.960938 23.851562 -36.960938 22.84375 -37.734375 Z M 24.125 -18.015625 C 23.34375 -18.617188 22.382812 -19.0625 21.25 -19.34375 C 20.113281 -19.632812 18.566406 -19.78125 16.609375 -19.78125 L 12.21875 -19.78125 L 12.21875 -2.4375 L 18.015625 -2.4375 C 20.941406 -2.4375 23.226562 -3.128906 24.875 -4.515625 C 26.53125 -5.898438 27.359375 -8.097656 27.359375 -11.109375 C 27.359375 -13.921875 26.28125 -16.222656 24.125 -18.015625 Z M 24.125 -18.015625 " />
            </g>
        </g>
    </g>
    <g fill="#000000" fill-opacity="1">
        <g transform="translate(173.971178, 430.15089)">
            <g />
        </g>
    </g>
    <g fill="#000000" fill-opacity="1">
        <g transform="translate(197.352833, 430.15089)">
            <g>
                <path
                    d="M 32.546875 -3.421875 C 28.722656 -1.140625 23.613281 0 17.21875 0 L 5.1875 0 C 5.1875 0.125 5.429688 0.015625 5.921875 -0.328125 C 6.410156 -0.679688 6.847656 -1.320312 7.234375 -2.25 C 7.617188 -3.1875 7.8125 -4.550781 7.8125 -6.34375 L 7.8125 -36.390625 C 7.8125 -37.984375 7.617188 -39.195312 7.234375 -40.03125 C 6.847656 -40.863281 6.410156 -41.421875 5.921875 -41.703125 C 5.429688 -41.992188 5.1875 -42.097656 5.1875 -42.015625 L 17.15625 -42.015625 C 23.382812 -42.015625 28.3125 -40.992188 31.9375 -38.953125 C 35.15625 -37.160156 37.640625 -34.738281 39.390625 -31.6875 C 41.140625 -28.632812 42.015625 -25.195312 42.015625 -21.375 C 42.015625 -17.21875 41.1875 -13.625 39.53125 -10.59375 C 37.882812 -7.5625 35.554688 -5.171875 32.546875 -3.421875 Z M 30.171875 -36.203125 C 28.378906 -37.390625 26.460938 -38.242188 24.421875 -38.765625 C 22.390625 -39.296875 19.96875 -39.5625 17.15625 -39.5625 L 12.21875 -39.5625 L 12.21875 -2.4375 L 17.15625 -2.4375 C 20.5 -2.4375 23.238281 -2.722656 25.375 -3.296875 C 27.507812 -3.867188 29.347656 -4.742188 30.890625 -5.921875 C 32.890625 -7.472656 34.425781 -9.5 35.5 -12 C 36.582031 -14.5 37.125 -17.421875 37.125 -20.765625 C 37.125 -24.304688 36.503906 -27.410156 35.265625 -30.078125 C 34.023438 -32.742188 32.328125 -34.785156 30.171875 -36.203125 Z M 30.171875 -36.203125 " />
            </g>
        </g>
    </g>
    <g fill="#000000" fill-opacity="1">
        <g transform="translate(250.521671, 430.15089)">
            <g>
                <path
                    d="M 5.1875 0 C 5.1875 0.125 5.429688 0.0351562 5.921875 -0.265625 C 6.410156 -0.578125 6.847656 -1.191406 7.234375 -2.109375 C 7.617188 -3.023438 7.8125 -4.359375 7.8125 -6.109375 L 7.8125 -36.09375 C 7.8125 -37.757812 7.617188 -39.03125 7.234375 -39.90625 C 6.847656 -40.78125 6.410156 -41.378906 5.921875 -41.703125 C 5.429688 -42.023438 5.1875 -42.128906 5.1875 -42.015625 L 27.296875 -42.015625 L 27.296875 -35.90625 C 26.566406 -38.34375 24.367188 -39.5625 20.703125 -39.5625 L 12.21875 -39.5625 L 12.21875 -22.234375 L 22.71875 -22.234375 C 23.53125 -22.234375 24.21875 -22.363281 24.78125 -22.625 C 25.351562 -22.882812 25.78125 -23.15625 26.0625 -23.4375 C 26.351562 -23.726562 26.519531 -23.914062 26.5625 -24 L 26.5625 -18.078125 C 26.519531 -18.160156 26.351562 -18.34375 26.0625 -18.625 C 25.78125 -18.90625 25.363281 -19.164062 24.8125 -19.40625 C 24.269531 -19.65625 23.59375 -19.78125 22.78125 -19.78125 L 12.21875 -19.78125 L 12.21875 -2.4375 L 21.734375 -2.4375 C 23.566406 -2.4375 25.144531 -2.8125 26.46875 -3.5625 C 27.789062 -4.320312 28.738281 -5.289062 29.3125 -6.46875 L 28.203125 0 Z M 5.1875 0 " />
            </g>
        </g>
    </g>
    <g fill="#000000" fill-opacity="1">
        <g transform="translate(290.506028, 430.15089)">
            <g>
                <path
                    d="M 32.609375 -38.78125 C 32.609375 -39.59375 32.382812 -40.289062 31.9375 -40.875 C 31.488281 -41.46875 30.796875 -41.847656 29.859375 -42.015625 L 40.125 -42.015625 C 39.59375 -41.929688 38.878906 -41.460938 37.984375 -40.609375 C 37.085938 -39.753906 36.148438 -38.164062 35.171875 -35.84375 L 19.71875 1.46875 L 4.03125 -36.03125 C 3.132812 -38.1875 2.25 -39.679688 1.375 -40.515625 C 0.5 -41.347656 -0.222656 -41.847656 -0.796875 -42.015625 L 9.40625 -42.015625 C 8.300781 -41.722656 7.75 -41.007812 7.75 -39.875 C 7.75 -39.257812 7.890625 -38.601562 8.171875 -37.90625 C 8.460938 -37.21875 8.628906 -36.816406 8.671875 -36.703125 L 20.515625 -7.6875 L 32 -35.90625 C 32.40625 -36.84375 32.609375 -37.800781 32.609375 -38.78125 Z M 32.609375 -38.78125 " />
            </g>
        </g>
    </g>
    <g fill="#000000" fill-opacity="1">
        <g transform="translate(336.594305, 430.15089)">
            <g>
                <path
                    d="M 5.1875 0 C 5.1875 0.125 5.429688 0.0351562 5.921875 -0.265625 C 6.410156 -0.578125 6.847656 -1.191406 7.234375 -2.109375 C 7.617188 -3.023438 7.8125 -4.359375 7.8125 -6.109375 L 7.8125 -36.09375 C 7.8125 -37.757812 7.617188 -39.03125 7.234375 -39.90625 C 6.847656 -40.78125 6.410156 -41.378906 5.921875 -41.703125 C 5.429688 -42.023438 5.1875 -42.128906 5.1875 -42.015625 L 27.296875 -42.015625 L 27.296875 -35.90625 C 26.566406 -38.34375 24.367188 -39.5625 20.703125 -39.5625 L 12.21875 -39.5625 L 12.21875 -22.234375 L 22.71875 -22.234375 C 23.53125 -22.234375 24.21875 -22.363281 24.78125 -22.625 C 25.351562 -22.882812 25.78125 -23.15625 26.0625 -23.4375 C 26.351562 -23.726562 26.519531 -23.914062 26.5625 -24 L 26.5625 -18.078125 C 26.519531 -18.160156 26.351562 -18.34375 26.0625 -18.625 C 25.78125 -18.90625 25.363281 -19.164062 24.8125 -19.40625 C 24.269531 -19.65625 23.59375 -19.78125 22.78125 -19.78125 L 12.21875 -19.78125 L 12.21875 -2.4375 L 21.734375 -2.4375 C 23.566406 -2.4375 25.144531 -2.8125 26.46875 -3.5625 C 27.789062 -4.320312 28.738281 -5.289062 29.3125 -6.46875 L 28.203125 0 Z M 5.1875 0 " />
            </g>
        </g>
    </g>
    <g fill="#000000" fill-opacity="1">
        <g transform="translate(376.578662, 430.15089)">
            <g>
                <path
                    d="M 7.8125 -36.328125 C 7.8125 -37.960938 7.617188 -39.195312 7.234375 -40.03125 C 6.847656 -40.863281 6.410156 -41.421875 5.921875 -41.703125 C 5.429688 -41.992188 5.1875 -42.097656 5.1875 -42.015625 L 14.90625 -42.015625 C 14.90625 -42.097656 14.660156 -41.992188 14.171875 -41.703125 C 13.679688 -41.421875 13.234375 -40.863281 12.828125 -40.03125 C 12.421875 -39.195312 12.21875 -37.960938 12.21875 -36.328125 L 12.21875 -2.4375 L 22.234375 -2.4375 C 24.054688 -2.4375 25.628906 -2.8125 26.953125 -3.5625 C 28.273438 -4.320312 29.222656 -5.289062 29.796875 -6.46875 L 28.703125 0 L 5.1875 0 C 5.1875 0.125 5.429688 0.0351562 5.921875 -0.265625 C 6.410156 -0.578125 6.847656 -1.191406 7.234375 -2.109375 C 7.617188 -3.023438 7.8125 -4.359375 7.8125 -6.109375 Z M 7.8125 -36.328125 " />
            </g>
        </g>
    </g>
    <g fill="#000000" fill-opacity="1">
        <g transform="translate(415.22013, 430.15089)">
            <g>
                <path
                    d="M 3.90625 -20.515625 C 3.90625 -24.828125 4.832031 -28.671875 6.6875 -32.046875 C 8.539062 -35.429688 11.144531 -38.0625 14.5 -39.9375 C 17.863281 -41.8125 21.742188 -42.75 26.140625 -42.75 C 29.796875 -42.75 33.222656 -41.941406 36.421875 -40.328125 C 39.617188 -38.722656 42.179688 -36.3125 44.109375 -33.09375 C 46.046875 -29.875 47.015625 -26.007812 47.015625 -21.5 C 47.015625 -17.175781 46.085938 -13.328125 44.234375 -9.953125 C 42.390625 -6.578125 39.785156 -3.953125 36.421875 -2.078125 C 33.066406 -0.203125 29.191406 0.734375 24.796875 0.734375 C 21.128906 0.734375 17.695312 -0.0664062 14.5 -1.671875 C 11.300781 -3.285156 8.734375 -5.695312 6.796875 -8.90625 C 4.867188 -12.125 3.90625 -15.992188 3.90625 -20.515625 Z M 42.140625 -20.578125 C 42.140625 -24.285156 41.375 -27.632812 39.84375 -30.625 C 38.3125 -33.613281 36.210938 -35.953125 33.546875 -37.640625 C 30.878906 -39.328125 27.878906 -40.171875 24.546875 -40.171875 C 21.492188 -40.171875 18.773438 -39.394531 16.390625 -37.84375 C 14.015625 -36.300781 12.15625 -34.113281 10.8125 -31.28125 C 9.46875 -28.457031 8.796875 -25.175781 8.796875 -21.4375 C 8.796875 -17.726562 9.554688 -14.378906 11.078125 -11.390625 C 12.609375 -8.398438 14.707031 -6.054688 17.375 -4.359375 C 20.039062 -2.671875 23.039062 -1.828125 26.375 -1.828125 C 29.425781 -1.828125 32.144531 -2.597656 34.53125 -4.140625 C 36.914062 -5.691406 38.78125 -7.878906 40.125 -10.703125 C 41.46875 -13.535156 42.140625 -16.828125 42.140625 -20.578125 Z M 42.140625 -20.578125 " />
            </g>
        </g>
    </g>
    <g fill="#000000" fill-opacity="1">
        <g transform="translate(472.905852, 430.15089)">
            <g>
                <path
                    d="M 31.515625 -30.65625 C 31.515625 -28.289062 30.953125 -26.179688 29.828125 -24.328125 C 28.710938 -22.484375 27.113281 -21.03125 25.03125 -19.96875 C 22.957031 -18.90625 20.515625 -18.375 17.703125 -18.375 C 15.992188 -18.375 14.164062 -18.554688 12.21875 -18.921875 L 12.21875 -5.625 C 12.21875 -4.03125 12.421875 -2.816406 12.828125 -1.984375 C 13.234375 -1.148438 13.679688 -0.585938 14.171875 -0.296875 C 14.660156 -0.015625 14.90625 0.0820312 14.90625 0 L 5.1875 0 C 5.1875 0.0820312 5.429688 -0.015625 5.921875 -0.296875 C 6.410156 -0.585938 6.847656 -1.140625 7.234375 -1.953125 C 7.617188 -2.765625 7.8125 -3.988281 7.8125 -5.625 L 7.8125 -36.203125 C 7.8125 -37.835938 7.617188 -39.082031 7.234375 -39.9375 C 6.847656 -40.789062 6.410156 -41.367188 5.921875 -41.671875 C 5.429688 -41.984375 5.1875 -42.097656 5.1875 -42.015625 L 17.15625 -42.015625 C 19.226562 -42.015625 20.9375 -41.878906 22.28125 -41.609375 C 23.625 -41.347656 24.804688 -40.953125 25.828125 -40.421875 C 27.660156 -39.484375 29.066406 -38.128906 30.046875 -36.359375 C 31.023438 -34.585938 31.515625 -32.6875 31.515625 -30.65625 Z M 26.8125 -29.859375 C 26.8125 -32.742188 25.914062 -35.082031 24.125 -36.875 C 22.332031 -38.664062 19.945312 -39.5625 16.96875 -39.5625 L 12.21875 -39.5625 L 12.21875 -21.3125 C 13.96875 -20.988281 15.796875 -20.828125 17.703125 -20.828125 C 20.554688 -20.828125 22.785156 -21.648438 24.390625 -23.296875 C 26.003906 -24.941406 26.8125 -27.128906 26.8125 -29.859375 Z M 26.8125 -29.859375 " />
            </g>
        </g>
    </g>
    <g fill="#000000" fill-opacity="1">
        <g transform="translate(514.110946, 430.15089)">
            <g>
                <path
                    d="M 40.546875 0 C 41.035156 -0.0820312 41.5625 -0.519531 42.125 -1.3125 C 42.695312 -2.101562 42.984375 -3.578125 42.984375 -5.734375 L 42.984375 -36.265625 L 26.984375 0.671875 L 10.75 -36.203125 L 10.75 -6.046875 C 10.75 -3.847656 11.101562 -2.3125 11.8125 -1.4375 C 12.53125 -0.5625 13.171875 -0.0820312 13.734375 0 L 4.703125 0 C 5.316406 -0.0820312 5.988281 -0.539062 6.71875 -1.375 C 7.445312 -2.207031 7.8125 -3.765625 7.8125 -6.046875 L 7.8125 -36.640625 C 7.8125 -38.585938 7.460938 -39.925781 6.765625 -40.65625 C 6.078125 -41.394531 5.390625 -41.847656 4.703125 -42.015625 L 12.9375 -42.015625 L 27.90625 -7.875 L 42.625 -42.015625 L 50.015625 -42.015625 C 49.484375 -41.929688 48.910156 -41.5 48.296875 -40.71875 C 47.691406 -39.945312 47.390625 -38.523438 47.390625 -36.453125 L 47.390625 -5.5 C 47.390625 -3.457031 47.691406 -2.050781 48.296875 -1.28125 C 48.910156 -0.507812 49.484375 -0.0820312 50.015625 0 Z M 40.546875 0 " />
            </g>
        </g>
    </g>
    <g fill="#000000" fill-opacity="1">
        <g transform="translate(576.069455, 430.15089)">
            <g>
                <path
                    d="M 5.1875 0 C 5.1875 0.125 5.429688 0.0351562 5.921875 -0.265625 C 6.410156 -0.578125 6.847656 -1.191406 7.234375 -2.109375 C 7.617188 -3.023438 7.8125 -4.359375 7.8125 -6.109375 L 7.8125 -36.09375 C 7.8125 -37.757812 7.617188 -39.03125 7.234375 -39.90625 C 6.847656 -40.78125 6.410156 -41.378906 5.921875 -41.703125 C 5.429688 -42.023438 5.1875 -42.128906 5.1875 -42.015625 L 27.296875 -42.015625 L 27.296875 -35.90625 C 26.566406 -38.34375 24.367188 -39.5625 20.703125 -39.5625 L 12.21875 -39.5625 L 12.21875 -22.234375 L 22.71875 -22.234375 C 23.53125 -22.234375 24.21875 -22.363281 24.78125 -22.625 C 25.351562 -22.882812 25.78125 -23.15625 26.0625 -23.4375 C 26.351562 -23.726562 26.519531 -23.914062 26.5625 -24 L 26.5625 -18.078125 C 26.519531 -18.160156 26.351562 -18.34375 26.0625 -18.625 C 25.78125 -18.90625 25.363281 -19.164062 24.8125 -19.40625 C 24.269531 -19.65625 23.59375 -19.78125 22.78125 -19.78125 L 12.21875 -19.78125 L 12.21875 -2.4375 L 21.734375 -2.4375 C 23.566406 -2.4375 25.144531 -2.8125 26.46875 -3.5625 C 27.789062 -4.320312 28.738281 -5.289062 29.3125 -6.46875 L 28.203125 0 Z M 5.1875 0 " />
            </g>
        </g>
    </g>
    <g fill="#000000" fill-opacity="1">
        <g transform="translate(616.053813, 430.15089)">
            <g>
                <path
                    d="M 44.515625 -42.015625 C 43.941406 -41.890625 43.378906 -41.429688 42.828125 -40.640625 C 42.285156 -39.847656 42.015625 -38.453125 42.015625 -36.453125 L 42.015625 1.703125 L 10.75 -34.75 L 10.75 -5.5 C 10.75 -3.539062 11.09375 -2.164062 11.78125 -1.375 C 12.476562 -0.582031 13.148438 -0.125 13.796875 0 L 5.1875 0 C 5.757812 -0.125 6.335938 -0.582031 6.921875 -1.375 C 7.515625 -2.164062 7.8125 -3.5625 7.8125 -5.5625 L 7.8125 -36.09375 C 7.8125 -37.476562 7.34375 -38.738281 6.40625 -39.875 C 5.46875 -41.007812 4.289062 -41.722656 2.875 -42.015625 L 10.4375 -42.015625 L 39.078125 -8.609375 L 39.078125 -36.453125 C 39.078125 -39.585938 38.019531 -41.441406 35.90625 -42.015625 Z M 44.515625 -42.015625 " />
            </g>
        </g>
    </g>
    <g fill="#000000" fill-opacity="1">
        <g transform="translate(672.640819, 430.15089)">
            <g>
                <path
                    d="M 9.03125 -39.5625 C 7.238281 -39.5625 5.753906 -39.21875 4.578125 -38.53125 C 3.398438 -37.84375 2.546875 -36.96875 2.015625 -35.90625 L 2.875 -42.015625 L 31.8125 -42.015625 L 32.671875 -35.90625 C 32.140625 -36.96875 31.28125 -37.84375 30.09375 -38.53125 C 28.914062 -39.21875 27.429688 -39.5625 25.640625 -39.5625 L 19.546875 -39.5625 L 19.546875 -5.671875 C 19.546875 -4.046875 19.75 -2.804688 20.15625 -1.953125 C 20.5625 -1.097656 21.007812 -0.523438 21.5 -0.234375 C 21.988281 0.046875 22.234375 0.125 22.234375 0 L 12.515625 0 C 12.515625 0.125 12.757812 0.046875 13.25 -0.234375 C 13.738281 -0.523438 14.175781 -1.085938 14.5625 -1.921875 C 14.945312 -2.753906 15.140625 -4.003906 15.140625 -5.671875 L 15.140625 -39.5625 Z M 9.03125 -39.5625 " />
            </g>
        </g>
    </g>
    <g fill="#ffffff" fill-opacity="1">
        <g transform="translate(28.343081, 428.292179)">
            <g>
                <path
                    d="M 51.171875 -35.90625 C 51.660156 -37.375 51.90625 -38.515625 51.90625 -39.328125 C 51.90625 -40.992188 51.171875 -41.890625 49.703125 -42.015625 L 59.171875 -42.015625 C 58.554688 -41.890625 57.769531 -41.421875 56.8125 -40.609375 C 55.863281 -39.796875 54.976562 -38.207031 54.15625 -35.84375 L 40.96875 1.46875 L 29.1875 -32.359375 L 17.03125 1.46875 L 5 -36.03125 C 3.945312 -39.445312 2.398438 -41.441406 0.359375 -42.015625 L 10.5 -42.015625 C 9.363281 -41.804688 8.796875 -41.132812 8.796875 -40 C 8.796875 -39.425781 9.039062 -38.40625 9.53125 -36.9375 L 10.203125 -34.8125 L 17.890625 -9.34375 L 30.28125 -43.171875 L 42.078125 -9.59375 Z M 51.171875 -35.90625 " />
            </g>
        </g>
    </g>
    <g fill="#ffffff" fill-opacity="1">
        <g transform="translate(94.696401, 428.292179)">
            <g>
                <path
                    d="M 5.1875 0 C 5.1875 0.125 5.429688 0.0351562 5.921875 -0.265625 C 6.410156 -0.578125 6.847656 -1.191406 7.234375 -2.109375 C 7.617188 -3.023438 7.8125 -4.359375 7.8125 -6.109375 L 7.8125 -36.09375 C 7.8125 -37.757812 7.617188 -39.03125 7.234375 -39.90625 C 6.847656 -40.78125 6.410156 -41.378906 5.921875 -41.703125 C 5.429688 -42.023438 5.1875 -42.128906 5.1875 -42.015625 L 27.296875 -42.015625 L 27.296875 -35.90625 C 26.566406 -38.34375 24.367188 -39.5625 20.703125 -39.5625 L 12.21875 -39.5625 L 12.21875 -22.234375 L 22.71875 -22.234375 C 23.53125 -22.234375 24.21875 -22.363281 24.78125 -22.625 C 25.351562 -22.882812 25.78125 -23.15625 26.0625 -23.4375 C 26.351562 -23.726562 26.519531 -23.914062 26.5625 -24 L 26.5625 -18.078125 C 26.519531 -18.160156 26.351562 -18.34375 26.0625 -18.625 C 25.78125 -18.90625 25.363281 -19.164062 24.8125 -19.40625 C 24.269531 -19.65625 23.59375 -19.78125 22.78125 -19.78125 L 12.21875 -19.78125 L 12.21875 -2.4375 L 21.734375 -2.4375 C 23.566406 -2.4375 25.144531 -2.8125 26.46875 -3.5625 C 27.789062 -4.320312 28.738281 -5.289062 29.3125 -6.46875 L 28.203125 0 Z M 5.1875 0 " />
            </g>
        </g>
    </g>
    <g fill="#ffffff" fill-opacity="1">
        <g transform="translate(134.680759, 428.292179)">
            <g>
                <path
                    d="M 24.546875 -1.03125 C 23.484375 -0.664062 22.269531 -0.398438 20.90625 -0.234375 C 19.550781 -0.078125 17.671875 0 15.265625 0 L 5.1875 0 C 5.71875 -0.125 6.285156 -0.582031 6.890625 -1.375 C 7.503906 -2.164062 7.8125 -3.703125 7.8125 -5.984375 L 7.8125 -36.203125 C 7.8125 -38.328125 7.523438 -39.785156 6.953125 -40.578125 C 6.390625 -41.367188 5.820312 -41.847656 5.25 -42.015625 L 15.265625 -42.015625 C 17.867188 -42.015625 19.851562 -41.898438 21.21875 -41.671875 C 22.582031 -41.453125 23.773438 -41.117188 24.796875 -40.671875 C 26.585938 -39.816406 27.96875 -38.613281 28.9375 -37.0625 C 29.914062 -35.519531 30.40625 -33.851562 30.40625 -32.0625 C 30.40625 -29.332031 29.582031 -26.976562 27.9375 -25 C 26.289062 -23.03125 24.125 -21.757812 21.4375 -21.1875 C 23.269531 -20.988281 25.007812 -20.457031 26.65625 -19.59375 C 28.300781 -18.738281 29.640625 -17.578125 30.671875 -16.109375 C 31.710938 -14.648438 32.234375 -12.984375 32.234375 -11.109375 C 32.234375 -8.503906 31.539062 -6.378906 30.15625 -4.734375 C 28.78125 -3.085938 26.910156 -1.851562 24.546875 -1.03125 Z M 22.84375 -37.734375 C 22.019531 -38.347656 21.140625 -38.804688 20.203125 -39.109375 C 19.273438 -39.410156 18.015625 -39.5625 16.421875 -39.5625 L 12.21875 -39.5625 L 12.21875 -22.234375 L 17.15625 -22.234375 C 18.625 -22.234375 19.84375 -22.453125 20.8125 -22.890625 C 21.789062 -23.335938 22.648438 -23.929688 23.390625 -24.671875 C 24.160156 -25.441406 24.769531 -26.375 25.21875 -27.46875 C 25.664062 -28.570312 25.890625 -29.695312 25.890625 -30.84375 C 25.890625 -32.21875 25.632812 -33.515625 25.125 -34.734375 C 24.613281 -35.960938 23.851562 -36.960938 22.84375 -37.734375 Z M 24.125 -18.015625 C 23.34375 -18.617188 22.382812 -19.0625 21.25 -19.34375 C 20.113281 -19.632812 18.566406 -19.78125 16.609375 -19.78125 L 12.21875 -19.78125 L 12.21875 -2.4375 L 18.015625 -2.4375 C 20.941406 -2.4375 23.226562 -3.128906 24.875 -4.515625 C 26.53125 -5.898438 27.359375 -8.097656 27.359375 -11.109375 C 27.359375 -13.921875 26.28125 -16.222656 24.125 -18.015625 Z M 24.125 -18.015625 " />
            </g>
        </g>
    </g>
    <g fill="#ffffff" fill-opacity="1">
        <g transform="translate(178.571631, 428.292179)">
            <g />
        </g>
    </g>
    <g fill="#ffffff" fill-opacity="1">
        <g transform="translate(201.953286, 428.292179)">
            <g>
                <path
                    d="M 32.546875 -3.421875 C 28.722656 -1.140625 23.613281 0 17.21875 0 L 5.1875 0 C 5.1875 0.125 5.429688 0.015625 5.921875 -0.328125 C 6.410156 -0.679688 6.847656 -1.320312 7.234375 -2.25 C 7.617188 -3.1875 7.8125 -4.550781 7.8125 -6.34375 L 7.8125 -36.390625 C 7.8125 -37.984375 7.617188 -39.195312 7.234375 -40.03125 C 6.847656 -40.863281 6.410156 -41.421875 5.921875 -41.703125 C 5.429688 -41.992188 5.1875 -42.097656 5.1875 -42.015625 L 17.15625 -42.015625 C 23.382812 -42.015625 28.3125 -40.992188 31.9375 -38.953125 C 35.15625 -37.160156 37.640625 -34.738281 39.390625 -31.6875 C 41.140625 -28.632812 42.015625 -25.195312 42.015625 -21.375 C 42.015625 -17.21875 41.1875 -13.625 39.53125 -10.59375 C 37.882812 -7.5625 35.554688 -5.171875 32.546875 -3.421875 Z M 30.171875 -36.203125 C 28.378906 -37.390625 26.460938 -38.242188 24.421875 -38.765625 C 22.390625 -39.296875 19.96875 -39.5625 17.15625 -39.5625 L 12.21875 -39.5625 L 12.21875 -2.4375 L 17.15625 -2.4375 C 20.5 -2.4375 23.238281 -2.722656 25.375 -3.296875 C 27.507812 -3.867188 29.347656 -4.742188 30.890625 -5.921875 C 32.890625 -7.472656 34.425781 -9.5 35.5 -12 C 36.582031 -14.5 37.125 -17.421875 37.125 -20.765625 C 37.125 -24.304688 36.503906 -27.410156 35.265625 -30.078125 C 34.023438 -32.742188 32.328125 -34.785156 30.171875 -36.203125 Z M 30.171875 -36.203125 " />
            </g>
        </g>
    </g>
    <g fill="#ffffff" fill-opacity="1">
        <g transform="translate(255.122124, 428.292179)">
            <g>
                <path
                    d="M 5.1875 0 C 5.1875 0.125 5.429688 0.0351562 5.921875 -0.265625 C 6.410156 -0.578125 6.847656 -1.191406 7.234375 -2.109375 C 7.617188 -3.023438 7.8125 -4.359375 7.8125 -6.109375 L 7.8125 -36.09375 C 7.8125 -37.757812 7.617188 -39.03125 7.234375 -39.90625 C 6.847656 -40.78125 6.410156 -41.378906 5.921875 -41.703125 C 5.429688 -42.023438 5.1875 -42.128906 5.1875 -42.015625 L 27.296875 -42.015625 L 27.296875 -35.90625 C 26.566406 -38.34375 24.367188 -39.5625 20.703125 -39.5625 L 12.21875 -39.5625 L 12.21875 -22.234375 L 22.71875 -22.234375 C 23.53125 -22.234375 24.21875 -22.363281 24.78125 -22.625 C 25.351562 -22.882812 25.78125 -23.15625 26.0625 -23.4375 C 26.351562 -23.726562 26.519531 -23.914062 26.5625 -24 L 26.5625 -18.078125 C 26.519531 -18.160156 26.351562 -18.34375 26.0625 -18.625 C 25.78125 -18.90625 25.363281 -19.164062 24.8125 -19.40625 C 24.269531 -19.65625 23.59375 -19.78125 22.78125 -19.78125 L 12.21875 -19.78125 L 12.21875 -2.4375 L 21.734375 -2.4375 C 23.566406 -2.4375 25.144531 -2.8125 26.46875 -3.5625 C 27.789062 -4.320312 28.738281 -5.289062 29.3125 -6.46875 L 28.203125 0 Z M 5.1875 0 " />
            </g>
        </g>
    </g>
    <g fill="#ffffff" fill-opacity="1">
        <g transform="translate(295.106481, 428.292179)">
            <g>
                <path
                    d="M 32.609375 -38.78125 C 32.609375 -39.59375 32.382812 -40.289062 31.9375 -40.875 C 31.488281 -41.46875 30.796875 -41.847656 29.859375 -42.015625 L 40.125 -42.015625 C 39.59375 -41.929688 38.878906 -41.460938 37.984375 -40.609375 C 37.085938 -39.753906 36.148438 -38.164062 35.171875 -35.84375 L 19.71875 1.46875 L 4.03125 -36.03125 C 3.132812 -38.1875 2.25 -39.679688 1.375 -40.515625 C 0.5 -41.347656 -0.222656 -41.847656 -0.796875 -42.015625 L 9.40625 -42.015625 C 8.300781 -41.722656 7.75 -41.007812 7.75 -39.875 C 7.75 -39.257812 7.890625 -38.601562 8.171875 -37.90625 C 8.460938 -37.21875 8.628906 -36.816406 8.671875 -36.703125 L 20.515625 -7.6875 L 32 -35.90625 C 32.40625 -36.84375 32.609375 -37.800781 32.609375 -38.78125 Z M 32.609375 -38.78125 " />
            </g>
        </g>
    </g>
    <g fill="#ffffff" fill-opacity="1">
        <g transform="translate(341.194758, 428.292179)">
            <g>
                <path
                    d="M 5.1875 0 C 5.1875 0.125 5.429688 0.0351562 5.921875 -0.265625 C 6.410156 -0.578125 6.847656 -1.191406 7.234375 -2.109375 C 7.617188 -3.023438 7.8125 -4.359375 7.8125 -6.109375 L 7.8125 -36.09375 C 7.8125 -37.757812 7.617188 -39.03125 7.234375 -39.90625 C 6.847656 -40.78125 6.410156 -41.378906 5.921875 -41.703125 C 5.429688 -42.023438 5.1875 -42.128906 5.1875 -42.015625 L 27.296875 -42.015625 L 27.296875 -35.90625 C 26.566406 -38.34375 24.367188 -39.5625 20.703125 -39.5625 L 12.21875 -39.5625 L 12.21875 -22.234375 L 22.71875 -22.234375 C 23.53125 -22.234375 24.21875 -22.363281 24.78125 -22.625 C 25.351562 -22.882812 25.78125 -23.15625 26.0625 -23.4375 C 26.351562 -23.726562 26.519531 -23.914062 26.5625 -24 L 26.5625 -18.078125 C 26.519531 -18.160156 26.351562 -18.34375 26.0625 -18.625 C 25.78125 -18.90625 25.363281 -19.164062 24.8125 -19.40625 C 24.269531 -19.65625 23.59375 -19.78125 22.78125 -19.78125 L 12.21875 -19.78125 L 12.21875 -2.4375 L 21.734375 -2.4375 C 23.566406 -2.4375 25.144531 -2.8125 26.46875 -3.5625 C 27.789062 -4.320312 28.738281 -5.289062 29.3125 -6.46875 L 28.203125 0 Z M 5.1875 0 " />
            </g>
        </g>
    </g>
    <g fill="#ffffff" fill-opacity="1">
        <g transform="translate(381.179116, 428.292179)">
            <g>
                <path
                    d="M 7.8125 -36.328125 C 7.8125 -37.960938 7.617188 -39.195312 7.234375 -40.03125 C 6.847656 -40.863281 6.410156 -41.421875 5.921875 -41.703125 C 5.429688 -41.992188 5.1875 -42.097656 5.1875 -42.015625 L 14.90625 -42.015625 C 14.90625 -42.097656 14.660156 -41.992188 14.171875 -41.703125 C 13.679688 -41.421875 13.234375 -40.863281 12.828125 -40.03125 C 12.421875 -39.195312 12.21875 -37.960938 12.21875 -36.328125 L 12.21875 -2.4375 L 22.234375 -2.4375 C 24.054688 -2.4375 25.628906 -2.8125 26.953125 -3.5625 C 28.273438 -4.320312 29.222656 -5.289062 29.796875 -6.46875 L 28.703125 0 L 5.1875 0 C 5.1875 0.125 5.429688 0.0351562 5.921875 -0.265625 C 6.410156 -0.578125 6.847656 -1.191406 7.234375 -2.109375 C 7.617188 -3.023438 7.8125 -4.359375 7.8125 -6.109375 Z M 7.8125 -36.328125 " />
            </g>
        </g>
    </g>
    <g fill="#ffffff" fill-opacity="1">
        <g transform="translate(419.820583, 428.292179)">
            <g>
                <path
                    d="M 3.90625 -20.515625 C 3.90625 -24.828125 4.832031 -28.671875 6.6875 -32.046875 C 8.539062 -35.429688 11.144531 -38.0625 14.5 -39.9375 C 17.863281 -41.8125 21.742188 -42.75 26.140625 -42.75 C 29.796875 -42.75 33.222656 -41.941406 36.421875 -40.328125 C 39.617188 -38.722656 42.179688 -36.3125 44.109375 -33.09375 C 46.046875 -29.875 47.015625 -26.007812 47.015625 -21.5 C 47.015625 -17.175781 46.085938 -13.328125 44.234375 -9.953125 C 42.390625 -6.578125 39.785156 -3.953125 36.421875 -2.078125 C 33.066406 -0.203125 29.191406 0.734375 24.796875 0.734375 C 21.128906 0.734375 17.695312 -0.0664062 14.5 -1.671875 C 11.300781 -3.285156 8.734375 -5.695312 6.796875 -8.90625 C 4.867188 -12.125 3.90625 -15.992188 3.90625 -20.515625 Z M 42.140625 -20.578125 C 42.140625 -24.285156 41.375 -27.632812 39.84375 -30.625 C 38.3125 -33.613281 36.210938 -35.953125 33.546875 -37.640625 C 30.878906 -39.328125 27.878906 -40.171875 24.546875 -40.171875 C 21.492188 -40.171875 18.773438 -39.394531 16.390625 -37.84375 C 14.015625 -36.300781 12.15625 -34.113281 10.8125 -31.28125 C 9.46875 -28.457031 8.796875 -25.175781 8.796875 -21.4375 C 8.796875 -17.726562 9.554688 -14.378906 11.078125 -11.390625 C 12.609375 -8.398438 14.707031 -6.054688 17.375 -4.359375 C 20.039062 -2.671875 23.039062 -1.828125 26.375 -1.828125 C 29.425781 -1.828125 32.144531 -2.597656 34.53125 -4.140625 C 36.914062 -5.691406 38.78125 -7.878906 40.125 -10.703125 C 41.46875 -13.535156 42.140625 -16.828125 42.140625 -20.578125 Z M 42.140625 -20.578125 " />
            </g>
        </g>
    </g>
    <g fill="#ffffff" fill-opacity="1">
        <g transform="translate(477.506305, 428.292179)">
            <g>
                <path
                    d="M 31.515625 -30.65625 C 31.515625 -28.289062 30.953125 -26.179688 29.828125 -24.328125 C 28.710938 -22.484375 27.113281 -21.03125 25.03125 -19.96875 C 22.957031 -18.90625 20.515625 -18.375 17.703125 -18.375 C 15.992188 -18.375 14.164062 -18.554688 12.21875 -18.921875 L 12.21875 -5.625 C 12.21875 -4.03125 12.421875 -2.816406 12.828125 -1.984375 C 13.234375 -1.148438 13.679688 -0.585938 14.171875 -0.296875 C 14.660156 -0.015625 14.90625 0.0820312 14.90625 0 L 5.1875 0 C 5.1875 0.0820312 5.429688 -0.015625 5.921875 -0.296875 C 6.410156 -0.585938 6.847656 -1.140625 7.234375 -1.953125 C 7.617188 -2.765625 7.8125 -3.988281 7.8125 -5.625 L 7.8125 -36.203125 C 7.8125 -37.835938 7.617188 -39.082031 7.234375 -39.9375 C 6.847656 -40.789062 6.410156 -41.367188 5.921875 -41.671875 C 5.429688 -41.984375 5.1875 -42.097656 5.1875 -42.015625 L 17.15625 -42.015625 C 19.226562 -42.015625 20.9375 -41.878906 22.28125 -41.609375 C 23.625 -41.347656 24.804688 -40.953125 25.828125 -40.421875 C 27.660156 -39.484375 29.066406 -38.128906 30.046875 -36.359375 C 31.023438 -34.585938 31.515625 -32.6875 31.515625 -30.65625 Z M 26.8125 -29.859375 C 26.8125 -32.742188 25.914062 -35.082031 24.125 -36.875 C 22.332031 -38.664062 19.945312 -39.5625 16.96875 -39.5625 L 12.21875 -39.5625 L 12.21875 -21.3125 C 13.96875 -20.988281 15.796875 -20.828125 17.703125 -20.828125 C 20.554688 -20.828125 22.785156 -21.648438 24.390625 -23.296875 C 26.003906 -24.941406 26.8125 -27.128906 26.8125 -29.859375 Z M 26.8125 -29.859375 " />
            </g>
        </g>
    </g>
    <g fill="#ffffff" fill-opacity="1">
        <g transform="translate(518.711399, 428.292179)">
            <g>
                <path
                    d="M 40.546875 0 C 41.035156 -0.0820312 41.5625 -0.519531 42.125 -1.3125 C 42.695312 -2.101562 42.984375 -3.578125 42.984375 -5.734375 L 42.984375 -36.265625 L 26.984375 0.671875 L 10.75 -36.203125 L 10.75 -6.046875 C 10.75 -3.847656 11.101562 -2.3125 11.8125 -1.4375 C 12.53125 -0.5625 13.171875 -0.0820312 13.734375 0 L 4.703125 0 C 5.316406 -0.0820312 5.988281 -0.539062 6.71875 -1.375 C 7.445312 -2.207031 7.8125 -3.765625 7.8125 -6.046875 L 7.8125 -36.640625 C 7.8125 -38.585938 7.460938 -39.925781 6.765625 -40.65625 C 6.078125 -41.394531 5.390625 -41.847656 4.703125 -42.015625 L 12.9375 -42.015625 L 27.90625 -7.875 L 42.625 -42.015625 L 50.015625 -42.015625 C 49.484375 -41.929688 48.910156 -41.5 48.296875 -40.71875 C 47.691406 -39.945312 47.390625 -38.523438 47.390625 -36.453125 L 47.390625 -5.5 C 47.390625 -3.457031 47.691406 -2.050781 48.296875 -1.28125 C 48.910156 -0.507812 49.484375 -0.0820312 50.015625 0 Z M 40.546875 0 " />
            </g>
        </g>
    </g>
    <g fill="#ffffff" fill-opacity="1">
        <g transform="translate(580.669909, 428.292179)">
            <g>
                <path
                    d="M 5.1875 0 C 5.1875 0.125 5.429688 0.0351562 5.921875 -0.265625 C 6.410156 -0.578125 6.847656 -1.191406 7.234375 -2.109375 C 7.617188 -3.023438 7.8125 -4.359375 7.8125 -6.109375 L 7.8125 -36.09375 C 7.8125 -37.757812 7.617188 -39.03125 7.234375 -39.90625 C 6.847656 -40.78125 6.410156 -41.378906 5.921875 -41.703125 C 5.429688 -42.023438 5.1875 -42.128906 5.1875 -42.015625 L 27.296875 -42.015625 L 27.296875 -35.90625 C 26.566406 -38.34375 24.367188 -39.5625 20.703125 -39.5625 L 12.21875 -39.5625 L 12.21875 -22.234375 L 22.71875 -22.234375 C 23.53125 -22.234375 24.21875 -22.363281 24.78125 -22.625 C 25.351562 -22.882812 25.78125 -23.15625 26.0625 -23.4375 C 26.351562 -23.726562 26.519531 -23.914062 26.5625 -24 L 26.5625 -18.078125 C 26.519531 -18.160156 26.351562 -18.34375 26.0625 -18.625 C 25.78125 -18.90625 25.363281 -19.164062 24.8125 -19.40625 C 24.269531 -19.65625 23.59375 -19.78125 22.78125 -19.78125 L 12.21875 -19.78125 L 12.21875 -2.4375 L 21.734375 -2.4375 C 23.566406 -2.4375 25.144531 -2.8125 26.46875 -3.5625 C 27.789062 -4.320312 28.738281 -5.289062 29.3125 -6.46875 L 28.203125 0 Z M 5.1875 0 " />
            </g>
        </g>
    </g>
    <g fill="#ffffff" fill-opacity="1">
        <g transform="translate(620.654266, 428.292179)">
            <g>
                <path
                    d="M 44.515625 -42.015625 C 43.941406 -41.890625 43.378906 -41.429688 42.828125 -40.640625 C 42.285156 -39.847656 42.015625 -38.453125 42.015625 -36.453125 L 42.015625 1.703125 L 10.75 -34.75 L 10.75 -5.5 C 10.75 -3.539062 11.09375 -2.164062 11.78125 -1.375 C 12.476562 -0.582031 13.148438 -0.125 13.796875 0 L 5.1875 0 C 5.757812 -0.125 6.335938 -0.582031 6.921875 -1.375 C 7.515625 -2.164062 7.8125 -3.5625 7.8125 -5.5625 L 7.8125 -36.09375 C 7.8125 -37.476562 7.34375 -38.738281 6.40625 -39.875 C 5.46875 -41.007812 4.289062 -41.722656 2.875 -42.015625 L 10.4375 -42.015625 L 39.078125 -8.609375 L 39.078125 -36.453125 C 39.078125 -39.585938 38.019531 -41.441406 35.90625 -42.015625 Z M 44.515625 -42.015625 " />
            </g>
        </g>
    </g>
    <g fill="#ffffff" fill-opacity="1">
        <g transform="translate(677.241272, 428.292179)">
            <g>
                <path
                    d="M 9.03125 -39.5625 C 7.238281 -39.5625 5.753906 -39.21875 4.578125 -38.53125 C 3.398438 -37.84375 2.546875 -36.96875 2.015625 -35.90625 L 2.875 -42.015625 L 31.8125 -42.015625 L 32.671875 -35.90625 C 32.140625 -36.96875 31.28125 -37.84375 30.09375 -38.53125 C 28.914062 -39.21875 27.429688 -39.5625 25.640625 -39.5625 L 19.546875 -39.5625 L 19.546875 -5.671875 C 19.546875 -4.046875 19.75 -2.804688 20.15625 -1.953125 C 20.5625 -1.097656 21.007812 -0.523438 21.5 -0.234375 C 21.988281 0.046875 22.234375 0.125 22.234375 0 L 12.515625 0 C 12.515625 0.125 12.757812 0.046875 13.25 -0.234375 C 13.738281 -0.523438 14.175781 -1.085938 14.5625 -1.921875 C 14.945312 -2.753906 15.140625 -4.003906 15.140625 -5.671875 L 15.140625 -39.5625 Z M 9.03125 -39.5625 " />
            </g>
        </g>
    </g>
</svg>