<svg width="400" height="295" viewBox="0 0 400 295" fill="none" xmlns="http://www.w3.org/2000/svg">
    <path fill-rule="evenodd" clip-rule="evenodd"
        d="M400 0C348.516 5.97396 296.755 58.9948 250.682 149.474C222.078 205.646 54 208 35 295H400V0Z"
        fill="#242424" />
    <path
        d="M2.5 295C17.0104 271.214 30.25 249.396 52.6615 227.964C64.5521 216.583 78.6771 205.865 94.8021 197.099C109.047 189.365 124.859 183.156 142.083 179.411C173.385 172.578 209.406 173.807 238.656 174.807C243.781 174.969 248.693 175.151 253.401 175.26C269.089 175.646 281.755 175.453 292.969 173.312C304.266 171.141 314.109 167.021 324.104 159.526C333.74 152.318 343.484 142.031 353.703 131.229C364.5 119.823 375.828 107.844 388.052 98.4688C391.786 95.6042 396.109 92.4323 400 90V87.5C395.708 90.1302 390.974 93.5052 386.859 96.6719C374.51 106.156 363.12 118.188 352.266 129.651C342.115 140.385 332.438 150.604 322.943 157.714C313.208 164.984 303.615 169.01 292.609 171.125C281.521 173.255 268.99 173.438 253.432 173.062C248.818 172.953 243.865 172.771 238.714 172.604C209.349 171.609 173.203 170.38 141.667 177.25C124.25 181.057 108.276 187.318 93.875 195.135C77.5677 203.984 63.2917 214.813 51.2917 226.318C28.6979 247.932 15.0781 271.094 0.5 295H2.5Z"
        fill="#CCB587" />
</svg>