<svg xmlns="http://www.w3.org/2000/svg" xmlns:xlink="http://www.w3.org/1999/xlink" width="1200" zoomAndPan="magnify"
    viewBox="0 0 900 89.999999" height="120" preserveAspectRatio="xMidYMid meet" version="1.0">
    <defs>
        <g />
        <clipPath id="5aefcb3a6b">
            <path d="M 41 60 L 63 60 L 63 85.5 L 41 85.5 Z M 41 60 " clip-rule="nonzero" />
        </clipPath>
        <clipPath id="f50554efab">
            <path d="M 50 4.5 L 53 4.5 L 53 55 L 50 55 Z M 50 4.5 " clip-rule="nonzero" />
        </clipPath>
        <clipPath id="4f3ccc9030">
            <path d="M 44 15 L 87.707031 15 L 87.707031 75 L 44 75 Z M 44 15 " clip-rule="nonzero" />
        </clipPath>
        <clipPath id="1857f509e2">
            <path d="M 44 53 L 69 53 L 69 85.5 L 44 85.5 Z M 44 53 " clip-rule="nonzero" />
        </clipPath>
        <clipPath id="6a044645ef">
            <path d="M 44 4.5 L 70 4.5 L 70 50 L 44 50 Z M 44 4.5 " clip-rule="nonzero" />
        </clipPath>
        <clipPath id="e24ec264b7">
            <path d="M 84 42 L 87.707031 42 L 87.707031 45 L 84 45 Z M 84 42 " clip-rule="nonzero" />
        </clipPath>
        <clipPath id="b56c314e0c">
            <path d="M 41 60 L 63 60 L 63 85.5 L 41 85.5 Z M 41 60 " clip-rule="nonzero" />
        </clipPath>
        <clipPath id="1678dac2fa">
            <path d="M 50 4.5 L 53 4.5 L 53 55 L 50 55 Z M 50 4.5 " clip-rule="nonzero" />
        </clipPath>
        <clipPath id="e5cfa126eb">
            <path d="M 15.707031 15 L 59 15 L 59 75 L 15.707031 75 Z M 15.707031 15 " clip-rule="nonzero" />
        </clipPath>
        <clipPath id="8702251fd7">
            <path d="M 34 53 L 59 53 L 59 85.5 L 34 85.5 Z M 34 53 " clip-rule="nonzero" />
        </clipPath>
        <clipPath id="c02451a3bc">
            <path d="M 34 4.5 L 60 4.5 L 60 50 L 34 50 Z M 34 4.5 " clip-rule="nonzero" />
        </clipPath>
        <clipPath id="b04373a584">
            <path d="M 15.707031 42 L 19 42 L 19 45 L 15.707031 45 Z M 15.707031 42 " clip-rule="nonzero" />
        </clipPath>
    </defs>
    <g clip-path="url(#5aefcb3a6b)">
        <path stroke-linecap="butt" transform="matrix(0.0618557, 0, 0, 0.0620671, 15.708533, 4.501225)" fill="none"
            stroke-linejoin="miter"
            d="M 658.009664 1155.546817 C 658.009664 1199.350222 645.316303 1235.160764 629.149634 1259.894584 C 621.003149 1272.230025 612.098851 1281.670414 603.63661 1287.964007 C 595.048068 1294.320536 587.533093 1297.02678 581.9758 1297.02678 C 576.481659 1297.02678 568.840382 1294.320536 560.188688 1287.964007 C 551.600146 1281.670414 542.569545 1272.230025 534.359909 1259.831648 C 517.940636 1235.097829 504.994671 1199.287286 504.994671 1155.546817 C 504.994671 1112.624515 525.266158 1071.086803 546.169155 1039.744712 C 556.525927 1024.199538 566.945851 1011.423545 574.71343 1002.486643 C 577.555227 999.339847 579.954967 996.633602 581.9758 994.493781 C 583.933483 996.633602 586.333223 999.276911 589.048718 1002.486643 C 596.753146 1011.360609 607.046767 1024.199538 617.340388 1039.744712 C 637.990781 1071.023868 658.009664 1112.561579 658.009664 1155.546817 Z M 658.009664 1155.546817 "
            stroke="#ffdead" stroke-width="16" stroke-opacity="1" stroke-miterlimit="4" />
    </g>
    <path fill="#ffdead"
        d="M 53.8125 78.160156 C 53.8125 80.714844 52.542969 82.519531 51.71875 82.519531 C 50.894531 82.519531 49.667969 80.769531 49.667969 78.160156 C 49.667969 75.546875 51.71875 73.210938 51.71875 73.210938 C 51.71875 73.210938 53.8125 75.605469 53.8125 78.160156 Z M 53.8125 78.160156 "
        fill-opacity="1" fill-rule="nonzero" />
    <path fill="#ffdead"
        d="M 50.84375 59.988281 L 52.574219 59.988281 L 52.574219 66.878906 L 50.84375 66.878906 Z M 50.84375 59.988281 "
        fill-opacity="1" fill-rule="nonzero" />
    <path fill="#ffdead"
        d="M 50.101562 53.472656 L 53.316406 53.472656 L 53.316406 61.851562 L 50.101562 61.851562 Z M 50.101562 53.472656 "
        fill-opacity="1" fill-rule="nonzero" />
    <g clip-path="url(#f50554efab)">
        <path fill="#ffdead"
            d="M 50.84375 7.046875 C 50.84375 7.046875 50.914062 6.382812 51.089844 5.992188 C 51.171875 5.804688 51.34375 5.535156 51.460938 5.277344 C 51.582031 5.007812 51.707031 4.5 51.707031 4.5 C 51.707031 4.5 51.835938 5.007812 51.957031 5.277344 C 52.070312 5.535156 52.246094 5.804688 52.328125 5.992188 C 52.503906 6.382812 52.574219 7.046875 52.574219 7.046875 L 52.574219 54.15625 L 50.84375 54.15625 Z M 50.84375 7.046875 "
            fill-opacity="1" fill-rule="nonzero" />
    </g>
    <path fill="#ffdead"
        d="M 51.769531 65.636719 L 52.574219 65.296875 C 52.574219 65.296875 52.632812 65.925781 52.730469 66.320312 C 52.789062 66.566406 53.039062 67.066406 53.039062 67.066406 L 51.769531 66.566406 Z M 51.769531 65.636719 "
        fill-opacity="1" fill-rule="nonzero" />
    <path fill="#ffdead"
        d="M 51.660156 65.632812 L 50.855469 65.289062 C 50.855469 65.289062 50.792969 65.921875 50.699219 66.316406 C 50.640625 66.558594 50.390625 67.058594 50.390625 67.058594 L 51.660156 66.5625 Z M 51.660156 65.632812 "
        fill-opacity="1" fill-rule="nonzero" />
    <g clip-path="url(#4f3ccc9030)">
        <path stroke-linecap="round" transform="matrix(0.0618557, 0, 0, 0.0620671, 15.708533, 4.501225)" fill="none"
            stroke-linejoin="miter"
            d="M 594.479708 817.517955 C 594.479708 817.517955 643.042865 746.022742 678.028547 722.484705 C 692.742741 712.603765 717.497953 700.016579 717.497953 700.016579 M 833.001223 612.976193 C 803.320229 638.213499 789.616452 656.27611 757.03051 677.485518 C 742.126862 687.17765 717.497953 700.016579 717.497953 700.016579 M 833.001223 612.976193 C 853.335861 597.556891 864.703049 588.934669 884.974536 573.515367 M 833.001223 612.976193 C 829.275311 591.515042 821.570883 579.683088 823.528565 557.970193 C 825.296795 537.641889 831.801353 527.005717 840.516197 508.502554 C 845.50513 497.803447 854.977788 482.006529 854.977788 482.006529 M 884.974536 573.515367 C 908.214123 567.410582 923.244072 567.410582 946.483659 573.515367 C 964.797463 578.298497 989.994732 594.976518 989.994732 594.976518 C 989.994732 594.976518 1012.72911 616.815284 1030.474555 625.500442 C 1049.167265 634.626152 1061.229116 637.835884 1082.005811 638.968731 C 1101.266881 640.038641 1131.011026 632.48633 1131.011026 632.48633 M 884.974536 573.515367 C 915.981702 581.19355 933.474542 590.885683 956.524676 612.976193 C 972.628193 628.521367 978.374939 640.353321 989.994732 659.485843 C 999.656842 675.345696 1011.971297 701.527042 1011.971297 701.527042 C 1011.971297 701.527042 1027.443304 723.995168 1041.02078 734.505467 C 1055.103464 745.519255 1064.449819 751.498168 1082.005811 755.022579 C 1095.204381 757.665888 1116.486284 755.022579 1116.486284 755.022579 M 932.527277 400.504504 C 932.527277 400.504504 887.753183 428.448056 869.502529 455.510504 C 862.871669 465.265573 854.977788 482.006529 854.977788 482.006529 M 854.977788 482.006529 C 854.977788 482.006529 848.788985 454.944081 840.516197 439.524779 C 829.022706 418.1895 809.509032 415.042703 799.531166 393.015129 C 789.932207 371.994529 785.195878 356.826971 791.005775 334.484717 C 796.436765 313.527053 815.003173 295.527378 815.003173 295.527378 M 717.497953 700.016579 C 717.497953 700.016579 761.451083 705.177325 781.469966 722.484705 C 796.184161 735.197763 809.003824 764.022417 809.003824 764.022417 C 809.003824 764.022417 818.41333 795.867996 823.528565 816.51098 C 827.570232 833.189 822.960206 845.524442 833.001223 859.496218 C 842.789635 873.090378 869.502529 882.02728 869.502529 882.02728 M 717.497953 700.016579 C 717.497953 700.016579 774.207595 693.282435 809.003824 701.527042 C 836.663983 708.009442 852.388595 714.177163 876.007087 729.974081 C 902.277924 747.59614 914.150321 762.260211 932.527277 788.001005 C 946.104752 807.070591 961.513609 840.489568 961.513609 840.489568 M 961.513609 840.489568 C 961.513609 840.489568 961.513609 893.544554 961.513609 927.529955 C 961.513609 946.662476 967.00775 958.179751 961.513609 976.494106 C 957.850848 988.514868 946.483659 1005.00408 946.483659 1005.00408 M 961.513609 840.489568 C 961.513609 840.489568 987.910747 850.055829 1003.003848 859.496218 C 1019.423121 869.81771 1023.59109 882.845447 1041.02078 891.530605 C 1060.913361 901.411545 1096.97261 901.977968 1096.97261 901.977968 "
            stroke="#ffdead" stroke-width="22" stroke-opacity="1" stroke-miterlimit="4" />
    </g>
    <g clip-path="url(#1857f509e2)">
        <path stroke-linecap="square" transform="matrix(0.0618557, 0, 0, 0.0620671, 15.708533, 4.501225)" fill="none"
            stroke-linejoin="miter"
            d="M 589.490775 913.495243 L 667.98753 1010.982993 C 667.98753 1010.982993 706.699123 1056.61154 718.50837 1091.981531 C 726.402251 1115.64544 729.559803 1130.057767 730.507069 1154.980394 C 731.454335 1180.280636 731.517486 1195.699938 722.992094 1219.489719 C 717.3085 1235.286636 702.025946 1256.999531 702.025946 1256.999531 "
            stroke="#ffdead" stroke-width="22" stroke-opacity="1" stroke-miterlimit="4" />
    </g>
    <g clip-path="url(#6a044645ef)">
        <path stroke-linecap="round" transform="matrix(0.0618557, 0, 0, 0.0620671, 15.708533, 4.501225)" fill="none"
            stroke-linejoin="miter"
            d="M 585.007051 600.011392 L 627.507707 539.026479 C 627.507707 539.026479 638.748594 524.677088 646.010965 515.488442 M 714.971911 473.510179 C 714.971911 473.510179 680.428287 478.356246 664.514222 492.013342 C 655.609924 499.628589 653.210184 506.299797 646.010965 515.488442 M 646.010965 515.488442 C 651.441955 490.314072 651.568257 475.335321 660.030498 450.979117 C 666.913962 431.091365 675.313052 421.776847 682.512271 402.014966 C 689.585189 382.378957 693.942611 371.176362 696.468653 350.470442 C 700.320867 319.75771 690.595606 302.45033 689.522038 271.485854 C 688.701074 250.024703 687.2486 237.87807 689.522038 216.479854 C 692.174382 190.801996 689.458887 172.991129 704.488837 151.97053 C 715.603421 136.488292 743.010977 122.013028 743.010977 122.013028 "
            stroke="#ffdead" stroke-width="22" stroke-opacity="1" stroke-miterlimit="4" />
    </g>
    <path fill="#ffdead"
        d="M 58.347656 82.453125 L 59.347656 83.386719 C 59.347656 83.386719 59.347656 83.417969 59.191406 83.574219 C 59.039062 83.730469 58.574219 84.101562 58.019531 84.351562 C 57.453125 84.601562 56.503906 84.535156 56.503906 84.535156 Z M 58.347656 82.453125 "
        fill-opacity="1" fill-rule="nonzero" />
    <path fill="#ffdead"
        d="M 58.328125 48.257812 L 63.335938 48.257812 L 63.335938 49.625 C 63.335938 49.625 62.378906 49.191406 60.832031 49.191406 C 59.285156 49.191406 58.234375 49.75 58.234375 49.75 Z M 58.328125 48.257812 "
        fill-opacity="1" fill-rule="nonzero" />
    <path fill="#ffdead"
        d="M 82.644531 41.660156 C 83.316406 41.5625 84.265625 41.140625 84.265625 41.140625 C 84.265625 41.140625 83.734375 40.386719 83.140625 40.191406 C 82.726562 40.058594 82.429688 39.949219 81.984375 39.976562 C 81.503906 40.003906 81.175781 40.105469 80.808594 40.355469 C 80.457031 40.589844 80.304688 41.199219 80.304688 41.199219 C 80.304688 41.199219 80.835938 41.574219 81.261719 41.679688 C 81.777344 41.804688 82.113281 41.734375 82.644531 41.660156 Z M 82.644531 41.660156 "
        fill-opacity="1" fill-rule="nonzero" />
    <path fill="#ffdead"
        d="M 73.65625 46.394531 C 73.6875 45.714844 74.015625 44.726562 74.015625 44.726562 C 74.015625 44.726562 74.816406 45.183594 75.066406 45.761719 C 75.238281 46.160156 75.371094 46.445312 75.390625 46.894531 C 75.40625 47.378906 75.335938 47.71875 75.125 48.109375 C 74.921875 48.480469 74.335938 48.691406 74.335938 48.691406 C 74.335938 48.691406 73.910156 48.191406 73.769531 47.78125 C 73.59375 47.277344 73.632812 46.933594 73.65625 46.394531 Z M 73.65625 46.394531 "
        fill-opacity="1" fill-rule="nonzero" />
    <path fill="#ffdead"
        d="M 62.472656 53.515625 C 62.488281 54.195312 62.789062 55.191406 62.789062 55.191406 C 62.789062 55.191406 63.601562 54.753906 63.863281 54.183594 C 64.046875 53.785156 64.1875 53.503906 64.214844 53.054688 C 64.246094 52.574219 64.183594 52.234375 63.980469 51.839844 C 63.789062 51.460938 63.207031 51.234375 63.207031 51.234375 C 63.207031 51.234375 62.769531 51.722656 62.617188 52.132812 C 62.429688 52.628906 62.460938 52.972656 62.472656 53.515625 Z M 62.472656 53.515625 "
        fill-opacity="1" fill-rule="nonzero" />
    <path fill="#ffdead"
        d="M 65.285156 35.011719 C 65.046875 34.378906 64.425781 33.539062 64.425781 33.539062 C 64.425781 33.539062 63.808594 34.226562 63.75 34.851562 C 63.710938 35.285156 63.671875 35.597656 63.796875 36.03125 C 63.929688 36.496094 64.101562 36.796875 64.421875 37.101562 C 64.730469 37.390625 65.355469 37.40625 65.355469 37.40625 C 65.355469 37.40625 65.601562 36.800781 65.609375 36.363281 C 65.621094 35.832031 65.476562 35.519531 65.285156 35.011719 Z M 65.285156 35.011719 "
        fill-opacity="1" fill-rule="nonzero" />
    <path fill="#ffdead"
        d="M 68.042969 26.570312 C 68.488281 26.058594 69.359375 25.488281 69.359375 25.488281 C 69.359375 25.488281 69.703125 26.347656 69.539062 26.953125 C 69.425781 27.375 69.355469 27.683594 69.089844 28.042969 C 68.804688 28.433594 68.539062 28.65625 68.132812 28.828125 C 67.742188 28.996094 67.152344 28.792969 67.152344 28.792969 C 67.152344 28.792969 67.128906 28.136719 67.273438 27.726562 C 67.445312 27.222656 67.6875 26.976562 68.042969 26.570312 Z M 68.042969 26.570312 "
        fill-opacity="1" fill-rule="nonzero" />
    <path fill="#ffdead"
        d="M 62.554688 15.695312 C 62.878906 15.101562 63.117188 14.085938 63.117188 14.085938 C 63.117188 14.085938 62.195312 14.054688 61.683594 14.417969 C 61.328125 14.667969 61.0625 14.839844 60.816406 15.214844 C 60.550781 15.617188 60.433594 15.941406 60.410156 16.386719 C 60.386719 16.808594 60.777344 17.296875 60.777344 17.296875 C 60.777344 17.296875 61.398438 17.09375 61.734375 16.820312 C 62.148438 16.480469 62.292969 16.167969 62.554688 15.695312 Z M 62.554688 15.695312 "
        fill-opacity="1" fill-rule="nonzero" />
    <path fill="#ffdead"
        d="M 55.363281 24.996094 C 55.429688 24.320312 55.804688 23.347656 55.804688 23.347656 C 55.804688 23.347656 56.582031 23.84375 56.800781 24.433594 C 56.957031 24.839844 57.074219 25.128906 57.070312 25.582031 C 57.0625 26.0625 56.976562 26.398438 56.75 26.777344 C 56.527344 27.140625 55.929688 27.320312 55.929688 27.320312 C 55.929688 27.320312 55.53125 26.804688 55.410156 26.386719 C 55.257812 25.875 55.3125 25.535156 55.363281 24.996094 Z M 55.363281 24.996094 "
        fill-opacity="1" fill-rule="nonzero" />
    <path fill="#ffdead"
        d="M 83.859375 48.25 C 84.519531 48.40625 85.558594 48.363281 85.558594 48.363281 C 85.558594 48.363281 85.339844 47.464844 84.855469 47.066406 C 84.519531 46.789062 84.285156 46.582031 83.859375 46.441406 C 83.402344 46.292969 83.054688 46.265625 82.625 46.359375 C 82.210938 46.453125 81.847656 46.960938 81.847656 46.960938 C 81.847656 46.960938 82.207031 47.507812 82.5625 47.757812 C 82.996094 48.066406 83.335938 48.125 83.859375 48.25 Z M 83.859375 48.25 "
        fill-opacity="1" fill-rule="nonzero" />
    <path fill="#ffdead"
        d="M 81.074219 57.0625 C 81.75 57.003906 82.722656 56.636719 82.722656 56.636719 C 82.722656 56.636719 82.234375 55.851562 81.652344 55.625 C 81.246094 55.46875 80.957031 55.34375 80.507812 55.34375 C 80.027344 55.347656 79.691406 55.429688 79.3125 55.65625 C 78.949219 55.875 78.761719 56.472656 78.761719 56.472656 C 78.761719 56.472656 79.277344 56.875 79.691406 57.003906 C 80.199219 57.160156 80.539062 57.109375 81.074219 57.0625 Z M 81.074219 57.0625 "
        fill-opacity="1" fill-rule="nonzero" />
    <path fill="#ffdead"
        d="M 81.117188 64.132812 C 81.664062 64.527344 82.640625 64.886719 82.640625 64.886719 C 82.640625 64.886719 82.78125 63.972656 82.488281 63.417969 C 82.28125 63.035156 82.144531 62.75 81.804688 62.460938 C 81.4375 62.144531 81.128906 61.988281 80.695312 61.910156 C 80.277344 61.835938 79.746094 62.167969 79.746094 62.167969 C 79.746094 62.167969 79.871094 62.8125 80.105469 63.179688 C 80.386719 63.632812 80.679688 63.816406 81.117188 64.132812 Z M 81.117188 64.132812 "
        fill-opacity="1" fill-rule="nonzero" />
    <path fill="#ffdead"
        d="M 71.273438 63.097656 C 71.039062 63.734375 70.957031 64.777344 70.957031 64.777344 C 70.957031 64.777344 71.871094 64.664062 72.324219 64.230469 C 72.640625 63.929688 72.871094 63.71875 73.0625 63.3125 C 73.265625 62.875 73.332031 62.535156 73.289062 62.089844 C 73.246094 61.667969 72.785156 61.246094 72.785156 61.246094 C 72.785156 61.246094 72.203125 61.539062 71.910156 61.863281 C 71.554688 62.257812 71.457031 62.589844 71.273438 63.097656 Z M 71.273438 63.097656 "
        fill-opacity="1" fill-rule="nonzero" />
    <path fill="#ffdead"
        d="M 52.203125 52.355469 C 52.203125 52.355469 53.582031 51.113281 54.554688 50.429688 C 55.695312 49.625 57.648438 48.632812 57.648438 48.632812 L 53.75 54.15625 L 51.214844 54.15625 Z M 52.203125 52.355469 "
        fill-opacity="1" fill-rule="nonzero" />
    <path fill="#ffdead"
        d="M 69.832031 40.625 L 71.503906 40.625 L 73.605469 42.144531 C 73.605469 42.144531 72.144531 41.371094 71.101562 41.339844 C 70.230469 41.3125 68.503906 42.300781 68.71875 42.175781 C 68.933594 42.050781 69.832031 40.625 69.832031 40.625 Z M 69.832031 40.625 "
        fill-opacity="1" fill-rule="nonzero" />
    <path fill="#ffdead"
        d="M 67.359375 40.871094 L 66.957031 39.105469 L 67.730469 37.335938 C 67.730469 37.335938 67.542969 38.335938 67.574219 38.980469 C 67.59375 39.40625 67.539062 39.683594 67.730469 40.066406 C 67.820312 40.246094 68.023438 40.484375 68.023438 40.484375 C 68.023438 40.484375 68.421875 40.238281 68.6875 40.097656 C 69.242188 39.804688 70.140625 39.476562 70.140625 39.476562 L 68.964844 41.492188 L 67.359375 41.492188 Z M 67.359375 40.871094 "
        fill-opacity="1" fill-rule="nonzero" />
    <g clip-path="url(#e24ec264b7)">
        <path fill="#ffdead"
            d="M 87.707031 43.167969 C 87.707031 43.167969 86.925781 44.125 86.082031 44.351562 C 85.242188 44.578125 84.792969 44.5 84.667969 44.027344 C 84.542969 43.558594 84.886719 43.261719 85.730469 43.035156 C 86.574219 42.808594 87.707031 43.167969 87.707031 43.167969 Z M 87.707031 43.167969 "
            fill-opacity="1" fill-rule="nonzero" />
    </g>
    <path fill="#ffdead"
        d="M 61.855469 33.597656 C 61.855469 33.597656 60.953125 34.441406 60.089844 34.554688 C 59.222656 34.667969 58.792969 34.53125 58.730469 34.046875 C 58.667969 33.5625 59.046875 33.316406 59.914062 33.203125 C 60.777344 33.089844 61.855469 33.597656 61.855469 33.597656 Z M 61.855469 33.597656 "
        fill-opacity="1" fill-rule="nonzero" />
    <path fill="#ffdead"
        d="M 75.027344 28.253906 C 75.027344 28.253906 74.578125 29.40625 73.84375 29.882812 C 73.113281 30.359375 72.664062 30.417969 72.398438 30.011719 C 72.136719 29.601562 72.375 29.214844 73.105469 28.738281 C 73.835938 28.261719 75.027344 28.253906 75.027344 28.253906 Z M 75.027344 28.253906 "
        fill-opacity="1" fill-rule="nonzero" />
    <path fill="#ffdead"
        d="M 67.445312 21.542969 C 67.445312 21.542969 67.199219 22.757812 66.5625 23.355469 C 65.925781 23.953125 65.492188 24.089844 65.164062 23.734375 C 64.832031 23.378906 65 22.953125 65.636719 22.359375 C 66.273438 21.761719 67.445312 21.542969 67.445312 21.542969 Z M 67.445312 21.542969 "
        fill-opacity="1" fill-rule="nonzero" />
    <path fill="#ffdead"
        d="M 63.160156 11.136719 C 63.160156 11.136719 62.667969 12.269531 61.917969 12.71875 C 61.171875 13.167969 60.71875 13.210938 60.46875 12.792969 C 60.21875 12.375 60.472656 11.996094 61.222656 11.546875 C 61.972656 11.101562 63.160156 11.136719 63.160156 11.136719 Z M 63.160156 11.136719 "
        fill-opacity="1" fill-rule="nonzero" />
    <path fill="#ffdead"
        d="M 86.714844 51.058594 C 86.714844 51.058594 85.8125 51.90625 84.949219 52.019531 C 84.085938 52.136719 83.652344 51.996094 83.589844 51.515625 C 83.523438 51.03125 83.90625 50.785156 84.769531 50.667969 C 85.632812 50.554688 86.714844 51.058594 86.714844 51.058594 Z M 86.714844 51.058594 "
        fill-opacity="1" fill-rule="nonzero" />
    <path fill="#ffdead"
        d="M 85.488281 60.566406 C 85.488281 60.566406 84.4375 61.222656 83.570312 61.164062 C 82.699219 61.105469 82.300781 60.886719 82.332031 60.398438 C 82.363281 59.914062 82.785156 59.746094 83.65625 59.804688 C 84.527344 59.859375 85.488281 60.566406 85.488281 60.566406 Z M 85.488281 60.566406 "
        fill-opacity="1" fill-rule="nonzero" />
    <path fill="#ffdead"
        d="M 71.449219 59.859375 C 71.449219 59.859375 70.269531 60.226562 69.441406 59.953125 C 68.613281 59.675781 68.285156 59.359375 68.4375 58.898438 C 68.589844 58.4375 69.042969 58.382812 69.871094 58.65625 C 70.695312 58.933594 71.449219 59.859375 71.449219 59.859375 Z M 71.449219 59.859375 "
        fill-opacity="1" fill-rule="nonzero" />
    <path fill="#ffdead"
        d="M 73.359375 68.523438 C 73.359375 68.523438 73.238281 67.289062 73.675781 66.53125 C 74.109375 65.773438 74.484375 65.515625 74.90625 65.757812 C 75.324219 66.003906 75.289062 66.457031 74.851562 67.214844 C 74.417969 67.972656 73.359375 68.523438 73.359375 68.523438 Z M 73.359375 68.523438 "
        fill-opacity="1" fill-rule="nonzero" />
    <path fill="#ffdead"
        d="M 51.769531 41.367188 L 53.59375 40.46875 C 53.59375 40.46875 53.074219 41.511719 52.882812 42.238281 C 52.683594 43.003906 52.542969 44.441406 52.542969 44.441406 L 51.769531 44.347656 Z M 51.769531 41.367188 "
        fill-opacity="1" fill-rule="nonzero" />
    <path fill="#ffdead"
        d="M 65.996094 40.160156 L 66.492188 41.988281 L 66.675781 42.363281 L 64.480469 44.222656 C 64.480469 44.222656 65.535156 42.859375 65.8125 42.207031 C 66.054688 41.636719 65.996094 40.160156 65.996094 40.160156 Z M 65.996094 40.160156 "
        fill-opacity="1" fill-rule="nonzero" />
    <path fill="#ffdead"
        d="M 52.234375 51.300781 C 52.234375 51.300781 54.8125 49.417969 56.007812 48.785156 C 57.574219 47.957031 60.675781 46.894531 60.675781 46.894531 L 57.277344 49.6875 L 52.019531 52.789062 Z M 52.234375 51.300781 "
        fill-opacity="1" fill-rule="nonzero" />
    <g clip-path="url(#b56c314e0c)">
        <path stroke-linecap="butt" transform="matrix(0.0618557, 0, 0, 0.0620671, 15.708533, 4.501225)" fill="none"
            stroke-linejoin="miter"
            d="M 506.005088 1155.546817 C 506.005088 1199.350222 518.698449 1235.160764 534.865117 1259.894584 C 543.011603 1272.230025 551.915901 1281.670414 560.378141 1287.964007 C 568.966684 1294.320536 576.481659 1297.02678 582.038951 1297.02678 C 587.533093 1297.02678 595.17437 1294.320536 603.826064 1287.964007 C 612.414606 1281.670414 621.445206 1272.230025 629.654843 1259.831648 C 646.074116 1235.097829 659.020081 1199.287286 659.020081 1155.546817 C 659.020081 1112.624515 638.748594 1071.086803 617.845597 1039.744712 C 607.488824 1024.199538 597.068901 1011.423545 589.301322 1002.486643 C 586.459525 999.339847 584.059785 996.633602 582.038951 994.493781 C 580.081269 996.633602 577.681529 999.276911 574.966034 1002.486643 C 567.198455 1011.360609 556.967985 1024.199538 546.674364 1039.744712 C 526.02397 1071.023868 506.005088 1112.561579 506.005088 1155.546817 Z M 506.005088 1155.546817 "
            stroke="#ffdead" stroke-width="16" stroke-opacity="1" stroke-miterlimit="4" />
    </g>
    <path fill="#ffdead"
        d="M 49.605469 78.160156 C 49.605469 80.714844 50.875 82.519531 51.699219 82.519531 C 52.523438 82.519531 53.75 80.769531 53.75 78.160156 C 53.75 75.546875 51.699219 73.210938 51.699219 73.210938 C 51.699219 73.210938 49.605469 75.605469 49.605469 78.160156 Z M 49.605469 78.160156 "
        fill-opacity="1" fill-rule="nonzero" />
    <path fill="#ffdead"
        d="M 52.574219 59.988281 L 50.84375 59.988281 L 50.84375 66.878906 L 52.574219 66.878906 Z M 52.574219 59.988281 "
        fill-opacity="1" fill-rule="nonzero" />
    <path fill="#ffdead"
        d="M 53.316406 53.472656 L 50.101562 53.472656 L 50.101562 61.851562 L 53.316406 61.851562 Z M 53.316406 53.472656 "
        fill-opacity="1" fill-rule="nonzero" />
    <g clip-path="url(#1678dac2fa)">
        <path fill="#ffdead"
            d="M 52.574219 7.046875 C 52.574219 7.046875 52.503906 6.382812 52.328125 5.992188 C 52.246094 5.804688 52.074219 5.535156 51.957031 5.277344 C 51.835938 5.007812 51.710938 4.5 51.710938 4.5 C 51.710938 4.5 51.582031 5.007812 51.460938 5.277344 C 51.34375 5.535156 51.171875 5.804688 51.089844 5.992188 C 50.914062 6.382812 50.84375 7.046875 50.84375 7.046875 L 50.84375 54.15625 L 52.574219 54.15625 Z M 52.574219 7.046875 "
            fill-opacity="1" fill-rule="nonzero" />
    </g>
    <path fill="#ffdead"
        d="M 51.648438 65.636719 L 50.84375 65.296875 C 50.84375 65.296875 50.785156 65.925781 50.6875 66.320312 C 50.628906 66.566406 50.378906 67.066406 50.378906 67.066406 L 51.648438 66.566406 Z M 51.648438 65.636719 "
        fill-opacity="1" fill-rule="nonzero" />
    <path fill="#ffdead"
        d="M 51.757812 65.632812 L 52.5625 65.289062 C 52.5625 65.289062 52.625 65.921875 52.71875 66.316406 C 52.777344 66.558594 53.027344 67.058594 53.027344 67.058594 L 51.757812 66.5625 Z M 51.757812 65.632812 "
        fill-opacity="1" fill-rule="nonzero" />
    <g clip-path="url(#e5cfa126eb)">
        <path stroke-linecap="round" transform="matrix(0.0618557, 0, 0, 0.0620671, 15.708533, 4.501225)" fill="none"
            stroke-linejoin="miter"
            d="M 569.535044 817.517955 C 569.535044 817.517955 520.971887 746.022742 485.986205 722.484705 C 471.27201 712.603765 446.516799 700.016579 446.516799 700.016579 M 331.013529 612.976193 C 360.694523 638.213499 374.335149 656.27611 406.984242 677.485518 C 421.88789 687.17765 446.516799 700.016579 446.516799 700.016579 M 331.013529 612.976193 C 310.678891 597.556891 299.311702 588.934669 279.040216 573.515367 M 331.013529 612.976193 C 334.739441 591.515042 342.443869 579.683088 340.486187 557.970193 C 338.717957 537.641889 332.213399 527.005717 323.498554 508.502554 C 318.509622 497.803447 309.036964 482.006529 309.036964 482.006529 M 279.040216 573.515367 C 255.800629 567.410582 240.707528 567.410582 217.531093 573.515367 C 199.154138 578.298497 174.02002 594.976518 174.02002 594.976518 C 174.02002 594.976518 151.285642 616.815284 133.540197 625.500442 C 114.847487 634.626152 102.785636 637.835884 82.008941 638.968731 C 62.747871 640.038641 33.003726 632.48633 33.003726 632.48633 M 279.040216 573.515367 C 248.03305 581.19355 230.540209 590.885683 207.490076 612.976193 C 191.386559 628.521367 185.639813 640.353321 174.02002 659.485843 C 164.357909 675.345696 151.980304 701.527042 151.980304 701.527042 C 151.980304 701.527042 136.571448 723.995168 122.993972 734.505467 C 108.848137 745.519255 99.564933 751.498168 82.008941 755.022579 C 68.810371 757.665888 47.528468 755.022579 47.528468 755.022579 M 231.487475 400.504504 C 231.487475 400.504504 276.261569 428.448056 294.512223 455.510504 C 301.079932 465.265573 309.036964 482.006529 309.036964 482.006529 M 309.036964 482.006529 C 309.036964 482.006529 315.225767 454.944081 323.498554 439.524779 C 334.992045 418.1895 354.50572 415.042703 364.483586 393.015129 C 374.082545 371.994529 378.818874 356.826971 373.008977 334.484717 C 367.577987 313.527053 349.011578 295.527378 349.011578 295.527378 M 446.516799 700.016579 C 446.516799 700.016579 402.563669 705.177325 382.481635 722.484705 C 367.830591 735.197763 355.010928 764.022417 355.010928 764.022417 C 355.010928 764.022417 345.601422 795.867996 340.486187 816.51098 C 336.381369 833.189 341.054546 845.524442 331.013529 859.496218 C 321.225117 873.090378 294.512223 882.02728 294.512223 882.02728 M 446.516799 700.016579 C 446.516799 700.016579 389.807157 693.282435 355.010928 701.527042 C 327.350768 708.009442 311.626157 714.177163 288.007665 729.974081 C 261.736828 747.59614 249.864431 762.260211 231.487475 788.001005 C 217.91 807.070591 202.501143 840.489568 202.501143 840.489568 M 202.501143 840.489568 C 202.501143 840.489568 202.501143 893.544554 202.501143 927.529955 C 202.501143 946.662476 197.007002 958.179751 202.501143 976.494106 C 206.163904 988.514868 217.531093 1005.00408 217.531093 1005.00408 M 202.501143 840.489568 C 202.501143 840.489568 176.104005 850.055829 161.010904 859.496218 C 144.591631 869.81771 140.360511 882.845447 122.993972 891.530605 C 103.101391 901.411545 66.978991 901.977968 66.978991 901.977968 "
            stroke="#ffdead" stroke-width="22" stroke-opacity="1" stroke-miterlimit="4" />
    </g>
    <g clip-path="url(#8702251fd7)">
        <path stroke-linecap="square" transform="matrix(0.0618557, 0, 0, 0.0620671, 15.708533, 4.501225)" fill="none"
            stroke-linejoin="miter"
            d="M 574.523977 913.495243 L 496.027222 1010.982993 C 496.027222 1010.982993 457.315629 1056.61154 445.506382 1091.981531 C 437.612501 1115.64544 434.454949 1130.057767 433.507683 1154.980394 C 432.560417 1180.280636 432.497266 1195.699938 441.022658 1219.489719 C 446.706252 1235.286636 461.988806 1256.999531 461.988806 1256.999531 "
            stroke="#ffdead" stroke-width="22" stroke-opacity="1" stroke-miterlimit="4" />
    </g>
    <g clip-path="url(#c02451a3bc)">
        <path stroke-linecap="round" transform="matrix(0.0618557, 0, 0, 0.0620671, 15.708533, 4.501225)" fill="none"
            stroke-linejoin="miter"
            d="M 579.007701 600.011392 L 536.507045 539.026479 C 536.507045 539.026479 525.203007 524.677088 518.003787 515.488442 M 448.97969 473.510179 C 448.97969 473.510179 483.586465 478.356246 499.50053 492.013342 C 508.404828 499.628589 510.804568 506.299797 518.003787 515.488442 M 518.003787 515.488442 C 512.572797 490.314072 512.446495 475.335321 503.984254 450.979117 C 497.10079 431.091365 488.7017 421.776847 481.502481 402.014966 C 474.429563 382.378957 470.072141 371.176362 467.482948 350.470442 C 463.693885 319.75771 473.419146 302.45033 474.492714 271.485854 C 475.313678 250.024703 476.703001 237.87807 474.492714 216.479854 C 471.84037 190.801996 474.555865 172.991129 459.525915 151.97053 C 448.411331 136.488292 421.003775 122.013028 421.003775 122.013028 "
            stroke="#ffdead" stroke-width="22" stroke-opacity="1" stroke-miterlimit="4" />
    </g>
    <path fill="#ffdead"
        d="M 45.070312 82.453125 L 44.070312 83.386719 C 44.070312 83.386719 44.070312 83.417969 44.226562 83.574219 C 44.378906 83.730469 44.84375 84.101562 45.398438 84.351562 C 45.964844 84.601562 46.914062 84.535156 46.914062 84.535156 Z M 45.070312 82.453125 "
        fill-opacity="1" fill-rule="nonzero" />
    <path fill="#ffdead"
        d="M 45.089844 48.257812 L 40.082031 48.257812 L 40.082031 49.625 C 40.082031 49.625 41.039062 49.191406 42.585938 49.191406 C 44.132812 49.191406 45.183594 49.75 45.183594 49.75 Z M 45.089844 48.257812 "
        fill-opacity="1" fill-rule="nonzero" />
    <path fill="#ffdead"
        d="M 20.773438 41.660156 C 20.101562 41.5625 19.148438 41.140625 19.148438 41.140625 C 19.148438 41.140625 19.683594 40.386719 20.277344 40.191406 C 20.691406 40.058594 20.984375 39.949219 21.433594 39.976562 C 21.914062 40.003906 22.242188 40.105469 22.609375 40.355469 C 22.960938 40.589844 23.113281 41.199219 23.113281 41.199219 C 23.113281 41.199219 22.582031 41.574219 22.15625 41.679688 C 21.640625 41.804688 21.304688 41.734375 20.773438 41.660156 Z M 20.773438 41.660156 "
        fill-opacity="1" fill-rule="nonzero" />
    <path fill="#ffdead"
        d="M 29.761719 46.394531 C 29.730469 45.714844 29.402344 44.726562 29.402344 44.726562 C 29.402344 44.726562 28.601562 45.183594 28.351562 45.761719 C 28.179688 46.160156 28.042969 46.445312 28.027344 46.894531 C 28.011719 47.378906 28.082031 47.71875 28.292969 48.109375 C 28.496094 48.480469 29.082031 48.691406 29.082031 48.691406 C 29.082031 48.691406 29.507812 48.191406 29.648438 47.78125 C 29.824219 47.277344 29.785156 46.933594 29.761719 46.394531 Z M 29.761719 46.394531 "
        fill-opacity="1" fill-rule="nonzero" />
    <path fill="#ffdead"
        d="M 40.945312 53.515625 C 40.929688 54.195312 40.625 55.191406 40.625 55.191406 C 40.625 55.191406 39.816406 54.753906 39.550781 54.183594 C 39.371094 53.785156 39.230469 53.503906 39.203125 53.054688 C 39.171875 52.574219 39.234375 52.234375 39.4375 51.839844 C 39.628906 51.460938 40.210938 51.234375 40.210938 51.234375 C 40.210938 51.234375 40.648438 51.722656 40.800781 52.132812 C 40.988281 52.628906 40.957031 52.972656 40.945312 53.515625 Z M 40.945312 53.515625 "
        fill-opacity="1" fill-rule="nonzero" />
    <path fill="#ffdead"
        d="M 38.132812 35.011719 C 38.371094 34.378906 38.992188 33.539062 38.992188 33.539062 C 38.992188 33.539062 39.609375 34.226562 39.667969 34.851562 C 39.707031 35.285156 39.746094 35.597656 39.621094 36.03125 C 39.488281 36.496094 39.316406 36.796875 38.996094 37.101562 C 38.6875 37.390625 38.0625 37.40625 38.0625 37.40625 C 38.0625 37.40625 37.816406 36.800781 37.804688 36.363281 C 37.796875 35.832031 37.9375 35.519531 38.132812 35.011719 Z M 38.132812 35.011719 "
        fill-opacity="1" fill-rule="nonzero" />
    <path fill="#ffdead"
        d="M 35.375 26.570312 C 34.929688 26.058594 34.058594 25.488281 34.058594 25.488281 C 34.058594 25.488281 33.714844 26.347656 33.878906 26.953125 C 33.992188 27.375 34.0625 27.683594 34.328125 28.042969 C 34.613281 28.433594 34.878906 28.65625 35.285156 28.828125 C 35.675781 28.996094 36.265625 28.792969 36.265625 28.792969 C 36.265625 28.792969 36.289062 28.136719 36.144531 27.726562 C 35.972656 27.222656 35.730469 26.976562 35.375 26.570312 Z M 35.375 26.570312 "
        fill-opacity="1" fill-rule="nonzero" />
    <path fill="#ffdead"
        d="M 40.863281 15.695312 C 40.539062 15.101562 40.300781 14.085938 40.300781 14.085938 C 40.300781 14.085938 41.222656 14.054688 41.734375 14.417969 C 42.089844 14.667969 42.355469 14.839844 42.601562 15.214844 C 42.867188 15.617188 42.984375 15.941406 43.007812 16.386719 C 43.03125 16.808594 42.640625 17.296875 42.640625 17.296875 C 42.640625 17.296875 42.019531 17.09375 41.683594 16.820312 C 41.269531 16.480469 41.125 16.167969 40.863281 15.695312 Z M 40.863281 15.695312 "
        fill-opacity="1" fill-rule="nonzero" />
    <path fill="#ffdead"
        d="M 48.054688 24.996094 C 47.988281 24.320312 47.613281 23.347656 47.613281 23.347656 C 47.613281 23.347656 46.835938 23.84375 46.617188 24.433594 C 46.460938 24.839844 46.339844 25.128906 46.347656 25.582031 C 46.351562 26.0625 46.4375 26.398438 46.667969 26.777344 C 46.890625 27.140625 47.488281 27.320312 47.488281 27.320312 C 47.488281 27.320312 47.886719 26.804688 48.007812 26.386719 C 48.160156 25.875 48.105469 25.535156 48.054688 24.996094 Z M 48.054688 24.996094 "
        fill-opacity="1" fill-rule="nonzero" />
    <path fill="#ffdead"
        d="M 19.558594 48.25 C 18.898438 48.40625 17.859375 48.363281 17.859375 48.363281 C 17.859375 48.363281 18.078125 47.464844 18.5625 47.066406 C 18.898438 46.789062 19.132812 46.582031 19.558594 46.441406 C 20.015625 46.292969 20.359375 46.265625 20.792969 46.359375 C 21.207031 46.453125 21.570312 46.960938 21.570312 46.960938 C 21.570312 46.960938 21.210938 47.507812 20.855469 47.757812 C 20.421875 48.066406 20.082031 48.125 19.558594 48.25 Z M 19.558594 48.25 "
        fill-opacity="1" fill-rule="nonzero" />
    <path fill="#ffdead"
        d="M 22.339844 57.0625 C 21.667969 57.003906 20.691406 56.636719 20.691406 56.636719 C 20.691406 56.636719 21.183594 55.851562 21.765625 55.625 C 22.171875 55.46875 22.460938 55.34375 22.90625 55.34375 C 23.386719 55.347656 23.722656 55.429688 24.105469 55.65625 C 24.46875 55.875 24.65625 56.472656 24.65625 56.472656 C 24.65625 56.472656 24.140625 56.875 23.726562 57.003906 C 23.21875 57.160156 22.878906 57.109375 22.339844 57.0625 Z M 22.339844 57.0625 "
        fill-opacity="1" fill-rule="nonzero" />
    <path fill="#ffdead"
        d="M 22.300781 64.132812 C 21.753906 64.527344 20.777344 64.886719 20.777344 64.886719 C 20.777344 64.886719 20.636719 63.972656 20.929688 63.417969 C 21.136719 63.035156 21.273438 62.75 21.613281 62.460938 C 21.980469 62.144531 22.289062 61.988281 22.722656 61.910156 C 23.140625 61.835938 23.667969 62.167969 23.667969 62.167969 C 23.667969 62.167969 23.546875 62.8125 23.3125 63.179688 C 23.03125 63.632812 22.738281 63.816406 22.300781 64.132812 Z M 22.300781 64.132812 "
        fill-opacity="1" fill-rule="nonzero" />
    <path fill="#ffdead"
        d="M 32.144531 63.097656 C 32.378906 63.734375 32.460938 64.777344 32.460938 64.777344 C 32.460938 64.777344 31.546875 64.664062 31.09375 64.230469 C 30.777344 63.929688 30.542969 63.71875 30.355469 63.3125 C 30.152344 62.875 30.085938 62.535156 30.128906 62.089844 C 30.171875 61.667969 30.632812 61.246094 30.632812 61.246094 C 30.632812 61.246094 31.214844 61.539062 31.507812 61.863281 C 31.863281 62.257812 31.960938 62.589844 32.144531 63.097656 Z M 32.144531 63.097656 "
        fill-opacity="1" fill-rule="nonzero" />
    <path fill="#ffdead"
        d="M 51.214844 52.355469 C 51.214844 52.355469 49.832031 51.113281 48.863281 50.429688 C 47.71875 49.625 45.769531 48.632812 45.769531 48.632812 L 49.667969 54.15625 L 52.203125 54.15625 Z M 51.214844 52.355469 "
        fill-opacity="1" fill-rule="nonzero" />
    <path fill="#ffdead"
        d="M 33.585938 40.625 L 31.914062 40.625 L 29.8125 42.144531 C 29.8125 42.144531 31.273438 41.371094 32.316406 41.339844 C 33.1875 41.3125 34.914062 42.300781 34.699219 42.175781 C 34.480469 42.050781 33.585938 40.625 33.585938 40.625 Z M 33.585938 40.625 "
        fill-opacity="1" fill-rule="nonzero" />
    <path fill="#ffdead"
        d="M 36.058594 40.871094 L 36.460938 39.105469 L 35.6875 37.335938 C 35.6875 37.335938 35.875 38.335938 35.84375 38.980469 C 35.824219 39.40625 35.878906 39.683594 35.6875 40.066406 C 35.597656 40.246094 35.394531 40.484375 35.394531 40.484375 C 35.394531 40.484375 34.996094 40.238281 34.730469 40.097656 C 34.171875 39.804688 33.277344 39.476562 33.277344 39.476562 L 34.453125 41.492188 L 36.058594 41.492188 Z M 36.058594 40.871094 "
        fill-opacity="1" fill-rule="nonzero" />
    <g clip-path="url(#b04373a584)">
        <path fill="#ffdead"
            d="M 15.710938 43.167969 C 15.710938 43.167969 16.492188 44.125 17.335938 44.351562 C 18.175781 44.578125 18.625 44.5 18.75 44.027344 C 18.875 43.558594 18.527344 43.261719 17.6875 43.035156 C 16.84375 42.808594 15.710938 43.167969 15.710938 43.167969 Z M 15.710938 43.167969 "
            fill-opacity="1" fill-rule="nonzero" />
    </g>
    <path fill="#ffdead"
        d="M 41.5625 33.597656 C 41.5625 33.597656 42.464844 34.441406 43.328125 34.554688 C 44.191406 34.667969 44.625 34.53125 44.6875 34.046875 C 44.75 33.5625 44.367188 33.316406 43.503906 33.203125 C 42.640625 33.089844 41.5625 33.597656 41.5625 33.597656 Z M 41.5625 33.597656 "
        fill-opacity="1" fill-rule="nonzero" />
    <path fill="#ffdead"
        d="M 28.390625 28.253906 C 28.390625 28.253906 28.839844 29.40625 29.574219 29.882812 C 30.304688 30.359375 30.753906 30.417969 31.019531 30.011719 C 31.28125 29.601562 31.042969 29.214844 30.3125 28.738281 C 29.582031 28.261719 28.390625 28.253906 28.390625 28.253906 Z M 28.390625 28.253906 "
        fill-opacity="1" fill-rule="nonzero" />
    <path fill="#ffdead"
        d="M 35.972656 21.542969 C 35.972656 21.542969 36.214844 22.757812 36.855469 23.355469 C 37.492188 23.953125 37.925781 24.089844 38.253906 23.734375 C 38.585938 23.378906 38.417969 22.953125 37.78125 22.359375 C 37.144531 21.761719 35.972656 21.542969 35.972656 21.542969 Z M 35.972656 21.542969 "
        fill-opacity="1" fill-rule="nonzero" />
    <path fill="#ffdead"
        d="M 40.257812 11.136719 C 40.257812 11.136719 40.75 12.269531 41.5 12.71875 C 42.246094 13.167969 42.699219 13.210938 42.949219 12.792969 C 43.195312 12.375 42.945312 11.996094 42.195312 11.546875 C 41.445312 11.101562 40.257812 11.136719 40.257812 11.136719 Z M 40.257812 11.136719 "
        fill-opacity="1" fill-rule="nonzero" />
    <path fill="#ffdead"
        d="M 16.703125 51.058594 C 16.703125 51.058594 17.601562 51.90625 18.46875 52.019531 C 19.332031 52.136719 19.765625 51.996094 19.828125 51.515625 C 19.894531 51.03125 19.511719 50.785156 18.648438 50.667969 C 17.785156 50.554688 16.703125 51.058594 16.703125 51.058594 Z M 16.703125 51.058594 "
        fill-opacity="1" fill-rule="nonzero" />
    <path fill="#ffdead"
        d="M 17.929688 60.566406 C 17.929688 60.566406 18.980469 61.222656 19.847656 61.164062 C 20.71875 61.105469 21.117188 60.886719 21.085938 60.398438 C 21.054688 59.914062 20.628906 59.746094 19.761719 59.804688 C 18.890625 59.859375 17.929688 60.566406 17.929688 60.566406 Z M 17.929688 60.566406 "
        fill-opacity="1" fill-rule="nonzero" />
    <path fill="#ffdead"
        d="M 31.96875 59.859375 C 31.96875 59.859375 33.148438 60.226562 33.976562 59.953125 C 34.804688 59.675781 35.132812 59.359375 34.980469 58.898438 C 34.828125 58.4375 34.375 58.382812 33.546875 58.65625 C 32.71875 58.933594 31.96875 59.859375 31.96875 59.859375 Z M 31.96875 59.859375 "
        fill-opacity="1" fill-rule="nonzero" />
    <path fill="#ffdead"
        d="M 30.058594 68.523438 C 30.058594 68.523438 30.179688 67.289062 29.742188 66.53125 C 29.308594 65.773438 28.933594 65.515625 28.511719 65.757812 C 28.09375 66.003906 28.128906 66.457031 28.566406 67.214844 C 29 67.972656 30.058594 68.523438 30.058594 68.523438 Z M 30.058594 68.523438 "
        fill-opacity="1" fill-rule="nonzero" />
    <path fill="#ffdead"
        d="M 51.648438 41.367188 L 49.824219 40.46875 C 49.824219 40.46875 50.34375 41.511719 50.535156 42.238281 C 50.734375 43.003906 50.875 44.441406 50.875 44.441406 L 51.648438 44.347656 Z M 51.648438 41.367188 "
        fill-opacity="1" fill-rule="nonzero" />
    <path fill="#ffdead"
        d="M 37.421875 40.160156 L 36.925781 41.988281 L 36.738281 42.363281 L 38.9375 44.222656 C 38.9375 44.222656 37.882812 42.859375 37.605469 42.207031 C 37.363281 41.636719 37.421875 40.160156 37.421875 40.160156 Z M 37.421875 40.160156 "
        fill-opacity="1" fill-rule="nonzero" />
    <path fill="#ffdead"
        d="M 51.183594 51.300781 C 51.183594 51.300781 48.605469 49.417969 47.410156 48.785156 C 45.84375 47.957031 42.738281 46.894531 42.738281 46.894531 L 46.140625 49.6875 L 51.398438 52.789062 Z M 51.183594 51.300781 "
        fill-opacity="1" fill-rule="nonzero" />
    <g fill="#000000" fill-opacity="1">
        <g transform="translate(102.467584, 66.108384)">
            <g>
                <path
                    d="M 7.234375 -33.59375 C 7.234375 -35.101562 7.050781 -36.242188 6.6875 -37.015625 C 6.332031 -37.785156 5.925781 -38.300781 5.46875 -38.5625 C 5.019531 -38.832031 4.796875 -38.925781 4.796875 -38.84375 L 13.78125 -38.84375 C 13.78125 -38.925781 13.550781 -38.832031 13.09375 -38.5625 C 12.644531 -38.300781 12.234375 -37.785156 11.859375 -37.015625 C 11.484375 -36.242188 11.296875 -35.101562 11.296875 -33.59375 L 11.296875 -2.265625 L 20.546875 -2.265625 C 22.242188 -2.265625 23.703125 -2.609375 24.921875 -3.296875 C 26.148438 -3.992188 27.03125 -4.890625 27.5625 -5.984375 L 26.546875 0 L 4.796875 0 C 4.796875 0.113281 5.019531 0.03125 5.46875 -0.25 C 5.925781 -0.53125 6.332031 -1.09375 6.6875 -1.9375 C 7.050781 -2.789062 7.234375 -4.023438 7.234375 -5.640625 Z M 7.234375 -33.59375 " />
            </g>
        </g>
    </g>
    <g fill="#000000" fill-opacity="1">
        <g transform="translate(131.040324, 66.108384)">
            <g>
                <path
                    d="M 11.921875 -15.078125 L 8.296875 -6.09375 C 7.734375 -4.707031 7.453125 -3.5625 7.453125 -2.65625 C 7.453125 -1.414062 8.015625 -0.53125 9.140625 0 L 1.078125 0 C 1.453125 0 1.992188 -0.375 2.703125 -1.125 C 3.421875 -1.882812 4.25 -3.375 5.1875 -5.59375 L 19.9375 -40.65625 L 34.5625 -5.421875 C 35.382812 -3.390625 36.179688 -1.992188 36.953125 -1.234375 C 37.722656 -0.484375 38.335938 -0.0703125 38.796875 0 L 29.421875 0 C 30.359375 -0.445312 30.828125 -1.144531 30.828125 -2.09375 C 30.828125 -2.882812 30.523438 -4.015625 29.921875 -5.484375 L 25.96875 -15.078125 Z M 25.078125 -17.390625 L 18.921875 -32.46875 L 12.875 -17.390625 Z M 25.078125 -17.390625 " />
            </g>
        </g>
    </g>
    <g fill="#ffdead" fill-opacity="1">
        <g transform="translate(104.823976, 65.15634)">
            <g>
                <path
                    d="M 7.234375 -33.59375 C 7.234375 -35.101562 7.050781 -36.242188 6.6875 -37.015625 C 6.332031 -37.785156 5.925781 -38.300781 5.46875 -38.5625 C 5.019531 -38.832031 4.796875 -38.925781 4.796875 -38.84375 L 13.78125 -38.84375 C 13.78125 -38.925781 13.550781 -38.832031 13.09375 -38.5625 C 12.644531 -38.300781 12.234375 -37.785156 11.859375 -37.015625 C 11.484375 -36.242188 11.296875 -35.101562 11.296875 -33.59375 L 11.296875 -2.265625 L 20.546875 -2.265625 C 22.242188 -2.265625 23.703125 -2.609375 24.921875 -3.296875 C 26.148438 -3.992188 27.03125 -4.890625 27.5625 -5.984375 L 26.546875 0 L 4.796875 0 C 4.796875 0.113281 5.019531 0.03125 5.46875 -0.25 C 5.925781 -0.53125 6.332031 -1.09375 6.6875 -1.9375 C 7.050781 -2.789062 7.234375 -4.023438 7.234375 -5.640625 Z M 7.234375 -33.59375 " />
            </g>
        </g>
    </g>
    <g fill="#ffdead" fill-opacity="1">
        <g transform="translate(133.396716, 65.15634)">
            <g>
                <path
                    d="M 11.921875 -15.078125 L 8.296875 -6.09375 C 7.734375 -4.707031 7.453125 -3.5625 7.453125 -2.65625 C 7.453125 -1.414062 8.015625 -0.53125 9.140625 0 L 1.078125 0 C 1.453125 0 1.992188 -0.375 2.703125 -1.125 C 3.421875 -1.882812 4.25 -3.375 5.1875 -5.59375 L 19.9375 -40.65625 L 34.5625 -5.421875 C 35.382812 -3.390625 36.179688 -1.992188 36.953125 -1.234375 C 37.722656 -0.484375 38.335938 -0.0703125 38.796875 0 L 29.421875 0 C 30.359375 -0.445312 30.828125 -1.144531 30.828125 -2.09375 C 30.828125 -2.882812 30.523438 -4.015625 29.921875 -5.484375 L 25.96875 -15.078125 Z M 25.078125 -17.390625 L 18.921875 -32.46875 L 12.875 -17.390625 Z M 25.078125 -17.390625 " />
            </g>
        </g>
    </g>
    <g fill="#000000" fill-opacity="1">
        <g transform="translate(169.880065, 66.108384)">
            <g />
        </g>
    </g>
    <g fill="#ffdead" fill-opacity="1">
        <g transform="translate(172.236456, 65.15634)">
            <g />
        </g>
    </g>
    <g fill="#000000" fill-opacity="1">
        <g transform="translate(162.74111, 67.121955)">
            <g>
                <path
                    d="M 35.347656 0 L 47.523438 -28.953125 C 49.320312 -33.046875 48.363281 -37.480469 44.042969 -39.164062 C 39.5 -40.957031 34.84375 -38.320312 32.65625 -32.824219 L 29.230469 -24.910156 L 23.117188 -39.667969 L 18.402344 -39.667969 L 26.875 -19.300781 L 21.152344 -5.609375 L 6.84375 -39.667969 L 1.964844 -39.667969 L 18.738281 0 L 19.246094 0 L 27.042969 -18.796875 L 34.953125 0 Z M 29.570312 -24.292969 L 33.046875 -32.824219 C 34.953125 -37.253906 39.050781 -40.621094 43.933594 -38.828125 C 48.085938 -37.199219 48.8125 -32.824219 47.242188 -28.953125 L 37.367188 -5.609375 Z M 29.570312 -24.292969 " />
            </g>
        </g>
    </g>
    <g fill="#ffdead" fill-opacity="1">
        <g transform="translate(165.082295, 66.176054)">
            <g>
                <path
                    d="M 35.347656 0 L 47.523438 -28.953125 C 49.320312 -33.046875 48.363281 -37.480469 44.042969 -39.164062 C 39.5 -40.957031 34.84375 -38.320312 32.65625 -32.824219 L 29.230469 -24.910156 L 23.117188 -39.667969 L 18.402344 -39.667969 L 26.875 -19.300781 L 21.152344 -5.609375 L 6.84375 -39.667969 L 1.964844 -39.667969 L 18.738281 0 L 19.246094 0 L 27.042969 -18.796875 L 34.953125 0 Z M 29.570312 -24.292969 L 33.046875 -32.824219 C 34.953125 -37.253906 39.050781 -40.621094 43.933594 -38.828125 C 48.085938 -37.199219 48.8125 -32.824219 47.242188 -28.953125 L 37.367188 -5.609375 Z M 29.570312 -24.292969 " />
            </g>
        </g>
    </g>
    <g fill="#000000" fill-opacity="1">
        <g transform="translate(209.189862, 66.171072)">
            <g>
                <path
                    d="M 15.078125 0.671875 C 13.117188 0.671875 11.234375 0.398438 9.421875 -0.140625 C 7.617188 -0.679688 6.003906 -1.441406 4.578125 -2.421875 L 4.578125 -9.265625 C 5.554688 -6.742188 7.050781 -4.832031 9.0625 -3.53125 C 11.070312 -2.226562 13.171875 -1.578125 15.359375 -1.578125 C 17.546875 -1.578125 19.375 -2.300781 20.84375 -3.75 C 22.3125 -5.195312 23.046875 -6.992188 23.046875 -9.140625 C 23.046875 -10.578125 22.75 -11.800781 22.15625 -12.8125 C 21.570312 -13.832031 20.640625 -14.785156 19.359375 -15.671875 C 18.085938 -16.554688 16.285156 -17.546875 13.953125 -18.640625 C 10.671875 -20.140625 8.285156 -21.707031 6.796875 -23.34375 C 5.316406 -24.988281 4.578125 -26.976562 4.578125 -29.3125 C 4.578125 -31.300781 5.054688 -33.078125 6.015625 -34.640625 C 6.972656 -36.203125 8.269531 -37.40625 9.90625 -38.25 C 11.539062 -39.101562 13.335938 -39.53125 15.296875 -39.53125 C 16.992188 -39.53125 18.648438 -39.289062 20.265625 -38.8125 C 21.890625 -38.34375 23.398438 -37.675781 24.796875 -36.8125 L 24.796875 -30.71875 C 23.890625 -32.789062 22.519531 -34.398438 20.6875 -35.546875 C 18.863281 -36.691406 17.015625 -37.265625 15.140625 -37.265625 C 12.992188 -37.265625 11.257812 -36.566406 9.9375 -35.171875 C 8.625 -33.785156 7.96875 -32.128906 7.96875 -30.203125 C 7.96875 -28.816406 8.359375 -27.625 9.140625 -26.625 C 9.929688 -25.625 10.898438 -24.785156 12.046875 -24.109375 C 13.203125 -23.429688 14.816406 -22.601562 16.890625 -21.625 C 18.992188 -20.613281 20.722656 -19.671875 22.078125 -18.796875 C 23.429688 -17.929688 24.5625 -16.800781 25.46875 -15.40625 C 26.375 -14.019531 26.828125 -12.328125 26.828125 -10.328125 C 26.828125 -8.078125 26.289062 -6.117188 25.21875 -4.453125 C 24.144531 -2.796875 22.710938 -1.523438 20.921875 -0.640625 C 19.128906 0.234375 17.179688 0.671875 15.078125 0.671875 Z M 15.078125 0.671875 " />
            </g>
        </g>
    </g>
    <g fill="#000000" fill-opacity="1">
        <g transform="translate(239.002985, 66.171072)">
            <g>
                <path
                    d="M 3.609375 -18.96875 C 3.609375 -22.957031 4.460938 -26.515625 6.171875 -29.640625 C 7.890625 -32.765625 10.300781 -35.191406 13.40625 -36.921875 C 16.507812 -38.660156 20.097656 -39.53125 24.171875 -39.53125 C 27.554688 -39.53125 30.722656 -38.785156 33.671875 -37.296875 C 36.628906 -35.804688 39.003906 -33.570312 40.796875 -30.59375 C 42.585938 -27.625 43.484375 -24.050781 43.484375 -19.875 C 43.484375 -15.882812 42.625 -12.328125 40.90625 -9.203125 C 39.195312 -6.078125 36.789062 -3.648438 33.6875 -1.921875 C 30.582031 -0.191406 26.992188 0.671875 22.921875 0.671875 C 19.535156 0.671875 16.363281 -0.0664062 13.40625 -1.546875 C 10.457031 -3.035156 8.085938 -5.265625 6.296875 -8.234375 C 4.503906 -11.210938 3.609375 -14.789062 3.609375 -18.96875 Z M 38.96875 -19.03125 C 38.96875 -22.457031 38.257812 -25.550781 36.84375 -28.3125 C 35.4375 -31.082031 33.5 -33.25 31.03125 -34.8125 C 28.5625 -36.375 25.785156 -37.15625 22.703125 -37.15625 C 19.878906 -37.15625 17.363281 -36.4375 15.15625 -35 C 12.957031 -33.570312 11.234375 -31.550781 9.984375 -28.9375 C 8.742188 -26.320312 8.125 -23.285156 8.125 -19.828125 C 8.125 -16.398438 8.828125 -13.300781 10.234375 -10.53125 C 11.648438 -7.757812 13.59375 -5.59375 16.0625 -4.03125 C 18.53125 -2.46875 21.304688 -1.6875 24.390625 -1.6875 C 27.210938 -1.6875 29.722656 -2.398438 31.921875 -3.828125 C 34.128906 -5.265625 35.851562 -7.289062 37.09375 -9.90625 C 38.34375 -12.519531 38.96875 -15.5625 38.96875 -19.03125 Z M 38.96875 -19.03125 " />
            </g>
        </g>
    </g>
    <g fill="#000000" fill-opacity="1">
        <g transform="translate(285.190739, 66.171072)">
            <g>
                <path
                    d="M 41.171875 -38.84375 C 40.640625 -38.738281 40.117188 -38.316406 39.609375 -37.578125 C 39.097656 -36.847656 38.84375 -35.5625 38.84375 -33.71875 L 38.84375 1.578125 L 9.9375 -32.125 L 9.9375 -5.078125 C 9.9375 -3.273438 10.253906 -2.003906 10.890625 -1.265625 C 11.535156 -0.535156 12.160156 -0.113281 12.765625 0 L 4.796875 0 C 5.328125 -0.113281 5.863281 -0.535156 6.40625 -1.265625 C 6.957031 -2.003906 7.234375 -3.296875 7.234375 -5.140625 L 7.234375 -33.375 C 7.234375 -34.65625 6.796875 -35.820312 5.921875 -36.875 C 5.054688 -37.925781 3.96875 -38.582031 2.65625 -38.84375 L 9.65625 -38.84375 L 36.140625 -7.96875 L 36.140625 -33.71875 C 36.140625 -36.613281 35.160156 -38.320312 33.203125 -38.84375 Z M 41.171875 -38.84375 " />
            </g>
        </g>
    </g>
    <g fill="#000000" fill-opacity="1">
        <g transform="translate(330.362138, 66.171072)">
            <g />
        </g>
    </g>
    <g fill="#000000" fill-opacity="1">
        <g transform="translate(344.816984, 66.171072)">
            <g>
                <path
                    d="M 47.328125 -33.203125 C 47.773438 -34.554688 48 -35.609375 48 -36.359375 C 48 -37.910156 47.320312 -38.738281 45.96875 -38.84375 L 54.71875 -38.84375 C 54.15625 -38.738281 53.429688 -38.304688 52.546875 -37.546875 C 51.660156 -36.796875 50.84375 -35.328125 50.09375 -33.140625 L 37.890625 1.359375 L 26.984375 -29.921875 L 15.75 1.359375 L 4.625 -33.3125 C 3.644531 -36.476562 2.21875 -38.320312 0.34375 -38.84375 L 9.71875 -38.84375 C 8.65625 -38.65625 8.125 -38.035156 8.125 -36.984375 C 8.125 -36.460938 8.351562 -35.519531 8.8125 -34.15625 L 9.4375 -32.1875 L 16.546875 -8.640625 L 28.015625 -39.921875 L 38.90625 -8.859375 Z M 47.328125 -33.203125 " />
            </g>
        </g>
    </g>
    <g fill="#000000" fill-opacity="1">
        <g transform="translate(399.022654, 66.171072)">
            <g>
                <path
                    d="M 4.796875 0 C 4.796875 0.113281 5.019531 0.03125 5.46875 -0.25 C 5.925781 -0.53125 6.332031 -1.09375 6.6875 -1.9375 C 7.050781 -2.789062 7.234375 -4.023438 7.234375 -5.640625 L 7.234375 -33.375 C 7.234375 -34.914062 7.050781 -36.085938 6.6875 -36.890625 C 6.332031 -37.703125 5.925781 -38.257812 5.46875 -38.5625 C 5.019531 -38.863281 4.796875 -38.957031 4.796875 -38.84375 L 25.234375 -38.84375 L 25.234375 -33.203125 C 24.554688 -35.460938 22.523438 -36.59375 19.140625 -36.59375 L 11.296875 -36.59375 L 11.296875 -20.546875 L 21 -20.546875 C 21.757812 -20.546875 22.398438 -20.664062 22.921875 -20.90625 C 23.453125 -21.15625 23.847656 -21.410156 24.109375 -21.671875 C 24.367188 -21.941406 24.519531 -22.113281 24.5625 -22.1875 L 24.5625 -16.71875 C 24.519531 -16.789062 24.367188 -16.957031 24.109375 -17.21875 C 23.847656 -17.488281 23.460938 -17.734375 22.953125 -17.953125 C 22.441406 -18.179688 21.8125 -18.296875 21.0625 -18.296875 L 11.296875 -18.296875 L 11.296875 -2.265625 L 20.109375 -2.265625 C 21.796875 -2.265625 23.25 -2.609375 24.46875 -3.296875 C 25.695312 -3.992188 26.578125 -4.890625 27.109375 -5.984375 L 26.09375 0 Z M 4.796875 0 " />
            </g>
        </g>
    </g>
    <g fill="#000000" fill-opacity="1">
        <g transform="translate(428.835777, 66.171072)">
            <g>
                <path
                    d="M 22.703125 -0.953125 C 21.722656 -0.617188 20.601562 -0.375 19.34375 -0.21875 C 18.082031 -0.0703125 16.335938 0 14.109375 0 L 4.796875 0 C 5.285156 -0.113281 5.8125 -0.535156 6.375 -1.265625 C 6.945312 -2.003906 7.234375 -3.425781 7.234375 -5.53125 L 7.234375 -33.484375 C 7.234375 -35.441406 6.96875 -36.785156 6.4375 -37.515625 C 5.90625 -38.253906 5.378906 -38.695312 4.859375 -38.84375 L 14.109375 -38.84375 C 16.523438 -38.84375 18.363281 -38.738281 19.625 -38.53125 C 20.882812 -38.332031 21.984375 -38.023438 22.921875 -37.609375 C 24.578125 -36.816406 25.859375 -35.703125 26.765625 -34.265625 C 27.671875 -32.835938 28.125 -31.296875 28.125 -29.640625 C 28.125 -27.117188 27.359375 -24.945312 25.828125 -23.125 C 24.304688 -21.300781 22.304688 -20.125 19.828125 -19.59375 C 21.515625 -19.40625 23.117188 -18.914062 24.640625 -18.125 C 26.171875 -17.332031 27.414062 -16.257812 28.375 -14.90625 C 29.332031 -13.550781 29.8125 -12.007812 29.8125 -10.28125 C 29.8125 -7.863281 29.171875 -5.894531 27.890625 -4.375 C 26.609375 -2.851562 24.878906 -1.710938 22.703125 -0.953125 Z M 21.125 -34.890625 C 20.363281 -35.460938 19.550781 -35.890625 18.6875 -36.171875 C 17.820312 -36.453125 16.65625 -36.59375 15.1875 -36.59375 L 11.296875 -36.59375 L 11.296875 -20.546875 L 15.875 -20.546875 C 17.226562 -20.546875 18.351562 -20.753906 19.25 -21.171875 C 20.15625 -21.585938 20.945312 -22.132812 21.625 -22.8125 C 22.34375 -23.53125 22.90625 -24.394531 23.3125 -25.40625 C 23.726562 -26.425781 23.9375 -27.460938 23.9375 -28.515625 C 23.9375 -29.796875 23.703125 -31 23.234375 -32.125 C 22.765625 -33.257812 22.0625 -34.179688 21.125 -34.890625 Z M 22.3125 -16.65625 C 21.59375 -17.21875 20.703125 -17.628906 19.640625 -17.890625 C 18.585938 -18.160156 17.160156 -18.296875 15.359375 -18.296875 L 11.296875 -18.296875 L 11.296875 -2.265625 L 16.65625 -2.265625 C 19.363281 -2.265625 21.476562 -2.898438 23 -4.171875 C 24.53125 -5.453125 25.296875 -7.488281 25.296875 -10.28125 C 25.296875 -12.875 24.300781 -15 22.3125 -16.65625 Z M 22.3125 -16.65625 " />
            </g>
        </g>
    </g>
    <g fill="#000000" fill-opacity="1">
        <g transform="translate(462.262611, 66.171072)">
            <g />
        </g>
    </g>
    <g fill="#000000" fill-opacity="1">
        <g transform="translate(476.717441, 66.171072)">
            <g>
                <path
                    d="M 30.09375 -3.15625 C 26.5625 -1.050781 21.835938 0 15.921875 0 L 4.796875 0 C 4.796875 0.113281 5.019531 0.0078125 5.46875 -0.3125 C 5.925781 -0.632812 6.332031 -1.226562 6.6875 -2.09375 C 7.050781 -2.957031 7.234375 -4.21875 7.234375 -5.875 L 7.234375 -33.65625 C 7.234375 -35.125 7.050781 -36.242188 6.6875 -37.015625 C 6.332031 -37.785156 5.925781 -38.300781 5.46875 -38.5625 C 5.019531 -38.832031 4.796875 -38.925781 4.796875 -38.84375 L 15.875 -38.84375 C 21.625 -38.84375 26.175781 -37.90625 29.53125 -36.03125 C 32.507812 -34.375 34.804688 -32.132812 36.421875 -29.3125 C 38.035156 -26.488281 38.84375 -23.304688 38.84375 -19.765625 C 38.84375 -15.921875 38.082031 -12.597656 36.5625 -9.796875 C 35.039062 -6.992188 32.882812 -4.78125 30.09375 -3.15625 Z M 27.890625 -33.484375 C 26.234375 -34.578125 24.460938 -35.367188 22.578125 -35.859375 C 20.703125 -36.347656 18.46875 -36.59375 15.875 -36.59375 L 11.296875 -36.59375 L 11.296875 -2.265625 L 15.875 -2.265625 C 18.957031 -2.265625 21.484375 -2.523438 23.453125 -3.046875 C 25.429688 -3.578125 27.140625 -4.390625 28.578125 -5.484375 C 30.421875 -6.910156 31.835938 -8.78125 32.828125 -11.09375 C 33.828125 -13.40625 34.328125 -16.109375 34.328125 -19.203125 C 34.328125 -22.472656 33.753906 -25.34375 32.609375 -27.8125 C 31.460938 -30.28125 29.890625 -32.171875 27.890625 -33.484375 Z M 27.890625 -33.484375 " />
            </g>
        </g>
    </g>
    <g fill="#000000" fill-opacity="1">
        <g transform="translate(518.726837, 66.171072)">
            <g>
                <path
                    d="M 4.796875 0 C 4.796875 0.113281 5.019531 0.03125 5.46875 -0.25 C 5.925781 -0.53125 6.332031 -1.09375 6.6875 -1.9375 C 7.050781 -2.789062 7.234375 -4.023438 7.234375 -5.640625 L 7.234375 -33.375 C 7.234375 -34.914062 7.050781 -36.085938 6.6875 -36.890625 C 6.332031 -37.703125 5.925781 -38.257812 5.46875 -38.5625 C 5.019531 -38.863281 4.796875 -38.957031 4.796875 -38.84375 L 25.234375 -38.84375 L 25.234375 -33.203125 C 24.554688 -35.460938 22.523438 -36.59375 19.140625 -36.59375 L 11.296875 -36.59375 L 11.296875 -20.546875 L 21 -20.546875 C 21.757812 -20.546875 22.398438 -20.664062 22.921875 -20.90625 C 23.453125 -21.15625 23.847656 -21.410156 24.109375 -21.671875 C 24.367188 -21.941406 24.519531 -22.113281 24.5625 -22.1875 L 24.5625 -16.71875 C 24.519531 -16.789062 24.367188 -16.957031 24.109375 -17.21875 C 23.847656 -17.488281 23.460938 -17.734375 22.953125 -17.953125 C 22.441406 -18.179688 21.8125 -18.296875 21.0625 -18.296875 L 11.296875 -18.296875 L 11.296875 -2.265625 L 20.109375 -2.265625 C 21.796875 -2.265625 23.25 -2.609375 24.46875 -3.296875 C 25.695312 -3.992188 26.578125 -4.890625 27.109375 -5.984375 L 26.09375 0 Z M 4.796875 0 " />
            </g>
        </g>
    </g>
    <g fill="#000000" fill-opacity="1">
        <g transform="translate(548.539974, 66.171072)">
            <g>
                <path
                    d="M 30.15625 -35.859375 C 30.15625 -36.609375 29.945312 -37.253906 29.53125 -37.796875 C 29.113281 -38.347656 28.472656 -38.695312 27.609375 -38.84375 L 37.09375 -38.84375 C 36.601562 -38.769531 35.941406 -38.335938 35.109375 -37.546875 C 34.285156 -36.753906 33.425781 -35.285156 32.53125 -33.140625 L 18.234375 1.359375 L 3.734375 -33.3125 C 2.898438 -35.3125 2.078125 -36.695312 1.265625 -37.46875 C 0.460938 -38.238281 -0.203125 -38.695312 -0.734375 -38.84375 L 8.703125 -38.84375 C 7.679688 -38.582031 7.171875 -37.925781 7.171875 -36.875 C 7.171875 -36.3125 7.300781 -35.707031 7.5625 -35.0625 C 7.832031 -34.425781 7.984375 -34.050781 8.015625 -33.9375 L 18.96875 -7.109375 L 29.59375 -33.203125 C 29.96875 -34.066406 30.15625 -34.953125 30.15625 -35.859375 Z M 30.15625 -35.859375 " />
            </g>
        </g>
    </g>
    <g fill="#000000" fill-opacity="1">
        <g transform="translate(583.999518, 66.171072)">
            <g>
                <path
                    d="M 4.796875 0 C 4.796875 0.113281 5.019531 0.03125 5.46875 -0.25 C 5.925781 -0.53125 6.332031 -1.09375 6.6875 -1.9375 C 7.050781 -2.789062 7.234375 -4.023438 7.234375 -5.640625 L 7.234375 -33.375 C 7.234375 -34.914062 7.050781 -36.085938 6.6875 -36.890625 C 6.332031 -37.703125 5.925781 -38.257812 5.46875 -38.5625 C 5.019531 -38.863281 4.796875 -38.957031 4.796875 -38.84375 L 25.234375 -38.84375 L 25.234375 -33.203125 C 24.554688 -35.460938 22.523438 -36.59375 19.140625 -36.59375 L 11.296875 -36.59375 L 11.296875 -20.546875 L 21 -20.546875 C 21.757812 -20.546875 22.398438 -20.664062 22.921875 -20.90625 C 23.453125 -21.15625 23.847656 -21.410156 24.109375 -21.671875 C 24.367188 -21.941406 24.519531 -22.113281 24.5625 -22.1875 L 24.5625 -16.71875 C 24.519531 -16.789062 24.367188 -16.957031 24.109375 -17.21875 C 23.847656 -17.488281 23.460938 -17.734375 22.953125 -17.953125 C 22.441406 -18.179688 21.8125 -18.296875 21.0625 -18.296875 L 11.296875 -18.296875 L 11.296875 -2.265625 L 20.109375 -2.265625 C 21.796875 -2.265625 23.25 -2.609375 24.46875 -3.296875 C 25.695312 -3.992188 26.578125 -4.890625 27.109375 -5.984375 L 26.09375 0 Z M 4.796875 0 " />
            </g>
        </g>
    </g>
    <g fill="#000000" fill-opacity="1">
        <g transform="translate(613.812625, 66.171072)">
            <g>
                <path
                    d="M 7.234375 -33.59375 C 7.234375 -35.101562 7.050781 -36.242188 6.6875 -37.015625 C 6.332031 -37.785156 5.925781 -38.300781 5.46875 -38.5625 C 5.019531 -38.832031 4.796875 -38.925781 4.796875 -38.84375 L 13.78125 -38.84375 C 13.78125 -38.925781 13.550781 -38.832031 13.09375 -38.5625 C 12.644531 -38.300781 12.234375 -37.785156 11.859375 -37.015625 C 11.484375 -36.242188 11.296875 -35.101562 11.296875 -33.59375 L 11.296875 -2.265625 L 20.546875 -2.265625 C 22.242188 -2.265625 23.703125 -2.609375 24.921875 -3.296875 C 26.148438 -3.992188 27.03125 -4.890625 27.5625 -5.984375 L 26.546875 0 L 4.796875 0 C 4.796875 0.113281 5.019531 0.03125 5.46875 -0.25 C 5.925781 -0.53125 6.332031 -1.09375 6.6875 -1.9375 C 7.050781 -2.789062 7.234375 -4.023438 7.234375 -5.640625 Z M 7.234375 -33.59375 " />
            </g>
        </g>
    </g>
    <g fill="#000000" fill-opacity="1">
        <g transform="translate(642.383531, 66.171072)">
            <g>
                <path
                    d="M 3.609375 -18.96875 C 3.609375 -22.957031 4.460938 -26.515625 6.171875 -29.640625 C 7.890625 -32.765625 10.300781 -35.191406 13.40625 -36.921875 C 16.507812 -38.660156 20.097656 -39.53125 24.171875 -39.53125 C 27.554688 -39.53125 30.722656 -38.785156 33.671875 -37.296875 C 36.628906 -35.804688 39.003906 -33.570312 40.796875 -30.59375 C 42.585938 -27.625 43.484375 -24.050781 43.484375 -19.875 C 43.484375 -15.882812 42.625 -12.328125 40.90625 -9.203125 C 39.195312 -6.078125 36.789062 -3.648438 33.6875 -1.921875 C 30.582031 -0.191406 26.992188 0.671875 22.921875 0.671875 C 19.535156 0.671875 16.363281 -0.0664062 13.40625 -1.546875 C 10.457031 -3.035156 8.085938 -5.265625 6.296875 -8.234375 C 4.503906 -11.210938 3.609375 -14.789062 3.609375 -18.96875 Z M 38.96875 -19.03125 C 38.96875 -22.457031 38.257812 -25.550781 36.84375 -28.3125 C 35.4375 -31.082031 33.5 -33.25 31.03125 -34.8125 C 28.5625 -36.375 25.785156 -37.15625 22.703125 -37.15625 C 19.878906 -37.15625 17.363281 -36.4375 15.15625 -35 C 12.957031 -33.570312 11.234375 -31.550781 9.984375 -28.9375 C 8.742188 -26.320312 8.125 -23.285156 8.125 -19.828125 C 8.125 -16.398438 8.828125 -13.300781 10.234375 -10.53125 C 11.648438 -7.757812 13.59375 -5.59375 16.0625 -4.03125 C 18.53125 -2.46875 21.304688 -1.6875 24.390625 -1.6875 C 27.210938 -1.6875 29.722656 -2.398438 31.921875 -3.828125 C 34.128906 -5.265625 35.851562 -7.289062 37.09375 -9.90625 C 38.34375 -12.519531 38.96875 -15.5625 38.96875 -19.03125 Z M 38.96875 -19.03125 " />
            </g>
        </g>
    </g>
    <g fill="#000000" fill-opacity="1">
        <g transform="translate(688.571286, 66.171072)">
            <g>
                <path
                    d="M 29.140625 -28.34375 C 29.140625 -26.164062 28.617188 -24.21875 27.578125 -22.5 C 26.546875 -20.789062 25.066406 -19.445312 23.140625 -18.46875 C 21.222656 -17.488281 18.96875 -17 16.375 -17 C 14.789062 -17 13.097656 -17.164062 11.296875 -17.5 L 11.296875 -5.1875 C 11.296875 -3.726562 11.484375 -2.609375 11.859375 -1.828125 C 12.234375 -1.054688 12.644531 -0.539062 13.09375 -0.28125 C 13.550781 -0.0195312 13.78125 0.0703125 13.78125 0 L 4.796875 0 C 4.796875 0.0703125 5.019531 -0.0195312 5.46875 -0.28125 C 5.925781 -0.539062 6.332031 -1.046875 6.6875 -1.796875 C 7.050781 -2.554688 7.234375 -3.6875 7.234375 -5.1875 L 7.234375 -33.484375 C 7.234375 -34.992188 7.050781 -36.140625 6.6875 -36.921875 C 6.332031 -37.710938 5.925781 -38.25 5.46875 -38.53125 C 5.019531 -38.820312 4.796875 -38.925781 4.796875 -38.84375 L 15.875 -38.84375 C 17.789062 -38.84375 19.367188 -38.71875 20.609375 -38.46875 C 21.847656 -38.226562 22.941406 -37.863281 23.890625 -37.375 C 25.578125 -36.507812 26.875 -35.257812 27.78125 -33.625 C 28.6875 -31.988281 29.140625 -30.226562 29.140625 -28.34375 Z M 24.796875 -27.609375 C 24.796875 -30.285156 23.96875 -32.453125 22.3125 -34.109375 C 20.65625 -35.765625 18.453125 -36.59375 15.703125 -36.59375 L 11.296875 -36.59375 L 11.296875 -19.703125 C 12.910156 -19.398438 14.601562 -19.25 16.375 -19.25 C 19.007812 -19.25 21.070312 -20.007812 22.5625 -21.53125 C 24.050781 -23.0625 24.796875 -25.085938 24.796875 -27.609375 Z M 24.796875 -27.609375 " />
            </g>
        </g>
    </g>
    <g fill="#000000" fill-opacity="1">
        <g transform="translate(719.513656, 66.171072)">
            <g>
                <path
                    d="M 37.5 0 C 37.945312 -0.0703125 38.429688 -0.472656 38.953125 -1.203125 C 39.484375 -1.941406 39.75 -3.3125 39.75 -5.3125 L 39.75 -33.546875 L 24.953125 0.625 L 9.9375 -33.484375 L 9.9375 -5.59375 C 9.9375 -3.5625 10.265625 -2.140625 10.921875 -1.328125 C 11.585938 -0.515625 12.179688 -0.0703125 12.703125 0 L 4.34375 0 C 4.90625 -0.0703125 5.523438 -0.492188 6.203125 -1.265625 C 6.890625 -2.035156 7.234375 -3.476562 7.234375 -5.59375 L 7.234375 -33.875 C 7.234375 -35.6875 6.910156 -36.929688 6.265625 -37.609375 C 5.628906 -38.285156 4.988281 -38.695312 4.34375 -38.84375 L 11.96875 -38.84375 L 25.8125 -7.28125 L 39.421875 -38.84375 L 46.25 -38.84375 C 45.757812 -38.769531 45.226562 -38.375 44.65625 -37.65625 C 44.09375 -36.945312 43.8125 -35.632812 43.8125 -33.71875 L 43.8125 -5.078125 C 43.8125 -3.203125 44.09375 -1.90625 44.65625 -1.1875 C 45.226562 -0.46875 45.757812 -0.0703125 46.25 0 Z M 37.5 0 " />
            </g>
        </g>
    </g>
    <g fill="#000000" fill-opacity="1">
        <g transform="translate(769.653892, 66.171072)">
            <g>
                <path
                    d="M 4.796875 0 C 4.796875 0.113281 5.019531 0.03125 5.46875 -0.25 C 5.925781 -0.53125 6.332031 -1.09375 6.6875 -1.9375 C 7.050781 -2.789062 7.234375 -4.023438 7.234375 -5.640625 L 7.234375 -33.375 C 7.234375 -34.914062 7.050781 -36.085938 6.6875 -36.890625 C 6.332031 -37.703125 5.925781 -38.257812 5.46875 -38.5625 C 5.019531 -38.863281 4.796875 -38.957031 4.796875 -38.84375 L 25.234375 -38.84375 L 25.234375 -33.203125 C 24.554688 -35.460938 22.523438 -36.59375 19.140625 -36.59375 L 11.296875 -36.59375 L 11.296875 -20.546875 L 21 -20.546875 C 21.757812 -20.546875 22.398438 -20.664062 22.921875 -20.90625 C 23.453125 -21.15625 23.847656 -21.410156 24.109375 -21.671875 C 24.367188 -21.941406 24.519531 -22.113281 24.5625 -22.1875 L 24.5625 -16.71875 C 24.519531 -16.789062 24.367188 -16.957031 24.109375 -17.21875 C 23.847656 -17.488281 23.460938 -17.734375 22.953125 -17.953125 C 22.441406 -18.179688 21.8125 -18.296875 21.0625 -18.296875 L 11.296875 -18.296875 L 11.296875 -2.265625 L 20.109375 -2.265625 C 21.796875 -2.265625 23.25 -2.609375 24.46875 -3.296875 C 25.695312 -3.992188 26.578125 -4.890625 27.109375 -5.984375 L 26.09375 0 Z M 4.796875 0 " />
            </g>
        </g>
    </g>
    <g fill="#000000" fill-opacity="1">
        <g transform="translate(799.46703, 66.171072)">
            <g>
                <path
                    d="M 41.171875 -38.84375 C 40.640625 -38.738281 40.117188 -38.316406 39.609375 -37.578125 C 39.097656 -36.847656 38.84375 -35.5625 38.84375 -33.71875 L 38.84375 1.578125 L 9.9375 -32.125 L 9.9375 -5.078125 C 9.9375 -3.273438 10.253906 -2.003906 10.890625 -1.265625 C 11.535156 -0.535156 12.160156 -0.113281 12.765625 0 L 4.796875 0 C 5.328125 -0.113281 5.863281 -0.535156 6.40625 -1.265625 C 6.957031 -2.003906 7.234375 -3.296875 7.234375 -5.140625 L 7.234375 -33.375 C 7.234375 -34.65625 6.796875 -35.820312 5.921875 -36.875 C 5.054688 -37.925781 3.96875 -38.582031 2.65625 -38.84375 L 9.65625 -38.84375 L 36.140625 -7.96875 L 36.140625 -33.71875 C 36.140625 -36.613281 35.160156 -38.320312 33.203125 -38.84375 Z M 41.171875 -38.84375 " />
            </g>
        </g>
    </g>
    <g fill="#000000" fill-opacity="1">
        <g transform="translate(844.638399, 66.171072)">
            <g>
                <path
                    d="M 8.359375 -36.59375 C 6.703125 -36.59375 5.328125 -36.269531 4.234375 -35.625 C 3.140625 -34.988281 2.347656 -34.179688 1.859375 -33.203125 L 2.65625 -38.84375 L 29.421875 -38.84375 L 30.203125 -33.203125 C 29.722656 -34.179688 28.9375 -34.988281 27.84375 -35.625 C 26.75 -36.269531 25.375 -36.59375 23.71875 -36.59375 L 18.0625 -36.59375 L 18.0625 -5.25 C 18.0625 -3.75 18.25 -2.601562 18.625 -1.8125 C 19.007812 -1.019531 19.425781 -0.488281 19.875 -0.21875 C 20.320312 0.0390625 20.546875 0.113281 20.546875 0 L 11.578125 0 C 11.578125 0.113281 11.800781 0.0390625 12.25 -0.21875 C 12.707031 -0.488281 13.113281 -1.007812 13.46875 -1.78125 C 13.820312 -2.550781 14 -3.707031 14 -5.25 L 14 -36.59375 Z M 8.359375 -36.59375 " />
            </g>
        </g>
    </g>
    <g fill="#ffdead" fill-opacity="1">
        <g transform="translate(211.546254, 65.21903)">
            <g>
                <path
                    d="M 15.078125 0.671875 C 13.117188 0.671875 11.234375 0.398438 9.421875 -0.140625 C 7.617188 -0.679688 6.003906 -1.441406 4.578125 -2.421875 L 4.578125 -9.265625 C 5.554688 -6.742188 7.050781 -4.832031 9.0625 -3.53125 C 11.070312 -2.226562 13.171875 -1.578125 15.359375 -1.578125 C 17.546875 -1.578125 19.375 -2.300781 20.84375 -3.75 C 22.3125 -5.195312 23.046875 -6.992188 23.046875 -9.140625 C 23.046875 -10.578125 22.75 -11.800781 22.15625 -12.8125 C 21.570312 -13.832031 20.640625 -14.785156 19.359375 -15.671875 C 18.085938 -16.554688 16.285156 -17.546875 13.953125 -18.640625 C 10.671875 -20.140625 8.285156 -21.707031 6.796875 -23.34375 C 5.316406 -24.988281 4.578125 -26.976562 4.578125 -29.3125 C 4.578125 -31.300781 5.054688 -33.078125 6.015625 -34.640625 C 6.972656 -36.203125 8.269531 -37.40625 9.90625 -38.25 C 11.539062 -39.101562 13.335938 -39.53125 15.296875 -39.53125 C 16.992188 -39.53125 18.648438 -39.289062 20.265625 -38.8125 C 21.890625 -38.34375 23.398438 -37.675781 24.796875 -36.8125 L 24.796875 -30.71875 C 23.890625 -32.789062 22.519531 -34.398438 20.6875 -35.546875 C 18.863281 -36.691406 17.015625 -37.265625 15.140625 -37.265625 C 12.992188 -37.265625 11.257812 -36.566406 9.9375 -35.171875 C 8.625 -33.785156 7.96875 -32.128906 7.96875 -30.203125 C 7.96875 -28.816406 8.359375 -27.625 9.140625 -26.625 C 9.929688 -25.625 10.898438 -24.785156 12.046875 -24.109375 C 13.203125 -23.429688 14.816406 -22.601562 16.890625 -21.625 C 18.992188 -20.613281 20.722656 -19.671875 22.078125 -18.796875 C 23.429688 -17.929688 24.5625 -16.800781 25.46875 -15.40625 C 26.375 -14.019531 26.828125 -12.328125 26.828125 -10.328125 C 26.828125 -8.078125 26.289062 -6.117188 25.21875 -4.453125 C 24.144531 -2.796875 22.710938 -1.523438 20.921875 -0.640625 C 19.128906 0.234375 17.179688 0.671875 15.078125 0.671875 Z M 15.078125 0.671875 " />
            </g>
        </g>
    </g>
    <g fill="#ffdead" fill-opacity="1">
        <g transform="translate(241.359376, 65.21903)">
            <g>
                <path
                    d="M 3.609375 -18.96875 C 3.609375 -22.957031 4.460938 -26.515625 6.171875 -29.640625 C 7.890625 -32.765625 10.300781 -35.191406 13.40625 -36.921875 C 16.507812 -38.660156 20.097656 -39.53125 24.171875 -39.53125 C 27.554688 -39.53125 30.722656 -38.785156 33.671875 -37.296875 C 36.628906 -35.804688 39.003906 -33.570312 40.796875 -30.59375 C 42.585938 -27.625 43.484375 -24.050781 43.484375 -19.875 C 43.484375 -15.882812 42.625 -12.328125 40.90625 -9.203125 C 39.195312 -6.078125 36.789062 -3.648438 33.6875 -1.921875 C 30.582031 -0.191406 26.992188 0.671875 22.921875 0.671875 C 19.535156 0.671875 16.363281 -0.0664062 13.40625 -1.546875 C 10.457031 -3.035156 8.085938 -5.265625 6.296875 -8.234375 C 4.503906 -11.210938 3.609375 -14.789062 3.609375 -18.96875 Z M 38.96875 -19.03125 C 38.96875 -22.457031 38.257812 -25.550781 36.84375 -28.3125 C 35.4375 -31.082031 33.5 -33.25 31.03125 -34.8125 C 28.5625 -36.375 25.785156 -37.15625 22.703125 -37.15625 C 19.878906 -37.15625 17.363281 -36.4375 15.15625 -35 C 12.957031 -33.570312 11.234375 -31.550781 9.984375 -28.9375 C 8.742188 -26.320312 8.125 -23.285156 8.125 -19.828125 C 8.125 -16.398438 8.828125 -13.300781 10.234375 -10.53125 C 11.648438 -7.757812 13.59375 -5.59375 16.0625 -4.03125 C 18.53125 -2.46875 21.304688 -1.6875 24.390625 -1.6875 C 27.210938 -1.6875 29.722656 -2.398438 31.921875 -3.828125 C 34.128906 -5.265625 35.851562 -7.289062 37.09375 -9.90625 C 38.34375 -12.519531 38.96875 -15.5625 38.96875 -19.03125 Z M 38.96875 -19.03125 " />
            </g>
        </g>
    </g>
    <g fill="#ffdead" fill-opacity="1">
        <g transform="translate(287.547131, 65.21903)">
            <g>
                <path
                    d="M 41.171875 -38.84375 C 40.640625 -38.738281 40.117188 -38.316406 39.609375 -37.578125 C 39.097656 -36.847656 38.84375 -35.5625 38.84375 -33.71875 L 38.84375 1.578125 L 9.9375 -32.125 L 9.9375 -5.078125 C 9.9375 -3.273438 10.253906 -2.003906 10.890625 -1.265625 C 11.535156 -0.535156 12.160156 -0.113281 12.765625 0 L 4.796875 0 C 5.328125 -0.113281 5.863281 -0.535156 6.40625 -1.265625 C 6.957031 -2.003906 7.234375 -3.296875 7.234375 -5.140625 L 7.234375 -33.375 C 7.234375 -34.65625 6.796875 -35.820312 5.921875 -36.875 C 5.054688 -37.925781 3.96875 -38.582031 2.65625 -38.84375 L 9.65625 -38.84375 L 36.140625 -7.96875 L 36.140625 -33.71875 C 36.140625 -36.613281 35.160156 -38.320312 33.203125 -38.84375 Z M 41.171875 -38.84375 " />
            </g>
        </g>
    </g>
    <g fill="#ffdead" fill-opacity="1">
        <g transform="translate(332.71853, 65.21903)">
            <g />
        </g>
    </g>
    <g fill="#ffdead" fill-opacity="1">
        <g transform="translate(347.173376, 65.21903)">
            <g>
                <path
                    d="M 47.328125 -33.203125 C 47.773438 -34.554688 48 -35.609375 48 -36.359375 C 48 -37.910156 47.320312 -38.738281 45.96875 -38.84375 L 54.71875 -38.84375 C 54.15625 -38.738281 53.429688 -38.304688 52.546875 -37.546875 C 51.660156 -36.796875 50.84375 -35.328125 50.09375 -33.140625 L 37.890625 1.359375 L 26.984375 -29.921875 L 15.75 1.359375 L 4.625 -33.3125 C 3.644531 -36.476562 2.21875 -38.320312 0.34375 -38.84375 L 9.71875 -38.84375 C 8.65625 -38.65625 8.125 -38.035156 8.125 -36.984375 C 8.125 -36.460938 8.351562 -35.519531 8.8125 -34.15625 L 9.4375 -32.1875 L 16.546875 -8.640625 L 28.015625 -39.921875 L 38.90625 -8.859375 Z M 47.328125 -33.203125 " />
            </g>
        </g>
    </g>
    <g fill="#ffdead" fill-opacity="1">
        <g transform="translate(401.379046, 65.21903)">
            <g>
                <path
                    d="M 4.796875 0 C 4.796875 0.113281 5.019531 0.03125 5.46875 -0.25 C 5.925781 -0.53125 6.332031 -1.09375 6.6875 -1.9375 C 7.050781 -2.789062 7.234375 -4.023438 7.234375 -5.640625 L 7.234375 -33.375 C 7.234375 -34.914062 7.050781 -36.085938 6.6875 -36.890625 C 6.332031 -37.703125 5.925781 -38.257812 5.46875 -38.5625 C 5.019531 -38.863281 4.796875 -38.957031 4.796875 -38.84375 L 25.234375 -38.84375 L 25.234375 -33.203125 C 24.554688 -35.460938 22.523438 -36.59375 19.140625 -36.59375 L 11.296875 -36.59375 L 11.296875 -20.546875 L 21 -20.546875 C 21.757812 -20.546875 22.398438 -20.664062 22.921875 -20.90625 C 23.453125 -21.15625 23.847656 -21.410156 24.109375 -21.671875 C 24.367188 -21.941406 24.519531 -22.113281 24.5625 -22.1875 L 24.5625 -16.71875 C 24.519531 -16.789062 24.367188 -16.957031 24.109375 -17.21875 C 23.847656 -17.488281 23.460938 -17.734375 22.953125 -17.953125 C 22.441406 -18.179688 21.8125 -18.296875 21.0625 -18.296875 L 11.296875 -18.296875 L 11.296875 -2.265625 L 20.109375 -2.265625 C 21.796875 -2.265625 23.25 -2.609375 24.46875 -3.296875 C 25.695312 -3.992188 26.578125 -4.890625 27.109375 -5.984375 L 26.09375 0 Z M 4.796875 0 " />
            </g>
        </g>
    </g>
    <g fill="#ffdead" fill-opacity="1">
        <g transform="translate(431.192168, 65.21903)">
            <g>
                <path
                    d="M 22.703125 -0.953125 C 21.722656 -0.617188 20.601562 -0.375 19.34375 -0.21875 C 18.082031 -0.0703125 16.335938 0 14.109375 0 L 4.796875 0 C 5.285156 -0.113281 5.8125 -0.535156 6.375 -1.265625 C 6.945312 -2.003906 7.234375 -3.425781 7.234375 -5.53125 L 7.234375 -33.484375 C 7.234375 -35.441406 6.96875 -36.785156 6.4375 -37.515625 C 5.90625 -38.253906 5.378906 -38.695312 4.859375 -38.84375 L 14.109375 -38.84375 C 16.523438 -38.84375 18.363281 -38.738281 19.625 -38.53125 C 20.882812 -38.332031 21.984375 -38.023438 22.921875 -37.609375 C 24.578125 -36.816406 25.859375 -35.703125 26.765625 -34.265625 C 27.671875 -32.835938 28.125 -31.296875 28.125 -29.640625 C 28.125 -27.117188 27.359375 -24.945312 25.828125 -23.125 C 24.304688 -21.300781 22.304688 -20.125 19.828125 -19.59375 C 21.515625 -19.40625 23.117188 -18.914062 24.640625 -18.125 C 26.171875 -17.332031 27.414062 -16.257812 28.375 -14.90625 C 29.332031 -13.550781 29.8125 -12.007812 29.8125 -10.28125 C 29.8125 -7.863281 29.171875 -5.894531 27.890625 -4.375 C 26.609375 -2.851562 24.878906 -1.710938 22.703125 -0.953125 Z M 21.125 -34.890625 C 20.363281 -35.460938 19.550781 -35.890625 18.6875 -36.171875 C 17.820312 -36.453125 16.65625 -36.59375 15.1875 -36.59375 L 11.296875 -36.59375 L 11.296875 -20.546875 L 15.875 -20.546875 C 17.226562 -20.546875 18.351562 -20.753906 19.25 -21.171875 C 20.15625 -21.585938 20.945312 -22.132812 21.625 -22.8125 C 22.34375 -23.53125 22.90625 -24.394531 23.3125 -25.40625 C 23.726562 -26.425781 23.9375 -27.460938 23.9375 -28.515625 C 23.9375 -29.796875 23.703125 -31 23.234375 -32.125 C 22.765625 -33.257812 22.0625 -34.179688 21.125 -34.890625 Z M 22.3125 -16.65625 C 21.59375 -17.21875 20.703125 -17.628906 19.640625 -17.890625 C 18.585938 -18.160156 17.160156 -18.296875 15.359375 -18.296875 L 11.296875 -18.296875 L 11.296875 -2.265625 L 16.65625 -2.265625 C 19.363281 -2.265625 21.476562 -2.898438 23 -4.171875 C 24.53125 -5.453125 25.296875 -7.488281 25.296875 -10.28125 C 25.296875 -12.875 24.300781 -15 22.3125 -16.65625 Z M 22.3125 -16.65625 " />
            </g>
        </g>
    </g>
    <g fill="#ffdead" fill-opacity="1">
        <g transform="translate(464.619002, 65.21903)">
            <g />
        </g>
    </g>
    <g fill="#ffdead" fill-opacity="1">
        <g transform="translate(479.073833, 65.21903)">
            <g>
                <path
                    d="M 30.09375 -3.15625 C 26.5625 -1.050781 21.835938 0 15.921875 0 L 4.796875 0 C 4.796875 0.113281 5.019531 0.0078125 5.46875 -0.3125 C 5.925781 -0.632812 6.332031 -1.226562 6.6875 -2.09375 C 7.050781 -2.957031 7.234375 -4.21875 7.234375 -5.875 L 7.234375 -33.65625 C 7.234375 -35.125 7.050781 -36.242188 6.6875 -37.015625 C 6.332031 -37.785156 5.925781 -38.300781 5.46875 -38.5625 C 5.019531 -38.832031 4.796875 -38.925781 4.796875 -38.84375 L 15.875 -38.84375 C 21.625 -38.84375 26.175781 -37.90625 29.53125 -36.03125 C 32.507812 -34.375 34.804688 -32.132812 36.421875 -29.3125 C 38.035156 -26.488281 38.84375 -23.304688 38.84375 -19.765625 C 38.84375 -15.921875 38.082031 -12.597656 36.5625 -9.796875 C 35.039062 -6.992188 32.882812 -4.78125 30.09375 -3.15625 Z M 27.890625 -33.484375 C 26.234375 -34.578125 24.460938 -35.367188 22.578125 -35.859375 C 20.703125 -36.347656 18.46875 -36.59375 15.875 -36.59375 L 11.296875 -36.59375 L 11.296875 -2.265625 L 15.875 -2.265625 C 18.957031 -2.265625 21.484375 -2.523438 23.453125 -3.046875 C 25.429688 -3.578125 27.140625 -4.390625 28.578125 -5.484375 C 30.421875 -6.910156 31.835938 -8.78125 32.828125 -11.09375 C 33.828125 -13.40625 34.328125 -16.109375 34.328125 -19.203125 C 34.328125 -22.472656 33.753906 -25.34375 32.609375 -27.8125 C 31.460938 -30.28125 29.890625 -32.171875 27.890625 -33.484375 Z M 27.890625 -33.484375 " />
            </g>
        </g>
    </g>
    <g fill="#ffdead" fill-opacity="1">
        <g transform="translate(521.083229, 65.21903)">
            <g>
                <path
                    d="M 4.796875 0 C 4.796875 0.113281 5.019531 0.03125 5.46875 -0.25 C 5.925781 -0.53125 6.332031 -1.09375 6.6875 -1.9375 C 7.050781 -2.789062 7.234375 -4.023438 7.234375 -5.640625 L 7.234375 -33.375 C 7.234375 -34.914062 7.050781 -36.085938 6.6875 -36.890625 C 6.332031 -37.703125 5.925781 -38.257812 5.46875 -38.5625 C 5.019531 -38.863281 4.796875 -38.957031 4.796875 -38.84375 L 25.234375 -38.84375 L 25.234375 -33.203125 C 24.554688 -35.460938 22.523438 -36.59375 19.140625 -36.59375 L 11.296875 -36.59375 L 11.296875 -20.546875 L 21 -20.546875 C 21.757812 -20.546875 22.398438 -20.664062 22.921875 -20.90625 C 23.453125 -21.15625 23.847656 -21.410156 24.109375 -21.671875 C 24.367188 -21.941406 24.519531 -22.113281 24.5625 -22.1875 L 24.5625 -16.71875 C 24.519531 -16.789062 24.367188 -16.957031 24.109375 -17.21875 C 23.847656 -17.488281 23.460938 -17.734375 22.953125 -17.953125 C 22.441406 -18.179688 21.8125 -18.296875 21.0625 -18.296875 L 11.296875 -18.296875 L 11.296875 -2.265625 L 20.109375 -2.265625 C 21.796875 -2.265625 23.25 -2.609375 24.46875 -3.296875 C 25.695312 -3.992188 26.578125 -4.890625 27.109375 -5.984375 L 26.09375 0 Z M 4.796875 0 " />
            </g>
        </g>
    </g>
    <g fill="#ffdead" fill-opacity="1">
        <g transform="translate(550.896366, 65.21903)">
            <g>
                <path
                    d="M 30.15625 -35.859375 C 30.15625 -36.609375 29.945312 -37.253906 29.53125 -37.796875 C 29.113281 -38.347656 28.472656 -38.695312 27.609375 -38.84375 L 37.09375 -38.84375 C 36.601562 -38.769531 35.941406 -38.335938 35.109375 -37.546875 C 34.285156 -36.753906 33.425781 -35.285156 32.53125 -33.140625 L 18.234375 1.359375 L 3.734375 -33.3125 C 2.898438 -35.3125 2.078125 -36.695312 1.265625 -37.46875 C 0.460938 -38.238281 -0.203125 -38.695312 -0.734375 -38.84375 L 8.703125 -38.84375 C 7.679688 -38.582031 7.171875 -37.925781 7.171875 -36.875 C 7.171875 -36.3125 7.300781 -35.707031 7.5625 -35.0625 C 7.832031 -34.425781 7.984375 -34.050781 8.015625 -33.9375 L 18.96875 -7.109375 L 29.59375 -33.203125 C 29.96875 -34.066406 30.15625 -34.953125 30.15625 -35.859375 Z M 30.15625 -35.859375 " />
            </g>
        </g>
    </g>
    <g fill="#ffdead" fill-opacity="1">
        <g transform="translate(586.35591, 65.21903)">
            <g>
                <path
                    d="M 4.796875 0 C 4.796875 0.113281 5.019531 0.03125 5.46875 -0.25 C 5.925781 -0.53125 6.332031 -1.09375 6.6875 -1.9375 C 7.050781 -2.789062 7.234375 -4.023438 7.234375 -5.640625 L 7.234375 -33.375 C 7.234375 -34.914062 7.050781 -36.085938 6.6875 -36.890625 C 6.332031 -37.703125 5.925781 -38.257812 5.46875 -38.5625 C 5.019531 -38.863281 4.796875 -38.957031 4.796875 -38.84375 L 25.234375 -38.84375 L 25.234375 -33.203125 C 24.554688 -35.460938 22.523438 -36.59375 19.140625 -36.59375 L 11.296875 -36.59375 L 11.296875 -20.546875 L 21 -20.546875 C 21.757812 -20.546875 22.398438 -20.664062 22.921875 -20.90625 C 23.453125 -21.15625 23.847656 -21.410156 24.109375 -21.671875 C 24.367188 -21.941406 24.519531 -22.113281 24.5625 -22.1875 L 24.5625 -16.71875 C 24.519531 -16.789062 24.367188 -16.957031 24.109375 -17.21875 C 23.847656 -17.488281 23.460938 -17.734375 22.953125 -17.953125 C 22.441406 -18.179688 21.8125 -18.296875 21.0625 -18.296875 L 11.296875 -18.296875 L 11.296875 -2.265625 L 20.109375 -2.265625 C 21.796875 -2.265625 23.25 -2.609375 24.46875 -3.296875 C 25.695312 -3.992188 26.578125 -4.890625 27.109375 -5.984375 L 26.09375 0 Z M 4.796875 0 " />
            </g>
        </g>
    </g>
    <g fill="#ffdead" fill-opacity="1">
        <g transform="translate(616.169017, 65.21903)">
            <g>
                <path
                    d="M 7.234375 -33.59375 C 7.234375 -35.101562 7.050781 -36.242188 6.6875 -37.015625 C 6.332031 -37.785156 5.925781 -38.300781 5.46875 -38.5625 C 5.019531 -38.832031 4.796875 -38.925781 4.796875 -38.84375 L 13.78125 -38.84375 C 13.78125 -38.925781 13.550781 -38.832031 13.09375 -38.5625 C 12.644531 -38.300781 12.234375 -37.785156 11.859375 -37.015625 C 11.484375 -36.242188 11.296875 -35.101562 11.296875 -33.59375 L 11.296875 -2.265625 L 20.546875 -2.265625 C 22.242188 -2.265625 23.703125 -2.609375 24.921875 -3.296875 C 26.148438 -3.992188 27.03125 -4.890625 27.5625 -5.984375 L 26.546875 0 L 4.796875 0 C 4.796875 0.113281 5.019531 0.03125 5.46875 -0.25 C 5.925781 -0.53125 6.332031 -1.09375 6.6875 -1.9375 C 7.050781 -2.789062 7.234375 -4.023438 7.234375 -5.640625 Z M 7.234375 -33.59375 " />
            </g>
        </g>
    </g>
    <g fill="#ffdead" fill-opacity="1">
        <g transform="translate(644.739923, 65.21903)">
            <g>
                <path
                    d="M 3.609375 -18.96875 C 3.609375 -22.957031 4.460938 -26.515625 6.171875 -29.640625 C 7.890625 -32.765625 10.300781 -35.191406 13.40625 -36.921875 C 16.507812 -38.660156 20.097656 -39.53125 24.171875 -39.53125 C 27.554688 -39.53125 30.722656 -38.785156 33.671875 -37.296875 C 36.628906 -35.804688 39.003906 -33.570312 40.796875 -30.59375 C 42.585938 -27.625 43.484375 -24.050781 43.484375 -19.875 C 43.484375 -15.882812 42.625 -12.328125 40.90625 -9.203125 C 39.195312 -6.078125 36.789062 -3.648438 33.6875 -1.921875 C 30.582031 -0.191406 26.992188 0.671875 22.921875 0.671875 C 19.535156 0.671875 16.363281 -0.0664062 13.40625 -1.546875 C 10.457031 -3.035156 8.085938 -5.265625 6.296875 -8.234375 C 4.503906 -11.210938 3.609375 -14.789062 3.609375 -18.96875 Z M 38.96875 -19.03125 C 38.96875 -22.457031 38.257812 -25.550781 36.84375 -28.3125 C 35.4375 -31.082031 33.5 -33.25 31.03125 -34.8125 C 28.5625 -36.375 25.785156 -37.15625 22.703125 -37.15625 C 19.878906 -37.15625 17.363281 -36.4375 15.15625 -35 C 12.957031 -33.570312 11.234375 -31.550781 9.984375 -28.9375 C 8.742188 -26.320312 8.125 -23.285156 8.125 -19.828125 C 8.125 -16.398438 8.828125 -13.300781 10.234375 -10.53125 C 11.648438 -7.757812 13.59375 -5.59375 16.0625 -4.03125 C 18.53125 -2.46875 21.304688 -1.6875 24.390625 -1.6875 C 27.210938 -1.6875 29.722656 -2.398438 31.921875 -3.828125 C 34.128906 -5.265625 35.851562 -7.289062 37.09375 -9.90625 C 38.34375 -12.519531 38.96875 -15.5625 38.96875 -19.03125 Z M 38.96875 -19.03125 " />
            </g>
        </g>
    </g>
    <g fill="#ffdead" fill-opacity="1">
        <g transform="translate(690.927678, 65.21903)">
            <g>
                <path
                    d="M 29.140625 -28.34375 C 29.140625 -26.164062 28.617188 -24.21875 27.578125 -22.5 C 26.546875 -20.789062 25.066406 -19.445312 23.140625 -18.46875 C 21.222656 -17.488281 18.96875 -17 16.375 -17 C 14.789062 -17 13.097656 -17.164062 11.296875 -17.5 L 11.296875 -5.1875 C 11.296875 -3.726562 11.484375 -2.609375 11.859375 -1.828125 C 12.234375 -1.054688 12.644531 -0.539062 13.09375 -0.28125 C 13.550781 -0.0195312 13.78125 0.0703125 13.78125 0 L 4.796875 0 C 4.796875 0.0703125 5.019531 -0.0195312 5.46875 -0.28125 C 5.925781 -0.539062 6.332031 -1.046875 6.6875 -1.796875 C 7.050781 -2.554688 7.234375 -3.6875 7.234375 -5.1875 L 7.234375 -33.484375 C 7.234375 -34.992188 7.050781 -36.140625 6.6875 -36.921875 C 6.332031 -37.710938 5.925781 -38.25 5.46875 -38.53125 C 5.019531 -38.820312 4.796875 -38.925781 4.796875 -38.84375 L 15.875 -38.84375 C 17.789062 -38.84375 19.367188 -38.71875 20.609375 -38.46875 C 21.847656 -38.226562 22.941406 -37.863281 23.890625 -37.375 C 25.578125 -36.507812 26.875 -35.257812 27.78125 -33.625 C 28.6875 -31.988281 29.140625 -30.226562 29.140625 -28.34375 Z M 24.796875 -27.609375 C 24.796875 -30.285156 23.96875 -32.453125 22.3125 -34.109375 C 20.65625 -35.765625 18.453125 -36.59375 15.703125 -36.59375 L 11.296875 -36.59375 L 11.296875 -19.703125 C 12.910156 -19.398438 14.601562 -19.25 16.375 -19.25 C 19.007812 -19.25 21.070312 -20.007812 22.5625 -21.53125 C 24.050781 -23.0625 24.796875 -25.085938 24.796875 -27.609375 Z M 24.796875 -27.609375 " />
            </g>
        </g>
    </g>
    <g fill="#ffdead" fill-opacity="1">
        <g transform="translate(721.870048, 65.21903)">
            <g>
                <path
                    d="M 37.5 0 C 37.945312 -0.0703125 38.429688 -0.472656 38.953125 -1.203125 C 39.484375 -1.941406 39.75 -3.3125 39.75 -5.3125 L 39.75 -33.546875 L 24.953125 0.625 L 9.9375 -33.484375 L 9.9375 -5.59375 C 9.9375 -3.5625 10.265625 -2.140625 10.921875 -1.328125 C 11.585938 -0.515625 12.179688 -0.0703125 12.703125 0 L 4.34375 0 C 4.90625 -0.0703125 5.523438 -0.492188 6.203125 -1.265625 C 6.890625 -2.035156 7.234375 -3.476562 7.234375 -5.59375 L 7.234375 -33.875 C 7.234375 -35.6875 6.910156 -36.929688 6.265625 -37.609375 C 5.628906 -38.285156 4.988281 -38.695312 4.34375 -38.84375 L 11.96875 -38.84375 L 25.8125 -7.28125 L 39.421875 -38.84375 L 46.25 -38.84375 C 45.757812 -38.769531 45.226562 -38.375 44.65625 -37.65625 C 44.09375 -36.945312 43.8125 -35.632812 43.8125 -33.71875 L 43.8125 -5.078125 C 43.8125 -3.203125 44.09375 -1.90625 44.65625 -1.1875 C 45.226562 -0.46875 45.757812 -0.0703125 46.25 0 Z M 37.5 0 " />
            </g>
        </g>
    </g>
    <g fill="#ffdead" fill-opacity="1">
        <g transform="translate(772.010284, 65.21903)">
            <g>
                <path
                    d="M 4.796875 0 C 4.796875 0.113281 5.019531 0.03125 5.46875 -0.25 C 5.925781 -0.53125 6.332031 -1.09375 6.6875 -1.9375 C 7.050781 -2.789062 7.234375 -4.023438 7.234375 -5.640625 L 7.234375 -33.375 C 7.234375 -34.914062 7.050781 -36.085938 6.6875 -36.890625 C 6.332031 -37.703125 5.925781 -38.257812 5.46875 -38.5625 C 5.019531 -38.863281 4.796875 -38.957031 4.796875 -38.84375 L 25.234375 -38.84375 L 25.234375 -33.203125 C 24.554688 -35.460938 22.523438 -36.59375 19.140625 -36.59375 L 11.296875 -36.59375 L 11.296875 -20.546875 L 21 -20.546875 C 21.757812 -20.546875 22.398438 -20.664062 22.921875 -20.90625 C 23.453125 -21.15625 23.847656 -21.410156 24.109375 -21.671875 C 24.367188 -21.941406 24.519531 -22.113281 24.5625 -22.1875 L 24.5625 -16.71875 C 24.519531 -16.789062 24.367188 -16.957031 24.109375 -17.21875 C 23.847656 -17.488281 23.460938 -17.734375 22.953125 -17.953125 C 22.441406 -18.179688 21.8125 -18.296875 21.0625 -18.296875 L 11.296875 -18.296875 L 11.296875 -2.265625 L 20.109375 -2.265625 C 21.796875 -2.265625 23.25 -2.609375 24.46875 -3.296875 C 25.695312 -3.992188 26.578125 -4.890625 27.109375 -5.984375 L 26.09375 0 Z M 4.796875 0 " />
            </g>
        </g>
    </g>
    <g fill="#ffdead" fill-opacity="1">
        <g transform="translate(801.823421, 65.21903)">
            <g>
                <path
                    d="M 41.171875 -38.84375 C 40.640625 -38.738281 40.117188 -38.316406 39.609375 -37.578125 C 39.097656 -36.847656 38.84375 -35.5625 38.84375 -33.71875 L 38.84375 1.578125 L 9.9375 -32.125 L 9.9375 -5.078125 C 9.9375 -3.273438 10.253906 -2.003906 10.890625 -1.265625 C 11.535156 -0.535156 12.160156 -0.113281 12.765625 0 L 4.796875 0 C 5.328125 -0.113281 5.863281 -0.535156 6.40625 -1.265625 C 6.957031 -2.003906 7.234375 -3.296875 7.234375 -5.140625 L 7.234375 -33.375 C 7.234375 -34.65625 6.796875 -35.820312 5.921875 -36.875 C 5.054688 -37.925781 3.96875 -38.582031 2.65625 -38.84375 L 9.65625 -38.84375 L 36.140625 -7.96875 L 36.140625 -33.71875 C 36.140625 -36.613281 35.160156 -38.320312 33.203125 -38.84375 Z M 41.171875 -38.84375 " />
            </g>
        </g>
    </g>
    <g fill="#ffdead" fill-opacity="1">
        <g transform="translate(846.994791, 65.21903)">
            <g>
                <path
                    d="M 8.359375 -36.59375 C 6.703125 -36.59375 5.328125 -36.269531 4.234375 -35.625 C 3.140625 -34.988281 2.347656 -34.179688 1.859375 -33.203125 L 2.65625 -38.84375 L 29.421875 -38.84375 L 30.203125 -33.203125 C 29.722656 -34.179688 28.9375 -34.988281 27.84375 -35.625 C 26.75 -36.269531 25.375 -36.59375 23.71875 -36.59375 L 18.0625 -36.59375 L 18.0625 -5.25 C 18.0625 -3.75 18.25 -2.601562 18.625 -1.8125 C 19.007812 -1.019531 19.425781 -0.488281 19.875 -0.21875 C 20.320312 0.0390625 20.546875 0.113281 20.546875 0 L 11.578125 0 C 11.578125 0.113281 11.800781 0.0390625 12.25 -0.21875 C 12.707031 -0.488281 13.113281 -1.007812 13.46875 -1.78125 C 13.820312 -2.550781 14 -3.707031 14 -5.25 L 14 -36.59375 Z M 8.359375 -36.59375 " />
            </g>
        </g>
    </g>
</svg>