<svg xmlns="http://www.w3.org/2000/svg" xmlns:xlink="http://www.w3.org/1999/xlink" width="1000" zoomAndPan="magnify"
    viewBox="0 0 750 262.499992" height="350" preserveAspectRatio="xMidYMid meet" version="1.0">
    <defs>
        <g />
        <clipPath id="f7d580442e">
            <path d="M 361 103 L 389 103 L 389 135.765625 L 361 135.765625 Z M 361 103 " clip-rule="nonzero" />
        </clipPath>
        <clipPath id="ae86523d73">
            <path d="M 373 30.964844 L 377 30.964844 L 377 96 L 373 96 Z M 373 30.964844 " clip-rule="nonzero" />
        </clipPath>
        <clipPath id="0f603567b9">
            <path d="M 366 44 L 421.832031 44 L 421.832031 122 L 366 122 Z M 366 44 " clip-rule="nonzero" />
        </clipPath>
        <clipPath id="e4ec9749c9">
            <path d="M 365 94 L 398 94 L 398 135.765625 L 365 135.765625 Z M 365 94 " clip-rule="nonzero" />
        </clipPath>
        <clipPath id="1590fedb2e">
            <path d="M 365 30.964844 L 398 30.964844 L 398 90 L 365 90 Z M 365 30.964844 " clip-rule="nonzero" />
        </clipPath>
        <clipPath id="62a3940e8c">
            <path d="M 417 80 L 421.832031 80 L 421.832031 83 L 417 83 Z M 417 80 " clip-rule="nonzero" />
        </clipPath>
        <clipPath id="6079cfe99b">
            <path d="M 361 103 L 389 103 L 389 135.765625 L 361 135.765625 Z M 361 103 " clip-rule="nonzero" />
        </clipPath>
        <clipPath id="efa18bcc3c">
            <path d="M 373 30.964844 L 377 30.964844 L 377 96 L 373 96 Z M 373 30.964844 " clip-rule="nonzero" />
        </clipPath>
        <clipPath id="b17a4e1816">
            <path d="M 328.261719 44 L 385 44 L 385 122 L 328.261719 122 Z M 328.261719 44 " clip-rule="nonzero" />
        </clipPath>
        <clipPath id="523605d1cc">
            <path d="M 353 94 L 385 94 L 385 135.765625 L 353 135.765625 Z M 353 94 " clip-rule="nonzero" />
        </clipPath>
        <clipPath id="b1874a3fad">
            <path d="M 352 30.964844 L 385 30.964844 L 385 90 L 352 90 Z M 352 30.964844 " clip-rule="nonzero" />
        </clipPath>
        <clipPath id="8b93b1a72d">
            <path d="M 328.261719 80 L 333 80 L 333 83 L 328.261719 83 Z M 328.261719 80 " clip-rule="nonzero" />
        </clipPath>
    </defs>
    <g clip-path="url(#f7d580442e)">
        <path stroke-linecap="butt" transform="matrix(0.0803881, 0, 0, 0.0802977, 328.261445, 30.970813)" fill="none"
            stroke-linejoin="miter"
            d="M 657.992882 1155.586467 C 657.992882 1199.320221 645.31027 1235.173143 629.129006 1259.885876 C 621.014078 1272.242243 612.121671 1281.679783 603.618004 1287.95526 C 595.065745 1294.328032 587.533925 1297.003623 581.994393 1297.003623 C 576.454862 1297.003623 568.825857 1294.328032 560.176413 1287.95526 C 551.575561 1281.631136 542.58597 1272.193596 534.325265 1259.837229 C 517.901039 1235.124496 504.975465 1199.271574 504.975465 1155.586467 C 504.975465 1112.631067 525.238489 1071.086433 546.133214 1039.757692 C 556.531984 1024.190616 566.930754 1011.396426 574.705536 1002.494004 C 577.523894 999.331942 579.953513 996.656351 581.945801 994.515878 C 583.938089 996.607703 586.319116 999.283295 589.088881 1002.445357 C 596.766478 1011.347779 607.068064 1024.190616 617.321057 1039.709045 C 637.97282 1071.037786 657.992882 1112.58242 657.992882 1155.586467 Z M 657.992882 1155.586467 "
            stroke="#000000" stroke-width="16" stroke-opacity="1" stroke-miterlimit="4" />
    </g>
    <path fill="#000000"
        d="M 377.78125 126.265625 C 377.78125 129.570312 376.132812 131.90625 375.058594 131.90625 C 373.988281 131.90625 372.394531 129.640625 372.394531 126.265625 C 372.394531 122.886719 375.058594 119.859375 375.058594 119.859375 C 375.058594 119.859375 377.78125 122.957031 377.78125 126.265625 Z M 377.78125 126.265625 "
        fill-opacity="1" fill-rule="nonzero" />
    <path fill="#000000"
        d="M 373.921875 102.757812 L 376.171875 102.757812 L 376.171875 111.671875 L 373.921875 111.671875 Z M 373.921875 102.757812 "
        fill-opacity="1" fill-rule="nonzero" />
    <path fill="#000000"
        d="M 372.957031 94.324219 L 377.136719 94.324219 L 377.136719 105.164062 L 372.957031 105.164062 Z M 372.957031 94.324219 "
        fill-opacity="1" fill-rule="nonzero" />
    <g clip-path="url(#ae86523d73)">
        <path fill="#000000"
            d="M 373.921875 34.261719 C 373.921875 34.261719 374.015625 33.40625 374.242188 32.898438 C 374.351562 32.660156 374.574219 32.308594 374.726562 31.972656 C 374.882812 31.625 375.046875 30.972656 375.046875 30.972656 C 375.046875 30.972656 375.210938 31.625 375.367188 31.972656 C 375.519531 32.308594 375.742188 32.660156 375.851562 32.898438 C 376.078125 33.40625 376.171875 34.261719 376.171875 34.261719 L 376.171875 95.207031 L 373.921875 95.207031 Z M 373.921875 34.261719 "
            fill-opacity="1" fill-rule="nonzero" />
    </g>
    <path fill="#000000"
        d="M 375.125 110.0625 L 376.171875 109.621094 C 376.171875 109.621094 376.25 110.4375 376.371094 110.949219 C 376.449219 111.265625 376.773438 111.910156 376.773438 111.910156 L 375.125 111.269531 Z M 375.125 110.0625 "
        fill-opacity="1" fill-rule="nonzero" />
    <path fill="#000000"
        d="M 374.980469 110.058594 L 373.9375 109.613281 C 373.9375 109.613281 373.859375 110.429688 373.734375 110.941406 C 373.660156 111.257812 373.332031 111.902344 373.332031 111.902344 L 374.980469 111.261719 Z M 374.980469 110.058594 "
        fill-opacity="1" fill-rule="nonzero" />
    <g clip-path="url(#0f603567b9)">
        <path stroke-linecap="round" transform="matrix(0.0803881, 0, 0, 0.0802977, 328.261445, 30.970813)" fill="none"
            stroke-linejoin="miter"
            d="M 594.482636 817.489035 C 594.482636 817.489035 643.026428 746.026427 678.012944 722.481224 C 692.736437 712.605861 717.46996 700.006258 717.46996 700.006258 M 832.974057 612.976574 C 803.332703 638.175778 789.629651 656.321151 756.975568 677.482645 C 742.106299 687.163421 717.46996 700.006258 717.46996 700.006258 M 832.974057 612.976574 C 853.285674 597.555439 864.704884 588.944901 884.967908 573.523766 M 832.974057 612.976574 C 829.281036 591.523198 821.554847 579.701949 823.498542 558.005337 C 825.29646 537.622197 831.80784 527.017126 840.505877 508.482576 C 845.510892 497.828859 854.986407 482.018547 854.986407 482.018547 M 884.967908 573.523766 C 908.195068 567.39423 923.258707 567.39423 946.485866 573.523766 C 964.805195 578.33983 989.97605 594.977143 989.97605 594.977143 C 989.97605 594.977143 1012.717286 616.771049 1030.502098 625.478882 C 1049.161574 634.673186 1061.212485 637.835249 1082.010026 639.002779 C 1101.25261 640.073016 1130.991149 632.484066 1130.991149 632.484066 M 884.967908 573.523766 C 915.921257 581.21001 933.463107 590.890785 956.495898 612.976574 C 972.628569 628.495003 978.36247 640.364898 989.97605 659.483214 C 999.597342 675.293525 1011.9884 701.514319 1011.9884 701.514319 C 1011.9884 701.514319 1027.440778 723.989285 1040.998053 734.497061 C 1055.138437 745.491309 1064.419583 751.474903 1082.010026 754.977496 C 1095.178562 757.653087 1116.510618 754.977496 1116.510618 754.977496 M 932.49126 400.485987 C 932.49126 400.485987 887.737674 428.409429 869.466938 455.505871 C 862.906966 465.283941 854.986407 482.018547 854.986407 482.018547 M 854.986407 482.018547 C 854.986407 482.018547 848.815174 454.922106 840.505877 439.500971 C 829.038074 418.193536 809.503936 415.031473 799.493905 392.994331 C 789.921205 371.978779 785.207744 356.849527 790.990237 334.520502 C 796.432584 313.504949 814.994875 295.505518 814.994875 295.505518 M 717.46996 700.006258 C 717.46996 700.006258 761.446068 705.162852 781.46613 722.481224 C 796.189622 735.226768 808.969419 763.977211 808.969419 763.977211 C 808.969419 763.977211 818.396342 795.84107 823.498542 816.516093 C 827.580303 833.202053 822.964026 845.558419 832.974057 859.52014 C 842.789719 873.092685 869.466938 881.995106 869.466938 881.995106 M 717.46996 700.006258 C 717.46996 700.006258 774.225865 693.292957 808.969419 701.514319 C 836.667078 708.033032 852.362418 714.211215 875.978317 730.021527 C 902.266797 747.583134 914.171931 762.225915 932.49126 788.008885 C 946.048535 807.078553 961.500913 840.499119 961.500913 840.499119 M 961.500913 840.499119 C 961.500913 840.499119 961.500913 893.524472 961.500913 927.480157 C 961.500913 946.647119 967.040445 958.176485 961.500913 976.516446 C 957.856484 988.532283 946.485866 1005.023654 946.485866 1005.023654 M 961.500913 840.499119 C 961.500913 840.499119 987.886578 850.033953 1002.998809 859.52014 C 1019.423035 869.784681 1023.60198 882.870754 1040.998053 891.481293 C 1060.920931 901.405304 1096.97648 901.98907 1096.97648 901.98907 "
            stroke="#000000" stroke-width="22" stroke-opacity="1" stroke-miterlimit="4" />
    </g>
    <g clip-path="url(#e4ec9749c9)">
        <path stroke-linecap="square" transform="matrix(0.0803881, 0, 0, 0.0802977, 328.261445, 30.970813)" fill="none"
            stroke-linejoin="miter"
            d="M 589.47762 913.518435 L 668.002913 1011.007249 C 668.002913 1011.007249 706.682451 1056.63824 718.4904 1092.004691 C 726.362366 1115.647188 729.569464 1130.046733 730.492719 1155.002702 C 731.415974 1180.2992 731.513159 1195.671688 723.009492 1219.508773 C 717.324183 1235.319085 701.96899 1257.015697 701.96899 1257.015697 "
            stroke="#000000" stroke-width="22" stroke-opacity="1" stroke-miterlimit="4" />
    </g>
    <g clip-path="url(#1590fedb2e)">
        <path stroke-linecap="round" transform="matrix(0.0803881, 0, 0, 0.0802977, 328.261445, 30.970813)" fill="none"
            stroke-linejoin="miter"
            d="M 585.007121 599.987795 L 627.476865 538.984316 C 627.476865 538.984316 638.750298 524.682065 645.990563 515.487761 M 714.991749 473.505303 C 714.991749 473.505303 680.442563 478.321367 664.504262 491.991205 C 655.611855 499.580155 653.230828 506.342104 645.990563 515.487761 M 645.990563 515.487761 C 651.481503 490.288556 651.578687 475.353893 659.98517 450.981689 C 666.885288 431.08502 675.340363 421.793422 682.483444 401.994047 C 689.577932 382.389261 693.902654 371.200425 696.47805 350.476755 C 700.316849 319.780427 690.598372 302.462055 689.480747 271.522491 C 688.703269 250.020468 687.245497 237.85869 689.480747 216.502607 C 692.153328 190.768285 689.432155 173.012089 704.495794 151.996536 C 715.574857 136.526754 742.980962 121.981267 742.980962 121.981267 "
            stroke="#000000" stroke-width="22" stroke-opacity="1" stroke-miterlimit="4" />
    </g>
    <path fill="#000000"
        d="M 383.675781 131.820312 L 384.972656 133.027344 C 384.972656 133.027344 384.972656 133.070312 384.773438 133.269531 C 384.574219 133.472656 383.96875 133.953125 383.246094 134.273438 C 382.515625 134.597656 381.277344 134.515625 381.277344 134.515625 Z M 383.675781 131.820312 "
        fill-opacity="1" fill-rule="nonzero" />
    <path fill="#000000"
        d="M 383.648438 87.582031 L 390.160156 87.582031 L 390.160156 89.347656 C 390.160156 89.347656 388.914062 88.785156 386.902344 88.785156 C 384.894531 88.785156 383.527344 89.507812 383.527344 89.507812 Z M 383.648438 87.582031 "
        fill-opacity="1" fill-rule="nonzero" />
    <path fill="#000000"
        d="M 415.25 79.042969 C 416.125 78.917969 417.359375 78.375 417.359375 78.375 C 417.359375 78.375 416.667969 77.394531 415.894531 77.144531 C 415.359375 76.96875 414.972656 76.832031 414.394531 76.867188 C 413.769531 76.902344 413.339844 77.035156 412.863281 77.355469 C 412.40625 77.660156 412.207031 78.449219 412.207031 78.449219 C 412.207031 78.449219 412.902344 78.933594 413.453125 79.070312 C 414.121094 79.234375 414.558594 79.140625 415.25 79.042969 Z M 415.25 79.042969 "
        fill-opacity="1" fill-rule="nonzero" />
    <path fill="#000000"
        d="M 403.570312 85.167969 C 403.613281 84.289062 404.039062 83.007812 404.039062 83.007812 C 404.039062 83.007812 405.078125 83.605469 405.402344 84.351562 C 405.625 84.867188 405.800781 85.234375 405.820312 85.816406 C 405.84375 86.441406 405.753906 86.878906 405.480469 87.386719 C 405.214844 87.867188 404.453125 88.140625 404.453125 88.140625 C 404.453125 88.140625 403.902344 87.496094 403.714844 86.960938 C 403.488281 86.3125 403.539062 85.867188 403.570312 85.167969 Z M 403.570312 85.167969 "
        fill-opacity="1" fill-rule="nonzero" />
    <path fill="#000000"
        d="M 389.035156 94.378906 C 389.054688 95.261719 389.449219 96.550781 389.449219 96.550781 C 389.449219 96.550781 390.503906 95.980469 390.84375 95.242188 C 391.082031 94.730469 391.265625 94.367188 391.300781 93.785156 C 391.339844 93.164062 391.257812 92.722656 390.996094 92.210938 C 390.746094 91.722656 389.988281 91.433594 389.988281 91.433594 C 389.988281 91.433594 389.421875 92.0625 389.222656 92.59375 C 388.980469 93.238281 389.019531 93.683594 389.035156 94.378906 Z M 389.035156 94.378906 "
        fill-opacity="1" fill-rule="nonzero" />
    <path fill="#000000"
        d="M 392.691406 70.445312 C 392.378906 69.621094 391.574219 68.539062 391.574219 68.539062 C 391.574219 68.539062 390.773438 69.425781 390.699219 70.238281 C 390.644531 70.796875 390.59375 71.203125 390.757812 71.761719 C 390.929688 72.359375 391.152344 72.75 391.570312 73.144531 C 391.96875 73.523438 392.78125 73.542969 392.78125 73.542969 C 392.78125 73.542969 393.105469 72.757812 393.113281 72.191406 C 393.128906 71.503906 392.941406 71.097656 392.691406 70.445312 Z M 392.691406 70.445312 "
        fill-opacity="1" fill-rule="nonzero" />
    <path fill="#000000"
        d="M 396.277344 59.523438 C 396.855469 58.859375 397.984375 58.121094 397.984375 58.121094 C 397.984375 58.121094 398.429688 59.234375 398.21875 60.019531 C 398.074219 60.5625 397.980469 60.960938 397.632812 61.429688 C 397.261719 61.929688 396.917969 62.21875 396.390625 62.445312 C 395.882812 62.660156 395.117188 62.394531 395.117188 62.394531 C 395.117188 62.394531 395.085938 61.550781 395.273438 61.015625 C 395.5 60.363281 395.816406 60.046875 396.277344 59.523438 Z M 396.277344 59.523438 "
        fill-opacity="1" fill-rule="nonzero" />
    <path fill="#000000"
        d="M 389.140625 45.453125 C 389.566406 44.683594 389.871094 43.371094 389.871094 43.371094 C 389.871094 43.371094 388.675781 43.332031 388.007812 43.800781 C 387.546875 44.125 387.203125 44.347656 386.882812 44.832031 C 386.535156 45.351562 386.382812 45.773438 386.351562 46.34375 C 386.324219 46.894531 386.832031 47.523438 386.832031 47.523438 C 386.832031 47.523438 387.640625 47.261719 388.078125 46.90625 C 388.613281 46.46875 388.804688 46.066406 389.140625 45.453125 Z M 389.140625 45.453125 "
        fill-opacity="1" fill-rule="nonzero" />
    <path fill="#000000"
        d="M 379.796875 57.484375 C 379.882812 56.609375 380.371094 55.351562 380.371094 55.351562 C 380.371094 55.351562 381.378906 55.996094 381.667969 56.753906 C 381.867188 57.285156 382.023438 57.660156 382.015625 58.242188 C 382.007812 58.867188 381.894531 59.300781 381.597656 59.789062 C 381.3125 60.261719 380.535156 60.496094 380.535156 60.496094 C 380.535156 60.496094 380.015625 59.824219 379.855469 59.28125 C 379.660156 58.621094 379.730469 58.179688 379.796875 57.484375 Z M 379.796875 57.484375 "
        fill-opacity="1" fill-rule="nonzero" />
    <path fill="#000000"
        d="M 416.832031 87.570312 C 417.6875 87.773438 419.039062 87.714844 419.039062 87.714844 C 419.039062 87.714844 418.753906 86.554688 418.125 86.039062 C 417.6875 85.679688 417.382812 85.410156 416.828125 85.230469 C 416.234375 85.035156 415.785156 85 415.226562 85.125 C 414.6875 85.242188 414.214844 85.902344 414.214844 85.902344 C 414.214844 85.902344 414.683594 86.609375 415.144531 86.933594 C 415.710938 87.332031 416.148438 87.40625 416.832031 87.570312 Z M 416.832031 87.570312 "
        fill-opacity="1" fill-rule="nonzero" />
    <path fill="#000000"
        d="M 413.210938 98.96875 C 414.089844 98.894531 415.355469 98.421875 415.355469 98.421875 C 415.355469 98.421875 414.71875 97.40625 413.960938 97.109375 C 413.433594 96.90625 413.058594 96.746094 412.476562 96.75 C 411.851562 96.75 411.414062 96.859375 410.921875 97.152344 C 410.449219 97.433594 410.207031 98.207031 410.207031 98.207031 C 410.207031 98.207031 410.875 98.730469 411.414062 98.894531 C 412.074219 99.097656 412.515625 99.03125 413.210938 98.96875 Z M 413.210938 98.96875 "
        fill-opacity="1" fill-rule="nonzero" />
    <path fill="#000000"
        d="M 413.265625 108.117188 C 413.980469 108.628906 415.246094 109.09375 415.246094 109.09375 C 415.246094 109.09375 415.429688 107.910156 415.046875 107.195312 C 414.78125 106.695312 414.601562 106.332031 414.160156 105.953125 C 413.683594 105.546875 413.28125 105.34375 412.71875 105.242188 C 412.175781 105.148438 411.488281 105.578125 411.488281 105.578125 C 411.488281 105.578125 411.648438 106.40625 411.949219 106.886719 C 412.320312 107.46875 412.695312 107.707031 413.265625 108.117188 Z M 413.265625 108.117188 "
        fill-opacity="1" fill-rule="nonzero" />
    <path fill="#000000"
        d="M 400.472656 106.777344 C 400.167969 107.605469 400.0625 108.949219 400.0625 108.949219 C 400.0625 108.949219 401.25 108.804688 401.839844 108.242188 C 402.246094 107.855469 402.550781 107.582031 402.796875 107.054688 C 403.058594 106.488281 403.148438 106.046875 403.089844 105.476562 C 403.039062 104.929688 402.4375 104.382812 402.4375 104.382812 C 402.4375 104.382812 401.679688 104.761719 401.300781 105.183594 C 400.839844 105.695312 400.710938 106.121094 400.472656 106.777344 Z M 400.472656 106.777344 "
        fill-opacity="1" fill-rule="nonzero" />
    <path fill="#000000"
        d="M 375.691406 92.878906 C 375.691406 92.878906 377.484375 91.273438 378.746094 90.390625 C 380.230469 89.351562 382.765625 88.0625 382.765625 88.0625 L 377.699219 95.207031 L 374.402344 95.207031 Z M 375.691406 92.878906 "
        fill-opacity="1" fill-rule="nonzero" />
    <path fill="#000000"
        d="M 398.601562 77.703125 L 400.769531 77.703125 L 403.503906 79.671875 C 403.503906 79.671875 401.601562 78.667969 400.25 78.628906 C 399.117188 78.59375 396.871094 79.871094 397.152344 79.710938 C 397.433594 79.550781 398.601562 77.703125 398.601562 77.703125 Z M 398.601562 77.703125 "
        fill-opacity="1" fill-rule="nonzero" />
    <path fill="#000000"
        d="M 395.382812 78.023438 L 394.863281 75.738281 L 395.867188 73.449219 C 395.867188 73.449219 395.625 74.742188 395.667969 75.574219 C 395.691406 76.128906 395.617188 76.484375 395.867188 76.980469 C 395.984375 77.210938 396.25 77.523438 396.25 77.523438 C 396.25 77.523438 396.765625 77.203125 397.113281 77.023438 C 397.835938 76.640625 399.003906 76.21875 399.003906 76.21875 L 397.476562 78.828125 L 395.382812 78.828125 Z M 395.382812 78.023438 "
        fill-opacity="1" fill-rule="nonzero" />
    <g clip-path="url(#62a3940e8c)">
        <path fill="#000000"
            d="M 421.832031 80.996094 C 421.832031 80.996094 420.8125 82.234375 419.71875 82.527344 C 418.625 82.820312 418.042969 82.714844 417.882812 82.105469 C 417.71875 81.496094 418.167969 81.117188 419.261719 80.824219 C 420.355469 80.53125 421.832031 80.996094 421.832031 80.996094 Z M 421.832031 80.996094 "
            fill-opacity="1" fill-rule="nonzero" />
    </g>
    <path fill="#000000"
        d="M 388.234375 68.613281 C 388.234375 68.613281 387.0625 69.707031 385.9375 69.855469 C 384.8125 70 384.253906 69.820312 384.171875 69.195312 C 384.089844 68.570312 384.585938 68.25 385.710938 68.105469 C 386.832031 67.957031 388.234375 68.613281 388.234375 68.613281 Z M 388.234375 68.613281 "
        fill-opacity="1" fill-rule="nonzero" />
    <path fill="#000000"
        d="M 405.351562 61.699219 C 405.351562 61.699219 404.765625 63.191406 403.816406 63.808594 C 402.863281 64.421875 402.28125 64.5 401.9375 63.972656 C 401.59375 63.445312 401.902344 62.941406 402.855469 62.328125 C 403.804688 61.710938 405.351562 61.699219 405.351562 61.699219 Z M 405.351562 61.699219 "
        fill-opacity="1" fill-rule="nonzero" />
    <path fill="#000000"
        d="M 395.496094 53.019531 C 395.496094 53.019531 395.179688 54.589844 394.351562 55.363281 C 393.523438 56.132812 392.960938 56.3125 392.53125 55.851562 C 392.101562 55.390625 392.316406 54.84375 393.144531 54.070312 C 393.976562 53.300781 395.496094 53.019531 395.496094 53.019531 Z M 395.496094 53.019531 "
        fill-opacity="1" fill-rule="nonzero" />
    <path fill="#000000"
        d="M 389.929688 39.554688 C 389.929688 39.554688 389.289062 41.023438 388.316406 41.601562 C 387.34375 42.183594 386.753906 42.242188 386.433594 41.699219 C 386.109375 41.15625 386.4375 40.667969 387.410156 40.089844 C 388.382812 39.507812 389.929688 39.554688 389.929688 39.554688 Z M 389.929688 39.554688 "
        fill-opacity="1" fill-rule="nonzero" />
    <path fill="#000000"
        d="M 420.539062 91.199219 C 420.539062 91.199219 419.371094 92.296875 418.246094 92.449219 C 417.125 92.597656 416.5625 92.417969 416.480469 91.792969 C 416.394531 91.167969 416.890625 90.847656 418.015625 90.699219 C 419.136719 90.550781 420.539062 91.199219 420.539062 91.199219 Z M 420.539062 91.199219 "
        fill-opacity="1" fill-rule="nonzero" />
    <path fill="#000000"
        d="M 418.945312 103.503906 C 418.945312 103.503906 417.582031 104.351562 416.453125 104.277344 C 415.320312 104.203125 414.804688 103.917969 414.847656 103.289062 C 414.886719 102.660156 415.4375 102.441406 416.566406 102.515625 C 417.695312 102.589844 418.945312 103.503906 418.945312 103.503906 Z M 418.945312 103.503906 "
        fill-opacity="1" fill-rule="nonzero" />
    <path fill="#000000"
        d="M 400.699219 102.589844 C 400.699219 102.589844 399.167969 103.066406 398.09375 102.707031 C 397.015625 102.351562 396.589844 101.945312 396.789062 101.347656 C 396.988281 100.746094 397.574219 100.675781 398.648438 101.035156 C 399.722656 101.390625 400.699219 102.589844 400.699219 102.589844 Z M 400.699219 102.589844 "
        fill-opacity="1" fill-rule="nonzero" />
    <path fill="#000000"
        d="M 403.183594 113.796875 C 403.183594 113.796875 403.027344 112.203125 403.59375 111.222656 C 404.160156 110.242188 404.644531 109.90625 405.191406 110.222656 C 405.738281 110.539062 405.691406 111.125 405.125 112.105469 C 404.558594 113.085938 403.183594 113.796875 403.183594 113.796875 Z M 403.183594 113.796875 "
        fill-opacity="1" fill-rule="nonzero" />
    <path fill="#000000"
        d="M 375.125 78.667969 L 377.5 77.503906 C 377.5 77.503906 376.820312 78.851562 376.574219 79.792969 C 376.3125 80.78125 376.132812 82.640625 376.132812 82.640625 L 375.125 82.523438 Z M 375.125 78.667969 "
        fill-opacity="1" fill-rule="nonzero" />
    <path fill="#000000"
        d="M 393.617188 77.101562 L 394.257812 79.46875 L 394.5 79.953125 L 391.648438 82.359375 C 391.648438 82.359375 393.011719 80.59375 393.375 79.75 C 393.691406 79.015625 393.617188 77.101562 393.617188 77.101562 Z M 393.617188 77.101562 "
        fill-opacity="1" fill-rule="nonzero" />
    <path fill="#000000"
        d="M 375.730469 91.515625 C 375.730469 91.515625 379.078125 89.082031 380.632812 88.261719 C 382.671875 87.1875 386.703125 85.8125 386.703125 85.8125 L 382.28125 89.425781 L 375.449219 93.441406 Z M 375.730469 91.515625 "
        fill-opacity="1" fill-rule="nonzero" />
    <g clip-path="url(#6079cfe99b)">
        <path stroke-linecap="butt" transform="matrix(0.0803881, 0, 0, 0.0802977, 328.261445, 30.970813)" fill="none"
            stroke-linejoin="miter"
            d="M 505.995905 1155.586467 C 505.995905 1199.320221 518.678517 1235.173143 534.859781 1259.885876 C 542.974709 1272.242243 551.867115 1281.679783 560.370782 1287.95526 C 568.923042 1294.328032 576.454862 1297.003623 581.994393 1297.003623 C 587.533925 1297.003623 595.162929 1294.328032 603.860966 1287.95526 C 612.413226 1281.631136 621.402817 1272.193596 629.663522 1259.837229 C 646.087748 1235.124496 659.013322 1199.271574 659.013322 1155.586467 C 659.013322 1112.631067 638.750298 1071.086433 617.855573 1039.757692 C 607.456803 1024.190616 597.058032 1011.396426 589.283251 1002.494004 C 586.464893 999.331942 584.035273 996.656351 582.042986 994.515878 C 580.050698 996.607703 577.669671 999.283295 574.948498 1002.445357 C 567.222309 1011.347779 556.920723 1024.190616 546.66773 1039.709045 C 526.015967 1071.037786 505.995905 1112.58242 505.995905 1155.586467 Z M 505.995905 1155.586467 "
            stroke="#000000" stroke-width="16" stroke-opacity="1" stroke-miterlimit="4" />
    </g>
    <path fill="#000000"
        d="M 372.3125 126.265625 C 372.3125 129.570312 373.960938 131.90625 375.035156 131.90625 C 376.105469 131.90625 377.699219 129.640625 377.699219 126.265625 C 377.699219 122.886719 375.035156 119.859375 375.035156 119.859375 C 375.035156 119.859375 372.3125 122.957031 372.3125 126.265625 Z M 372.3125 126.265625 "
        fill-opacity="1" fill-rule="nonzero" />
    <path fill="#000000"
        d="M 376.171875 102.757812 L 373.921875 102.757812 L 373.921875 111.671875 L 376.171875 111.671875 Z M 376.171875 102.757812 "
        fill-opacity="1" fill-rule="nonzero" />
    <path fill="#000000"
        d="M 377.136719 94.324219 L 372.957031 94.324219 L 372.957031 105.164062 L 377.136719 105.164062 Z M 377.136719 94.324219 "
        fill-opacity="1" fill-rule="nonzero" />
    <g clip-path="url(#efa18bcc3c)">
        <path fill="#000000"
            d="M 376.171875 34.261719 C 376.171875 34.261719 376.078125 33.40625 375.851562 32.898438 C 375.742188 32.660156 375.519531 32.308594 375.367188 31.972656 C 375.210938 31.625 375.046875 30.972656 375.046875 30.972656 C 375.046875 30.972656 374.882812 31.625 374.726562 31.972656 C 374.574219 32.308594 374.351562 32.660156 374.242188 32.898438 C 374.015625 33.40625 373.921875 34.261719 373.921875 34.261719 L 373.921875 95.207031 L 376.171875 95.207031 Z M 376.171875 34.261719 "
            fill-opacity="1" fill-rule="nonzero" />
    </g>
    <path fill="#000000"
        d="M 374.96875 110.0625 L 373.921875 109.621094 C 373.921875 109.621094 373.84375 110.4375 373.722656 110.949219 C 373.644531 111.265625 373.320312 111.910156 373.320312 111.910156 L 374.96875 111.269531 Z M 374.96875 110.0625 "
        fill-opacity="1" fill-rule="nonzero" />
    <path fill="#000000"
        d="M 375.113281 110.058594 L 376.15625 109.613281 C 376.15625 109.613281 376.234375 110.429688 376.359375 110.941406 C 376.433594 111.257812 376.761719 111.902344 376.761719 111.902344 L 375.113281 111.261719 Z M 375.113281 110.058594 "
        fill-opacity="1" fill-rule="nonzero" />
    <g clip-path="url(#b17a4e1816)">
        <path stroke-linecap="round" transform="matrix(0.0803881, 0, 0, 0.0802977, 328.261445, 30.970813)" fill="none"
            stroke-linejoin="miter"
            d="M 569.506151 817.489035 C 569.506151 817.489035 520.962359 746.026427 485.975842 722.481224 C 471.25235 712.605861 446.518826 700.006258 446.518826 700.006258 M 331.014729 612.976574 C 360.656084 638.175778 374.359136 656.321151 407.013218 677.482645 C 421.882488 687.163421 446.518826 700.006258 446.518826 700.006258 M 331.014729 612.976574 C 310.703113 597.555439 299.283903 588.944901 279.020879 573.523766 M 331.014729 612.976574 C 334.707751 591.523198 342.43394 579.701949 340.490244 558.005337 C 338.692326 537.622197 332.180947 527.017126 323.48291 508.482576 C 318.477894 497.828859 309.002379 482.018547 309.002379 482.018547 M 279.020879 573.523766 C 255.793719 567.39423 240.73008 567.39423 217.50292 573.523766 C 199.183591 578.33983 174.012736 594.977143 174.012736 594.977143 C 174.012736 594.977143 151.271501 616.771049 133.486688 625.478882 C 114.827213 634.673186 102.776301 637.835249 81.978761 639.002779 C 62.736177 640.073016 32.997638 632.484066 32.997638 632.484066 M 279.020879 573.523766 C 248.06753 581.21001 230.525679 590.890785 207.492889 612.976574 C 191.360218 628.495003 185.626316 640.364898 174.012736 659.483214 C 164.391444 675.293525 152.000387 701.514319 152.000387 701.514319 C 152.000387 701.514319 136.548008 723.989285 122.990733 734.497061 C 108.850349 745.491309 99.569204 751.474903 81.978761 754.977496 C 68.810225 757.653087 47.478168 754.977496 47.478168 754.977496 M 231.497527 400.485987 C 231.497527 400.485987 276.251113 428.409429 294.521849 455.505871 C 301.081821 465.283941 309.002379 482.018547 309.002379 482.018547 M 309.002379 482.018547 C 309.002379 482.018547 315.173612 454.922106 323.48291 439.500971 C 334.999305 418.193536 354.484851 415.031473 364.494882 392.994331 C 374.067582 371.978779 378.781043 356.849527 372.998549 334.520502 C 367.556202 313.504949 348.993912 295.505518 348.993912 295.505518 M 446.518826 700.006258 C 446.518826 700.006258 402.542719 705.162852 382.522657 722.481224 C 367.799164 735.226768 355.019367 763.977211 355.019367 763.977211 C 355.019367 763.977211 345.592445 795.84107 340.490244 816.516093 C 336.408484 833.202053 341.024761 845.558419 331.014729 859.52014 C 321.199068 873.092685 294.521849 881.995106 294.521849 881.995106 M 446.518826 700.006258 C 446.518826 700.006258 389.762922 693.292957 355.019367 701.514319 C 327.321708 708.033032 311.626368 714.211215 288.01047 730.021527 C 261.72199 747.583134 249.816856 762.225915 231.497527 788.008885 C 217.940252 807.078553 202.487874 840.499119 202.487874 840.499119 M 202.487874 840.499119 C 202.487874 840.499119 202.487874 893.524472 202.487874 927.480157 C 202.487874 946.647119 196.948342 958.176485 202.487874 976.516446 C 206.132302 988.532283 217.50292 1005.023654 217.50292 1005.023654 M 202.487874 840.499119 C 202.487874 840.499119 176.102209 850.033953 160.989978 859.52014 C 144.565752 869.784681 140.386807 882.870754 122.990733 891.481293 C 103.067856 901.405304 67.012307 901.98907 67.012307 901.98907 "
            stroke="#000000" stroke-width="22" stroke-opacity="1" stroke-miterlimit="4" />
    </g>
    <g clip-path="url(#523605d1cc)">
        <path stroke-linecap="square" transform="matrix(0.0803881, 0, 0, 0.0802977, 328.261445, 30.970813)" fill="none"
            stroke-linejoin="miter"
            d="M 574.511166 913.518435 L 495.985873 1011.007249 C 495.985873 1011.007249 457.306336 1056.63824 445.498386 1092.004691 C 437.62642 1115.647188 434.419323 1130.046733 433.496068 1155.002702 C 432.572812 1180.2992 432.475627 1195.671688 440.979295 1219.508773 C 446.664604 1235.319085 462.019797 1257.015697 462.019797 1257.015697 "
            stroke="#000000" stroke-width="22" stroke-opacity="1" stroke-miterlimit="4" />
    </g>
    <g clip-path="url(#b1874a3fad)">
        <path stroke-linecap="round" transform="matrix(0.0803881, 0, 0, 0.0802977, 328.261445, 30.970813)" fill="none"
            stroke-linejoin="miter"
            d="M 578.981666 599.987795 L 536.511922 538.984316 C 536.511922 538.984316 525.238489 524.682065 517.998223 515.487761 M 448.997038 473.505303 C 448.997038 473.505303 483.546223 478.321367 499.484525 491.991205 C 508.376931 499.580155 510.757958 506.342104 517.998223 515.487761 M 517.998223 515.487761 C 512.555876 490.288556 512.410099 475.353893 504.003617 450.981689 C 497.103498 431.08502 488.648423 421.793422 481.505343 401.994047 C 474.410855 382.389261 470.086133 371.200425 467.510736 350.476755 C 463.671938 319.780427 473.390415 302.462055 474.50804 271.522491 C 475.285518 250.020468 476.743289 237.85869 474.50804 216.502607 C 471.835459 190.768285 474.556632 173.012089 459.492993 151.996536 C 448.413929 136.526754 421.007825 121.981267 421.007825 121.981267 "
            stroke="#000000" stroke-width="22" stroke-opacity="1" stroke-miterlimit="4" />
    </g>
    <path fill="#000000"
        d="M 366.417969 131.820312 L 365.121094 133.027344 C 365.121094 133.027344 365.121094 133.070312 365.320312 133.269531 C 365.519531 133.472656 366.125 133.953125 366.847656 134.273438 C 367.578125 134.597656 368.816406 134.515625 368.816406 134.515625 Z M 366.417969 131.820312 "
        fill-opacity="1" fill-rule="nonzero" />
    <path fill="#000000"
        d="M 366.445312 87.582031 L 359.933594 87.582031 L 359.933594 89.347656 C 359.933594 89.347656 361.179688 88.785156 363.191406 88.785156 C 365.199219 88.785156 366.566406 89.507812 366.566406 89.507812 Z M 366.445312 87.582031 "
        fill-opacity="1" fill-rule="nonzero" />
    <path fill="#000000"
        d="M 334.839844 79.042969 C 333.96875 78.917969 332.734375 78.375 332.734375 78.375 C 332.734375 78.375 333.425781 77.394531 334.199219 77.144531 C 334.734375 76.96875 335.121094 76.832031 335.699219 76.867188 C 336.324219 76.902344 336.753906 77.035156 337.230469 77.355469 C 337.6875 77.660156 337.886719 78.449219 337.886719 78.449219 C 337.886719 78.449219 337.191406 78.933594 336.640625 79.070312 C 335.972656 79.234375 335.535156 79.140625 334.839844 79.042969 Z M 334.839844 79.042969 "
        fill-opacity="1" fill-rule="nonzero" />
    <path fill="#000000"
        d="M 346.523438 85.167969 C 346.480469 84.289062 346.054688 83.007812 346.054688 83.007812 C 346.054688 83.007812 345.015625 83.605469 344.691406 84.351562 C 344.46875 84.867188 344.292969 85.234375 344.273438 85.816406 C 344.25 86.441406 344.339844 86.878906 344.613281 87.386719 C 344.878906 87.867188 345.640625 88.140625 345.640625 88.140625 C 345.640625 88.140625 346.191406 87.496094 346.378906 86.960938 C 346.605469 86.3125 346.554688 85.867188 346.523438 85.167969 Z M 346.523438 85.167969 "
        fill-opacity="1" fill-rule="nonzero" />
    <path fill="#000000"
        d="M 361.058594 94.378906 C 361.039062 95.261719 360.644531 96.550781 360.644531 96.550781 C 360.644531 96.550781 359.589844 95.980469 359.25 95.242188 C 359.011719 94.730469 358.828125 94.367188 358.792969 93.785156 C 358.753906 93.164062 358.835938 92.722656 359.097656 92.210938 C 359.347656 91.722656 360.105469 91.433594 360.105469 91.433594 C 360.105469 91.433594 360.671875 92.0625 360.871094 92.59375 C 361.113281 93.238281 361.074219 93.683594 361.058594 94.378906 Z M 361.058594 94.378906 "
        fill-opacity="1" fill-rule="nonzero" />
    <path fill="#000000"
        d="M 357.402344 70.445312 C 357.714844 69.621094 358.519531 68.539062 358.519531 68.539062 C 358.519531 68.539062 359.320312 69.425781 359.394531 70.238281 C 359.449219 70.796875 359.5 71.203125 359.335938 71.761719 C 359.164062 72.359375 358.941406 72.75 358.523438 73.144531 C 358.125 73.523438 357.3125 73.542969 357.3125 73.542969 C 357.3125 73.542969 356.992188 72.757812 356.980469 72.191406 C 356.964844 71.503906 357.152344 71.097656 357.402344 70.445312 Z M 357.402344 70.445312 "
        fill-opacity="1" fill-rule="nonzero" />
    <path fill="#000000"
        d="M 353.820312 59.523438 C 353.238281 58.859375 352.109375 58.121094 352.109375 58.121094 C 352.109375 58.121094 351.664062 59.234375 351.875 60.019531 C 352.019531 60.5625 352.113281 60.960938 352.460938 61.429688 C 352.832031 61.929688 353.175781 62.21875 353.703125 62.445312 C 354.210938 62.660156 354.976562 62.394531 354.976562 62.394531 C 354.976562 62.394531 355.007812 61.550781 354.820312 61.015625 C 354.59375 60.363281 354.277344 60.046875 353.820312 59.523438 Z M 353.820312 59.523438 "
        fill-opacity="1" fill-rule="nonzero" />
    <path fill="#000000"
        d="M 360.953125 45.453125 C 360.527344 44.683594 360.222656 43.371094 360.222656 43.371094 C 360.222656 43.371094 361.417969 43.332031 362.085938 43.800781 C 362.546875 44.125 362.890625 44.347656 363.210938 44.832031 C 363.558594 45.351562 363.710938 45.773438 363.742188 46.34375 C 363.769531 46.894531 363.261719 47.523438 363.261719 47.523438 C 363.261719 47.523438 362.453125 47.261719 362.015625 46.90625 C 361.480469 46.46875 361.292969 46.066406 360.953125 45.453125 Z M 360.953125 45.453125 "
        fill-opacity="1" fill-rule="nonzero" />
    <path fill="#000000"
        d="M 370.296875 57.484375 C 370.210938 56.609375 369.726562 55.351562 369.726562 55.351562 C 369.726562 55.351562 368.714844 55.996094 368.425781 56.753906 C 368.226562 57.285156 368.070312 57.660156 368.078125 58.242188 C 368.085938 58.867188 368.199219 59.300781 368.496094 59.789062 C 368.78125 60.261719 369.558594 60.496094 369.558594 60.496094 C 369.558594 60.496094 370.078125 59.824219 370.238281 59.28125 C 370.433594 58.621094 370.363281 58.179688 370.296875 57.484375 Z M 370.296875 57.484375 "
        fill-opacity="1" fill-rule="nonzero" />
    <path fill="#000000"
        d="M 333.261719 87.570312 C 332.40625 87.773438 331.054688 87.714844 331.054688 87.714844 C 331.054688 87.714844 331.339844 86.554688 331.96875 86.039062 C 332.40625 85.679688 332.710938 85.410156 333.265625 85.230469 C 333.859375 85.035156 334.308594 85 334.867188 85.125 C 335.40625 85.242188 335.878906 85.902344 335.878906 85.902344 C 335.878906 85.902344 335.410156 86.609375 334.949219 86.933594 C 334.386719 87.332031 333.945312 87.40625 333.261719 87.570312 Z M 333.261719 87.570312 "
        fill-opacity="1" fill-rule="nonzero" />
    <path fill="#000000"
        d="M 336.882812 98.96875 C 336.003906 98.894531 334.738281 98.421875 334.738281 98.421875 C 334.738281 98.421875 335.375 97.40625 336.132812 97.109375 C 336.660156 96.90625 337.035156 96.746094 337.617188 96.75 C 338.242188 96.75 338.679688 96.859375 339.171875 97.152344 C 339.644531 97.433594 339.886719 98.207031 339.886719 98.207031 C 339.886719 98.207031 339.222656 98.730469 338.679688 98.894531 C 338.019531 99.097656 337.578125 99.03125 336.882812 98.96875 Z M 336.882812 98.96875 "
        fill-opacity="1" fill-rule="nonzero" />
    <path fill="#000000"
        d="M 336.828125 108.117188 C 336.113281 108.628906 334.847656 109.09375 334.847656 109.09375 C 334.847656 109.09375 334.664062 107.910156 335.046875 107.195312 C 335.3125 106.695312 335.492188 106.332031 335.933594 105.953125 C 336.410156 105.546875 336.808594 105.34375 337.375 105.242188 C 337.917969 105.148438 338.605469 105.578125 338.605469 105.578125 C 338.605469 105.578125 338.445312 106.40625 338.144531 106.886719 C 337.773438 107.46875 337.398438 107.707031 336.828125 108.117188 Z M 336.828125 108.117188 "
        fill-opacity="1" fill-rule="nonzero" />
    <path fill="#000000"
        d="M 349.625 106.777344 C 349.925781 107.605469 350.03125 108.949219 350.03125 108.949219 C 350.03125 108.949219 348.84375 108.804688 348.253906 108.242188 C 347.847656 107.855469 347.542969 107.582031 347.296875 107.054688 C 347.035156 106.488281 346.945312 106.046875 347.003906 105.476562 C 347.058594 104.929688 347.65625 104.382812 347.65625 104.382812 C 347.65625 104.382812 348.414062 104.761719 348.792969 105.183594 C 349.253906 105.695312 349.382812 106.121094 349.625 106.777344 Z M 349.625 106.777344 "
        fill-opacity="1" fill-rule="nonzero" />
    <path fill="#000000"
        d="M 374.402344 92.878906 C 374.402344 92.878906 372.609375 91.273438 371.347656 90.390625 C 369.863281 89.351562 367.328125 88.0625 367.328125 88.0625 L 372.394531 95.207031 L 375.691406 95.207031 Z M 374.402344 92.878906 "
        fill-opacity="1" fill-rule="nonzero" />
    <path fill="#000000"
        d="M 351.492188 77.703125 L 349.324219 77.703125 L 346.589844 79.671875 C 346.589844 79.671875 348.492188 78.667969 349.84375 78.628906 C 350.976562 78.59375 353.222656 79.871094 352.941406 79.710938 C 352.660156 79.550781 351.492188 77.703125 351.492188 77.703125 Z M 351.492188 77.703125 "
        fill-opacity="1" fill-rule="nonzero" />
    <path fill="#000000"
        d="M 354.710938 78.023438 L 355.230469 75.738281 L 354.226562 73.449219 C 354.226562 73.449219 354.46875 74.742188 354.429688 75.574219 C 354.402344 76.128906 354.476562 76.484375 354.226562 76.980469 C 354.109375 77.210938 353.84375 77.523438 353.84375 77.523438 C 353.84375 77.523438 353.328125 77.203125 352.980469 77.023438 C 352.257812 76.640625 351.089844 76.21875 351.089844 76.21875 L 352.617188 78.828125 L 354.710938 78.828125 Z M 354.710938 78.023438 "
        fill-opacity="1" fill-rule="nonzero" />
    <g clip-path="url(#8b93b1a72d)">
        <path fill="#000000"
            d="M 328.261719 80.996094 C 328.261719 80.996094 329.28125 82.234375 330.375 82.527344 C 331.46875 82.820312 332.050781 82.714844 332.210938 82.105469 C 332.375 81.496094 331.925781 81.117188 330.832031 80.824219 C 329.738281 80.53125 328.261719 80.996094 328.261719 80.996094 Z M 328.261719 80.996094 "
            fill-opacity="1" fill-rule="nonzero" />
    </g>
    <path fill="#000000"
        d="M 361.859375 68.613281 C 361.859375 68.613281 363.03125 69.707031 364.15625 69.855469 C 365.28125 70 365.839844 69.820312 365.921875 69.195312 C 366.003906 68.570312 365.507812 68.25 364.382812 68.105469 C 363.261719 67.957031 361.859375 68.613281 361.859375 68.613281 Z M 361.859375 68.613281 "
        fill-opacity="1" fill-rule="nonzero" />
    <path fill="#000000"
        d="M 344.742188 61.699219 C 344.742188 61.699219 345.328125 63.191406 346.277344 63.808594 C 347.230469 64.421875 347.8125 64.5 348.15625 63.972656 C 348.5 63.445312 348.191406 62.941406 347.238281 62.328125 C 346.289062 61.710938 344.742188 61.699219 344.742188 61.699219 Z M 344.742188 61.699219 "
        fill-opacity="1" fill-rule="nonzero" />
    <path fill="#000000"
        d="M 354.597656 53.019531 C 354.597656 53.019531 354.914062 54.589844 355.742188 55.363281 C 356.570312 56.132812 357.132812 56.3125 357.5625 55.851562 C 357.992188 55.390625 357.777344 54.84375 356.949219 54.070312 C 356.121094 53.300781 354.597656 53.019531 354.597656 53.019531 Z M 354.597656 53.019531 "
        fill-opacity="1" fill-rule="nonzero" />
    <path fill="#000000"
        d="M 360.164062 39.554688 C 360.164062 39.554688 360.804688 41.023438 361.777344 41.601562 C 362.75 42.183594 363.339844 42.242188 363.660156 41.699219 C 363.984375 41.15625 363.65625 40.667969 362.683594 40.089844 C 361.710938 39.507812 360.164062 39.554688 360.164062 39.554688 Z M 360.164062 39.554688 "
        fill-opacity="1" fill-rule="nonzero" />
    <path fill="#000000"
        d="M 329.554688 91.199219 C 329.554688 91.199219 330.722656 92.296875 331.847656 92.449219 C 332.96875 92.597656 333.53125 92.417969 333.617188 91.792969 C 333.699219 91.167969 333.203125 90.847656 332.082031 90.699219 C 330.957031 90.550781 329.554688 91.199219 329.554688 91.199219 Z M 329.554688 91.199219 "
        fill-opacity="1" fill-rule="nonzero" />
    <path fill="#000000"
        d="M 331.148438 103.503906 C 331.148438 103.503906 332.511719 104.351562 333.640625 104.277344 C 334.773438 104.203125 335.289062 103.917969 335.246094 103.289062 C 335.207031 102.660156 334.65625 102.441406 333.527344 102.515625 C 332.394531 102.589844 331.148438 103.503906 331.148438 103.503906 Z M 331.148438 103.503906 "
        fill-opacity="1" fill-rule="nonzero" />
    <path fill="#000000"
        d="M 349.394531 102.589844 C 349.394531 102.589844 350.925781 103.066406 352 102.707031 C 353.078125 102.351562 353.503906 101.945312 353.304688 101.347656 C 353.105469 100.746094 352.519531 100.675781 351.445312 101.035156 C 350.371094 101.390625 349.394531 102.589844 349.394531 102.589844 Z M 349.394531 102.589844 "
        fill-opacity="1" fill-rule="nonzero" />
    <path fill="#000000"
        d="M 346.910156 113.796875 C 346.910156 113.796875 347.066406 112.203125 346.5 111.222656 C 345.933594 110.242188 345.449219 109.90625 344.902344 110.222656 C 344.355469 110.539062 344.402344 111.125 344.96875 112.105469 C 345.535156 113.085938 346.910156 113.796875 346.910156 113.796875 Z M 346.910156 113.796875 "
        fill-opacity="1" fill-rule="nonzero" />
    <path fill="#000000"
        d="M 374.96875 78.667969 L 372.59375 77.503906 C 372.59375 77.503906 373.273438 78.851562 373.519531 79.792969 C 373.78125 80.78125 373.960938 82.640625 373.960938 82.640625 L 374.96875 82.523438 Z M 374.96875 78.667969 "
        fill-opacity="1" fill-rule="nonzero" />
    <path fill="#000000"
        d="M 356.476562 77.101562 L 355.835938 79.46875 L 355.59375 79.953125 L 358.445312 82.359375 C 358.445312 82.359375 357.082031 80.59375 356.71875 79.75 C 356.402344 79.015625 356.476562 77.101562 356.476562 77.101562 Z M 356.476562 77.101562 "
        fill-opacity="1" fill-rule="nonzero" />
    <path fill="#000000"
        d="M 374.363281 91.515625 C 374.363281 91.515625 371.015625 89.082031 369.460938 88.261719 C 367.421875 87.1875 363.390625 85.8125 363.390625 85.8125 L 367.8125 89.425781 L 374.644531 93.441406 Z M 374.363281 91.515625 "
        fill-opacity="1" fill-rule="nonzero" />
    <g fill="#141414" fill-opacity="1">
        <g transform="translate(29.275644, 192.905423)">
            <g>
                <path
                    d="M 6.4375 -29.9375 C 6.4375 -31.28125 6.273438 -32.296875 5.953125 -32.984375 C 5.640625 -33.671875 5.28125 -34.128906 4.875 -34.359375 C 4.476562 -34.597656 4.28125 -34.6875 4.28125 -34.625 L 12.28125 -34.625 C 12.28125 -34.6875 12.078125 -34.597656 11.671875 -34.359375 C 11.273438 -34.128906 10.90625 -33.671875 10.5625 -32.984375 C 10.226562 -32.296875 10.0625 -31.28125 10.0625 -29.9375 L 10.0625 -2.015625 L 18.3125 -2.015625 C 19.820312 -2.015625 21.125 -2.320312 22.21875 -2.9375 C 23.3125 -3.5625 24.09375 -4.359375 24.5625 -5.328125 L 23.65625 0 L 4.28125 0 C 4.28125 0.101562 4.476562 0.03125 4.875 -0.21875 C 5.28125 -0.476562 5.640625 -0.984375 5.953125 -1.734375 C 6.273438 -2.492188 6.4375 -3.59375 6.4375 -5.03125 Z M 6.4375 -29.9375 " />
            </g>
        </g>
    </g>
    <g fill="#141414" fill-opacity="1">
        <g transform="translate(54.742537, 192.905423)">
            <g>
                <path
                    d="M 10.625 -13.4375 L 7.390625 -5.4375 C 6.890625 -4.195312 6.640625 -3.171875 6.640625 -2.359375 C 6.640625 -1.253906 7.144531 -0.46875 8.15625 0 L 0.953125 0 C 1.285156 0 1.769531 -0.332031 2.40625 -1 C 3.050781 -1.675781 3.789062 -3.003906 4.625 -4.984375 L 17.765625 -36.234375 L 30.796875 -4.828125 C 31.535156 -3.015625 32.25 -1.769531 32.9375 -1.09375 C 33.625 -0.425781 34.171875 -0.0625 34.578125 0 L 26.21875 0 C 27.0625 -0.40625 27.484375 -1.023438 27.484375 -1.859375 C 27.484375 -2.566406 27.210938 -3.570312 26.671875 -4.875 L 23.15625 -13.4375 Z M 22.34375 -15.5 L 16.859375 -28.9375 L 11.46875 -15.5 Z M 22.34375 -15.5 " />
            </g>
        </g>
    </g>
    <g fill="#141414" fill-opacity="1">
        <g transform="translate(89.360411, 192.905423)">
            <g />
        </g>
    </g>
    <g fill="#141414" fill-opacity="1">
        <g transform="translate(81.872328, 193.814298)">
            <g>
                <path
                    d="M 31.503906 0 L 42.355469 -25.804688 C 43.957031 -29.453125 43.105469 -33.40625 39.257812 -34.90625 C 35.207031 -36.507812 31.054688 -34.15625 29.105469 -29.253906 L 26.054688 -22.203125 L 20.605469 -35.355469 L 16.402344 -35.355469 L 23.953125 -17.203125 L 18.851562 -5 L 6.101562 -35.355469 L 1.75 -35.355469 L 16.703125 0 L 17.152344 0 L 24.105469 -16.753906 L 31.15625 0 Z M 26.355469 -21.652344 L 29.453125 -29.253906 C 31.15625 -33.207031 34.804688 -36.207031 39.15625 -34.605469 C 42.855469 -33.15625 43.507812 -29.253906 42.105469 -25.804688 L 33.304688 -5 Z M 26.355469 -21.652344 " />
            </g>
        </g>
    </g>
    <g fill="#141414" fill-opacity="1">
        <g transform="translate(124.397249, 193.470601)">
            <g>
                <path
                    d="M 13.4375 0.609375 C 11.695312 0.609375 10.019531 0.363281 8.40625 -0.125 C 6.789062 -0.613281 5.347656 -1.296875 4.078125 -2.171875 L 4.078125 -8.25 C 4.953125 -6.007812 6.285156 -4.304688 8.078125 -3.140625 C 9.878906 -1.984375 11.75 -1.40625 13.6875 -1.40625 C 15.632812 -1.40625 17.265625 -2.050781 18.578125 -3.34375 C 19.890625 -4.632812 20.546875 -6.238281 20.546875 -8.15625 C 20.546875 -9.425781 20.285156 -10.515625 19.765625 -11.421875 C 19.242188 -12.328125 18.410156 -13.175781 17.265625 -13.96875 C 16.128906 -14.757812 14.519531 -15.640625 12.4375 -16.609375 C 9.519531 -17.953125 7.394531 -19.351562 6.0625 -20.8125 C 4.738281 -22.269531 4.078125 -24.039062 4.078125 -26.125 C 4.078125 -27.90625 4.503906 -29.488281 5.359375 -30.875 C 6.210938 -32.269531 7.367188 -33.34375 8.828125 -34.09375 C 10.296875 -34.851562 11.898438 -35.234375 13.640625 -35.234375 C 15.148438 -35.234375 16.625 -35.023438 18.0625 -34.609375 C 19.507812 -34.191406 20.851562 -33.597656 22.09375 -32.828125 L 22.09375 -27.390625 C 21.289062 -29.234375 20.078125 -30.664062 18.453125 -31.6875 C 16.828125 -32.71875 15.171875 -33.234375 13.484375 -33.234375 C 11.578125 -33.234375 10.035156 -32.609375 8.859375 -31.359375 C 7.679688 -30.117188 7.09375 -28.644531 7.09375 -26.9375 C 7.09375 -25.695312 7.445312 -24.628906 8.15625 -23.734375 C 8.863281 -22.847656 9.726562 -22.101562 10.75 -21.5 C 11.769531 -20.894531 13.203125 -20.15625 15.046875 -19.28125 C 16.929688 -18.375 18.476562 -17.535156 19.6875 -16.765625 C 20.894531 -15.992188 21.898438 -14.984375 22.703125 -13.734375 C 23.503906 -12.492188 23.90625 -10.988281 23.90625 -9.21875 C 23.90625 -7.195312 23.425781 -5.445312 22.46875 -3.96875 C 21.519531 -2.5 20.25 -1.367188 18.65625 -0.578125 C 17.0625 0.210938 15.320312 0.609375 13.4375 0.609375 Z M 13.4375 0.609375 " />
            </g>
        </g>
    </g>
    <g fill="#141414" fill-opacity="1">
        <g transform="translate(150.969697, 193.470601)">
            <g>
                <path
                    d="M 3.21875 -16.921875 C 3.21875 -20.472656 3.976562 -23.640625 5.5 -26.421875 C 7.03125 -29.210938 9.179688 -31.378906 11.953125 -32.921875 C 14.722656 -34.460938 17.921875 -35.234375 21.546875 -35.234375 C 24.566406 -35.234375 27.394531 -34.570312 30.03125 -33.25 C 32.664062 -31.925781 34.78125 -29.9375 36.375 -27.28125 C 37.96875 -24.632812 38.765625 -21.445312 38.765625 -17.71875 C 38.765625 -14.164062 38 -10.992188 36.46875 -8.203125 C 34.945312 -5.421875 32.800781 -3.253906 30.03125 -1.703125 C 27.257812 -0.160156 24.0625 0.609375 20.4375 0.609375 C 17.414062 0.609375 14.585938 -0.0507812 11.953125 -1.375 C 9.316406 -2.707031 7.203125 -4.695312 5.609375 -7.34375 C 4.015625 -10 3.21875 -13.191406 3.21875 -16.921875 Z M 34.734375 -16.96875 C 34.734375 -20.019531 34.101562 -22.78125 32.84375 -25.25 C 31.59375 -27.71875 29.863281 -29.644531 27.65625 -31.03125 C 25.457031 -32.425781 22.984375 -33.125 20.234375 -33.125 C 17.722656 -33.125 15.484375 -32.484375 13.515625 -31.203125 C 11.554688 -29.929688 10.019531 -28.128906 8.90625 -25.796875 C 7.800781 -23.460938 7.25 -20.753906 7.25 -17.671875 C 7.25 -14.617188 7.878906 -11.859375 9.140625 -9.390625 C 10.398438 -6.921875 12.128906 -4.988281 14.328125 -3.59375 C 16.523438 -2.207031 19 -1.515625 21.75 -1.515625 C 24.269531 -1.515625 26.507812 -2.148438 28.46875 -3.421875 C 30.4375 -4.703125 31.972656 -6.503906 33.078125 -8.828125 C 34.179688 -11.160156 34.734375 -13.875 34.734375 -16.96875 Z M 34.734375 -16.96875 " />
            </g>
        </g>
    </g>
    <g fill="#141414" fill-opacity="1">
        <g transform="translate(192.136862, 193.470601)">
            <g>
                <path
                    d="M 36.703125 -34.640625 C 36.234375 -34.535156 35.769531 -34.15625 35.3125 -33.5 C 34.863281 -32.84375 34.640625 -31.695312 34.640625 -30.0625 L 34.640625 1.40625 L 8.859375 -28.640625 L 8.859375 -4.53125 C 8.859375 -2.914062 9.144531 -1.78125 9.71875 -1.125 C 10.289062 -0.476562 10.84375 -0.101562 11.375 0 L 4.28125 0 C 4.75 -0.101562 5.222656 -0.476562 5.703125 -1.125 C 6.191406 -1.78125 6.4375 -2.929688 6.4375 -4.578125 L 6.4375 -29.75 C 6.4375 -30.894531 6.050781 -31.9375 5.28125 -32.875 C 4.507812 -33.8125 3.535156 -34.398438 2.359375 -34.640625 L 8.609375 -34.640625 L 32.21875 -7.09375 L 32.21875 -30.0625 C 32.21875 -32.644531 31.347656 -34.171875 29.609375 -34.640625 Z M 36.703125 -34.640625 " />
            </g>
        </g>
    </g>
    <g fill="#141414" fill-opacity="1">
        <g transform="translate(232.398149, 193.470601)">
            <g />
        </g>
    </g>
    <g fill="#141414" fill-opacity="1">
        <g transform="translate(245.281759, 193.470601)">
            <g>
                <path
                    d="M 42.1875 -29.609375 C 42.59375 -30.816406 42.796875 -31.753906 42.796875 -32.421875 C 42.796875 -33.796875 42.191406 -34.535156 40.984375 -34.640625 L 48.78125 -34.640625 C 48.28125 -34.535156 47.632812 -34.144531 46.84375 -33.46875 C 46.050781 -32.800781 45.320312 -31.492188 44.65625 -29.546875 L 33.78125 1.203125 L 24.0625 -26.6875 L 14.046875 1.203125 L 4.125 -29.703125 C 3.25 -32.523438 1.972656 -34.171875 0.296875 -34.640625 L 8.65625 -34.640625 C 7.71875 -34.472656 7.25 -33.914062 7.25 -32.96875 C 7.25 -32.5 7.453125 -31.660156 7.859375 -30.453125 L 8.40625 -28.703125 L 14.75 -7.703125 L 24.96875 -35.59375 L 34.6875 -7.90625 Z M 42.1875 -29.609375 " />
            </g>
        </g>
    </g>
    <g fill="#141414" fill-opacity="1">
        <g transform="translate(293.595295, 193.470601)">
            <g>
                <path
                    d="M 4.28125 0 C 4.28125 0.101562 4.476562 0.03125 4.875 -0.21875 C 5.28125 -0.476562 5.640625 -0.984375 5.953125 -1.734375 C 6.273438 -2.492188 6.4375 -3.59375 6.4375 -5.03125 L 6.4375 -29.75 C 6.4375 -31.125 6.273438 -32.171875 5.953125 -32.890625 C 5.640625 -33.617188 5.28125 -34.113281 4.875 -34.375 C 4.476562 -34.644531 4.28125 -34.734375 4.28125 -34.640625 L 22.5 -34.640625 L 22.5 -29.609375 C 21.894531 -31.617188 20.082031 -32.625 17.0625 -32.625 L 10.0625 -32.625 L 10.0625 -18.328125 L 18.734375 -18.328125 C 19.398438 -18.328125 19.96875 -18.4375 20.4375 -18.65625 C 20.90625 -18.875 21.253906 -19.097656 21.484375 -19.328125 C 21.722656 -19.566406 21.863281 -19.71875 21.90625 -19.78125 L 21.90625 -14.90625 C 21.863281 -14.96875 21.722656 -15.113281 21.484375 -15.34375 C 21.253906 -15.582031 20.910156 -15.800781 20.453125 -16 C 20.003906 -16.207031 19.445312 -16.3125 18.78125 -16.3125 L 10.0625 -16.3125 L 10.0625 -2.015625 L 17.921875 -2.015625 C 19.429688 -2.015625 20.726562 -2.320312 21.8125 -2.9375 C 22.90625 -3.5625 23.691406 -4.363281 24.171875 -5.34375 L 23.265625 0 Z M 4.28125 0 " />
            </g>
        </g>
    </g>
    <g fill="#141414" fill-opacity="1">
        <g transform="translate(320.167743, 193.470601)">
            <g>
                <path
                    d="M 20.234375 -0.859375 C 19.359375 -0.554688 18.359375 -0.335938 17.234375 -0.203125 C 16.117188 -0.0664062 14.570312 0 12.59375 0 L 4.28125 0 C 4.71875 -0.101562 5.1875 -0.476562 5.6875 -1.125 C 6.1875 -1.78125 6.4375 -3.050781 6.4375 -4.9375 L 6.4375 -29.859375 C 6.4375 -31.597656 6.203125 -32.796875 5.734375 -33.453125 C 5.265625 -34.109375 4.796875 -34.503906 4.328125 -34.640625 L 12.59375 -34.640625 C 14.738281 -34.640625 16.375 -34.546875 17.5 -34.359375 C 18.625 -34.171875 19.601562 -33.894531 20.4375 -33.53125 C 21.914062 -32.820312 23.054688 -31.828125 23.859375 -30.546875 C 24.671875 -29.273438 25.078125 -27.90625 25.078125 -26.4375 C 25.078125 -24.1875 24.394531 -22.242188 23.03125 -20.609375 C 21.675781 -18.984375 19.890625 -17.9375 17.671875 -17.46875 C 19.179688 -17.300781 20.613281 -16.863281 21.96875 -16.15625 C 23.332031 -15.457031 24.441406 -14.503906 25.296875 -13.296875 C 26.148438 -12.085938 26.578125 -10.707031 26.578125 -9.15625 C 26.578125 -7.007812 26.003906 -5.253906 24.859375 -3.890625 C 23.722656 -2.535156 22.179688 -1.523438 20.234375 -0.859375 Z M 18.828125 -31.109375 C 18.160156 -31.617188 17.4375 -32 16.65625 -32.25 C 15.882812 -32.5 14.847656 -32.625 13.546875 -32.625 L 10.0625 -32.625 L 10.0625 -18.328125 L 14.140625 -18.328125 C 15.347656 -18.328125 16.351562 -18.507812 17.15625 -18.875 C 17.96875 -19.25 18.675781 -19.738281 19.28125 -20.34375 C 19.914062 -20.976562 20.414062 -21.75 20.78125 -22.65625 C 21.15625 -23.5625 21.34375 -24.484375 21.34375 -25.421875 C 21.34375 -26.566406 21.132812 -27.640625 20.71875 -28.640625 C 20.300781 -29.648438 19.671875 -30.472656 18.828125 -31.109375 Z M 19.890625 -14.84375 C 19.242188 -15.351562 18.453125 -15.722656 17.515625 -15.953125 C 16.578125 -16.191406 15.300781 -16.3125 13.6875 -16.3125 L 10.0625 -16.3125 L 10.0625 -2.015625 L 14.84375 -2.015625 C 17.257812 -2.015625 19.144531 -2.582031 20.5 -3.71875 C 21.863281 -4.863281 22.546875 -6.675781 22.546875 -9.15625 C 22.546875 -11.476562 21.660156 -13.375 19.890625 -14.84375 Z M 19.890625 -14.84375 " />
            </g>
        </g>
    </g>
    <g fill="#141414" fill-opacity="1">
        <g transform="translate(349.961094, 193.470601)">
            <g />
        </g>
    </g>
    <g fill="#141414" fill-opacity="1">
        <g transform="translate(362.844691, 193.470601)">
            <g>
                <path
                    d="M 26.828125 -2.8125 C 23.671875 -0.9375 19.460938 0 14.203125 0 L 4.28125 0 C 4.28125 0.101562 4.476562 0.015625 4.875 -0.265625 C 5.28125 -0.554688 5.640625 -1.085938 5.953125 -1.859375 C 6.273438 -2.628906 6.4375 -3.753906 6.4375 -5.234375 L 6.4375 -30 C 6.4375 -31.3125 6.273438 -32.3125 5.953125 -33 C 5.640625 -33.6875 5.28125 -34.144531 4.875 -34.375 C 4.476562 -34.613281 4.28125 -34.703125 4.28125 -34.640625 L 14.140625 -34.640625 C 19.273438 -34.640625 23.335938 -33.800781 26.328125 -32.125 C 28.984375 -30.644531 31.03125 -28.644531 32.46875 -26.125 C 33.914062 -23.613281 34.640625 -20.78125 34.640625 -17.625 C 34.640625 -14.195312 33.957031 -11.234375 32.59375 -8.734375 C 31.238281 -6.234375 29.316406 -4.257812 26.828125 -2.8125 Z M 24.875 -29.859375 C 23.394531 -30.828125 21.816406 -31.53125 20.140625 -31.96875 C 18.460938 -32.40625 16.460938 -32.625 14.140625 -32.625 L 10.0625 -32.625 L 10.0625 -2.015625 L 14.140625 -2.015625 C 16.898438 -2.015625 19.160156 -2.25 20.921875 -2.71875 C 22.679688 -3.1875 24.195312 -3.910156 25.46875 -4.890625 C 27.113281 -6.160156 28.378906 -7.828125 29.265625 -9.890625 C 30.160156 -11.953125 30.609375 -14.359375 30.609375 -17.109375 C 30.609375 -20.035156 30.09375 -22.597656 29.0625 -24.796875 C 28.039062 -26.992188 26.644531 -28.679688 24.875 -29.859375 Z M 24.875 -29.859375 " />
            </g>
        </g>
    </g>
    <g fill="#141414" fill-opacity="1">
        <g transform="translate(400.287683, 193.470601)">
            <g>
                <path
                    d="M 4.28125 0 C 4.28125 0.101562 4.476562 0.03125 4.875 -0.21875 C 5.28125 -0.476562 5.640625 -0.984375 5.953125 -1.734375 C 6.273438 -2.492188 6.4375 -3.59375 6.4375 -5.03125 L 6.4375 -29.75 C 6.4375 -31.125 6.273438 -32.171875 5.953125 -32.890625 C 5.640625 -33.617188 5.28125 -34.113281 4.875 -34.375 C 4.476562 -34.644531 4.28125 -34.734375 4.28125 -34.640625 L 22.5 -34.640625 L 22.5 -29.609375 C 21.894531 -31.617188 20.082031 -32.625 17.0625 -32.625 L 10.0625 -32.625 L 10.0625 -18.328125 L 18.734375 -18.328125 C 19.398438 -18.328125 19.96875 -18.4375 20.4375 -18.65625 C 20.90625 -18.875 21.253906 -19.097656 21.484375 -19.328125 C 21.722656 -19.566406 21.863281 -19.71875 21.90625 -19.78125 L 21.90625 -14.90625 C 21.863281 -14.96875 21.722656 -15.113281 21.484375 -15.34375 C 21.253906 -15.582031 20.910156 -15.800781 20.453125 -16 C 20.003906 -16.207031 19.445312 -16.3125 18.78125 -16.3125 L 10.0625 -16.3125 L 10.0625 -2.015625 L 17.921875 -2.015625 C 19.429688 -2.015625 20.726562 -2.320312 21.8125 -2.9375 C 22.90625 -3.5625 23.691406 -4.363281 24.171875 -5.34375 L 23.265625 0 Z M 4.28125 0 " />
            </g>
        </g>
    </g>
    <g fill="#141414" fill-opacity="1">
        <g transform="translate(426.860145, 193.470601)">
            <g>
                <path
                    d="M 26.890625 -31.96875 C 26.890625 -32.632812 26.703125 -33.210938 26.328125 -33.703125 C 25.960938 -34.191406 25.394531 -34.503906 24.625 -34.640625 L 33.078125 -34.640625 C 32.640625 -34.566406 32.050781 -34.175781 31.3125 -33.46875 C 30.570312 -32.769531 29.800781 -31.460938 29 -29.546875 L 16.265625 1.203125 L 3.328125 -29.703125 C 2.585938 -31.484375 1.851562 -32.71875 1.125 -33.40625 C 0.40625 -34.09375 -0.1875 -34.503906 -0.65625 -34.640625 L 7.75 -34.640625 C 6.84375 -34.398438 6.390625 -33.8125 6.390625 -32.875 C 6.390625 -32.375 6.503906 -31.835938 6.734375 -31.265625 C 6.972656 -30.691406 7.113281 -30.351562 7.15625 -30.25 L 16.921875 -6.34375 L 26.375 -29.609375 C 26.71875 -30.378906 26.890625 -31.164062 26.890625 -31.96875 Z M 26.890625 -31.96875 " />
            </g>
        </g>
    </g>
    <g fill="#141414" fill-opacity="1">
        <g transform="translate(458.46525, 193.470601)">
            <g>
                <path
                    d="M 4.28125 0 C 4.28125 0.101562 4.476562 0.03125 4.875 -0.21875 C 5.28125 -0.476562 5.640625 -0.984375 5.953125 -1.734375 C 6.273438 -2.492188 6.4375 -3.59375 6.4375 -5.03125 L 6.4375 -29.75 C 6.4375 -31.125 6.273438 -32.171875 5.953125 -32.890625 C 5.640625 -33.617188 5.28125 -34.113281 4.875 -34.375 C 4.476562 -34.644531 4.28125 -34.734375 4.28125 -34.640625 L 22.5 -34.640625 L 22.5 -29.609375 C 21.894531 -31.617188 20.082031 -32.625 17.0625 -32.625 L 10.0625 -32.625 L 10.0625 -18.328125 L 18.734375 -18.328125 C 19.398438 -18.328125 19.96875 -18.4375 20.4375 -18.65625 C 20.90625 -18.875 21.253906 -19.097656 21.484375 -19.328125 C 21.722656 -19.566406 21.863281 -19.71875 21.90625 -19.78125 L 21.90625 -14.90625 C 21.863281 -14.96875 21.722656 -15.113281 21.484375 -15.34375 C 21.253906 -15.582031 20.910156 -15.800781 20.453125 -16 C 20.003906 -16.207031 19.445312 -16.3125 18.78125 -16.3125 L 10.0625 -16.3125 L 10.0625 -2.015625 L 17.921875 -2.015625 C 19.429688 -2.015625 20.726562 -2.320312 21.8125 -2.9375 C 22.90625 -3.5625 23.691406 -4.363281 24.171875 -5.34375 L 23.265625 0 Z M 4.28125 0 " />
            </g>
        </g>
    </g>
    <g fill="#141414" fill-opacity="1">
        <g transform="translate(485.037686, 193.470601)">
            <g>
                <path
                    d="M 6.4375 -29.953125 C 6.4375 -31.296875 6.273438 -32.3125 5.953125 -33 C 5.640625 -33.6875 5.28125 -34.144531 4.875 -34.375 C 4.476562 -34.613281 4.28125 -34.703125 4.28125 -34.640625 L 12.28125 -34.640625 C 12.28125 -34.703125 12.078125 -34.613281 11.671875 -34.375 C 11.273438 -34.144531 10.90625 -33.6875 10.5625 -33 C 10.226562 -32.3125 10.0625 -31.296875 10.0625 -29.953125 L 10.0625 -2.015625 L 18.328125 -2.015625 C 19.835938 -2.015625 21.132812 -2.320312 22.21875 -2.9375 C 23.3125 -3.5625 24.09375 -4.363281 24.5625 -5.34375 L 23.65625 0 L 4.28125 0 C 4.28125 0.101562 4.476562 0.03125 4.875 -0.21875 C 5.28125 -0.476562 5.640625 -0.984375 5.953125 -1.734375 C 6.273438 -2.492188 6.4375 -3.59375 6.4375 -5.03125 Z M 6.4375 -29.953125 " />
            </g>
        </g>
    </g>
    <g fill="#141414" fill-opacity="1">
        <g transform="translate(510.502946, 193.470601)">
            <g>
                <path
                    d="M 3.21875 -16.921875 C 3.21875 -20.472656 3.976562 -23.640625 5.5 -26.421875 C 7.03125 -29.210938 9.179688 -31.378906 11.953125 -32.921875 C 14.722656 -34.460938 17.921875 -35.234375 21.546875 -35.234375 C 24.566406 -35.234375 27.394531 -34.570312 30.03125 -33.25 C 32.664062 -31.925781 34.78125 -29.9375 36.375 -27.28125 C 37.96875 -24.632812 38.765625 -21.445312 38.765625 -17.71875 C 38.765625 -14.164062 38 -10.992188 36.46875 -8.203125 C 34.945312 -5.421875 32.800781 -3.253906 30.03125 -1.703125 C 27.257812 -0.160156 24.0625 0.609375 20.4375 0.609375 C 17.414062 0.609375 14.585938 -0.0507812 11.953125 -1.375 C 9.316406 -2.707031 7.203125 -4.695312 5.609375 -7.34375 C 4.015625 -10 3.21875 -13.191406 3.21875 -16.921875 Z M 34.734375 -16.96875 C 34.734375 -20.019531 34.101562 -22.78125 32.84375 -25.25 C 31.59375 -27.71875 29.863281 -29.644531 27.65625 -31.03125 C 25.457031 -32.425781 22.984375 -33.125 20.234375 -33.125 C 17.722656 -33.125 15.484375 -32.484375 13.515625 -31.203125 C 11.554688 -29.929688 10.019531 -28.128906 8.90625 -25.796875 C 7.800781 -23.460938 7.25 -20.753906 7.25 -17.671875 C 7.25 -14.617188 7.878906 -11.859375 9.140625 -9.390625 C 10.398438 -6.921875 12.128906 -4.988281 14.328125 -3.59375 C 16.523438 -2.207031 19 -1.515625 21.75 -1.515625 C 24.269531 -1.515625 26.507812 -2.148438 28.46875 -3.421875 C 30.4375 -4.703125 31.972656 -6.503906 33.078125 -8.828125 C 34.179688 -11.160156 34.734375 -13.875 34.734375 -16.96875 Z M 34.734375 -16.96875 " />
            </g>
        </g>
    </g>
    <g fill="#141414" fill-opacity="1">
        <g transform="translate(551.670111, 193.470601)">
            <g>
                <path
                    d="M 25.984375 -25.265625 C 25.984375 -23.328125 25.519531 -21.59375 24.59375 -20.0625 C 23.664062 -18.53125 22.347656 -17.328125 20.640625 -16.453125 C 18.929688 -15.585938 16.914062 -15.15625 14.59375 -15.15625 C 13.1875 -15.15625 11.675781 -15.304688 10.0625 -15.609375 L 10.0625 -4.625 C 10.0625 -3.320312 10.226562 -2.328125 10.5625 -1.640625 C 10.90625 -0.953125 11.273438 -0.488281 11.671875 -0.25 C 12.078125 -0.0195312 12.28125 0.0625 12.28125 0 L 4.28125 0 C 4.28125 0.0625 4.476562 -0.0195312 4.875 -0.25 C 5.28125 -0.488281 5.640625 -0.941406 5.953125 -1.609375 C 6.273438 -2.285156 6.4375 -3.289062 6.4375 -4.625 L 6.4375 -29.859375 C 6.4375 -31.203125 6.273438 -32.222656 5.953125 -32.921875 C 5.640625 -33.628906 5.28125 -34.109375 4.875 -34.359375 C 4.476562 -34.609375 4.28125 -34.703125 4.28125 -34.640625 L 14.140625 -34.640625 C 15.859375 -34.640625 17.269531 -34.53125 18.375 -34.3125 C 19.476562 -34.09375 20.453125 -33.765625 21.296875 -33.328125 C 22.804688 -32.554688 23.960938 -31.441406 24.765625 -29.984375 C 25.578125 -28.523438 25.984375 -26.953125 25.984375 -25.265625 Z M 22.09375 -24.625 C 22.09375 -27 21.351562 -28.925781 19.875 -30.40625 C 18.40625 -31.882812 16.445312 -32.625 14 -32.625 L 10.0625 -32.625 L 10.0625 -17.5625 C 11.507812 -17.300781 13.019531 -17.171875 14.59375 -17.171875 C 16.945312 -17.171875 18.785156 -17.847656 20.109375 -19.203125 C 21.429688 -20.566406 22.09375 -22.375 22.09375 -24.625 Z M 22.09375 -24.625 " />
            </g>
        </g>
    </g>
    <g fill="#141414" fill-opacity="1">
        <g transform="translate(579.249058, 193.470601)">
            <g>
                <path
                    d="M 33.421875 0 C 33.828125 -0.0625 34.265625 -0.421875 34.734375 -1.078125 C 35.203125 -1.734375 35.4375 -2.953125 35.4375 -4.734375 L 35.4375 -29.90625 L 22.25 0.546875 L 8.859375 -29.859375 L 8.859375 -4.984375 C 8.859375 -3.171875 9.148438 -1.898438 9.734375 -1.171875 C 10.328125 -0.453125 10.859375 -0.0625 11.328125 0 L 3.875 0 C 4.375 -0.0625 4.925781 -0.4375 5.53125 -1.125 C 6.132812 -1.820312 6.4375 -3.109375 6.4375 -4.984375 L 6.4375 -30.203125 C 6.4375 -31.816406 6.148438 -32.925781 5.578125 -33.53125 C 5.015625 -34.132812 4.445312 -34.503906 3.875 -34.640625 L 10.671875 -34.640625 L 23 -6.5 L 35.140625 -34.640625 L 41.234375 -34.640625 C 40.796875 -34.566406 40.320312 -34.210938 39.8125 -33.578125 C 39.3125 -32.941406 39.0625 -31.769531 39.0625 -30.0625 L 39.0625 -4.53125 C 39.0625 -2.851562 39.3125 -1.691406 39.8125 -1.046875 C 40.320312 -0.410156 40.796875 -0.0625 41.234375 0 Z M 33.421875 0 " />
            </g>
        </g>
    </g>
    <g fill="#141414" fill-opacity="1">
        <g transform="translate(623.939071, 193.470601)">
            <g>
                <path
                    d="M 4.28125 0 C 4.28125 0.101562 4.476562 0.03125 4.875 -0.21875 C 5.28125 -0.476562 5.640625 -0.984375 5.953125 -1.734375 C 6.273438 -2.492188 6.4375 -3.59375 6.4375 -5.03125 L 6.4375 -29.75 C 6.4375 -31.125 6.273438 -32.171875 5.953125 -32.890625 C 5.640625 -33.617188 5.28125 -34.113281 4.875 -34.375 C 4.476562 -34.644531 4.28125 -34.734375 4.28125 -34.640625 L 22.5 -34.640625 L 22.5 -29.609375 C 21.894531 -31.617188 20.082031 -32.625 17.0625 -32.625 L 10.0625 -32.625 L 10.0625 -18.328125 L 18.734375 -18.328125 C 19.398438 -18.328125 19.96875 -18.4375 20.4375 -18.65625 C 20.90625 -18.875 21.253906 -19.097656 21.484375 -19.328125 C 21.722656 -19.566406 21.863281 -19.71875 21.90625 -19.78125 L 21.90625 -14.90625 C 21.863281 -14.96875 21.722656 -15.113281 21.484375 -15.34375 C 21.253906 -15.582031 20.910156 -15.800781 20.453125 -16 C 20.003906 -16.207031 19.445312 -16.3125 18.78125 -16.3125 L 10.0625 -16.3125 L 10.0625 -2.015625 L 17.921875 -2.015625 C 19.429688 -2.015625 20.726562 -2.320312 21.8125 -2.9375 C 22.90625 -3.5625 23.691406 -4.363281 24.171875 -5.34375 L 23.265625 0 Z M 4.28125 0 " />
            </g>
        </g>
    </g>
    <g fill="#141414" fill-opacity="1">
        <g transform="translate(650.511533, 193.470601)">
            <g>
                <path
                    d="M 36.703125 -34.640625 C 36.234375 -34.535156 35.769531 -34.15625 35.3125 -33.5 C 34.863281 -32.84375 34.640625 -31.695312 34.640625 -30.0625 L 34.640625 1.40625 L 8.859375 -28.640625 L 8.859375 -4.53125 C 8.859375 -2.914062 9.144531 -1.78125 9.71875 -1.125 C 10.289062 -0.476562 10.84375 -0.101562 11.375 0 L 4.28125 0 C 4.75 -0.101562 5.222656 -0.476562 5.703125 -1.125 C 6.191406 -1.78125 6.4375 -2.929688 6.4375 -4.578125 L 6.4375 -29.75 C 6.4375 -30.894531 6.050781 -31.9375 5.28125 -32.875 C 4.507812 -33.8125 3.535156 -34.398438 2.359375 -34.640625 L 8.609375 -34.640625 L 32.21875 -7.09375 L 32.21875 -30.0625 C 32.21875 -32.644531 31.347656 -34.171875 29.609375 -34.640625 Z M 36.703125 -34.640625 " />
            </g>
        </g>
    </g>
    <g fill="#141414" fill-opacity="1">
        <g transform="translate(690.772793, 193.470601)">
            <g>
                <path
                    d="M 7.453125 -32.625 C 5.972656 -32.625 4.742188 -32.335938 3.765625 -31.765625 C 2.796875 -31.191406 2.09375 -30.472656 1.65625 -29.609375 L 2.359375 -34.640625 L 26.234375 -34.640625 L 26.9375 -29.609375 C 26.5 -30.472656 25.789062 -31.191406 24.8125 -31.765625 C 23.84375 -32.335938 22.617188 -32.625 21.140625 -32.625 L 16.109375 -32.625 L 16.109375 -4.6875 C 16.109375 -3.34375 16.273438 -2.316406 16.609375 -1.609375 C 16.941406 -0.898438 17.3125 -0.425781 17.71875 -0.1875 C 18.125 0.0390625 18.328125 0.101562 18.328125 0 L 10.328125 0 C 10.328125 0.101562 10.523438 0.0390625 10.921875 -0.1875 C 11.328125 -0.425781 11.6875 -0.890625 12 -1.578125 C 12.320312 -2.273438 12.484375 -3.3125 12.484375 -4.6875 L 12.484375 -32.625 Z M 7.453125 -32.625 " />
            </g>
        </g>
    </g>
</svg>