<svg xmlns="http://www.w3.org/2000/svg" xmlns:xlink="http://www.w3.org/1999/xlink" width="500" zoomAndPan="magnify"
    viewBox="0 0 375 374.999991" height="500" preserveAspectRatio="xMidYMid meet" version="1.0">
    <defs>
        <g />
        <clipPath id="26028b44a3">
            <path d="M 164 152 L 211 152 L 211 207.613281 L 164 207.613281 Z M 164 152 " clip-rule="nonzero" />
        </clipPath>
        <clipPath id="7e6275dd03">
            <path d="M 185 29.863281 L 190 29.863281 L 190 139 L 185 139 Z M 185 29.863281 " clip-rule="nonzero" />
        </clipPath>
        <clipPath id="0df6dcd826">
            <path d="M 172 53 L 267.152344 53 L 267.152344 184 L 172 184 Z M 172 53 " clip-rule="nonzero" />
        </clipPath>
        <clipPath id="4af1a6be13">
            <path d="M 171 137 L 225 137 L 225 207.613281 L 171 207.613281 Z M 171 137 " clip-rule="nonzero" />
        </clipPath>
        <clipPath id="a993db7bdb">
            <path d="M 171 29.863281 L 227 29.863281 L 227 129 L 171 129 Z M 171 29.863281 " clip-rule="nonzero" />
        </clipPath>
        <clipPath id="d324054809">
            <path d="M 260 114 L 267.152344 114 L 267.152344 118 L 260 118 Z M 260 114 " clip-rule="nonzero" />
        </clipPath>
        <clipPath id="bdfa9c6f71">
            <path d="M 164 152 L 211 152 L 211 207.613281 L 164 207.613281 Z M 164 152 " clip-rule="nonzero" />
        </clipPath>
        <clipPath id="22a0f494f6">
            <path d="M 185 29.863281 L 190 29.863281 L 190 139 L 185 139 Z M 185 29.863281 " clip-rule="nonzero" />
        </clipPath>
        <clipPath id="987e758495">
            <path d="M 108.152344 53 L 203 53 L 203 184 L 108.152344 184 Z M 108.152344 53 " clip-rule="nonzero" />
        </clipPath>
        <clipPath id="8d906648e3">
            <path d="M 150 137 L 204 137 L 204 207.613281 L 150 207.613281 Z M 150 137 " clip-rule="nonzero" />
        </clipPath>
        <clipPath id="cec84c6ede">
            <path d="M 148 29.863281 L 205 29.863281 L 205 129 L 148 129 Z M 148 29.863281 " clip-rule="nonzero" />
        </clipPath>
        <clipPath id="3626611db3">
            <path d="M 108.152344 114 L 115 114 L 115 118 L 108.152344 118 Z M 108.152344 114 " clip-rule="nonzero" />
        </clipPath>
    </defs>
    <g clip-path="url(#26028b44a3)">
        <path stroke-linecap="butt" transform="matrix(0.136594, 0, 0, 0.136207, 108.153036, 29.864337)" fill="none"
            stroke-linejoin="miter"
            d="M 657.993624 1155.575821 C 657.993624 1199.33967 645.324955 1235.159492 629.110201 1259.880617 C 621.017124 1272.24118 612.123317 1281.676505 603.658472 1287.957163 C 595.05064 1294.323856 587.529511 1296.990985 582.010204 1296.990985 C 576.462299 1296.990985 568.855378 1294.323856 560.161753 1287.928484 C 551.611116 1281.647827 542.574322 1272.212501 534.338257 1259.82326 C 517.923322 1235.102134 504.997275 1199.282313 504.997275 1155.575821 C 504.997275 1112.614979 525.244269 1071.059397 546.149004 1039.770826 C 556.529877 1024.198238 566.939349 1011.407493 574.746452 1002.488386 C 577.520404 999.305039 579.979785 996.637911 581.953009 994.51568 C 583.926233 996.637911 586.328419 999.305039 589.073774 1002.459707 C 596.766487 1011.350135 607.061569 1024.169559 617.328053 1039.713469 C 637.97541 1071.030718 657.993624 1112.5863 657.993624 1155.575821 Z M 657.993624 1155.575821 "
            stroke="#ffdead" stroke-width="16" stroke-opacity="1" stroke-miterlimit="4" />
    </g>
    <path fill="#ffdead"
        d="M 192.296875 191.507812 C 192.296875 197.113281 189.496094 201.078125 187.671875 201.078125 C 185.851562 201.078125 183.144531 197.238281 183.144531 191.507812 C 183.144531 185.777344 187.671875 180.644531 187.671875 180.644531 C 187.671875 180.644531 192.296875 185.898438 192.296875 191.507812 Z M 192.296875 191.507812 "
        fill-opacity="1" fill-rule="nonzero" />
    <path fill="#ffdead"
        d="M 185.738281 151.632812 L 189.5625 151.632812 L 189.5625 166.753906 L 185.738281 166.753906 Z M 185.738281 151.632812 "
        fill-opacity="1" fill-rule="nonzero" />
    <path fill="#ffdead"
        d="M 184.097656 137.332031 L 191.203125 137.332031 L 191.203125 155.71875 L 184.097656 155.71875 Z M 184.097656 137.332031 "
        fill-opacity="1" fill-rule="nonzero" />
    <g clip-path="url(#7e6275dd03)">
        <path fill="#ffdead"
            d="M 185.738281 35.449219 C 185.738281 35.449219 185.898438 33.992188 186.285156 33.132812 C 186.46875 32.726562 186.847656 32.136719 187.105469 31.566406 C 187.371094 30.972656 187.652344 29.863281 187.652344 29.863281 C 187.652344 29.863281 187.929688 30.972656 188.199219 31.566406 C 188.453125 32.136719 188.835938 32.726562 189.015625 33.132812 C 189.40625 33.992188 189.5625 35.449219 189.5625 35.449219 L 189.5625 138.828125 L 185.738281 138.828125 Z M 185.738281 35.449219 "
            fill-opacity="1" fill-rule="nonzero" />
    </g>
    <path fill="#ffdead"
        d="M 187.789062 164.027344 L 189.5625 163.277344 C 189.5625 163.277344 189.695312 164.664062 189.90625 165.527344 C 190.035156 166.066406 190.585938 167.160156 190.585938 167.160156 L 187.789062 166.070312 Z M 187.789062 164.027344 "
        fill-opacity="1" fill-rule="nonzero" />
    <path fill="#ffdead"
        d="M 187.539062 164.015625 L 185.765625 163.265625 C 185.765625 163.265625 185.632812 164.652344 185.421875 165.515625 C 185.292969 166.054688 184.742188 167.148438 184.742188 167.148438 L 187.539062 166.058594 Z M 187.539062 164.015625 "
        fill-opacity="1" fill-rule="nonzero" />
    <g clip-path="url(#0df6dcd826)">
        <path stroke-linecap="round" transform="matrix(0.136594, 0, 0, 0.136207, 108.153036, 29.864337)" fill="none"
            stroke-linejoin="miter"
            d="M 594.507289 817.510125 C 594.507289 817.510125 643.037159 746.013876 678.011838 722.49726 C 692.739524 712.603074 717.504914 700.013081 717.504914 700.013081 M 833.010009 613.001601 C 803.325857 638.181588 789.656277 656.30659 756.997991 677.500223 C 742.09872 687.164979 717.504914 700.013081 717.504914 700.013081 M 833.010009 613.001601 C 853.314197 597.572407 864.695982 588.940088 885.00017 573.510894 M 833.010009 613.001601 C 829.29234 591.52118 821.571029 579.705514 823.487058 557.995663 C 825.288698 537.633715 831.808916 526.99388 840.50254 508.496054 C 845.507094 497.82754 855.001447 481.996842 855.001447 481.996842 M 885.00017 573.510894 C 908.221298 567.402309 923.263556 567.402309 946.513281 573.510894 C 964.815648 578.328932 990.010001 594.991315 990.010001 594.991315 C 990.010001 594.991315 1012.716375 616.787203 1030.503987 625.505558 C 1049.178121 634.654095 1061.246245 637.866121 1082.007992 639.013273 C 1101.282672 640.04571 1130.995421 632.503185 1130.995421 632.503185 M 885.00017 573.510894 C 915.942609 581.225491 933.472845 590.918925 956.493791 613.001601 C 972.651349 628.488153 978.370839 640.389856 990.010001 659.489936 C 999.618743 675.320634 1012.001438 701.504379 1012.001438 701.504379 C 1012.001438 701.504379 1027.472658 723.959879 1040.999251 734.513678 C 1055.126391 745.497658 1064.449159 751.462848 1082.007992 754.990341 C 1095.220013 757.657469 1116.496515 754.990341 1116.496515 754.990341 M 932.500532 400.491692 C 932.500532 400.491692 887.774122 428.424844 869.500353 455.497631 C 862.894342 465.277102 855.001447 481.996842 855.001447 481.996842 M 855.001447 481.996842 C 855.001447 481.996842 848.824398 454.952734 840.50254 439.494861 C 829.034963 418.186512 809.502906 415.031844 799.493799 393.006525 C 789.942251 371.984965 785.223672 356.842559 791.000357 334.501773 C 796.433872 313.508891 814.993616 295.498605 814.993616 295.498605 M 717.504914 700.013081 C 717.504914 700.013081 761.459193 705.175265 781.506004 722.49726 C 796.205093 735.230648 808.988152 763.995484 808.988152 763.995484 C 808.988152 763.995484 818.42531 795.828952 823.487058 816.506367 C 827.605091 833.197429 822.972304 845.529313 833.010009 859.495889 C 842.790336 873.08964 869.500353 882.008747 869.500353 882.008747 M 717.504914 700.013081 C 717.504914 700.013081 774.213655 693.302242 808.988152 701.504379 C 836.670482 708.014466 852.370481 714.180408 875.991974 730.011106 C 902.273029 747.59121 914.169567 762.246077 932.500532 787.99964 C 946.08432 807.071042 961.498344 840.510523 961.498344 840.510523 M 961.498344 840.510523 C 961.498344 840.510523 961.498344 893.537624 961.498344 927.493324 C 961.498344 946.622083 967.046249 958.17964 961.498344 976.505393 C 957.866468 988.550489 946.513281 1005.012121 946.513281 1005.012121 M 961.498344 840.510523 C 961.498344 840.510523 987.893789 850.060563 1002.993242 859.495889 C 1019.436775 869.791578 1023.612002 882.869111 1040.999251 891.50143 C 1060.931673 901.395616 1096.993055 901.99787 1096.993055 901.99787 "
            stroke="#ffdead" stroke-width="22" stroke-opacity="1" stroke-miterlimit="4" />
    </g>
    <g clip-path="url(#4af1a6be13)">
        <path stroke-linecap="square" transform="matrix(0.136594, 0, 0, 0.136207, 108.153036, 29.864337)" fill="none"
            stroke-linejoin="miter"
            d="M 589.502735 913.498069 L 668.002731 1011.00599 C 668.002731 1011.00599 706.695079 1056.633961 718.505825 1091.994921 C 726.398721 1115.654931 729.573038 1130.080368 730.488156 1155.002245 C 731.431872 1180.268268 731.546262 1195.697463 722.995625 1219.500867 C 717.33333 1235.302886 702.005097 1257.012737 702.005097 1257.012737 "
            stroke="#ffdead" stroke-width="22" stroke-opacity="1" stroke-miterlimit="4" />
    </g>
    <g clip-path="url(#a993db7bdb)">
        <path stroke-linecap="round" transform="matrix(0.136594, 0, 0, 0.136207, 108.153036, 29.864337)" fill="none"
            stroke-linejoin="miter"
            d="M 585.012936 600.010105 L 627.508744 539.010297 C 627.508744 539.010297 638.776139 524.670897 646.011293 515.493681 M 714.988339 473.507917 C 714.988339 473.507917 680.442621 478.325956 664.513843 492.005744 C 655.620036 499.605626 653.21785 506.316465 646.011293 515.493681 M 646.011293 515.493681 C 651.473406 490.313694 651.559198 475.372039 659.995446 450.995059 C 666.887431 431.091972 675.323678 421.800041 682.501638 402.011669 C 689.593805 382.395369 693.940617 371.181959 696.48579 350.504544 C 700.317848 319.76087 690.623313 302.438875 689.508012 271.494449 C 688.735881 250.042707 687.277412 237.854217 689.508012 216.488511 C 692.167575 190.792306 689.42222 173.01145 704.493075 151.989889 C 715.617483 136.503337 743.013838 121.991864 743.013838 121.991864 "
            stroke="#ffdead" stroke-width="22" stroke-opacity="1" stroke-miterlimit="4" />
    </g>
    <path fill="#ffdead"
        d="M 202.316406 200.933594 L 204.519531 202.984375 C 204.519531 202.984375 204.519531 203.050781 204.179688 203.390625 C 203.835938 203.734375 202.8125 204.550781 201.582031 205.09375 C 200.339844 205.644531 198.238281 205.503906 198.238281 205.503906 Z M 202.316406 200.933594 "
        fill-opacity="1" fill-rule="nonzero" />
    <path fill="#ffdead"
        d="M 202.265625 125.890625 L 213.332031 125.890625 L 213.332031 128.886719 C 213.332031 128.886719 211.214844 127.933594 207.796875 127.933594 C 204.382812 127.933594 202.0625 129.160156 202.0625 129.160156 Z M 202.265625 125.890625 "
        fill-opacity="1" fill-rule="nonzero" />
    <path fill="#ffdead"
        d="M 255.96875 111.410156 C 257.449219 111.195312 259.550781 110.273438 259.550781 110.273438 C 259.550781 110.273438 258.375 108.613281 257.0625 108.1875 C 256.148438 107.890625 255.496094 107.65625 254.507812 107.714844 C 253.449219 107.777344 252.71875 108 251.90625 108.542969 C 251.132812 109.066406 250.796875 110.398438 250.796875 110.398438 C 250.796875 110.398438 251.976562 111.222656 252.910156 111.453125 C 254.046875 111.730469 254.792969 111.578125 255.96875 111.410156 Z M 255.96875 111.410156 "
        fill-opacity="1" fill-rule="nonzero" />
    <path fill="#ffdead"
        d="M 236.117188 121.800781 C 236.191406 120.308594 236.914062 118.136719 236.914062 118.136719 C 236.914062 118.136719 238.679688 119.144531 239.230469 120.410156 C 239.613281 121.289062 239.910156 121.914062 239.945312 122.898438 C 239.980469 123.957031 239.828125 124.703125 239.359375 125.558594 C 238.914062 126.378906 237.617188 126.839844 237.617188 126.839844 C 237.617188 126.839844 236.679688 125.746094 236.363281 124.839844 C 235.976562 123.734375 236.0625 122.984375 236.117188 121.800781 Z M 236.117188 121.800781 "
        fill-opacity="1" fill-rule="nonzero" />
    <path fill="#ffdead"
        d="M 211.417969 137.425781 C 211.453125 138.917969 212.125 141.105469 212.125 141.105469 C 212.125 141.105469 213.914062 140.140625 214.496094 138.890625 C 214.898438 138.019531 215.210938 137.402344 215.269531 136.417969 C 215.332031 135.359375 215.199219 134.613281 214.753906 133.746094 C 214.328125 132.917969 213.039062 132.421875 213.039062 132.421875 C 213.039062 132.421875 212.078125 133.492188 211.738281 134.390625 C 211.328125 135.484375 211.390625 136.238281 211.417969 137.425781 Z M 211.417969 137.425781 "
        fill-opacity="1" fill-rule="nonzero" />
    <path fill="#ffdead"
        d="M 217.636719 96.824219 C 217.101562 95.429688 215.734375 93.589844 215.734375 93.589844 C 215.734375 93.589844 214.371094 95.097656 214.246094 96.46875 C 214.15625 97.421875 214.070312 98.109375 214.34375 99.058594 C 214.640625 100.074219 215.015625 100.734375 215.726562 101.402344 C 216.40625 102.042969 217.785156 102.078125 217.785156 102.078125 C 217.785156 102.078125 218.332031 100.746094 218.351562 99.789062 C 218.375 98.621094 218.058594 97.929688 217.636719 96.824219 Z M 217.636719 96.824219 "
        fill-opacity="1" fill-rule="nonzero" />
    <path fill="#ffdead"
        d="M 223.722656 78.296875 C 224.707031 77.171875 226.628906 75.921875 226.628906 75.921875 C 226.628906 75.921875 227.382812 77.804688 227.027344 79.136719 C 226.777344 80.0625 226.621094 80.734375 226.03125 81.53125 C 225.402344 82.382812 224.816406 82.871094 223.917969 83.25 C 223.058594 83.613281 221.753906 83.171875 221.753906 83.171875 C 221.753906 83.171875 221.703125 81.734375 222.019531 80.828125 C 222.40625 79.726562 222.941406 79.1875 223.722656 78.296875 Z M 223.722656 78.296875 "
        fill-opacity="1" fill-rule="nonzero" />
    <path fill="#ffdead"
        d="M 211.597656 54.433594 C 212.320312 53.125 212.84375 50.894531 212.84375 50.894531 C 212.84375 50.894531 210.808594 50.832031 209.675781 51.625 C 208.890625 52.175781 208.308594 52.550781 207.761719 53.375 C 207.175781 54.257812 206.914062 54.972656 206.863281 55.945312 C 206.8125 56.875 207.679688 57.945312 207.679688 57.945312 C 207.679688 57.945312 209.046875 57.5 209.792969 56.894531 C 210.703125 56.15625 211.023438 55.472656 211.597656 54.433594 Z M 211.597656 54.433594 "
        fill-opacity="1" fill-rule="nonzero" />
    <path fill="#ffdead"
        d="M 195.722656 74.839844 C 195.867188 73.355469 196.695312 71.21875 196.695312 71.21875 C 196.695312 71.21875 198.410156 72.3125 198.898438 73.601562 C 199.238281 74.496094 199.503906 75.136719 199.492188 76.121094 C 199.476562 77.179688 199.289062 77.917969 198.78125 78.75 C 198.296875 79.546875 196.976562 79.945312 196.976562 79.945312 C 196.976562 79.945312 196.09375 78.808594 195.820312 77.886719 C 195.488281 76.769531 195.609375 76.019531 195.722656 74.839844 Z M 195.722656 74.839844 "
        fill-opacity="1" fill-rule="nonzero" />
    <path fill="#ffdead"
        d="M 258.648438 125.871094 C 260.105469 126.214844 262.398438 126.121094 262.398438 126.121094 C 262.398438 126.121094 261.914062 124.148438 260.847656 123.273438 C 260.105469 122.664062 259.585938 122.207031 258.644531 121.902344 C 257.636719 121.574219 256.875 121.515625 255.921875 121.722656 C 255.007812 121.925781 254.207031 123.042969 254.207031 123.042969 C 254.207031 123.042969 255 124.242188 255.785156 124.796875 C 256.746094 125.46875 257.492188 125.597656 258.648438 125.871094 Z M 258.648438 125.871094 "
        fill-opacity="1" fill-rule="nonzero" />
    <path fill="#ffdead"
        d="M 252.5 145.210938 C 253.996094 145.082031 256.140625 144.277344 256.140625 144.277344 C 256.140625 144.277344 255.0625 142.554688 253.773438 142.054688 C 252.878906 141.710938 252.242188 141.4375 251.253906 141.441406 C 250.191406 141.445312 249.449219 141.628906 248.609375 142.125 C 247.808594 142.601562 247.394531 143.914062 247.394531 143.914062 C 247.394531 143.914062 248.527344 144.804688 249.445312 145.082031 C 250.566406 145.425781 251.320312 145.3125 252.5 145.210938 Z M 252.5 145.210938 "
        fill-opacity="1" fill-rule="nonzero" />
    <path fill="#ffdead"
        d="M 252.589844 160.722656 C 253.804688 161.597656 255.960938 162.386719 255.960938 162.386719 C 255.960938 162.386719 256.269531 160.378906 255.617188 159.160156 C 255.167969 158.316406 254.859375 157.695312 254.109375 157.054688 C 253.300781 156.367188 252.621094 156.019531 251.660156 155.851562 C 250.742188 155.691406 249.570312 156.417969 249.570312 156.417969 C 249.570312 156.417969 249.84375 157.828125 250.359375 158.636719 C 250.984375 159.625 251.625 160.03125 252.589844 160.722656 Z M 252.589844 160.722656 "
        fill-opacity="1" fill-rule="nonzero" />
    <path fill="#ffdead"
        d="M 230.851562 158.453125 C 230.335938 159.855469 230.15625 162.136719 230.15625 162.136719 C 230.15625 162.136719 232.175781 161.894531 233.175781 160.941406 C 233.871094 160.277344 234.386719 159.816406 234.804688 158.921875 C 235.25 157.964844 235.402344 157.21875 235.304688 156.246094 C 235.210938 155.320312 234.195312 154.390625 234.195312 154.390625 C 234.195312 154.390625 232.90625 155.035156 232.261719 155.75 C 231.476562 156.617188 231.261719 157.339844 230.851562 158.453125 Z M 230.851562 158.453125 "
        fill-opacity="1" fill-rule="nonzero" />
    <path fill="#ffdead"
        d="M 188.742188 134.878906 C 188.742188 134.878906 191.792969 132.15625 193.933594 130.65625 C 196.457031 128.890625 200.765625 126.707031 200.765625 126.707031 L 192.160156 138.828125 L 186.558594 138.828125 Z M 188.742188 134.878906 "
        fill-opacity="1" fill-rule="nonzero" />
    <path fill="#ffdead"
        d="M 227.671875 109.136719 L 231.359375 109.136719 L 236.003906 112.472656 C 236.003906 112.472656 232.777344 110.773438 230.472656 110.703125 C 228.554688 110.644531 224.734375 112.8125 225.214844 112.542969 C 225.691406 112.269531 227.671875 109.136719 227.671875 109.136719 Z M 227.671875 109.136719 "
        fill-opacity="1" fill-rule="nonzero" />
    <path fill="#ffdead"
        d="M 222.210938 109.679688 L 221.320312 105.800781 L 223.027344 101.917969 C 223.027344 101.917969 222.621094 104.113281 222.6875 105.527344 C 222.734375 106.464844 222.605469 107.070312 223.027344 107.910156 C 223.226562 108.304688 223.675781 108.832031 223.675781 108.832031 C 223.675781 108.832031 224.558594 108.285156 225.144531 107.980469 C 226.375 107.335938 228.355469 106.617188 228.355469 106.617188 L 225.761719 111.042969 L 222.210938 111.042969 Z M 222.210938 109.679688 "
        fill-opacity="1" fill-rule="nonzero" />
    <g clip-path="url(#d324054809)">
        <path fill="#ffdead"
            d="M 267.148438 114.722656 C 267.148438 114.722656 265.417969 116.824219 263.558594 117.320312 C 261.699219 117.816406 260.710938 117.636719 260.433594 116.605469 C 260.15625 115.574219 260.921875 114.925781 262.78125 114.429688 C 264.640625 113.929688 267.148438 114.722656 267.148438 114.722656 Z M 267.148438 114.722656 "
            fill-opacity="1" fill-rule="nonzero" />
    </g>
    <path fill="#ffdead"
        d="M 210.058594 93.714844 C 210.058594 93.714844 208.066406 95.574219 206.15625 95.820312 C 204.25 96.070312 203.292969 95.761719 203.15625 94.703125 C 203.015625 93.640625 203.859375 93.101562 205.769531 92.851562 C 207.679688 92.605469 210.058594 93.714844 210.058594 93.714844 Z M 210.058594 93.714844 "
        fill-opacity="1" fill-rule="nonzero" />
    <path fill="#ffdead"
        d="M 239.148438 81.988281 C 239.148438 81.988281 238.152344 84.519531 236.535156 85.566406 C 234.917969 86.609375 233.925781 86.742188 233.339844 85.84375 C 232.757812 84.949219 233.285156 84.097656 234.902344 83.050781 C 236.515625 82.007812 239.148438 81.988281 239.148438 81.988281 Z M 239.148438 81.988281 "
        fill-opacity="1" fill-rule="nonzero" />
    <path fill="#ffdead"
        d="M 222.398438 67.261719 C 222.398438 67.261719 221.863281 69.929688 220.453125 71.238281 C 219.046875 72.546875 218.09375 72.851562 217.359375 72.070312 C 216.628906 71.289062 217 70.359375 218.40625 69.050781 C 219.8125 67.738281 222.398438 67.261719 222.398438 67.261719 Z M 222.398438 67.261719 "
        fill-opacity="1" fill-rule="nonzero" />
    <path fill="#ffdead"
        d="M 212.941406 44.425781 C 212.941406 44.425781 211.851562 46.917969 210.199219 47.898438 C 208.546875 48.882812 207.546875 48.980469 206.996094 48.0625 C 206.449219 47.144531 207.007812 46.3125 208.660156 45.328125 C 210.3125 44.347656 212.941406 44.425781 212.941406 44.425781 Z M 212.941406 44.425781 "
        fill-opacity="1" fill-rule="nonzero" />
    <path fill="#ffdead"
        d="M 264.953125 132.03125 C 264.953125 132.03125 262.964844 133.894531 261.058594 134.148438 C 259.148438 134.402344 258.191406 134.097656 258.050781 133.035156 C 257.910156 131.976562 258.753906 131.433594 260.660156 131.179688 C 262.570312 130.925781 264.953125 132.03125 264.953125 132.03125 Z M 264.953125 132.03125 "
        fill-opacity="1" fill-rule="nonzero" />
    <path fill="#ffdead"
        d="M 262.242188 152.902344 C 262.242188 152.902344 259.925781 154.335938 258.007812 154.210938 C 256.085938 154.085938 255.207031 153.601562 255.277344 152.535156 C 255.347656 151.46875 256.28125 151.101562 258.203125 151.226562 C 260.121094 151.347656 262.242188 152.902344 262.242188 152.902344 Z M 262.242188 152.902344 "
        fill-opacity="1" fill-rule="nonzero" />
    <path fill="#ffdead"
        d="M 231.242188 151.351562 C 231.242188 151.351562 228.636719 152.15625 226.808594 151.550781 C 224.984375 150.945312 224.257812 150.253906 224.59375 149.238281 C 224.933594 148.226562 225.929688 148.105469 227.757812 148.710938 C 229.582031 149.316406 231.242188 151.351562 231.242188 151.351562 Z M 231.242188 151.351562 "
        fill-opacity="1" fill-rule="nonzero" />
    <path fill="#ffdead"
        d="M 235.460938 170.363281 C 235.460938 170.363281 235.195312 167.65625 236.160156 165.992188 C 237.121094 164.332031 237.945312 163.761719 238.875 164.296875 C 239.804688 164.832031 239.722656 165.828125 238.757812 167.492188 C 237.796875 169.152344 235.460938 170.363281 235.460938 170.363281 Z M 235.460938 170.363281 "
        fill-opacity="1" fill-rule="nonzero" />
    <path fill="#ffdead"
        d="M 187.789062 110.769531 L 191.816406 108.796875 C 191.816406 108.796875 190.667969 111.082031 190.246094 112.679688 C 189.800781 114.359375 189.496094 117.511719 189.496094 117.511719 L 187.789062 117.308594 Z M 187.789062 110.769531 "
        fill-opacity="1" fill-rule="nonzero" />
    <path fill="#ffdead"
        d="M 219.203125 108.113281 L 220.296875 112.132812 L 220.707031 112.949219 L 215.859375 117.035156 C 215.859375 117.035156 218.179688 114.039062 218.792969 112.609375 C 219.332031 111.359375 219.203125 108.113281 219.203125 108.113281 Z M 219.203125 108.113281 "
        fill-opacity="1" fill-rule="nonzero" />
    <path fill="#ffdead"
        d="M 188.8125 132.5625 C 188.8125 132.5625 194.503906 128.4375 197.144531 127.046875 C 200.605469 125.226562 207.457031 122.894531 207.457031 122.894531 L 199.945312 129.023438 L 188.332031 135.832031 Z M 188.8125 132.5625 "
        fill-opacity="1" fill-rule="nonzero" />
    <g clip-path="url(#bdfa9c6f71)">
        <path stroke-linecap="butt" transform="matrix(0.136594, 0, 0, 0.136207, 108.153036, 29.864337)" fill="none"
            stroke-linejoin="miter"
            d="M 505.998186 1155.575821 C 505.998186 1199.33967 518.695453 1235.159492 534.881609 1259.880617 C 543.003284 1272.24118 551.897091 1281.676505 560.361935 1287.957163 C 568.94117 1294.323856 576.490896 1296.990985 582.010204 1296.990985 C 587.558109 1296.990985 595.136433 1294.323856 603.858654 1287.928484 C 612.409292 1281.647827 621.446085 1272.212501 629.653553 1259.82326 C 646.097086 1235.102134 659.023132 1199.282313 659.023132 1155.575821 C 659.023132 1112.614979 638.776139 1071.059397 617.842807 1039.770826 C 607.461933 1024.198238 597.081059 1011.407493 589.273956 1002.488386 C 586.471406 999.305039 584.040623 996.637911 582.038801 994.51568 C 580.094175 996.637911 577.663392 999.305039 574.946634 1002.459707 C 567.225323 1011.350135 556.958839 1024.169559 546.692355 1039.713469 C 526.0164 1071.030718 505.998186 1112.5863 505.998186 1155.575821 Z M 505.998186 1155.575821 "
            stroke="#ffdead" stroke-width="16" stroke-opacity="1" stroke-miterlimit="4" />
    </g>
    <path fill="#ffdead"
        d="M 183.007812 191.507812 C 183.007812 197.113281 185.808594 201.078125 187.628906 201.078125 C 189.453125 201.078125 192.160156 197.238281 192.160156 191.507812 C 192.160156 185.777344 187.628906 180.644531 187.628906 180.644531 C 187.628906 180.644531 183.007812 185.898438 183.007812 191.507812 Z M 183.007812 191.507812 "
        fill-opacity="1" fill-rule="nonzero" />
    <path fill="#ffdead"
        d="M 189.566406 151.632812 L 185.738281 151.632812 L 185.738281 166.753906 L 189.566406 166.753906 Z M 189.566406 151.632812 "
        fill-opacity="1" fill-rule="nonzero" />
    <path fill="#ffdead"
        d="M 191.203125 137.332031 L 184.101562 137.332031 L 184.101562 155.71875 L 191.203125 155.71875 Z M 191.203125 137.332031 "
        fill-opacity="1" fill-rule="nonzero" />
    <g clip-path="url(#22a0f494f6)">
        <path fill="#ffdead"
            d="M 189.566406 35.449219 C 189.566406 35.449219 189.40625 33.992188 189.019531 33.132812 C 188.835938 32.726562 188.457031 32.136719 188.199219 31.566406 C 187.929688 30.972656 187.652344 29.863281 187.652344 29.863281 C 187.652344 29.863281 187.375 30.972656 187.105469 31.566406 C 186.847656 32.136719 186.46875 32.726562 186.285156 33.132812 C 185.898438 33.992188 185.738281 35.449219 185.738281 35.449219 L 185.738281 138.828125 L 189.566406 138.828125 Z M 189.566406 35.449219 "
            fill-opacity="1" fill-rule="nonzero" />
    </g>
    <path fill="#ffdead"
        d="M 187.515625 164.027344 L 185.738281 163.277344 C 185.738281 163.277344 185.609375 164.664062 185.398438 165.527344 C 185.269531 166.066406 184.714844 167.160156 184.714844 167.160156 L 187.515625 166.070312 Z M 187.515625 164.027344 "
        fill-opacity="1" fill-rule="nonzero" />
    <path fill="#ffdead"
        d="M 187.761719 164.015625 L 189.539062 163.265625 C 189.539062 163.265625 189.671875 164.652344 189.878906 165.515625 C 190.011719 166.054688 190.5625 167.148438 190.5625 167.148438 L 187.761719 166.058594 Z M 187.761719 164.015625 "
        fill-opacity="1" fill-rule="nonzero" />
    <g clip-path="url(#987e758495)">
        <path stroke-linecap="round" transform="matrix(0.136594, 0, 0, 0.136207, 108.153036, 29.864337)" fill="none"
            stroke-linejoin="miter"
            d="M 569.513119 817.510125 C 569.513119 817.510125 520.954651 746.013876 486.00857 722.49726 C 471.280884 712.603074 446.515493 700.013081 446.515493 700.013081 M 331.010399 613.001601 C 360.694551 638.181588 374.364131 656.30659 407.022417 677.500223 C 421.89309 687.164979 446.515493 700.013081 446.515493 700.013081 M 331.010399 613.001601 C 310.706211 597.572407 299.324426 588.940088 279.020238 573.510894 M 331.010399 613.001601 C 334.728067 591.52118 342.420781 579.705514 340.504752 557.995663 C 338.703113 537.633715 332.182894 526.99388 323.517868 508.496054 C 318.513314 497.82754 309.018961 481.996842 309.018961 481.996842 M 279.020238 573.510894 C 255.770512 567.402309 240.728254 567.402309 217.507126 573.510894 C 199.176162 578.328932 174.010407 594.991315 174.010407 594.991315 C 174.010407 594.991315 151.275436 616.787203 133.51642 625.505558 C 114.842286 634.654095 102.774163 637.866121 82.012416 639.013273 C 62.737735 640.04571 32.996389 632.503185 32.996389 632.503185 M 279.020238 573.510894 C 248.049201 581.225491 230.518965 590.918925 207.498019 613.001601 C 191.369058 628.488153 185.649569 640.389856 174.010407 659.489936 C 164.373067 675.320634 152.018969 701.504379 152.018969 701.504379 C 152.018969 701.504379 136.54775 723.959879 123.021157 734.513678 C 108.86542 745.497658 99.571249 751.462848 82.012416 754.990341 C 68.800394 757.657469 47.523893 754.990341 47.523893 754.990341 M 231.519876 400.491692 C 231.519876 400.491692 276.246285 428.424844 294.520055 455.497631 C 301.097468 465.277102 309.018961 481.996842 309.018961 481.996842 M 309.018961 481.996842 C 309.018961 481.996842 315.19601 454.952734 323.517868 439.494861 C 334.985444 418.186512 354.488904 415.031844 364.498011 393.006525 C 374.049559 371.984965 378.796735 356.842559 373.020051 334.501773 C 367.586536 313.508891 348.998194 295.498605 348.998194 295.498605 M 446.515493 700.013081 C 446.515493 700.013081 402.532618 705.175265 382.514404 722.49726 C 367.815315 735.230648 355.003658 763.995484 355.003658 763.995484 C 355.003658 763.995484 345.5665 795.828952 340.504752 816.506367 C 336.415317 833.197429 341.048103 845.529313 331.010399 859.495889 C 321.230072 873.08964 294.520055 882.008747 294.520055 882.008747 M 446.515493 700.013081 C 446.515493 700.013081 389.806753 693.302242 355.003658 701.504379 C 327.321328 708.014466 311.649926 714.180408 287.999837 730.011106 C 261.718782 747.59121 249.85084 762.246077 231.519876 787.99964 C 217.936088 807.071042 202.522063 840.510523 202.522063 840.510523 M 202.522063 840.510523 C 202.522063 840.510523 202.522063 893.537624 202.522063 927.493324 C 202.522063 946.622083 196.974158 958.17964 202.522063 976.505393 C 206.153939 988.550489 217.507126 1005.012121 217.507126 1005.012121 M 202.522063 840.510523 C 202.522063 840.510523 176.126618 850.060563 160.998568 859.495889 C 144.555035 869.791578 140.379808 882.869111 123.021157 891.50143 C 103.088735 901.395616 66.998755 901.99787 66.998755 901.99787 "
            stroke="#ffdead" stroke-width="22" stroke-opacity="1" stroke-miterlimit="4" />
    </g>
    <g clip-path="url(#8d906648e3)">
        <path stroke-linecap="square" transform="matrix(0.136594, 0, 0, 0.136207, 108.153036, 29.864337)" fill="none"
            stroke-linejoin="miter"
            d="M 574.517672 913.498069 L 496.017676 1011.00599 C 496.017676 1011.00599 457.296731 1056.633961 445.514583 1091.994921 C 437.621687 1115.654931 434.44737 1130.080368 433.503654 1155.002245 C 432.559938 1180.268268 432.474146 1195.697463 440.996186 1219.500867 C 446.687078 1235.302886 462.01531 1257.012737 462.01531 1257.012737 "
            stroke="#ffdead" stroke-width="22" stroke-opacity="1" stroke-miterlimit="4" />
    </g>
    <g clip-path="url(#cec84c6ede)">
        <path stroke-linecap="round" transform="matrix(0.136594, 0, 0, 0.136207, 108.153036, 29.864337)" fill="none"
            stroke-linejoin="miter"
            d="M 579.007472 600.010105 L 536.511663 539.010297 C 536.511663 539.010297 525.244269 524.670897 518.009114 515.493681 M 449.003471 473.507917 C 449.003471 473.507917 483.549189 478.325956 499.506565 492.005744 C 508.371774 499.605626 510.77396 506.316465 518.009114 515.493681 M 518.009114 515.493681 C 512.547002 490.313694 512.432612 475.372039 503.996365 450.995059 C 497.132977 431.091972 488.668132 421.800041 481.51877 402.011669 C 474.398005 382.395369 470.079791 371.181959 467.50602 350.504544 C 463.70256 319.76087 473.397095 302.438875 474.512395 271.494449 C 475.284526 250.042707 476.742996 237.854217 474.512395 216.488511 C 471.824235 190.792306 474.56959 173.01145 459.498735 151.989889 C 448.402925 136.503337 421.006569 121.991864 421.006569 121.991864 "
            stroke="#ffdead" stroke-width="22" stroke-opacity="1" stroke-miterlimit="4" />
    </g>
    <path fill="#ffdead"
        d="M 172.988281 200.933594 L 170.78125 202.984375 C 170.78125 202.984375 170.78125 203.050781 171.125 203.390625 C 171.464844 203.734375 172.488281 204.550781 173.71875 205.09375 C 174.964844 205.644531 177.066406 205.503906 177.066406 205.503906 Z M 172.988281 200.933594 "
        fill-opacity="1" fill-rule="nonzero" />
    <path fill="#ffdead"
        d="M 173.035156 125.890625 L 161.972656 125.890625 L 161.972656 128.886719 C 161.972656 128.886719 164.089844 127.933594 167.503906 127.933594 C 170.917969 127.933594 173.242188 129.160156 173.242188 129.160156 Z M 173.035156 125.890625 "
        fill-opacity="1" fill-rule="nonzero" />
    <path fill="#ffdead"
        d="M 119.335938 111.410156 C 117.851562 111.195312 115.753906 110.273438 115.753906 110.273438 C 115.753906 110.273438 116.925781 108.613281 118.242188 108.1875 C 119.15625 107.890625 119.808594 107.65625 120.796875 107.714844 C 121.855469 107.777344 122.585938 108 123.394531 108.542969 C 124.171875 109.066406 124.507812 110.398438 124.507812 110.398438 C 124.507812 110.398438 123.328125 111.222656 122.394531 111.453125 C 121.253906 111.730469 120.511719 111.578125 119.335938 111.410156 Z M 119.335938 111.410156 "
        fill-opacity="1" fill-rule="nonzero" />
    <path fill="#ffdead"
        d="M 139.183594 121.800781 C 139.113281 120.308594 138.390625 118.136719 138.390625 118.136719 C 138.390625 118.136719 136.621094 119.144531 136.074219 120.410156 C 135.691406 121.289062 135.394531 121.914062 135.359375 122.898438 C 135.320312 123.957031 135.476562 124.703125 135.941406 125.558594 C 136.386719 126.378906 137.6875 126.839844 137.6875 126.839844 C 137.6875 126.839844 138.621094 125.746094 138.9375 124.839844 C 139.324219 123.734375 139.242188 122.984375 139.183594 121.800781 Z M 139.183594 121.800781 "
        fill-opacity="1" fill-rule="nonzero" />
    <path fill="#ffdead"
        d="M 163.882812 137.425781 C 163.847656 138.917969 163.179688 141.105469 163.179688 141.105469 C 163.179688 141.105469 161.386719 140.140625 160.808594 138.890625 C 160.402344 138.019531 160.09375 137.402344 160.035156 136.417969 C 159.96875 135.359375 160.105469 134.613281 160.550781 133.746094 C 160.976562 132.917969 162.261719 132.421875 162.261719 132.421875 C 162.261719 132.421875 163.222656 133.492188 163.5625 134.390625 C 163.976562 135.484375 163.910156 136.238281 163.882812 137.425781 Z M 163.882812 137.425781 "
        fill-opacity="1" fill-rule="nonzero" />
    <path fill="#ffdead"
        d="M 157.667969 96.824219 C 158.203125 95.429688 159.566406 93.589844 159.566406 93.589844 C 159.566406 93.589844 160.929688 95.097656 161.058594 96.46875 C 161.148438 97.421875 161.234375 98.109375 160.957031 99.058594 C 160.664062 100.074219 160.285156 100.734375 159.574219 101.402344 C 158.894531 102.042969 157.515625 102.078125 157.515625 102.078125 C 157.515625 102.078125 156.96875 100.746094 156.953125 99.789062 C 156.929688 98.621094 157.246094 97.929688 157.667969 96.824219 Z M 157.667969 96.824219 "
        fill-opacity="1" fill-rule="nonzero" />
    <path fill="#ffdead"
        d="M 151.582031 78.296875 C 150.59375 77.171875 148.671875 75.921875 148.671875 75.921875 C 148.671875 75.921875 147.917969 77.804688 148.277344 79.136719 C 148.527344 80.0625 148.683594 80.734375 149.273438 81.53125 C 149.902344 82.382812 150.488281 82.871094 151.386719 83.25 C 152.246094 83.613281 153.550781 83.171875 153.550781 83.171875 C 153.550781 83.171875 153.601562 81.734375 153.285156 80.828125 C 152.898438 79.726562 152.363281 79.1875 151.582031 78.296875 Z M 151.582031 78.296875 "
        fill-opacity="1" fill-rule="nonzero" />
    <path fill="#ffdead"
        d="M 163.703125 54.433594 C 162.984375 53.125 162.460938 50.894531 162.460938 50.894531 C 162.460938 50.894531 164.496094 50.832031 165.628906 51.625 C 166.414062 52.175781 166.992188 52.550781 167.542969 53.375 C 168.128906 54.257812 168.390625 54.972656 168.441406 55.945312 C 168.488281 56.875 167.625 57.945312 167.625 57.945312 C 167.625 57.945312 166.253906 57.5 165.507812 56.894531 C 164.601562 56.15625 164.277344 55.472656 163.703125 54.433594 Z M 163.703125 54.433594 "
        fill-opacity="1" fill-rule="nonzero" />
    <path fill="#ffdead"
        d="M 179.578125 74.839844 C 179.4375 73.355469 178.609375 71.21875 178.609375 71.21875 C 178.609375 71.21875 176.890625 72.3125 176.402344 73.601562 C 176.066406 74.496094 175.800781 75.136719 175.8125 76.121094 C 175.824219 77.179688 176.015625 77.917969 176.523438 78.75 C 177.007812 79.546875 178.328125 79.945312 178.328125 79.945312 C 178.328125 79.945312 179.207031 78.808594 179.480469 77.886719 C 179.8125 76.769531 179.691406 76.019531 179.578125 74.839844 Z M 179.578125 74.839844 "
        fill-opacity="1" fill-rule="nonzero" />
    <path fill="#ffdead"
        d="M 116.652344 125.871094 C 115.195312 126.214844 112.902344 126.121094 112.902344 126.121094 C 112.902344 126.121094 113.386719 124.148438 114.457031 123.273438 C 115.195312 122.664062 115.714844 122.207031 116.65625 121.902344 C 117.667969 121.574219 118.425781 121.515625 119.382812 121.722656 C 120.292969 121.925781 121.097656 123.042969 121.097656 123.042969 C 121.097656 123.042969 120.300781 124.242188 119.515625 124.796875 C 118.558594 125.46875 117.808594 125.597656 116.652344 125.871094 Z M 116.652344 125.871094 "
        fill-opacity="1" fill-rule="nonzero" />
    <path fill="#ffdead"
        d="M 122.800781 145.210938 C 121.308594 145.082031 119.160156 144.277344 119.160156 144.277344 C 119.160156 144.277344 120.238281 142.554688 121.527344 142.054688 C 122.425781 141.710938 123.0625 141.4375 124.050781 141.441406 C 125.113281 141.445312 125.855469 141.628906 126.691406 142.125 C 127.496094 142.601562 127.910156 143.914062 127.910156 143.914062 C 127.910156 143.914062 126.777344 144.804688 125.855469 145.082031 C 124.734375 145.425781 123.984375 145.3125 122.800781 145.210938 Z M 122.800781 145.210938 "
        fill-opacity="1" fill-rule="nonzero" />
    <path fill="#ffdead"
        d="M 122.714844 160.722656 C 121.5 161.597656 119.34375 162.386719 119.34375 162.386719 C 119.34375 162.386719 119.035156 160.378906 119.683594 159.160156 C 120.136719 158.316406 120.441406 157.695312 121.195312 157.054688 C 122 156.367188 122.679688 156.019531 123.640625 155.851562 C 124.5625 155.691406 125.734375 156.417969 125.734375 156.417969 C 125.734375 156.417969 125.457031 157.828125 124.945312 158.636719 C 124.320312 159.625 123.675781 160.03125 122.714844 160.722656 Z M 122.714844 160.722656 "
        fill-opacity="1" fill-rule="nonzero" />
    <path fill="#ffdead"
        d="M 144.453125 158.453125 C 144.96875 159.855469 145.148438 162.136719 145.148438 162.136719 C 145.148438 162.136719 143.125 161.894531 142.125 160.941406 C 141.433594 160.277344 140.914062 159.816406 140.5 158.921875 C 140.050781 157.964844 139.902344 157.21875 140 156.246094 C 140.089844 155.320312 141.109375 154.390625 141.109375 154.390625 C 141.109375 154.390625 142.394531 155.035156 143.039062 155.75 C 143.828125 156.617188 144.042969 157.339844 144.453125 158.453125 Z M 144.453125 158.453125 "
        fill-opacity="1" fill-rule="nonzero" />
    <path fill="#ffdead"
        d="M 186.558594 134.878906 C 186.558594 134.878906 183.511719 132.15625 181.367188 130.65625 C 178.84375 128.890625 174.539062 126.707031 174.539062 126.707031 L 183.144531 138.828125 L 188.746094 138.828125 Z M 186.558594 134.878906 "
        fill-opacity="1" fill-rule="nonzero" />
    <path fill="#ffdead"
        d="M 147.628906 109.136719 L 143.941406 109.136719 L 139.296875 112.472656 C 139.296875 112.472656 142.527344 110.773438 144.828125 110.703125 C 146.75 110.644531 150.566406 112.8125 150.089844 112.542969 C 149.609375 112.269531 147.628906 109.136719 147.628906 109.136719 Z M 147.628906 109.136719 "
        fill-opacity="1" fill-rule="nonzero" />
    <path fill="#ffdead"
        d="M 153.09375 109.679688 L 153.980469 105.800781 L 152.273438 101.917969 C 152.273438 101.917969 152.683594 104.113281 152.617188 105.527344 C 152.570312 106.464844 152.695312 107.070312 152.273438 107.910156 C 152.078125 108.304688 151.625 108.832031 151.625 108.832031 C 151.625 108.832031 150.746094 108.285156 150.15625 107.980469 C 148.929688 107.335938 146.945312 106.617188 146.945312 106.617188 L 149.542969 111.042969 L 153.09375 111.042969 Z M 153.09375 109.679688 "
        fill-opacity="1" fill-rule="nonzero" />
    <g clip-path="url(#3626611db3)">
        <path fill="#ffdead"
            d="M 108.15625 114.722656 C 108.15625 114.722656 109.882812 116.824219 111.742188 117.320312 C 113.605469 117.816406 114.589844 117.636719 114.867188 116.605469 C 115.144531 115.574219 114.382812 114.925781 112.519531 114.429688 C 110.660156 113.929688 108.15625 114.722656 108.15625 114.722656 Z M 108.15625 114.722656 "
            fill-opacity="1" fill-rule="nonzero" />
    </g>
    <path fill="#ffdead"
        d="M 165.246094 93.714844 C 165.246094 93.714844 167.238281 95.574219 169.144531 95.820312 C 171.054688 96.070312 172.011719 95.761719 172.148438 94.703125 C 172.289062 93.640625 171.445312 93.101562 169.535156 92.851562 C 167.625 92.605469 165.246094 93.714844 165.246094 93.714844 Z M 165.246094 93.714844 "
        fill-opacity="1" fill-rule="nonzero" />
    <path fill="#ffdead"
        d="M 136.15625 81.988281 C 136.15625 81.988281 137.152344 84.519531 138.769531 85.566406 C 140.382812 86.609375 141.378906 86.742188 141.960938 85.84375 C 142.542969 84.949219 142.015625 84.097656 140.402344 83.050781 C 138.785156 82.007812 136.15625 81.988281 136.15625 81.988281 Z M 136.15625 81.988281 "
        fill-opacity="1" fill-rule="nonzero" />
    <path fill="#ffdead"
        d="M 152.902344 67.261719 C 152.902344 67.261719 153.441406 69.929688 154.847656 71.238281 C 156.253906 72.546875 157.210938 72.851562 157.941406 72.070312 C 158.675781 71.289062 158.304688 70.359375 156.898438 69.050781 C 155.488281 67.738281 152.902344 67.261719 152.902344 67.261719 Z M 152.902344 67.261719 "
        fill-opacity="1" fill-rule="nonzero" />
    <path fill="#ffdead"
        d="M 162.363281 44.425781 C 162.363281 44.425781 163.453125 46.917969 165.105469 47.898438 C 166.757812 48.882812 167.757812 48.980469 168.304688 48.0625 C 168.855469 47.144531 168.296875 46.3125 166.644531 45.328125 C 164.988281 44.347656 162.363281 44.425781 162.363281 44.425781 Z M 162.363281 44.425781 "
        fill-opacity="1" fill-rule="nonzero" />
    <path fill="#ffdead"
        d="M 110.351562 132.03125 C 110.351562 132.03125 112.335938 133.894531 114.246094 134.148438 C 116.15625 134.402344 117.109375 134.097656 117.253906 133.035156 C 117.394531 131.976562 116.550781 131.433594 114.644531 131.179688 C 112.734375 130.925781 110.351562 132.03125 110.351562 132.03125 Z M 110.351562 132.03125 "
        fill-opacity="1" fill-rule="nonzero" />
    <path fill="#ffdead"
        d="M 113.058594 152.902344 C 113.058594 152.902344 115.375 154.335938 117.296875 154.210938 C 119.21875 154.085938 120.09375 153.601562 120.027344 152.535156 C 119.957031 151.46875 119.023438 151.101562 117.101562 151.226562 C 115.179688 151.347656 113.058594 152.902344 113.058594 152.902344 Z M 113.058594 152.902344 "
        fill-opacity="1" fill-rule="nonzero" />
    <path fill="#ffdead"
        d="M 144.0625 151.351562 C 144.0625 151.351562 146.667969 152.15625 148.492188 151.550781 C 150.320312 150.945312 151.046875 150.253906 150.707031 149.238281 C 150.371094 148.226562 149.375 148.105469 147.546875 148.710938 C 145.71875 149.316406 144.0625 151.351562 144.0625 151.351562 Z M 144.0625 151.351562 "
        fill-opacity="1" fill-rule="nonzero" />
    <path fill="#ffdead"
        d="M 139.839844 170.363281 C 139.839844 170.363281 140.109375 167.65625 139.144531 165.992188 C 138.183594 164.332031 137.355469 163.761719 136.429688 164.296875 C 135.5 164.832031 135.582031 165.828125 136.542969 167.492188 C 137.507812 169.152344 139.839844 170.363281 139.839844 170.363281 Z M 139.839844 170.363281 "
        fill-opacity="1" fill-rule="nonzero" />
    <path fill="#ffdead"
        d="M 187.515625 110.769531 L 183.484375 108.796875 C 183.484375 108.796875 184.636719 111.082031 185.058594 112.679688 C 185.5 114.359375 185.808594 117.511719 185.808594 117.511719 L 187.515625 117.308594 Z M 187.515625 110.769531 "
        fill-opacity="1" fill-rule="nonzero" />
    <path fill="#ffdead"
        d="M 156.097656 108.113281 L 155.007812 112.132812 L 154.597656 112.949219 L 159.445312 117.035156 C 159.445312 117.035156 157.125 114.039062 156.507812 112.609375 C 155.972656 111.359375 156.097656 108.113281 156.097656 108.113281 Z M 156.097656 108.113281 "
        fill-opacity="1" fill-rule="nonzero" />
    <path fill="#ffdead"
        d="M 186.492188 132.5625 C 186.492188 132.5625 180.800781 128.4375 178.160156 127.046875 C 174.699219 125.226562 167.847656 122.894531 167.847656 122.894531 L 175.359375 129.023438 L 186.96875 135.832031 Z M 186.492188 132.5625 "
        fill-opacity="1" fill-rule="nonzero" />
    <g fill="#000000" fill-opacity="1">
        <g transform="translate(22.838919, 292.311192)">
            <g>
                <path
                    d="M 10.046875 -46.703125 C 10.046875 -48.796875 9.796875 -50.378906 9.296875 -51.453125 C 8.804688 -52.523438 8.242188 -53.242188 7.609375 -53.609375 C 6.984375 -53.972656 6.671875 -54.101562 6.671875 -54 L 19.15625 -54 C 19.15625 -54.101562 18.835938 -53.972656 18.203125 -53.609375 C 17.578125 -53.242188 17.003906 -52.523438 16.484375 -51.453125 C 15.960938 -50.378906 15.703125 -48.796875 15.703125 -46.703125 L 15.703125 -3.140625 L 28.5625 -3.140625 C 30.914062 -3.140625 32.941406 -3.625 34.640625 -4.59375 C 36.347656 -5.5625 37.566406 -6.800781 38.296875 -8.3125 L 36.890625 0 L 6.671875 0 C 6.671875 0.15625 6.984375 0.0390625 7.609375 -0.34375 C 8.242188 -0.738281 8.804688 -1.523438 9.296875 -2.703125 C 9.796875 -3.878906 10.046875 -5.59375 10.046875 -7.84375 Z M 10.046875 -46.703125 " />
            </g>
        </g>
    </g>
    <g fill="#000000" fill-opacity="1">
        <g transform="translate(62.550075, 292.311192)">
            <g>
                <path
                    d="M 16.5625 -20.953125 L 11.53125 -8.46875 C 10.75 -6.539062 10.359375 -4.945312 10.359375 -3.6875 C 10.359375 -1.957031 11.144531 -0.726562 12.71875 0 L 1.484375 0 C 2.015625 0 2.773438 -0.519531 3.765625 -1.5625 C 4.765625 -2.613281 5.914062 -4.679688 7.21875 -7.765625 L 27.703125 -56.515625 L 48.03125 -7.53125 C 49.1875 -4.707031 50.300781 -2.769531 51.375 -1.71875 C 52.445312 -0.675781 53.296875 -0.101562 53.921875 0 L 40.890625 0 C 42.203125 -0.625 42.859375 -1.59375 42.859375 -2.90625 C 42.859375 -4 42.4375 -5.566406 41.59375 -7.609375 L 36.109375 -20.953125 Z M 34.84375 -24.171875 L 26.296875 -45.125 L 17.890625 -24.171875 Z M 34.84375 -24.171875 " />
            </g>
        </g>
    </g>
    <g fill="#ffe1b5" fill-opacity="1">
        <g transform="translate(26.113955, 290.987983)">
            <g>
                <path
                    d="M 10.046875 -46.703125 C 10.046875 -48.796875 9.796875 -50.378906 9.296875 -51.453125 C 8.804688 -52.523438 8.242188 -53.242188 7.609375 -53.609375 C 6.984375 -53.972656 6.671875 -54.101562 6.671875 -54 L 19.15625 -54 C 19.15625 -54.101562 18.835938 -53.972656 18.203125 -53.609375 C 17.578125 -53.242188 17.003906 -52.523438 16.484375 -51.453125 C 15.960938 -50.378906 15.703125 -48.796875 15.703125 -46.703125 L 15.703125 -3.140625 L 28.5625 -3.140625 C 30.914062 -3.140625 32.941406 -3.625 34.640625 -4.59375 C 36.347656 -5.5625 37.566406 -6.800781 38.296875 -8.3125 L 36.890625 0 L 6.671875 0 C 6.671875 0.15625 6.984375 0.0390625 7.609375 -0.34375 C 8.242188 -0.738281 8.804688 -1.523438 9.296875 -2.703125 C 9.796875 -3.878906 10.046875 -5.59375 10.046875 -7.84375 Z M 10.046875 -46.703125 " />
            </g>
        </g>
    </g>
    <g fill="#ffe1b5" fill-opacity="1">
        <g transform="translate(65.825112, 290.987983)">
            <g>
                <path
                    d="M 16.5625 -20.953125 L 11.53125 -8.46875 C 10.75 -6.539062 10.359375 -4.945312 10.359375 -3.6875 C 10.359375 -1.957031 11.144531 -0.726562 12.71875 0 L 1.484375 0 C 2.015625 0 2.773438 -0.519531 3.765625 -1.5625 C 4.765625 -2.613281 5.914062 -4.679688 7.21875 -7.765625 L 27.703125 -56.515625 L 48.03125 -7.53125 C 49.1875 -4.707031 50.300781 -2.769531 51.375 -1.71875 C 52.445312 -0.675781 53.296875 -0.101562 53.921875 0 L 40.890625 0 C 42.203125 -0.625 42.859375 -1.59375 42.859375 -2.90625 C 42.859375 -4 42.4375 -5.566406 41.59375 -7.609375 L 36.109375 -20.953125 Z M 34.84375 -24.171875 L 26.296875 -45.125 L 17.890625 -24.171875 Z M 34.84375 -24.171875 " />
            </g>
        </g>
    </g>
    <g fill="#000000" fill-opacity="1">
        <g transform="translate(116.542037, 292.311192)">
            <g />
        </g>
    </g>
    <g fill="#ffe1b5" fill-opacity="1">
        <g transform="translate(119.817074, 290.987983)">
            <g />
        </g>
    </g>
    <g fill="#000000" fill-opacity="1">
        <g transform="translate(105.701965, 290.79852)">
            <g>
                <path
                    d="M 49.445312 0 L 66.480469 -40.5 C 68.992188 -46.230469 67.65625 -52.429688 61.613281 -54.785156 C 55.253906 -57.296875 48.742188 -53.605469 45.679688 -45.914062 L 40.890625 -34.847656 L 32.335938 -55.492188 L 25.742188 -55.492188 L 37.59375 -27 L 29.589844 -7.847656 L 9.574219 -55.492188 L 2.746094 -55.492188 L 26.214844 0 L 26.921875 0 L 37.832031 -26.292969 L 48.898438 0 Z M 41.363281 -33.984375 L 46.230469 -45.914062 C 48.898438 -52.117188 54.628906 -56.824219 61.457031 -54.3125 C 67.265625 -52.039062 68.285156 -45.914062 66.085938 -40.5 L 52.273438 -7.847656 Z M 41.363281 -33.984375 " />
            </g>
        </g>
    </g>
    <g fill="#ffdead" fill-opacity="1">
        <g transform="translate(108.977005, 289.475314)">
            <g>
                <path
                    d="M 49.445312 0 L 66.480469 -40.5 C 68.992188 -46.230469 67.65625 -52.429688 61.613281 -54.785156 C 55.253906 -57.296875 48.742188 -53.605469 45.679688 -45.914062 L 40.890625 -34.847656 L 32.335938 -55.492188 L 25.742188 -55.492188 L 37.59375 -27 L 29.589844 -7.847656 L 9.574219 -55.492188 L 2.746094 -55.492188 L 26.214844 0 L 26.921875 0 L 37.832031 -26.292969 L 48.898438 0 Z M 41.363281 -33.984375 L 46.230469 -45.914062 C 48.898438 -52.117188 54.628906 -56.824219 61.457031 -54.3125 C 67.265625 -52.039062 68.285156 -45.914062 66.085938 -40.5 L 52.273438 -7.847656 Z M 41.363281 -33.984375 " />
            </g>
        </g>
    </g>
    <g fill="#000000" fill-opacity="1">
        <g transform="translate(171.011478, 292.311192)">
            <g>
                <path
                    d="M 20.953125 0.9375 C 18.234375 0.9375 15.617188 0.5625 13.109375 -0.1875 C 10.597656 -0.945312 8.347656 -2.007812 6.359375 -3.375 L 6.359375 -12.875 C 7.710938 -9.363281 9.789062 -6.707031 12.59375 -4.90625 C 15.394531 -3.101562 18.3125 -2.203125 21.34375 -2.203125 C 24.382812 -2.203125 26.921875 -3.207031 28.953125 -5.21875 C 30.992188 -7.226562 32.015625 -9.726562 32.015625 -12.71875 C 32.015625 -14.707031 31.609375 -16.40625 30.796875 -17.8125 C 29.992188 -19.226562 28.703125 -20.550781 26.921875 -21.78125 C 25.140625 -23.007812 22.628906 -24.382812 19.390625 -25.90625 C 14.835938 -28 11.523438 -30.179688 9.453125 -32.453125 C 7.390625 -34.734375 6.359375 -37.492188 6.359375 -40.734375 C 6.359375 -43.503906 7.023438 -45.972656 8.359375 -48.140625 C 9.691406 -50.316406 11.492188 -51.992188 13.765625 -53.171875 C 16.046875 -54.347656 18.546875 -54.9375 21.265625 -54.9375 C 23.617188 -54.9375 25.921875 -54.609375 28.171875 -53.953125 C 30.421875 -53.304688 32.515625 -52.378906 34.453125 -51.171875 L 34.453125 -42.703125 C 33.203125 -45.578125 31.304688 -47.8125 28.765625 -49.40625 C 26.222656 -51 23.644531 -51.796875 21.03125 -51.796875 C 18.050781 -51.796875 15.644531 -50.828125 13.8125 -48.890625 C 11.976562 -46.953125 11.0625 -44.648438 11.0625 -41.984375 C 11.0625 -40.046875 11.609375 -38.382812 12.703125 -37 C 13.804688 -35.613281 15.15625 -34.445312 16.75 -33.5 C 18.351562 -32.5625 20.59375 -31.414062 23.46875 -30.0625 C 26.394531 -28.644531 28.800781 -27.332031 30.6875 -26.125 C 32.570312 -24.925781 34.140625 -23.359375 35.390625 -21.421875 C 36.648438 -19.484375 37.28125 -17.128906 37.28125 -14.359375 C 37.28125 -11.222656 36.535156 -8.503906 35.046875 -6.203125 C 33.554688 -3.898438 31.566406 -2.132812 29.078125 -0.90625 C 26.585938 0.320312 23.878906 0.9375 20.953125 0.9375 Z M 20.953125 0.9375 " />
            </g>
        </g>
    </g>
    <g fill="#000000" fill-opacity="1">
        <g transform="translate(212.449204, 292.311192)">
            <g>
                <path
                    d="M 5.015625 -26.375 C 5.015625 -31.914062 6.207031 -36.859375 8.59375 -41.203125 C 10.976562 -45.546875 14.328125 -48.921875 18.640625 -51.328125 C 22.953125 -53.734375 27.9375 -54.9375 33.59375 -54.9375 C 38.300781 -54.9375 42.707031 -53.898438 46.8125 -51.828125 C 50.925781 -49.765625 54.222656 -46.664062 56.703125 -42.53125 C 59.191406 -38.40625 60.4375 -33.4375 60.4375 -27.625 C 60.4375 -22.082031 59.242188 -17.140625 56.859375 -12.796875 C 54.484375 -8.453125 51.132812 -5.078125 46.8125 -2.671875 C 42.5 -0.265625 37.515625 0.9375 31.859375 0.9375 C 27.148438 0.9375 22.742188 -0.09375 18.640625 -2.15625 C 14.535156 -4.226562 11.238281 -7.328125 8.75 -11.453125 C 6.257812 -15.585938 5.015625 -20.5625 5.015625 -26.375 Z M 54.15625 -26.453125 C 54.15625 -31.210938 53.171875 -35.515625 51.203125 -39.359375 C 49.242188 -43.203125 46.550781 -46.207031 43.125 -48.375 C 39.695312 -50.550781 35.835938 -51.640625 31.546875 -51.640625 C 27.628906 -51.640625 24.140625 -50.644531 21.078125 -48.65625 C 18.015625 -46.664062 15.617188 -43.851562 13.890625 -40.21875 C 12.160156 -36.582031 11.296875 -32.359375 11.296875 -27.546875 C 11.296875 -22.785156 12.273438 -18.484375 14.234375 -14.640625 C 16.203125 -10.796875 18.898438 -7.785156 22.328125 -5.609375 C 25.753906 -3.441406 29.613281 -2.359375 33.90625 -2.359375 C 37.832031 -2.359375 41.320312 -3.347656 44.375 -5.328125 C 47.4375 -7.316406 49.832031 -10.128906 51.5625 -13.765625 C 53.289062 -17.410156 54.15625 -21.640625 54.15625 -26.453125 Z M 54.15625 -26.453125 " />
            </g>
        </g>
    </g>
    <g fill="#000000" fill-opacity="1">
        <g transform="translate(276.646286, 292.311192)">
            <g>
                <path
                    d="M 57.21875 -54 C 56.476562 -53.84375 55.753906 -53.253906 55.046875 -52.234375 C 54.347656 -51.210938 54 -49.421875 54 -46.859375 L 54 2.203125 L 13.8125 -44.65625 L 13.8125 -7.0625 C 13.8125 -4.550781 14.253906 -2.785156 15.140625 -1.765625 C 16.035156 -0.742188 16.898438 -0.15625 17.734375 0 L 6.671875 0 C 7.398438 -0.15625 8.144531 -0.742188 8.90625 -1.765625 C 9.664062 -2.785156 10.046875 -4.578125 10.046875 -7.140625 L 10.046875 -46.390625 C 10.046875 -48.160156 9.441406 -49.78125 8.234375 -51.25 C 7.035156 -52.71875 5.519531 -53.632812 3.6875 -54 L 13.421875 -54 L 50.234375 -11.0625 L 50.234375 -46.859375 C 50.234375 -50.878906 48.875 -53.257812 46.15625 -54 Z M 57.21875 -54 " />
            </g>
        </g>
    </g>
    <g fill="#ffe1b5" fill-opacity="1">
        <g transform="translate(174.286518, 290.987983)">
            <g>
                <path
                    d="M 20.953125 0.9375 C 18.234375 0.9375 15.617188 0.5625 13.109375 -0.1875 C 10.597656 -0.945312 8.347656 -2.007812 6.359375 -3.375 L 6.359375 -12.875 C 7.710938 -9.363281 9.789062 -6.707031 12.59375 -4.90625 C 15.394531 -3.101562 18.3125 -2.203125 21.34375 -2.203125 C 24.382812 -2.203125 26.921875 -3.207031 28.953125 -5.21875 C 30.992188 -7.226562 32.015625 -9.726562 32.015625 -12.71875 C 32.015625 -14.707031 31.609375 -16.40625 30.796875 -17.8125 C 29.992188 -19.226562 28.703125 -20.550781 26.921875 -21.78125 C 25.140625 -23.007812 22.628906 -24.382812 19.390625 -25.90625 C 14.835938 -28 11.523438 -30.179688 9.453125 -32.453125 C 7.390625 -34.734375 6.359375 -37.492188 6.359375 -40.734375 C 6.359375 -43.503906 7.023438 -45.972656 8.359375 -48.140625 C 9.691406 -50.316406 11.492188 -51.992188 13.765625 -53.171875 C 16.046875 -54.347656 18.546875 -54.9375 21.265625 -54.9375 C 23.617188 -54.9375 25.921875 -54.609375 28.171875 -53.953125 C 30.421875 -53.304688 32.515625 -52.378906 34.453125 -51.171875 L 34.453125 -42.703125 C 33.203125 -45.578125 31.304688 -47.8125 28.765625 -49.40625 C 26.222656 -51 23.644531 -51.796875 21.03125 -51.796875 C 18.050781 -51.796875 15.644531 -50.828125 13.8125 -48.890625 C 11.976562 -46.953125 11.0625 -44.648438 11.0625 -41.984375 C 11.0625 -40.046875 11.609375 -38.382812 12.703125 -37 C 13.804688 -35.613281 15.15625 -34.445312 16.75 -33.5 C 18.351562 -32.5625 20.59375 -31.414062 23.46875 -30.0625 C 26.394531 -28.644531 28.800781 -27.332031 30.6875 -26.125 C 32.570312 -24.925781 34.140625 -23.359375 35.390625 -21.421875 C 36.648438 -19.484375 37.28125 -17.128906 37.28125 -14.359375 C 37.28125 -11.222656 36.535156 -8.503906 35.046875 -6.203125 C 33.554688 -3.898438 31.566406 -2.132812 29.078125 -0.90625 C 26.585938 0.320312 23.878906 0.9375 20.953125 0.9375 Z M 20.953125 0.9375 " />
            </g>
        </g>
    </g>
    <g fill="#ffe1b5" fill-opacity="1">
        <g transform="translate(215.724244, 290.987983)">
            <g>
                <path
                    d="M 5.015625 -26.375 C 5.015625 -31.914062 6.207031 -36.859375 8.59375 -41.203125 C 10.976562 -45.546875 14.328125 -48.921875 18.640625 -51.328125 C 22.953125 -53.734375 27.9375 -54.9375 33.59375 -54.9375 C 38.300781 -54.9375 42.707031 -53.898438 46.8125 -51.828125 C 50.925781 -49.765625 54.222656 -46.664062 56.703125 -42.53125 C 59.191406 -38.40625 60.4375 -33.4375 60.4375 -27.625 C 60.4375 -22.082031 59.242188 -17.140625 56.859375 -12.796875 C 54.484375 -8.453125 51.132812 -5.078125 46.8125 -2.671875 C 42.5 -0.265625 37.515625 0.9375 31.859375 0.9375 C 27.148438 0.9375 22.742188 -0.09375 18.640625 -2.15625 C 14.535156 -4.226562 11.238281 -7.328125 8.75 -11.453125 C 6.257812 -15.585938 5.015625 -20.5625 5.015625 -26.375 Z M 54.15625 -26.453125 C 54.15625 -31.210938 53.171875 -35.515625 51.203125 -39.359375 C 49.242188 -43.203125 46.550781 -46.207031 43.125 -48.375 C 39.695312 -50.550781 35.835938 -51.640625 31.546875 -51.640625 C 27.628906 -51.640625 24.140625 -50.644531 21.078125 -48.65625 C 18.015625 -46.664062 15.617188 -43.851562 13.890625 -40.21875 C 12.160156 -36.582031 11.296875 -32.359375 11.296875 -27.546875 C 11.296875 -22.785156 12.273438 -18.484375 14.234375 -14.640625 C 16.203125 -10.796875 18.898438 -7.785156 22.328125 -5.609375 C 25.753906 -3.441406 29.613281 -2.359375 33.90625 -2.359375 C 37.832031 -2.359375 41.320312 -3.347656 44.375 -5.328125 C 47.4375 -7.316406 49.832031 -10.128906 51.5625 -13.765625 C 53.289062 -17.410156 54.15625 -21.640625 54.15625 -26.453125 Z M 54.15625 -26.453125 " />
            </g>
        </g>
    </g>
    <g fill="#ffe1b5" fill-opacity="1">
        <g transform="translate(279.921326, 290.987983)">
            <g>
                <path
                    d="M 57.21875 -54 C 56.476562 -53.84375 55.753906 -53.253906 55.046875 -52.234375 C 54.347656 -51.210938 54 -49.421875 54 -46.859375 L 54 2.203125 L 13.8125 -44.65625 L 13.8125 -7.0625 C 13.8125 -4.550781 14.253906 -2.785156 15.140625 -1.765625 C 16.035156 -0.742188 16.898438 -0.15625 17.734375 0 L 6.671875 0 C 7.398438 -0.15625 8.144531 -0.742188 8.90625 -1.765625 C 9.664062 -2.785156 10.046875 -4.578125 10.046875 -7.140625 L 10.046875 -46.390625 C 10.046875 -48.160156 9.441406 -49.78125 8.234375 -51.25 C 7.035156 -52.71875 5.519531 -53.632812 3.6875 -54 L 13.421875 -54 L 50.234375 -11.0625 L 50.234375 -46.859375 C 50.234375 -50.878906 48.875 -53.257812 46.15625 -54 Z M 57.21875 -54 " />
            </g>
        </g>
    </g>
    <g fill="#000000" fill-opacity="1">
        <g transform="translate(36.417552, 323.5653)">
            <g>
                <path
                    d="M 22.34375 -15.6875 C 22.5625 -16.320312 22.671875 -16.816406 22.671875 -17.171875 C 22.671875 -17.898438 22.347656 -18.289062 21.703125 -18.34375 L 25.84375 -18.34375 C 25.570312 -18.289062 25.226562 -18.085938 24.8125 -17.734375 C 24.394531 -17.378906 24.007812 -16.6875 23.65625 -15.65625 L 17.890625 0.640625 L 12.75 -14.140625 L 7.4375 0.640625 L 2.1875 -15.734375 C 1.726562 -17.234375 1.050781 -18.101562 0.15625 -18.34375 L 4.59375 -18.34375 C 4.09375 -18.257812 3.84375 -17.96875 3.84375 -17.46875 C 3.84375 -17.21875 3.945312 -16.773438 4.15625 -16.140625 L 4.453125 -15.203125 L 7.8125 -4.078125 L 13.234375 -18.859375 L 18.375 -4.1875 Z M 22.34375 -15.6875 " />
            </g>
        </g>
    </g>
    <g fill="#000000" fill-opacity="1">
        <g transform="translate(65.398637, 323.5653)">
            <g>
                <path
                    d="M 2.265625 0 C 2.265625 0.0507812 2.367188 0.015625 2.578125 -0.109375 C 2.796875 -0.242188 2.988281 -0.507812 3.15625 -0.90625 C 3.320312 -1.3125 3.40625 -1.898438 3.40625 -2.671875 L 3.40625 -15.765625 C 3.40625 -16.492188 3.320312 -17.046875 3.15625 -17.421875 C 2.988281 -17.804688 2.796875 -18.070312 2.578125 -18.21875 C 2.367188 -18.363281 2.265625 -18.40625 2.265625 -18.34375 L 11.921875 -18.34375 L 11.921875 -15.6875 C 11.597656 -16.75 10.640625 -17.28125 9.046875 -17.28125 L 5.328125 -17.28125 L 5.328125 -9.703125 L 9.921875 -9.703125 C 10.273438 -9.703125 10.578125 -9.757812 10.828125 -9.875 C 11.078125 -10 11.265625 -10.117188 11.390625 -10.234375 C 11.515625 -10.359375 11.585938 -10.441406 11.609375 -10.484375 L 11.609375 -7.890625 C 11.585938 -7.929688 11.515625 -8.015625 11.390625 -8.140625 C 11.265625 -8.265625 11.082031 -8.378906 10.84375 -8.484375 C 10.601562 -8.585938 10.304688 -8.640625 9.953125 -8.640625 L 5.328125 -8.640625 L 5.328125 -1.0625 L 9.5 -1.0625 C 10.300781 -1.0625 10.988281 -1.222656 11.5625 -1.546875 C 12.132812 -1.878906 12.546875 -2.304688 12.796875 -2.828125 L 12.328125 0 Z M 2.265625 0 " />
            </g>
        </g>
    </g>
    <g fill="#000000" fill-opacity="1">
        <g transform="translate(82.862572, 323.5653)">
            <g>
                <path
                    d="M 10.71875 -0.453125 C 10.257812 -0.296875 9.726562 -0.179688 9.125 -0.109375 C 8.53125 -0.0351562 7.710938 0 6.671875 0 L 2.265625 0 C 2.492188 -0.0507812 2.738281 -0.25 3 -0.59375 C 3.269531 -0.945312 3.40625 -1.617188 3.40625 -2.609375 L 3.40625 -15.8125 C 3.40625 -16.738281 3.28125 -17.375 3.03125 -17.71875 C 2.789062 -18.070312 2.546875 -18.28125 2.296875 -18.34375 L 6.671875 -18.34375 C 7.804688 -18.34375 8.671875 -18.296875 9.265625 -18.203125 C 9.859375 -18.109375 10.378906 -17.960938 10.828125 -17.765625 C 11.609375 -17.390625 12.210938 -16.863281 12.640625 -16.1875 C 13.066406 -15.507812 13.28125 -14.78125 13.28125 -14 C 13.28125 -12.8125 12.921875 -11.785156 12.203125 -10.921875 C 11.484375 -10.054688 10.535156 -9.5 9.359375 -9.25 C 10.160156 -9.164062 10.921875 -8.9375 11.640625 -8.5625 C 12.359375 -8.1875 12.941406 -7.675781 13.390625 -7.03125 C 13.847656 -6.394531 14.078125 -5.671875 14.078125 -4.859375 C 14.078125 -3.710938 13.773438 -2.78125 13.171875 -2.0625 C 12.566406 -1.34375 11.75 -0.804688 10.71875 -0.453125 Z M 9.96875 -16.484375 C 9.613281 -16.753906 9.234375 -16.953125 8.828125 -17.078125 C 8.421875 -17.210938 7.867188 -17.28125 7.171875 -17.28125 L 5.328125 -17.28125 L 5.328125 -9.703125 L 7.5 -9.703125 C 8.132812 -9.703125 8.664062 -9.800781 9.09375 -10 C 9.519531 -10.195312 9.894531 -10.457031 10.21875 -10.78125 C 10.550781 -11.113281 10.816406 -11.519531 11.015625 -12 C 11.210938 -12.476562 11.3125 -12.96875 11.3125 -13.46875 C 11.3125 -14.070312 11.195312 -14.640625 10.96875 -15.171875 C 10.75 -15.703125 10.414062 -16.140625 9.96875 -16.484375 Z M 10.53125 -7.875 C 10.195312 -8.132812 9.78125 -8.328125 9.28125 -8.453125 C 8.78125 -8.578125 8.101562 -8.640625 7.25 -8.640625 L 5.328125 -8.640625 L 5.328125 -1.0625 L 7.875 -1.0625 C 9.144531 -1.0625 10.140625 -1.363281 10.859375 -1.96875 C 11.585938 -2.570312 11.953125 -3.535156 11.953125 -4.859375 C 11.953125 -6.078125 11.476562 -7.082031 10.53125 -7.875 Z M 10.53125 -7.875 " />
            </g>
        </g>
    </g>
    <g fill="#000000" fill-opacity="1">
        <g transform="translate(102.032752, 323.5653)">
            <g />
        </g>
    </g>
    <g fill="#000000" fill-opacity="1">
        <g transform="translate(112.245139, 323.5653)">
            <g>
                <path
                    d="M 14.21875 -1.5 C 12.539062 -0.5 10.304688 0 7.515625 0 L 2.265625 0 C 2.265625 0.0507812 2.367188 0.00390625 2.578125 -0.140625 C 2.796875 -0.296875 2.988281 -0.578125 3.15625 -0.984375 C 3.320312 -1.390625 3.40625 -1.988281 3.40625 -2.78125 L 3.40625 -15.890625 C 3.40625 -16.585938 3.320312 -17.117188 3.15625 -17.484375 C 2.988281 -17.847656 2.796875 -18.09375 2.578125 -18.21875 C 2.367188 -18.34375 2.265625 -18.382812 2.265625 -18.34375 L 7.5 -18.34375 C 10.21875 -18.34375 12.367188 -17.898438 13.953125 -17.015625 C 15.359375 -16.234375 16.441406 -15.175781 17.203125 -13.84375 C 17.960938 -12.507812 18.34375 -11.003906 18.34375 -9.328125 C 18.34375 -7.515625 17.984375 -5.945312 17.265625 -4.625 C 16.546875 -3.300781 15.53125 -2.257812 14.21875 -1.5 Z M 13.171875 -15.8125 C 12.390625 -16.332031 11.550781 -16.707031 10.65625 -16.9375 C 9.769531 -17.164062 8.71875 -17.28125 7.5 -17.28125 L 5.328125 -17.28125 L 5.328125 -1.0625 L 7.5 -1.0625 C 8.957031 -1.0625 10.148438 -1.1875 11.078125 -1.4375 C 12.015625 -1.6875 12.820312 -2.070312 13.5 -2.59375 C 14.363281 -3.257812 15.03125 -4.140625 15.5 -5.234375 C 15.976562 -6.328125 16.21875 -7.601562 16.21875 -9.0625 C 16.21875 -10.613281 15.945312 -11.972656 15.40625 -13.140625 C 14.863281 -14.304688 14.117188 -15.195312 13.171875 -15.8125 Z M 13.171875 -15.8125 " />
            </g>
        </g>
    </g>
    <g fill="#000000" fill-opacity="1">
        <g transform="translate(135.467648, 323.5653)">
            <g>
                <path
                    d="M 2.265625 0 C 2.265625 0.0507812 2.367188 0.015625 2.578125 -0.109375 C 2.796875 -0.242188 2.988281 -0.507812 3.15625 -0.90625 C 3.320312 -1.3125 3.40625 -1.898438 3.40625 -2.671875 L 3.40625 -15.765625 C 3.40625 -16.492188 3.320312 -17.046875 3.15625 -17.421875 C 2.988281 -17.804688 2.796875 -18.070312 2.578125 -18.21875 C 2.367188 -18.363281 2.265625 -18.40625 2.265625 -18.34375 L 11.921875 -18.34375 L 11.921875 -15.6875 C 11.597656 -16.75 10.640625 -17.28125 9.046875 -17.28125 L 5.328125 -17.28125 L 5.328125 -9.703125 L 9.921875 -9.703125 C 10.273438 -9.703125 10.578125 -9.757812 10.828125 -9.875 C 11.078125 -10 11.265625 -10.117188 11.390625 -10.234375 C 11.515625 -10.359375 11.585938 -10.441406 11.609375 -10.484375 L 11.609375 -7.890625 C 11.585938 -7.929688 11.515625 -8.015625 11.390625 -8.140625 C 11.265625 -8.265625 11.082031 -8.378906 10.84375 -8.484375 C 10.601562 -8.585938 10.304688 -8.640625 9.953125 -8.640625 L 5.328125 -8.640625 L 5.328125 -1.0625 L 9.5 -1.0625 C 10.300781 -1.0625 10.988281 -1.222656 11.5625 -1.546875 C 12.132812 -1.878906 12.546875 -2.304688 12.796875 -2.828125 L 12.328125 0 Z M 2.265625 0 " />
            </g>
        </g>
    </g>
    <g fill="#000000" fill-opacity="1">
        <g transform="translate(152.931583, 323.5653)">
            <g>
                <path
                    d="M 14.25 -16.9375 C 14.25 -17.289062 14.148438 -17.597656 13.953125 -17.859375 C 13.753906 -18.117188 13.453125 -18.28125 13.046875 -18.34375 L 17.515625 -18.34375 C 17.285156 -18.3125 16.972656 -18.109375 16.578125 -17.734375 C 16.191406 -17.359375 15.785156 -16.664062 15.359375 -15.65625 L 8.609375 0.640625 L 1.765625 -15.734375 C 1.367188 -16.679688 0.976562 -17.335938 0.59375 -17.703125 C 0.21875 -18.066406 -0.09375 -18.28125 -0.34375 -18.34375 L 4.109375 -18.34375 C 3.628906 -18.21875 3.390625 -17.910156 3.390625 -17.421875 C 3.390625 -17.148438 3.453125 -16.863281 3.578125 -16.5625 C 3.703125 -16.257812 3.769531 -16.082031 3.78125 -16.03125 L 8.96875 -3.359375 L 13.96875 -15.6875 C 14.15625 -16.09375 14.25 -16.507812 14.25 -16.9375 Z M 14.25 -16.9375 " />
            </g>
        </g>
    </g>
    <g fill="#000000" fill-opacity="1">
        <g transform="translate(173.061522, 323.5653)">
            <g>
                <path
                    d="M 2.265625 0 C 2.265625 0.0507812 2.367188 0.015625 2.578125 -0.109375 C 2.796875 -0.242188 2.988281 -0.507812 3.15625 -0.90625 C 3.320312 -1.3125 3.40625 -1.898438 3.40625 -2.671875 L 3.40625 -15.765625 C 3.40625 -16.492188 3.320312 -17.046875 3.15625 -17.421875 C 2.988281 -17.804688 2.796875 -18.070312 2.578125 -18.21875 C 2.367188 -18.363281 2.265625 -18.40625 2.265625 -18.34375 L 11.921875 -18.34375 L 11.921875 -15.6875 C 11.597656 -16.75 10.640625 -17.28125 9.046875 -17.28125 L 5.328125 -17.28125 L 5.328125 -9.703125 L 9.921875 -9.703125 C 10.273438 -9.703125 10.578125 -9.757812 10.828125 -9.875 C 11.078125 -10 11.265625 -10.117188 11.390625 -10.234375 C 11.515625 -10.359375 11.585938 -10.441406 11.609375 -10.484375 L 11.609375 -7.890625 C 11.585938 -7.929688 11.515625 -8.015625 11.390625 -8.140625 C 11.265625 -8.265625 11.082031 -8.378906 10.84375 -8.484375 C 10.601562 -8.585938 10.304688 -8.640625 9.953125 -8.640625 L 5.328125 -8.640625 L 5.328125 -1.0625 L 9.5 -1.0625 C 10.300781 -1.0625 10.988281 -1.222656 11.5625 -1.546875 C 12.132812 -1.878906 12.546875 -2.304688 12.796875 -2.828125 L 12.328125 0 Z M 2.265625 0 " />
            </g>
        </g>
    </g>
    <g fill="#000000" fill-opacity="1">
        <g transform="translate(190.525456, 323.5653)">
            <g>
                <path
                    d="M 3.40625 -15.875 C 3.40625 -16.582031 3.320312 -17.117188 3.15625 -17.484375 C 2.988281 -17.847656 2.796875 -18.09375 2.578125 -18.21875 C 2.367188 -18.34375 2.265625 -18.382812 2.265625 -18.34375 L 6.515625 -18.34375 C 6.515625 -18.382812 6.40625 -18.34375 6.1875 -18.21875 C 5.976562 -18.09375 5.78125 -17.847656 5.59375 -17.484375 C 5.414062 -17.117188 5.328125 -16.582031 5.328125 -15.875 L 5.328125 -1.0625 L 9.703125 -1.0625 C 10.503906 -1.0625 11.191406 -1.222656 11.765625 -1.546875 C 12.347656 -1.878906 12.765625 -2.304688 13.015625 -2.828125 L 12.53125 0 L 2.265625 0 C 2.265625 0.0507812 2.367188 0.015625 2.578125 -0.109375 C 2.796875 -0.242188 2.988281 -0.507812 3.15625 -0.90625 C 3.320312 -1.3125 3.40625 -1.898438 3.40625 -2.671875 Z M 3.40625 -15.875 " />
            </g>
        </g>
    </g>
    <g fill="#000000" fill-opacity="1">
        <g transform="translate(207.402858, 323.5653)">
            <g>
                <path
                    d="M 1.703125 -8.96875 C 1.703125 -10.84375 2.109375 -12.519531 2.921875 -14 C 3.734375 -15.476562 4.867188 -16.625 6.328125 -17.4375 C 7.796875 -18.257812 9.492188 -18.671875 11.421875 -18.671875 C 13.015625 -18.671875 14.507812 -18.316406 15.90625 -17.609375 C 17.300781 -16.910156 18.421875 -15.859375 19.265625 -14.453125 C 20.109375 -13.046875 20.53125 -11.359375 20.53125 -9.390625 C 20.53125 -7.503906 20.125 -5.820312 19.3125 -4.34375 C 18.507812 -2.875 17.375 -1.726562 15.90625 -0.90625 C 14.4375 -0.09375 12.742188 0.3125 10.828125 0.3125 C 9.222656 0.3125 7.722656 -0.0351562 6.328125 -0.734375 C 4.929688 -1.429688 3.8125 -2.484375 2.96875 -3.890625 C 2.125 -5.296875 1.703125 -6.988281 1.703125 -8.96875 Z M 18.40625 -8.984375 C 18.40625 -10.609375 18.070312 -12.070312 17.40625 -13.375 C 16.738281 -14.6875 15.820312 -15.707031 14.65625 -16.4375 C 13.488281 -17.175781 12.175781 -17.546875 10.71875 -17.546875 C 9.382812 -17.546875 8.195312 -17.207031 7.15625 -16.53125 C 6.113281 -15.851562 5.300781 -14.894531 4.71875 -13.65625 C 4.132812 -12.425781 3.84375 -10.992188 3.84375 -9.359375 C 3.84375 -7.742188 4.175781 -6.28125 4.84375 -4.96875 C 5.507812 -3.664062 6.421875 -2.644531 7.578125 -1.90625 C 8.742188 -1.164062 10.054688 -0.796875 11.515625 -0.796875 C 12.847656 -0.796875 14.035156 -1.132812 15.078125 -1.8125 C 16.117188 -2.488281 16.929688 -3.441406 17.515625 -4.671875 C 18.109375 -5.910156 18.40625 -7.347656 18.40625 -8.984375 Z M 18.40625 -8.984375 " />
            </g>
        </g>
    </g>
    <g fill="#000000" fill-opacity="1">
        <g transform="translate(232.598204, 323.5653)">
            <g>
                <path
                    d="M 13.765625 -13.390625 C 13.765625 -12.359375 13.519531 -11.4375 13.03125 -10.625 C 12.539062 -9.820312 11.84375 -9.1875 10.9375 -8.71875 C 10.03125 -8.257812 8.960938 -8.03125 7.734375 -8.03125 C 6.984375 -8.03125 6.179688 -8.109375 5.328125 -8.265625 L 5.328125 -2.453125 C 5.328125 -1.753906 5.414062 -1.222656 5.59375 -0.859375 C 5.78125 -0.492188 5.976562 -0.25 6.1875 -0.125 C 6.40625 -0.0078125 6.515625 0.03125 6.515625 0 L 2.265625 0 C 2.265625 0.03125 2.367188 -0.0078125 2.578125 -0.125 C 2.796875 -0.25 2.988281 -0.488281 3.15625 -0.84375 C 3.320312 -1.207031 3.40625 -1.742188 3.40625 -2.453125 L 3.40625 -15.8125 C 3.40625 -16.53125 3.320312 -17.070312 3.15625 -17.4375 C 2.988281 -17.8125 2.796875 -18.066406 2.578125 -18.203125 C 2.367188 -18.335938 2.265625 -18.382812 2.265625 -18.34375 L 7.5 -18.34375 C 8.40625 -18.34375 9.148438 -18.285156 9.734375 -18.171875 C 10.316406 -18.054688 10.832031 -17.882812 11.28125 -17.65625 C 12.082031 -17.25 12.695312 -16.65625 13.125 -15.875 C 13.550781 -15.101562 13.765625 -14.273438 13.765625 -13.390625 Z M 11.703125 -13.046875 C 11.703125 -14.304688 11.3125 -15.328125 10.53125 -16.109375 C 9.75 -16.890625 8.710938 -17.28125 7.421875 -17.28125 L 5.328125 -17.28125 L 5.328125 -9.3125 C 6.097656 -9.164062 6.898438 -9.09375 7.734375 -9.09375 C 8.984375 -9.09375 9.957031 -9.453125 10.65625 -10.171875 C 11.351562 -10.890625 11.703125 -11.847656 11.703125 -13.046875 Z M 11.703125 -13.046875 " />
            </g>
        </g>
    </g>
    <g fill="#000000" fill-opacity="1">
        <g transform="translate(250.595319, 323.5653)">
            <g>
                <path
                    d="M 17.703125 0 C 17.921875 -0.03125 18.15625 -0.21875 18.40625 -0.5625 C 18.65625 -0.914062 18.78125 -1.5625 18.78125 -2.5 L 18.78125 -15.84375 L 11.78125 0.296875 L 4.6875 -15.8125 L 4.6875 -2.640625 C 4.6875 -1.679688 4.84375 -1.007812 5.15625 -0.625 C 5.46875 -0.238281 5.75 -0.03125 6 0 L 2.046875 0 C 2.316406 -0.03125 2.609375 -0.226562 2.921875 -0.59375 C 3.242188 -0.957031 3.40625 -1.640625 3.40625 -2.640625 L 3.40625 -16 C 3.40625 -16.851562 3.253906 -17.441406 2.953125 -17.765625 C 2.648438 -18.085938 2.347656 -18.28125 2.046875 -18.34375 L 5.65625 -18.34375 L 12.1875 -3.4375 L 18.609375 -18.34375 L 21.84375 -18.34375 C 21.613281 -18.3125 21.363281 -18.125 21.09375 -17.78125 C 20.832031 -17.445312 20.703125 -16.828125 20.703125 -15.921875 L 20.703125 -2.40625 C 20.703125 -1.507812 20.832031 -0.890625 21.09375 -0.546875 C 21.363281 -0.210938 21.613281 -0.03125 21.84375 0 Z M 17.703125 0 " />
            </g>
        </g>
    </g>
    <g fill="#000000" fill-opacity="1">
        <g transform="translate(277.656886, 323.5653)">
            <g>
                <path
                    d="M 2.265625 0 C 2.265625 0.0507812 2.367188 0.015625 2.578125 -0.109375 C 2.796875 -0.242188 2.988281 -0.507812 3.15625 -0.90625 C 3.320312 -1.3125 3.40625 -1.898438 3.40625 -2.671875 L 3.40625 -15.765625 C 3.40625 -16.492188 3.320312 -17.046875 3.15625 -17.421875 C 2.988281 -17.804688 2.796875 -18.070312 2.578125 -18.21875 C 2.367188 -18.363281 2.265625 -18.40625 2.265625 -18.34375 L 11.921875 -18.34375 L 11.921875 -15.6875 C 11.597656 -16.75 10.640625 -17.28125 9.046875 -17.28125 L 5.328125 -17.28125 L 5.328125 -9.703125 L 9.921875 -9.703125 C 10.273438 -9.703125 10.578125 -9.757812 10.828125 -9.875 C 11.078125 -10 11.265625 -10.117188 11.390625 -10.234375 C 11.515625 -10.359375 11.585938 -10.441406 11.609375 -10.484375 L 11.609375 -7.890625 C 11.585938 -7.929688 11.515625 -8.015625 11.390625 -8.140625 C 11.265625 -8.265625 11.082031 -8.378906 10.84375 -8.484375 C 10.601562 -8.585938 10.304688 -8.640625 9.953125 -8.640625 L 5.328125 -8.640625 L 5.328125 -1.0625 L 9.5 -1.0625 C 10.300781 -1.0625 10.988281 -1.222656 11.5625 -1.546875 C 12.132812 -1.878906 12.546875 -2.304688 12.796875 -2.828125 L 12.328125 0 Z M 2.265625 0 " />
            </g>
        </g>
    </g>
    <g fill="#000000" fill-opacity="1">
        <g transform="translate(295.120821, 323.5653)">
            <g>
                <path
                    d="M 19.4375 -18.34375 C 19.195312 -18.289062 18.953125 -18.09375 18.703125 -17.75 C 18.460938 -17.40625 18.34375 -16.796875 18.34375 -15.921875 L 18.34375 0.75 L 4.6875 -15.171875 L 4.6875 -2.40625 C 4.6875 -1.550781 4.835938 -0.945312 5.140625 -0.59375 C 5.441406 -0.25 5.738281 -0.0507812 6.03125 0 L 2.265625 0 C 2.515625 -0.0507812 2.765625 -0.25 3.015625 -0.59375 C 3.273438 -0.945312 3.40625 -1.554688 3.40625 -2.421875 L 3.40625 -15.765625 C 3.40625 -16.367188 3.203125 -16.914062 2.796875 -17.40625 C 2.390625 -17.90625 1.875 -18.21875 1.25 -18.34375 L 4.5625 -18.34375 L 17.0625 -3.765625 L 17.0625 -15.921875 C 17.0625 -17.296875 16.601562 -18.101562 15.6875 -18.34375 Z M 19.4375 -18.34375 " />
            </g>
        </g>
    </g>
    <g fill="#000000" fill-opacity="1">
        <g transform="translate(319.836281, 323.5653)">
            <g>
                <path
                    d="M 3.953125 -17.28125 C 3.171875 -17.28125 2.519531 -17.128906 2 -16.828125 C 1.488281 -16.523438 1.113281 -16.144531 0.875 -15.6875 L 1.25 -18.34375 L 13.890625 -18.34375 L 14.265625 -15.6875 C 14.035156 -16.144531 13.660156 -16.523438 13.140625 -16.828125 C 12.628906 -17.128906 11.984375 -17.28125 11.203125 -17.28125 L 8.53125 -17.28125 L 8.53125 -2.484375 C 8.53125 -1.765625 8.617188 -1.21875 8.796875 -0.84375 C 8.972656 -0.476562 9.164062 -0.234375 9.375 -0.109375 C 9.59375 0.015625 9.703125 0.0507812 9.703125 0 L 5.46875 0 C 5.46875 0.0507812 5.570312 0.015625 5.78125 -0.109375 C 6 -0.234375 6.191406 -0.476562 6.359375 -0.84375 C 6.523438 -1.207031 6.609375 -1.753906 6.609375 -2.484375 L 6.609375 -17.28125 Z M 3.953125 -17.28125 " />
            </g>
        </g>
    </g>
    <g fill="#ffe1b5" fill-opacity="1">
        <g transform="translate(38.426889, 322.753484)">
            <g>
                <path
                    d="M 22.34375 -15.6875 C 22.5625 -16.320312 22.671875 -16.816406 22.671875 -17.171875 C 22.671875 -17.898438 22.347656 -18.289062 21.703125 -18.34375 L 25.84375 -18.34375 C 25.570312 -18.289062 25.226562 -18.085938 24.8125 -17.734375 C 24.394531 -17.378906 24.007812 -16.6875 23.65625 -15.65625 L 17.890625 0.640625 L 12.75 -14.140625 L 7.4375 0.640625 L 2.1875 -15.734375 C 1.726562 -17.234375 1.050781 -18.101562 0.15625 -18.34375 L 4.59375 -18.34375 C 4.09375 -18.257812 3.84375 -17.96875 3.84375 -17.46875 C 3.84375 -17.21875 3.945312 -16.773438 4.15625 -16.140625 L 4.453125 -15.203125 L 7.8125 -4.078125 L 13.234375 -18.859375 L 18.375 -4.1875 Z M 22.34375 -15.6875 " />
            </g>
        </g>
    </g>
    <g fill="#ffe1b5" fill-opacity="1">
        <g transform="translate(67.407974, 322.753484)">
            <g>
                <path
                    d="M 2.265625 0 C 2.265625 0.0507812 2.367188 0.015625 2.578125 -0.109375 C 2.796875 -0.242188 2.988281 -0.507812 3.15625 -0.90625 C 3.320312 -1.3125 3.40625 -1.898438 3.40625 -2.671875 L 3.40625 -15.765625 C 3.40625 -16.492188 3.320312 -17.046875 3.15625 -17.421875 C 2.988281 -17.804688 2.796875 -18.070312 2.578125 -18.21875 C 2.367188 -18.363281 2.265625 -18.40625 2.265625 -18.34375 L 11.921875 -18.34375 L 11.921875 -15.6875 C 11.597656 -16.75 10.640625 -17.28125 9.046875 -17.28125 L 5.328125 -17.28125 L 5.328125 -9.703125 L 9.921875 -9.703125 C 10.273438 -9.703125 10.578125 -9.757812 10.828125 -9.875 C 11.078125 -10 11.265625 -10.117188 11.390625 -10.234375 C 11.515625 -10.359375 11.585938 -10.441406 11.609375 -10.484375 L 11.609375 -7.890625 C 11.585938 -7.929688 11.515625 -8.015625 11.390625 -8.140625 C 11.265625 -8.265625 11.082031 -8.378906 10.84375 -8.484375 C 10.601562 -8.585938 10.304688 -8.640625 9.953125 -8.640625 L 5.328125 -8.640625 L 5.328125 -1.0625 L 9.5 -1.0625 C 10.300781 -1.0625 10.988281 -1.222656 11.5625 -1.546875 C 12.132812 -1.878906 12.546875 -2.304688 12.796875 -2.828125 L 12.328125 0 Z M 2.265625 0 " />
            </g>
        </g>
    </g>
    <g fill="#ffe1b5" fill-opacity="1">
        <g transform="translate(84.871909, 322.753484)">
            <g>
                <path
                    d="M 10.71875 -0.453125 C 10.257812 -0.296875 9.726562 -0.179688 9.125 -0.109375 C 8.53125 -0.0351562 7.710938 0 6.671875 0 L 2.265625 0 C 2.492188 -0.0507812 2.738281 -0.25 3 -0.59375 C 3.269531 -0.945312 3.40625 -1.617188 3.40625 -2.609375 L 3.40625 -15.8125 C 3.40625 -16.738281 3.28125 -17.375 3.03125 -17.71875 C 2.789062 -18.070312 2.546875 -18.28125 2.296875 -18.34375 L 6.671875 -18.34375 C 7.804688 -18.34375 8.671875 -18.296875 9.265625 -18.203125 C 9.859375 -18.109375 10.378906 -17.960938 10.828125 -17.765625 C 11.609375 -17.390625 12.210938 -16.863281 12.640625 -16.1875 C 13.066406 -15.507812 13.28125 -14.78125 13.28125 -14 C 13.28125 -12.8125 12.921875 -11.785156 12.203125 -10.921875 C 11.484375 -10.054688 10.535156 -9.5 9.359375 -9.25 C 10.160156 -9.164062 10.921875 -8.9375 11.640625 -8.5625 C 12.359375 -8.1875 12.941406 -7.675781 13.390625 -7.03125 C 13.847656 -6.394531 14.078125 -5.671875 14.078125 -4.859375 C 14.078125 -3.710938 13.773438 -2.78125 13.171875 -2.0625 C 12.566406 -1.34375 11.75 -0.804688 10.71875 -0.453125 Z M 9.96875 -16.484375 C 9.613281 -16.753906 9.234375 -16.953125 8.828125 -17.078125 C 8.421875 -17.210938 7.867188 -17.28125 7.171875 -17.28125 L 5.328125 -17.28125 L 5.328125 -9.703125 L 7.5 -9.703125 C 8.132812 -9.703125 8.664062 -9.800781 9.09375 -10 C 9.519531 -10.195312 9.894531 -10.457031 10.21875 -10.78125 C 10.550781 -11.113281 10.816406 -11.519531 11.015625 -12 C 11.210938 -12.476562 11.3125 -12.96875 11.3125 -13.46875 C 11.3125 -14.070312 11.195312 -14.640625 10.96875 -15.171875 C 10.75 -15.703125 10.414062 -16.140625 9.96875 -16.484375 Z M 10.53125 -7.875 C 10.195312 -8.132812 9.78125 -8.328125 9.28125 -8.453125 C 8.78125 -8.578125 8.101562 -8.640625 7.25 -8.640625 L 5.328125 -8.640625 L 5.328125 -1.0625 L 7.875 -1.0625 C 9.144531 -1.0625 10.140625 -1.363281 10.859375 -1.96875 C 11.585938 -2.570312 11.953125 -3.535156 11.953125 -4.859375 C 11.953125 -6.078125 11.476562 -7.082031 10.53125 -7.875 Z M 10.53125 -7.875 " />
            </g>
        </g>
    </g>
    <g fill="#ffe1b5" fill-opacity="1">
        <g transform="translate(104.042089, 322.753484)">
            <g />
        </g>
    </g>
    <g fill="#ffe1b5" fill-opacity="1">
        <g transform="translate(114.254476, 322.753484)">
            <g>
                <path
                    d="M 14.21875 -1.5 C 12.539062 -0.5 10.304688 0 7.515625 0 L 2.265625 0 C 2.265625 0.0507812 2.367188 0.00390625 2.578125 -0.140625 C 2.796875 -0.296875 2.988281 -0.578125 3.15625 -0.984375 C 3.320312 -1.390625 3.40625 -1.988281 3.40625 -2.78125 L 3.40625 -15.890625 C 3.40625 -16.585938 3.320312 -17.117188 3.15625 -17.484375 C 2.988281 -17.847656 2.796875 -18.09375 2.578125 -18.21875 C 2.367188 -18.34375 2.265625 -18.382812 2.265625 -18.34375 L 7.5 -18.34375 C 10.21875 -18.34375 12.367188 -17.898438 13.953125 -17.015625 C 15.359375 -16.234375 16.441406 -15.175781 17.203125 -13.84375 C 17.960938 -12.507812 18.34375 -11.003906 18.34375 -9.328125 C 18.34375 -7.515625 17.984375 -5.945312 17.265625 -4.625 C 16.546875 -3.300781 15.53125 -2.257812 14.21875 -1.5 Z M 13.171875 -15.8125 C 12.390625 -16.332031 11.550781 -16.707031 10.65625 -16.9375 C 9.769531 -17.164062 8.71875 -17.28125 7.5 -17.28125 L 5.328125 -17.28125 L 5.328125 -1.0625 L 7.5 -1.0625 C 8.957031 -1.0625 10.148438 -1.1875 11.078125 -1.4375 C 12.015625 -1.6875 12.820312 -2.070312 13.5 -2.59375 C 14.363281 -3.257812 15.03125 -4.140625 15.5 -5.234375 C 15.976562 -6.328125 16.21875 -7.601562 16.21875 -9.0625 C 16.21875 -10.613281 15.945312 -11.972656 15.40625 -13.140625 C 14.863281 -14.304688 14.117188 -15.195312 13.171875 -15.8125 Z M 13.171875 -15.8125 " />
            </g>
        </g>
    </g>
    <g fill="#ffe1b5" fill-opacity="1">
        <g transform="translate(137.476985, 322.753484)">
            <g>
                <path
                    d="M 2.265625 0 C 2.265625 0.0507812 2.367188 0.015625 2.578125 -0.109375 C 2.796875 -0.242188 2.988281 -0.507812 3.15625 -0.90625 C 3.320312 -1.3125 3.40625 -1.898438 3.40625 -2.671875 L 3.40625 -15.765625 C 3.40625 -16.492188 3.320312 -17.046875 3.15625 -17.421875 C 2.988281 -17.804688 2.796875 -18.070312 2.578125 -18.21875 C 2.367188 -18.363281 2.265625 -18.40625 2.265625 -18.34375 L 11.921875 -18.34375 L 11.921875 -15.6875 C 11.597656 -16.75 10.640625 -17.28125 9.046875 -17.28125 L 5.328125 -17.28125 L 5.328125 -9.703125 L 9.921875 -9.703125 C 10.273438 -9.703125 10.578125 -9.757812 10.828125 -9.875 C 11.078125 -10 11.265625 -10.117188 11.390625 -10.234375 C 11.515625 -10.359375 11.585938 -10.441406 11.609375 -10.484375 L 11.609375 -7.890625 C 11.585938 -7.929688 11.515625 -8.015625 11.390625 -8.140625 C 11.265625 -8.265625 11.082031 -8.378906 10.84375 -8.484375 C 10.601562 -8.585938 10.304688 -8.640625 9.953125 -8.640625 L 5.328125 -8.640625 L 5.328125 -1.0625 L 9.5 -1.0625 C 10.300781 -1.0625 10.988281 -1.222656 11.5625 -1.546875 C 12.132812 -1.878906 12.546875 -2.304688 12.796875 -2.828125 L 12.328125 0 Z M 2.265625 0 " />
            </g>
        </g>
    </g>
    <g fill="#ffe1b5" fill-opacity="1">
        <g transform="translate(154.94092, 322.753484)">
            <g>
                <path
                    d="M 14.25 -16.9375 C 14.25 -17.289062 14.148438 -17.597656 13.953125 -17.859375 C 13.753906 -18.117188 13.453125 -18.28125 13.046875 -18.34375 L 17.515625 -18.34375 C 17.285156 -18.3125 16.972656 -18.109375 16.578125 -17.734375 C 16.191406 -17.359375 15.785156 -16.664062 15.359375 -15.65625 L 8.609375 0.640625 L 1.765625 -15.734375 C 1.367188 -16.679688 0.976562 -17.335938 0.59375 -17.703125 C 0.21875 -18.066406 -0.09375 -18.28125 -0.34375 -18.34375 L 4.109375 -18.34375 C 3.628906 -18.21875 3.390625 -17.910156 3.390625 -17.421875 C 3.390625 -17.148438 3.453125 -16.863281 3.578125 -16.5625 C 3.703125 -16.257812 3.769531 -16.082031 3.78125 -16.03125 L 8.96875 -3.359375 L 13.96875 -15.6875 C 14.15625 -16.09375 14.25 -16.507812 14.25 -16.9375 Z M 14.25 -16.9375 " />
            </g>
        </g>
    </g>
    <g fill="#ffe1b5" fill-opacity="1">
        <g transform="translate(175.070859, 322.753484)">
            <g>
                <path
                    d="M 2.265625 0 C 2.265625 0.0507812 2.367188 0.015625 2.578125 -0.109375 C 2.796875 -0.242188 2.988281 -0.507812 3.15625 -0.90625 C 3.320312 -1.3125 3.40625 -1.898438 3.40625 -2.671875 L 3.40625 -15.765625 C 3.40625 -16.492188 3.320312 -17.046875 3.15625 -17.421875 C 2.988281 -17.804688 2.796875 -18.070312 2.578125 -18.21875 C 2.367188 -18.363281 2.265625 -18.40625 2.265625 -18.34375 L 11.921875 -18.34375 L 11.921875 -15.6875 C 11.597656 -16.75 10.640625 -17.28125 9.046875 -17.28125 L 5.328125 -17.28125 L 5.328125 -9.703125 L 9.921875 -9.703125 C 10.273438 -9.703125 10.578125 -9.757812 10.828125 -9.875 C 11.078125 -10 11.265625 -10.117188 11.390625 -10.234375 C 11.515625 -10.359375 11.585938 -10.441406 11.609375 -10.484375 L 11.609375 -7.890625 C 11.585938 -7.929688 11.515625 -8.015625 11.390625 -8.140625 C 11.265625 -8.265625 11.082031 -8.378906 10.84375 -8.484375 C 10.601562 -8.585938 10.304688 -8.640625 9.953125 -8.640625 L 5.328125 -8.640625 L 5.328125 -1.0625 L 9.5 -1.0625 C 10.300781 -1.0625 10.988281 -1.222656 11.5625 -1.546875 C 12.132812 -1.878906 12.546875 -2.304688 12.796875 -2.828125 L 12.328125 0 Z M 2.265625 0 " />
            </g>
        </g>
    </g>
    <g fill="#ffe1b5" fill-opacity="1">
        <g transform="translate(192.534793, 322.753484)">
            <g>
                <path
                    d="M 3.40625 -15.875 C 3.40625 -16.582031 3.320312 -17.117188 3.15625 -17.484375 C 2.988281 -17.847656 2.796875 -18.09375 2.578125 -18.21875 C 2.367188 -18.34375 2.265625 -18.382812 2.265625 -18.34375 L 6.515625 -18.34375 C 6.515625 -18.382812 6.40625 -18.34375 6.1875 -18.21875 C 5.976562 -18.09375 5.78125 -17.847656 5.59375 -17.484375 C 5.414062 -17.117188 5.328125 -16.582031 5.328125 -15.875 L 5.328125 -1.0625 L 9.703125 -1.0625 C 10.503906 -1.0625 11.191406 -1.222656 11.765625 -1.546875 C 12.347656 -1.878906 12.765625 -2.304688 13.015625 -2.828125 L 12.53125 0 L 2.265625 0 C 2.265625 0.0507812 2.367188 0.015625 2.578125 -0.109375 C 2.796875 -0.242188 2.988281 -0.507812 3.15625 -0.90625 C 3.320312 -1.3125 3.40625 -1.898438 3.40625 -2.671875 Z M 3.40625 -15.875 " />
            </g>
        </g>
    </g>
    <g fill="#ffe1b5" fill-opacity="1">
        <g transform="translate(209.412195, 322.753484)">
            <g>
                <path
                    d="M 1.703125 -8.96875 C 1.703125 -10.84375 2.109375 -12.519531 2.921875 -14 C 3.734375 -15.476562 4.867188 -16.625 6.328125 -17.4375 C 7.796875 -18.257812 9.492188 -18.671875 11.421875 -18.671875 C 13.015625 -18.671875 14.507812 -18.316406 15.90625 -17.609375 C 17.300781 -16.910156 18.421875 -15.859375 19.265625 -14.453125 C 20.109375 -13.046875 20.53125 -11.359375 20.53125 -9.390625 C 20.53125 -7.503906 20.125 -5.820312 19.3125 -4.34375 C 18.507812 -2.875 17.375 -1.726562 15.90625 -0.90625 C 14.4375 -0.09375 12.742188 0.3125 10.828125 0.3125 C 9.222656 0.3125 7.722656 -0.0351562 6.328125 -0.734375 C 4.929688 -1.429688 3.8125 -2.484375 2.96875 -3.890625 C 2.125 -5.296875 1.703125 -6.988281 1.703125 -8.96875 Z M 18.40625 -8.984375 C 18.40625 -10.609375 18.070312 -12.070312 17.40625 -13.375 C 16.738281 -14.6875 15.820312 -15.707031 14.65625 -16.4375 C 13.488281 -17.175781 12.175781 -17.546875 10.71875 -17.546875 C 9.382812 -17.546875 8.195312 -17.207031 7.15625 -16.53125 C 6.113281 -15.851562 5.300781 -14.894531 4.71875 -13.65625 C 4.132812 -12.425781 3.84375 -10.992188 3.84375 -9.359375 C 3.84375 -7.742188 4.175781 -6.28125 4.84375 -4.96875 C 5.507812 -3.664062 6.421875 -2.644531 7.578125 -1.90625 C 8.742188 -1.164062 10.054688 -0.796875 11.515625 -0.796875 C 12.847656 -0.796875 14.035156 -1.132812 15.078125 -1.8125 C 16.117188 -2.488281 16.929688 -3.441406 17.515625 -4.671875 C 18.109375 -5.910156 18.40625 -7.347656 18.40625 -8.984375 Z M 18.40625 -8.984375 " />
            </g>
        </g>
    </g>
    <g fill="#ffe1b5" fill-opacity="1">
        <g transform="translate(234.607541, 322.753484)">
            <g>
                <path
                    d="M 13.765625 -13.390625 C 13.765625 -12.359375 13.519531 -11.4375 13.03125 -10.625 C 12.539062 -9.820312 11.84375 -9.1875 10.9375 -8.71875 C 10.03125 -8.257812 8.960938 -8.03125 7.734375 -8.03125 C 6.984375 -8.03125 6.179688 -8.109375 5.328125 -8.265625 L 5.328125 -2.453125 C 5.328125 -1.753906 5.414062 -1.222656 5.59375 -0.859375 C 5.78125 -0.492188 5.976562 -0.25 6.1875 -0.125 C 6.40625 -0.0078125 6.515625 0.03125 6.515625 0 L 2.265625 0 C 2.265625 0.03125 2.367188 -0.0078125 2.578125 -0.125 C 2.796875 -0.25 2.988281 -0.488281 3.15625 -0.84375 C 3.320312 -1.207031 3.40625 -1.742188 3.40625 -2.453125 L 3.40625 -15.8125 C 3.40625 -16.53125 3.320312 -17.070312 3.15625 -17.4375 C 2.988281 -17.8125 2.796875 -18.066406 2.578125 -18.203125 C 2.367188 -18.335938 2.265625 -18.382812 2.265625 -18.34375 L 7.5 -18.34375 C 8.40625 -18.34375 9.148438 -18.285156 9.734375 -18.171875 C 10.316406 -18.054688 10.832031 -17.882812 11.28125 -17.65625 C 12.082031 -17.25 12.695312 -16.65625 13.125 -15.875 C 13.550781 -15.101562 13.765625 -14.273438 13.765625 -13.390625 Z M 11.703125 -13.046875 C 11.703125 -14.304688 11.3125 -15.328125 10.53125 -16.109375 C 9.75 -16.890625 8.710938 -17.28125 7.421875 -17.28125 L 5.328125 -17.28125 L 5.328125 -9.3125 C 6.097656 -9.164062 6.898438 -9.09375 7.734375 -9.09375 C 8.984375 -9.09375 9.957031 -9.453125 10.65625 -10.171875 C 11.351562 -10.890625 11.703125 -11.847656 11.703125 -13.046875 Z M 11.703125 -13.046875 " />
            </g>
        </g>
    </g>
    <g fill="#ffe1b5" fill-opacity="1">
        <g transform="translate(252.604656, 322.753484)">
            <g>
                <path
                    d="M 17.703125 0 C 17.921875 -0.03125 18.15625 -0.21875 18.40625 -0.5625 C 18.65625 -0.914062 18.78125 -1.5625 18.78125 -2.5 L 18.78125 -15.84375 L 11.78125 0.296875 L 4.6875 -15.8125 L 4.6875 -2.640625 C 4.6875 -1.679688 4.84375 -1.007812 5.15625 -0.625 C 5.46875 -0.238281 5.75 -0.03125 6 0 L 2.046875 0 C 2.316406 -0.03125 2.609375 -0.226562 2.921875 -0.59375 C 3.242188 -0.957031 3.40625 -1.640625 3.40625 -2.640625 L 3.40625 -16 C 3.40625 -16.851562 3.253906 -17.441406 2.953125 -17.765625 C 2.648438 -18.085938 2.347656 -18.28125 2.046875 -18.34375 L 5.65625 -18.34375 L 12.1875 -3.4375 L 18.609375 -18.34375 L 21.84375 -18.34375 C 21.613281 -18.3125 21.363281 -18.125 21.09375 -17.78125 C 20.832031 -17.445312 20.703125 -16.828125 20.703125 -15.921875 L 20.703125 -2.40625 C 20.703125 -1.507812 20.832031 -0.890625 21.09375 -0.546875 C 21.363281 -0.210938 21.613281 -0.03125 21.84375 0 Z M 17.703125 0 " />
            </g>
        </g>
    </g>
    <g fill="#ffe1b5" fill-opacity="1">
        <g transform="translate(279.666223, 322.753484)">
            <g>
                <path
                    d="M 2.265625 0 C 2.265625 0.0507812 2.367188 0.015625 2.578125 -0.109375 C 2.796875 -0.242188 2.988281 -0.507812 3.15625 -0.90625 C 3.320312 -1.3125 3.40625 -1.898438 3.40625 -2.671875 L 3.40625 -15.765625 C 3.40625 -16.492188 3.320312 -17.046875 3.15625 -17.421875 C 2.988281 -17.804688 2.796875 -18.070312 2.578125 -18.21875 C 2.367188 -18.363281 2.265625 -18.40625 2.265625 -18.34375 L 11.921875 -18.34375 L 11.921875 -15.6875 C 11.597656 -16.75 10.640625 -17.28125 9.046875 -17.28125 L 5.328125 -17.28125 L 5.328125 -9.703125 L 9.921875 -9.703125 C 10.273438 -9.703125 10.578125 -9.757812 10.828125 -9.875 C 11.078125 -10 11.265625 -10.117188 11.390625 -10.234375 C 11.515625 -10.359375 11.585938 -10.441406 11.609375 -10.484375 L 11.609375 -7.890625 C 11.585938 -7.929688 11.515625 -8.015625 11.390625 -8.140625 C 11.265625 -8.265625 11.082031 -8.378906 10.84375 -8.484375 C 10.601562 -8.585938 10.304688 -8.640625 9.953125 -8.640625 L 5.328125 -8.640625 L 5.328125 -1.0625 L 9.5 -1.0625 C 10.300781 -1.0625 10.988281 -1.222656 11.5625 -1.546875 C 12.132812 -1.878906 12.546875 -2.304688 12.796875 -2.828125 L 12.328125 0 Z M 2.265625 0 " />
            </g>
        </g>
    </g>
    <g fill="#ffe1b5" fill-opacity="1">
        <g transform="translate(297.130158, 322.753484)">
            <g>
                <path
                    d="M 19.4375 -18.34375 C 19.195312 -18.289062 18.953125 -18.09375 18.703125 -17.75 C 18.460938 -17.40625 18.34375 -16.796875 18.34375 -15.921875 L 18.34375 0.75 L 4.6875 -15.171875 L 4.6875 -2.40625 C 4.6875 -1.550781 4.835938 -0.945312 5.140625 -0.59375 C 5.441406 -0.25 5.738281 -0.0507812 6.03125 0 L 2.265625 0 C 2.515625 -0.0507812 2.765625 -0.25 3.015625 -0.59375 C 3.273438 -0.945312 3.40625 -1.554688 3.40625 -2.421875 L 3.40625 -15.765625 C 3.40625 -16.367188 3.203125 -16.914062 2.796875 -17.40625 C 2.390625 -17.90625 1.875 -18.21875 1.25 -18.34375 L 4.5625 -18.34375 L 17.0625 -3.765625 L 17.0625 -15.921875 C 17.0625 -17.296875 16.601562 -18.101562 15.6875 -18.34375 Z M 19.4375 -18.34375 " />
            </g>
        </g>
    </g>
    <g fill="#ffe1b5" fill-opacity="1">
        <g transform="translate(321.845618, 322.753484)">
            <g>
                <path
                    d="M 3.953125 -17.28125 C 3.171875 -17.28125 2.519531 -17.128906 2 -16.828125 C 1.488281 -16.523438 1.113281 -16.144531 0.875 -15.6875 L 1.25 -18.34375 L 13.890625 -18.34375 L 14.265625 -15.6875 C 14.035156 -16.144531 13.660156 -16.523438 13.140625 -16.828125 C 12.628906 -17.128906 11.984375 -17.28125 11.203125 -17.28125 L 8.53125 -17.28125 L 8.53125 -2.484375 C 8.53125 -1.765625 8.617188 -1.21875 8.796875 -0.84375 C 8.972656 -0.476562 9.164062 -0.234375 9.375 -0.109375 C 9.59375 0.015625 9.703125 0.0507812 9.703125 0 L 5.46875 0 C 5.46875 0.0507812 5.570312 0.015625 5.78125 -0.109375 C 6 -0.234375 6.191406 -0.476562 6.359375 -0.84375 C 6.523438 -1.207031 6.609375 -1.753906 6.609375 -2.484375 L 6.609375 -17.28125 Z M 3.953125 -17.28125 " />
            </g>
        </g>
    </g>
</svg>