<svg width="390" height="240" viewBox="0 0 390 240" fill="none" xmlns="http://www.w3.org/2000/svg">
<path d="M218.354 183.083L231.505 172.974C234.537 174.297 237.807 175.307 241.073 176.083L245.74 192.031C248.464 192.343 251.188 192.494 253.99 192.494C256.787 192.494 259.511 192.343 262.235 192.031L266.901 176.083C270.25 175.307 273.438 174.297 276.474 172.974L289.62 183.083C294.443 180.364 298.88 177.093 303 173.359L297.401 157.651C299.578 155.083 301.599 152.437 303.313 149.479L319.964 149.948C322.219 144.968 323.927 139.76 325.099 134.234L311.328 124.823C311.479 123.192 311.557 121.479 311.557 119.765C311.557 118.057 311.479 116.422 311.328 114.713L325.099 105.302C324.005 99.8538 322.219 94.5674 319.964 89.5882L303.313 90.0518C301.599 87.1768 299.578 84.4528 297.401 81.8851L303 66.1716C298.958 62.4424 294.443 59.1715 289.62 56.4528L276.474 66.5622C273.438 65.2393 270.172 64.2288 266.901 63.4528L262.235 47.5049C259.511 47.1924 256.787 47.0361 253.99 47.0361C251.188 47.0361 248.464 47.1924 245.74 47.5049L241.073 63.4528C237.729 64.2288 234.537 65.2393 231.505 66.5622L218.354 56.4528C213.531 59.1715 209.099 62.4424 204.974 66.1716L210.573 81.8851C208.396 84.4528 206.375 87.0986 204.662 90.0518L188.011 89.5882C185.755 94.5674 184.047 99.7757 182.88 105.302L196.651 114.713C196.495 116.343 196.417 118.057 196.417 119.765C196.417 121.479 196.495 123.114 196.651 124.823L182.88 134.312C183.969 139.76 185.755 145.047 188.011 150.026L204.662 149.557C206.375 152.437 208.396 155.161 210.573 157.729L204.974 173.437C209.021 177.093 213.531 180.364 218.354 183.083ZM254.068 88.6559C271.339 88.6559 285.261 102.656 285.261 119.843C285.261 137.036 271.261 151.036 254.068 151.036C236.792 151.036 222.87 137.036 222.87 119.843C222.87 102.656 236.792 88.6559 254.068 88.6559Z" fill="#3F37D6"/>
<path d="M172.688 128.166C173.073 125.448 173.307 122.724 173.307 119.922C173.307 117.125 173.073 114.323 172.688 111.677L162.339 108.333C161.641 105.609 160.703 103.041 159.536 100.557L165.297 91.3747C162.417 86.6299 158.839 82.3538 154.635 78.6976L144.599 82.8174C142.344 81.2653 139.932 79.8643 137.443 78.6976L135.964 67.9632C130.828 66.2497 125.385 65.2393 119.703 65.083L114.646 74.6507C111.849 74.8851 109.125 75.3538 106.479 76.0518L98.3854 68.7393C93.1771 70.7653 88.349 73.5622 84.0729 76.984L86.3281 87.5622C84.3854 89.5101 82.5937 91.609 81.0365 93.8643L70.1458 93.4736C67.5 98.2965 65.6354 103.51 64.4688 109.031L73.026 115.724C72.8698 117.125 72.7917 118.448 72.7917 119.843C72.7917 121.244 72.8698 122.646 73.026 123.968L64.4688 130.656C65.5573 136.182 67.5 141.39 70.1458 146.213L81.0365 145.828C82.5937 148.083 84.3854 150.182 86.3281 152.125L84.0729 162.703C88.349 166.13 93.1771 168.927 98.3854 170.948L106.479 163.64C109.125 164.338 111.849 164.807 114.646 165.036L119.703 174.604C125.385 174.453 130.828 173.515 135.964 171.729L137.443 160.994C139.932 159.828 142.344 158.427 144.599 156.869L154.635 160.994C158.76 157.338 162.417 153.057 165.297 148.312L159.536 139.135C160.703 136.646 161.641 134.078 162.339 131.359L172.688 128.166ZM118.927 143.494C105.854 143.494 95.276 132.911 95.276 119.843C95.276 106.776 105.854 96.1976 118.927 96.1976C131.995 96.1976 142.578 106.776 142.578 119.843C142.578 132.911 131.995 143.494 118.927 143.494Z" fill="#3F37D6"/>
<mask id="mask0_283_25" style="mask-type:luminance" maskUnits="userSpaceOnUse" x="0" y="20" width="175" height="108">
<path d="M0.359375 20H175V128H0.359375V20Z" fill="white"/>
</mask>
<g mask="url(#mask0_283_25)">
<path d="M50.3854 99.6979L43.3073 93.2448L30.1563 107.557V56.2188C30.1563 41.9844 41.75 30.3125 56.0625 30.3125H174.474V20.75H56.0625C36.4583 20.75 20.5885 36.6146 20.5885 56.2188V107.557L7.4375 93.2448L0.359375 99.6979L25.3333 127L50.3854 99.6979Z" fill="#3F37D6"/>
</g>
<mask id="mask1_283_25" style="mask-type:luminance" maskUnits="userSpaceOnUse" x="187" y="0" width="183" height="120">
<path d="M187 0.385742H369.667V120H187V0.385742Z" fill="white"/>
</mask>
<g mask="url(#mask1_283_25)">
<path d="M221.547 43.459L207.229 30.3132H333.734C347.969 30.3132 359.563 41.9069 359.563 56.2194V119.923H369.13V56.2194C369.13 36.6934 353.26 20.7507 333.656 20.7507H207.229L221.547 7.60482L215.089 0.521484L187.781 25.4954L215.089 50.5423L221.547 43.459Z" fill="#3F37D6"/>
</g>
<mask id="mask2_283_25" style="mask-type:luminance" maskUnits="userSpaceOnUse" x="215" y="132" width="175" height="88">
<path d="M215 132H389.359V220H215V132Z" fill="white"/>
</mask>
<g mask="url(#mask2_283_25)">
<path d="M389.359 160.526L364.385 133.224L339.411 160.526L346.489 166.984L359.64 152.672V183.63C359.64 197.864 348.047 209.531 333.812 209.531H215.323V219.099H333.734C353.26 219.099 369.208 203.229 369.208 183.63V152.672L382.359 166.984L389.359 160.526Z" fill="#3F37D6"/>
</g>
<mask id="mask3_283_25" style="mask-type:luminance" maskUnits="userSpaceOnUse" x="20" y="140" width="183" height="100">
<path d="M20.3335 140H203V239.385H20.3335V140Z" fill="white"/>
</mask>
<g mask="url(#mask3_283_25)">
<path d="M168.172 196.307L182.49 209.453H56.0628C41.8285 209.453 30.1566 197.864 30.1566 183.552V140.302H20.5889V183.552C20.5889 203.078 36.4587 219.021 56.0628 219.021H182.568L168.25 232.166L174.709 239.244L202.016 214.276L174.631 189.229L168.172 196.307Z" fill="#3F37D6"/>
</g>
</svg>
