<svg xmlns="http://www.w3.org/2000/svg" xmlns:xlink="http://www.w3.org/1999/xlink" width="400" zoomAndPan="magnify"
    viewBox="0 0 300 299.999988" height="400" preserveAspectRatio="xMidYMid meet" version="1.0">
    <defs>
        <clipPath id="9d14dc5e8d">
            <path d="M 4.019531 75 L 135 75 L 135 156 L 4.019531 156 Z M 4.019531 75 " clip-rule="nonzero" />
        </clipPath>
        <clipPath id="381dcc42b4">
            <path d="M 144 60.289062 L 281 60.289062 L 281 150 L 144 150 Z M 144 60.289062 " clip-rule="nonzero" />
        </clipPath>
        <clipPath id="4773b490fd">
            <path d="M 165 159 L 295.769531 159 L 295.769531 225 L 165 225 Z M 165 159 " clip-rule="nonzero" />
        </clipPath>
        <clipPath id="9bef2f1da3">
            <path d="M 19 165 L 156 165 L 156 239.539062 L 19 239.539062 Z M 19 165 " clip-rule="nonzero" />
        </clipPath>
    </defs>
    <path fill="#3f37d6"
        d="M 167.515625 197.3125 L 177.378906 189.730469 C 179.652344 190.722656 182.105469 191.480469 184.554688 192.0625 L 188.054688 204.023438 C 190.097656 204.257812 192.140625 204.371094 194.242188 204.371094 C 196.339844 204.371094 198.382812 204.257812 200.425781 204.023438 L 203.925781 192.0625 C 206.4375 191.480469 208.828125 190.722656 211.105469 189.730469 L 220.964844 197.3125 C 224.582031 195.273438 227.910156 192.820312 231 190.019531 L 226.800781 178.238281 C 228.433594 176.3125 229.949219 174.328125 231.234375 172.109375 L 243.722656 172.460938 C 245.414062 168.726562 246.695312 164.820312 247.574219 160.675781 L 237.246094 153.617188 C 237.359375 152.394531 237.417969 151.109375 237.417969 149.824219 C 237.417969 148.542969 237.359375 147.316406 237.246094 146.035156 L 247.574219 138.976562 C 246.753906 134.890625 245.414062 130.925781 243.722656 127.191406 L 231.234375 127.539062 C 229.949219 125.382812 228.433594 123.339844 226.800781 121.414062 L 231 109.628906 C 227.96875 106.832031 224.582031 104.378906 220.964844 102.339844 L 211.105469 109.921875 C 208.828125 108.929688 206.378906 108.171875 203.925781 107.589844 L 200.425781 95.628906 C 198.382812 95.394531 196.339844 95.277344 194.242188 95.277344 C 192.140625 95.277344 190.097656 95.394531 188.054688 95.628906 L 184.554688 107.589844 C 182.046875 108.171875 179.652344 108.929688 177.378906 109.921875 L 167.515625 102.339844 C 163.898438 104.378906 160.574219 106.832031 157.480469 109.628906 L 161.679688 121.414062 C 160.046875 123.339844 158.53125 125.324219 157.246094 127.539062 L 144.757812 127.191406 C 143.066406 130.925781 141.785156 134.832031 140.910156 138.976562 L 151.238281 146.035156 C 151.121094 147.257812 151.0625 148.542969 151.0625 149.824219 C 151.0625 151.109375 151.121094 152.335938 151.238281 153.617188 L 140.910156 160.734375 C 141.726562 164.820312 143.066406 168.785156 144.757812 172.519531 L 157.246094 172.167969 C 158.53125 174.328125 160.046875 176.371094 161.679688 178.296875 L 157.480469 190.078125 C 160.515625 192.820312 163.898438 195.273438 167.515625 197.3125 Z M 194.300781 126.492188 C 207.253906 126.492188 217.695312 136.992188 217.695312 149.882812 C 217.695312 162.777344 207.195312 173.277344 194.300781 173.277344 C 181.34375 173.277344 170.902344 162.777344 170.902344 149.882812 C 170.902344 136.992188 181.34375 126.492188 194.300781 126.492188 Z M 194.300781 126.492188 "
        fill-opacity="1" fill-rule="nonzero" />
    <path fill="#3f37d6"
        d="M 133.265625 156.125 C 133.554688 154.085938 133.730469 152.042969 133.730469 149.941406 C 133.730469 147.84375 133.554688 145.742188 133.265625 143.757812 L 125.503906 141.25 C 124.980469 139.207031 124.277344 137.28125 123.402344 135.417969 L 127.722656 128.53125 C 125.5625 124.972656 122.878906 121.765625 119.726562 119.023438 L 112.199219 122.113281 C 110.507812 120.949219 108.699219 119.898438 106.832031 119.023438 L 105.722656 110.972656 C 101.871094 109.6875 97.789062 108.929688 93.527344 108.8125 L 89.734375 115.988281 C 87.636719 116.164062 85.59375 116.515625 83.609375 117.039062 L 77.539062 111.554688 C 73.632812 113.074219 70.011719 115.171875 66.804688 117.738281 L 68.496094 125.671875 C 67.039062 127.132812 65.695312 128.707031 64.527344 130.398438 L 56.359375 130.105469 C 54.375 133.722656 52.976562 137.632812 52.101562 141.773438 L 58.519531 146.792969 C 58.402344 147.84375 58.34375 148.835938 58.34375 149.882812 C 58.34375 150.933594 58.402344 151.984375 58.519531 152.976562 L 52.101562 157.992188 C 52.917969 162.136719 54.375 166.042969 56.359375 169.660156 L 64.527344 169.371094 C 65.695312 171.0625 67.039062 172.636719 68.496094 174.09375 L 66.804688 182.027344 C 70.011719 184.597656 73.632812 186.695312 77.539062 188.210938 L 83.609375 182.730469 C 85.59375 183.253906 87.636719 183.605469 89.734375 183.777344 L 93.527344 190.953125 C 97.789062 190.839844 101.871094 190.136719 105.722656 188.796875 L 106.832031 180.746094 C 108.699219 179.871094 110.507812 178.820312 112.199219 177.652344 L 119.726562 180.746094 C 122.820312 178.003906 125.5625 174.792969 127.722656 171.234375 L 123.402344 164.351562 C 124.277344 162.484375 124.980469 160.558594 125.503906 158.519531 Z M 92.945312 167.621094 C 83.140625 167.621094 75.207031 159.683594 75.207031 149.882812 C 75.207031 140.082031 83.140625 132.148438 92.945312 132.148438 C 102.746094 132.148438 110.683594 140.082031 110.683594 149.882812 C 110.683594 159.683594 102.746094 167.621094 92.945312 167.621094 Z M 92.945312 167.621094 "
        fill-opacity="1" fill-rule="nonzero" />
    <g clip-path="url(#9d14dc5e8d)">
        <path fill="#3f37d6"
            d="M 41.539062 134.773438 L 36.230469 129.933594 L 26.367188 140.667969 L 26.367188 102.164062 C 26.367188 91.488281 35.0625 82.734375 45.796875 82.734375 L 134.605469 82.734375 L 134.605469 75.5625 L 45.796875 75.5625 C 31.09375 75.5625 19.191406 87.460938 19.191406 102.164062 L 19.191406 140.667969 L 9.328125 129.933594 L 4.019531 134.773438 L 22.75 155.25 Z M 41.539062 134.773438 "
            fill-opacity="1" fill-rule="nonzero" />
    </g>
    <g clip-path="url(#381dcc42b4)">
        <path fill="#3f37d6"
            d="M 169.910156 92.59375 L 159.171875 82.734375 L 254.050781 82.734375 C 264.726562 82.734375 273.421875 91.429688 273.421875 102.164062 L 273.421875 149.941406 L 280.597656 149.941406 L 280.597656 102.164062 C 280.597656 87.519531 268.695312 75.5625 253.992188 75.5625 L 159.171875 75.5625 L 169.910156 65.703125 L 165.066406 60.390625 L 144.585938 79.121094 L 165.066406 97.90625 Z M 169.910156 92.59375 "
            fill-opacity="1" fill-rule="nonzero" />
    </g>
    <g clip-path="url(#4773b490fd)">
        <path fill="#3f37d6"
            d="M 295.769531 180.394531 L 277.039062 159.917969 L 258.308594 180.394531 L 263.617188 185.238281 L 273.480469 174.503906 L 273.480469 197.722656 C 273.480469 208.398438 264.785156 217.148438 254.109375 217.148438 L 165.242188 217.148438 L 165.242188 224.324219 L 254.050781 224.324219 C 268.695312 224.324219 280.65625 212.421875 280.65625 197.722656 L 280.65625 174.503906 L 290.519531 185.238281 Z M 295.769531 180.394531 "
            fill-opacity="1" fill-rule="nonzero" />
    </g>
    <g clip-path="url(#9bef2f1da3)">
        <path fill="#3f37d6"
            d="M 129.878906 207.230469 L 140.617188 217.089844 L 45.796875 217.089844 C 35.121094 217.089844 26.367188 208.398438 26.367188 197.664062 L 26.367188 165.226562 L 19.191406 165.226562 L 19.191406 197.664062 C 19.191406 212.308594 31.09375 224.265625 45.796875 224.265625 L 140.675781 224.265625 L 129.9375 234.125 L 134.78125 239.433594 L 155.261719 220.707031 L 134.722656 201.921875 Z M 129.878906 207.230469 "
            fill-opacity="1" fill-rule="nonzero" />
    </g>
</svg>